<?xml version="1.0" encoding="UTF-8"?>
<svg id="Capa_1" data-name="Capa 1" xmlns="http://www.w3.org/2000/svg" viewBox="0 0 1532 318">
  <defs>
    <style>
      .cls-1 {
        fill: #fcf7f8;
      }

      .cls-2 {
        fill: #284fff;
      }
    </style>
  </defs>
  <rect class="cls-1" width="1532" height="318"/>
  <g>
    <path class="cls-2" d="m96.37,108.94c.66,1.2,1.53,2.21,2.6,3.05,1.08.84,2.06,1.45,2.96,1.84.9.39,1.67.88,2.33,1.48.66.6.99,1.26.99,1.97,0,1.38-.78,2.06-2.33,2.06h-15.97c-.3,0-.57-.03-.81-.09-.24-.06-.48-.18-.72-.36-.24-.18-.42-.31-.54-.4-.12-.09-.28-.3-.49-.63-.21-.33-.33-.52-.36-.58-.03-.06-.17-.31-.4-.76-.24-.45-.36-.7-.36-.76l-10.23-20.1-2.42.54-4.13.9v10.59c0,1.97.84,3.83,2.51,5.56,1.67,1.74,2.51,3.08,2.51,4.04,0,1.38-.9,2.06-2.69,2.06h-18.49c-1.79,0-2.69-.69-2.69-2.06,0-.96.84-2.3,2.51-4.04,1.67-1.73,2.51-3.59,2.51-5.56v-38.59c0-1.97-.84-3.83-2.51-5.56-1.68-1.73-2.51-3.08-2.51-4.04,0-1.38.9-2.06,2.69-2.06h24.05c6.94,0,12.65,1.45,17.14,4.35,4.49,2.9,6.73,7.52,6.73,13.86,0,7-3.86,12.24-11.58,15.7l9.69,17.59Zm-28-17.41c9.57-1.79,14.36-7.18,14.36-16.15,0-4.73-.97-7.99-2.92-9.78-1.94-1.79-5.28-2.69-10.01-2.69h-3.32v28.99l1.88-.36Z"/>
    <path class="cls-2" d="m126.7,120.25c-5.86,0-10.75-2-14.67-6.01-3.92-4.01-5.88-9.42-5.88-16.24s2.02-11.92,6.06-15.84c4.04-3.92,9.11-5.88,15.21-5.88,4.79,0,8.62,1,11.49,3.01,2.87,2,4.34,4.8,4.4,8.39.06,3.41-1.6,6.36-4.98,8.84-3.38,2.48-8.66,4.02-15.84,4.62l-3.23.27c.96,6.04,4.22,9.06,9.78,9.06,3.17,0,5.76-.85,7.76-2.56,2-1.71,3.42-3.6,4.26-5.7.48-1.32,1.39-1.82,2.74-1.53,1.35.3,1.96,1.11,1.84,2.42-.18,1.97-.64,3.89-1.39,5.74-.75,1.85-1.83,3.68-3.23,5.47-1.41,1.79-3.35,3.23-5.83,4.31-2.48,1.08-5.31,1.62-8.48,1.62Zm-8.08-23.33l2.06-.18c4.31-.36,7.34-1.58,9.11-3.68,1.76-2.09,2.65-4.37,2.65-6.82,0-1.67-.45-3.04-1.35-4.08-.9-1.05-2.15-1.57-3.77-1.57-2.81,0-5.04,1.54-6.69,4.62-1.65,3.08-2.32,6.99-2.02,11.71Z"/>
    <path class="cls-2" d="m195.35,110.74c.12,1.32.87,2.63,2.24,3.95,1.38,1.32,2.06,2.33,2.06,3.05,0,1.08-.57,1.62-1.71,1.62h-17.59c-.9,0-1.35-.54-1.35-1.62,0-.66.55-1.57,1.66-2.74,1.11-1.17,1.63-2.35,1.57-3.54l-.9-15.26c-.18-2.75-.51-5.01-.99-6.78-.48-1.76-1.11-3.02-1.88-3.77-.78-.75-1.48-1.24-2.11-1.48-.63-.24-1.36-.36-2.2-.36-2.27,0-4.08.93-5.43,2.78-1.35,1.85-2.02,3.89-2.02,6.1v17.23c0,1.62.57,3.14,1.71,4.58,1.14,1.44,1.71,2.51,1.71,3.23,0,1.08-.6,1.62-1.79,1.62h-16.6c-1.56,0-2.33-.54-2.33-1.62,0-.72.73-1.79,2.2-3.23,1.47-1.44,2.2-2.96,2.2-4.58v-21.09c0-1.02-.22-1.9-.67-2.65-.45-.75-.94-1.32-1.48-1.71-.54-.39-1.03-.84-1.48-1.35-.45-.51-.67-1.03-.67-1.57s.18-.97.54-1.3c.36-.33,1.14-.64,2.33-.94l11.76-2.87c1.73-.42,2.6.15,2.6,1.71v3.5c0,.96.33,1.44.99,1.44.42,0,.97-.36,1.66-1.08.69-.72,1.44-1.49,2.24-2.33.81-.84,2.02-1.62,3.63-2.33,1.62-.72,3.41-1.08,5.38-1.08,1.49,0,2.89.22,4.17.67,1.29.45,2.62,1.26,3.99,2.42,1.38,1.17,2.53,2.99,3.46,5.47.93,2.48,1.54,5.52,1.84,9.11l1.26,16.78Z"/>
    <path class="cls-2" d="m221.64,120.25c-4.73,0-8.47-1.23-11.22-3.68-2.75-2.45-4.13-6.01-4.13-10.68v-22.88h-3.86c-.6,0-1.09-.15-1.48-.45-.39-.3-.63-.66-.72-1.08-.09-.42-.11-.85-.04-1.3.06-.45.25-.84.58-1.17s.7-.52,1.12-.58c3.05-.3,5.05-.94,6.01-1.93.96-.99,2.3-3.63,4.04-7.94.42-1.08,1.2-1.82,2.33-2.24,1.14-.42,2.2-.39,3.19.09.99.48,1.48,1.32,1.48,2.51v8.26h12.74c1.56,0,2.33.96,2.33,2.87,0,.78-.21,1.47-.63,2.06-.42.6-.99.9-1.71.9h-12.47v24.41c0,4.49,1.58,6.73,4.76,6.73,3.89,0,5.38-3.11,4.49-9.33-.24-1.85.45-3.02,2.06-3.5,1.62-.48,2.72.09,3.32,1.71,1.79,4.85,1.65,8.93-.45,12.25-2.09,3.32-6.01,4.98-11.76,4.98Z"/>
    <path class="cls-2" d="m261.94,120.25c-6.04,0-11.2-1.49-15.48-4.49-4.28-2.99-6.6-7.75-6.95-14.27-.12-2.33.87-4.04,2.96-5.12,2.09-1.08,4.17-1.15,6.24-.22,2.06.93,3.04,2.62,2.92,5.07-.24,3.65.66,6.61,2.69,8.88,2.03,2.27,4.7,3.47,7.99,3.59,2.93.12,5.38-.63,7.36-2.24,1.97-1.62,2.93-3.86,2.87-6.73-.06-2.51-1.18-4.55-3.37-6.1-2.18-1.55-4.83-2.83-7.94-3.81-3.11-.99-6.22-2.11-9.33-3.37-3.11-1.26-5.76-3.26-7.94-6.01-2.18-2.75-3.28-6.22-3.28-10.41,0-5.74,1.96-10.26,5.88-13.55,3.92-3.29,9.38-4.94,16.38-4.94,5.8,0,10.66,1.24,14.58,3.72,3.92,2.48,6.15,6.09,6.69,10.81.36,3.05-.84,5.15-3.59,6.28-2.45,1.02-4.61.9-6.46-.36-1.14-.84-1.77-1.91-1.88-3.23-.3-4.19-1.2-7.18-2.69-8.97-1.5-1.79-3.86-2.69-7.09-2.69-2.87,0-5.03.84-6.46,2.51-1.44,1.68-2.15,3.77-2.15,6.28,0,1.92.58,3.52,1.75,4.8,1.17,1.29,2.69,2.32,4.58,3.1,1.88.78,3.96,1.5,6.24,2.15,2.27.66,4.56,1.44,6.87,2.33,2.3.9,4.41,2.01,6.33,3.32,1.91,1.32,3.48,3.16,4.71,5.52,1.23,2.36,1.87,5.19,1.93,8.48.12,6.16-2.03,10.98-6.46,14.45-4.43,3.47-10.38,5.21-17.86,5.21Z"/>
    <path class="cls-2" d="m307.79,120.25c-4.61,0-8.29-1.18-11.04-3.54-2.75-2.36-4.13-5.64-4.13-9.83s1.64-7.54,4.94-9.69c3.29-2.15,7.24-3.23,11.85-3.23,2.57,0,4.99.51,7.27,1.53.42.18.75.27.99.27.48,0,.69-.42.63-1.26l-.27-3.05c-.24-2.57-.88-4.59-1.93-6.06-1.05-1.47-2.98-2.2-5.79-2.2-4.19,0-7.36,2.15-9.51,6.46-.54,1.08-1.44,1.62-2.69,1.62-.9,0-1.68-.3-2.33-.9-.66-.6-.99-1.38-.99-2.33,0-2.81,1.9-5.47,5.7-7.99,3.8-2.51,7.7-3.77,11.71-3.77,11.96,0,18.34,5.53,19.11,16.6l1.35,18.58c.06,1.38.33,2.26.81,2.65.48.39,1.35.58,2.6.58,1.73,0,2.6.72,2.6,2.15,0,2.27-2.21,3.41-6.64,3.41-5.98,0-9.93-2-11.85-6.01-2.33,4.01-6.46,6.01-12.38,6.01Zm5.65-5.92c1.67,0,3.05-.6,4.13-1.79,1.08-1.2,1.62-2.96,1.62-5.29,0-3.05-.61-5.28-1.84-6.69-1.23-1.41-2.83-2.11-4.8-2.11-1.74,0-3.25.54-4.53,1.62-1.29,1.08-1.93,2.78-1.93,5.12,0,6.1,2.45,9.15,7.36,9.15Z"/>
    <path class="cls-2" d="m371.24,77.17c1.67,0,2.51.96,2.51,2.87s-.9,2.96-2.69,2.96h-10.95v26.92c0,1.26.54,2.3,1.62,3.14,1.08.84,2.15,1.6,3.23,2.29,1.08.69,1.62,1.42,1.62,2.2,0,1.2-.9,1.79-2.69,1.79h-18.67c-1.56,0-2.33-.54-2.33-1.62,0-.72.73-1.79,2.2-3.23,1.47-1.44,2.2-2.96,2.2-4.58v-26.92h-6.82c-1.79,0-2.69-.99-2.69-2.96s.84-2.87,2.51-2.87h7.09c-2.21-3.53-3.32-7-3.32-10.41,0-4.25,1.48-7.31,4.44-9.2,2.96-1.88,6.6-2.83,10.9-2.83s8.11.93,11.04,2.78c2.93,1.85,4.4,4.49,4.4,7.9,0,1.97-.52,3.53-1.57,4.67-1.05,1.14-2.47,1.71-4.26,1.71s-3.16-.51-4.26-1.53c-1.11-1.02-1.66-2.3-1.66-3.86,0-.42.04-1.09.13-2.02.09-.93.13-1.63.13-2.11,0-2.57-1.17-3.86-3.5-3.86-1.44,0-2.66.66-3.68,1.97-1.02,1.32-1.53,2.99-1.53,5.03,0,3.59,1.53,7.51,4.58,11.76h12.03Z"/>
    <path class="cls-2" d="m395.29,120.25c-5.86,0-10.75-2-14.67-6.01-3.92-4.01-5.88-9.42-5.88-16.24s2.02-11.92,6.06-15.84c4.04-3.92,9.11-5.88,15.21-5.88,4.79,0,8.62,1,11.49,3.01,2.87,2,4.34,4.8,4.4,8.39.06,3.41-1.6,6.36-4.98,8.84-3.38,2.48-8.66,4.02-15.84,4.62l-3.23.27c.96,6.04,4.22,9.06,9.78,9.06,3.17,0,5.76-.85,7.76-2.56,2-1.71,3.42-3.6,4.26-5.7.48-1.32,1.39-1.82,2.74-1.53,1.35.3,1.96,1.11,1.84,2.42-.18,1.97-.64,3.89-1.39,5.74-.75,1.85-1.83,3.68-3.23,5.47-1.41,1.79-3.35,3.23-5.83,4.31-2.48,1.08-5.31,1.62-8.48,1.62Zm-8.08-23.33l2.06-.18c4.31-.36,7.34-1.58,9.11-3.68,1.76-2.09,2.65-4.37,2.65-6.82,0-1.67-.45-3.04-1.35-4.08-.9-1.05-2.15-1.57-3.77-1.57-2.81,0-5.04,1.54-6.69,4.62-1.65,3.08-2.32,6.99-2.02,11.71Z"/>
    <path class="cls-2" d="m462.96,70.89c.18,1.2-.35,2.03-1.57,2.51-1.23.48-2.23.18-3.01-.9l-3.32-4.4c-2.51-3.47-5.71-5.21-9.6-5.21h-1.17v44.78c0,1.97.84,3.83,2.51,5.56,1.67,1.74,2.51,3.08,2.51,4.04,0,1.38-.9,2.06-2.69,2.06h-18.49c-1.79,0-2.69-.69-2.69-2.06,0-.96.84-2.3,2.51-4.04,1.67-1.73,2.51-3.59,2.51-5.56v-44.78h-1.17c-3.89,0-7.09,1.74-9.6,5.21l-3.32,4.4c-.78,1.08-1.78,1.38-3.01.9-1.23-.48-1.75-1.31-1.57-2.51l1.62-12.03c.06-.6.25-.99.58-1.17.33-.18,1.03-.27,2.11-.27h42.54c1.08,0,1.78.09,2.11.27.33.18.52.57.58,1.17l1.62,12.03Z"/>
    <path class="cls-2" d="m497.06,120.25c-8.79,0-16-3.01-21.63-9.02-5.62-6.01-8.44-13.95-8.44-23.83,0-8.97,2.84-16.36,8.53-22.17,5.68-5.8,12.86-8.71,21.54-8.71s15.91,3.01,21.54,9.02c5.62,6.01,8.44,13.93,8.44,23.74,0,9.03-2.83,16.45-8.48,22.26-5.65,5.8-12.82,8.71-21.49,8.71Zm2.6-6.1c7.54,0,11.31-7.15,11.31-21.45,0-3.77-.31-7.37-.94-10.81-.63-3.44-1.56-6.63-2.78-9.56-1.23-2.93-2.92-5.28-5.07-7.04-2.15-1.76-4.61-2.65-7.36-2.65-3.77,0-6.66,1.83-8.66,5.47-2,3.65-3.01,9-3.01,16.06,0,5.21.52,9.98,1.57,14.31,1.05,4.34,2.86,8.03,5.43,11.08,2.57,3.05,5.74,4.58,9.51,4.58Z"/>
    <path class="cls-2" d="m96.37,216.63c.66,1.2,1.53,2.21,2.6,3.05,1.08.84,2.06,1.45,2.96,1.84.9.39,1.67.88,2.33,1.48.66.6.99,1.26.99,1.97,0,1.38-.78,2.06-2.33,2.06h-15.97c-.3,0-.57-.03-.81-.09-.24-.06-.48-.18-.72-.36-.24-.18-.42-.31-.54-.4-.12-.09-.28-.3-.49-.63-.21-.33-.33-.52-.36-.58-.03-.06-.17-.31-.4-.76-.24-.45-.36-.7-.36-.76l-10.23-20.1-2.42.54-4.13.9v10.59c0,1.97.84,3.83,2.51,5.56,1.67,1.74,2.51,3.08,2.51,4.04,0,1.38-.9,2.06-2.69,2.06h-18.49c-1.79,0-2.69-.69-2.69-2.06,0-.96.84-2.3,2.51-4.04,1.67-1.73,2.51-3.59,2.51-5.56v-38.59c0-1.97-.84-3.83-2.51-5.56-1.68-1.73-2.51-3.08-2.51-4.04,0-1.38.9-2.06,2.69-2.06h24.05c6.94,0,12.65,1.45,17.14,4.35,4.49,2.9,6.73,7.52,6.73,13.86,0,7-3.86,12.24-11.58,15.7l9.69,17.59Zm-28-17.41c9.57-1.79,14.36-7.18,14.36-16.15,0-4.73-.97-7.99-2.92-9.78-1.94-1.79-5.28-2.69-10.01-2.69h-3.32v28.99l1.88-.36Z"/>
    <path class="cls-2" d="m126.7,227.94c-5.86,0-10.75-2-14.67-6.01-3.92-4.01-5.88-9.42-5.88-16.24s2.02-11.92,6.06-15.84c4.04-3.92,9.11-5.88,15.21-5.88,4.79,0,8.62,1,11.49,3.01,2.87,2,4.34,4.8,4.4,8.39.06,3.41-1.6,6.36-4.98,8.84-3.38,2.48-8.66,4.02-15.84,4.62l-3.23.27c.96,6.04,4.22,9.06,9.78,9.06,3.17,0,5.76-.85,7.76-2.56,2-1.71,3.42-3.6,4.26-5.7.48-1.32,1.39-1.82,2.74-1.53,1.35.3,1.96,1.11,1.84,2.42-.18,1.97-.64,3.89-1.39,5.74-.75,1.85-1.83,3.68-3.23,5.47-1.41,1.79-3.35,3.23-5.83,4.31-2.48,1.08-5.31,1.62-8.48,1.62Zm-8.08-23.33l2.06-.18c4.31-.36,7.34-1.58,9.11-3.68,1.76-2.09,2.65-4.37,2.65-6.82,0-1.67-.45-3.04-1.35-4.08-.9-1.05-2.15-1.57-3.77-1.57-2.81,0-5.04,1.54-6.69,4.62-1.65,3.08-2.32,6.99-2.02,11.71Z"/>
    <path class="cls-2" d="m193.82,215.38c0,1.02.22,1.9.67,2.65.45.75.96,1.32,1.53,1.71.57.39,1.08.84,1.53,1.35.45.51.67,1.03.67,1.57s-.18.96-.54,1.26c-.36.3-1.14.6-2.33.9l-11.85,2.96c-.96.24-1.66.22-2.11-.04-.45-.27-.61-.82-.49-1.66.18-.96.18-1.85,0-2.69-2.57,3.05-6.28,4.58-11.13,4.58-2.33,0-4.56-.37-6.69-1.12-2.12-.75-4.17-1.91-6.15-3.5-1.97-1.58-3.54-3.84-4.71-6.78-1.17-2.93-1.75-6.34-1.75-10.23s.6-7.24,1.79-10.23c1.2-2.99,2.75-5.32,4.67-7,1.91-1.67,3.95-2.95,6.1-3.81,2.15-.87,4.31-1.3,6.46-1.3s4.05.48,5.7,1.44c1.64.96,2.89,1.92,3.72,2.87.84.96,1.35,1.44,1.53,1.44.3,0,.45-.18.45-.54v-14.18c0-1.02-.22-1.9-.67-2.65-.45-.75-.94-1.32-1.48-1.71-.54-.39-1.03-.84-1.48-1.35-.45-.51-.67-1.03-.67-1.57s.18-.97.54-1.3c.36-.33,1.14-.64,2.33-.94l11.76-2.87c1.73-.42,2.6.15,2.6,1.71v51.06Zm-20.01,6.37c4.73,0,7.09-4.46,7.09-13.37,0-5.15-.75-9.42-2.24-12.83-1.5-3.41-3.98-5.12-7.45-5.12-2.09,0-3.8,1.2-5.12,3.59-1.32,2.39-1.97,5.95-1.97,10.68,0,2.93.3,5.62.9,8.08.6,2.45,1.66,4.56,3.19,6.33,1.53,1.77,3.39,2.65,5.61,2.65Z"/>
    <path class="cls-2" d="m222.27,227.94c-5.86,0-10.75-2-14.67-6.01-3.92-4.01-5.88-9.42-5.88-16.24s2.02-11.92,6.06-15.84c4.04-3.92,9.11-5.88,15.21-5.88,4.79,0,8.62,1,11.49,3.01,2.87,2,4.34,4.8,4.4,8.39.06,3.41-1.6,6.36-4.98,8.84-3.38,2.48-8.66,4.02-15.84,4.62l-3.23.27c.96,6.04,4.22,9.06,9.78,9.06,3.17,0,5.76-.85,7.76-2.56,2-1.71,3.42-3.6,4.26-5.7.48-1.32,1.39-1.82,2.74-1.53,1.35.3,1.96,1.11,1.84,2.42-.18,1.97-.64,3.89-1.39,5.74-.75,1.85-1.83,3.68-3.23,5.47-1.41,1.79-3.35,3.23-5.83,4.31-2.48,1.08-5.31,1.62-8.48,1.62Zm-8.08-23.33l2.06-.18c4.31-.36,7.34-1.58,9.11-3.68,1.76-2.09,2.65-4.37,2.65-6.82,0-1.67-.45-3.04-1.35-4.08-.9-1.05-2.15-1.57-3.77-1.57-2.81,0-5.04,1.54-6.69,4.62-1.65,3.08-2.32,6.99-2.02,11.71Z"/>
    <path class="cls-2" d="m262.65,227.94c-4.43,0-8.09-.81-10.99-2.42-2.9-1.62-4.53-3.56-4.89-5.83-.48-3.17.48-5.26,2.87-6.28,1.85-.84,3.5-.66,4.94.54.66.6,1.05,1.38,1.17,2.33.18,1.97.82,3.62,1.93,4.94,1.11,1.32,2.68,1.97,4.71,1.97,4.25,0,6.37-1.88,6.37-5.65,0-1.73-.75-3.14-2.24-4.22-1.5-1.08-3.32-1.94-5.47-2.6-2.15-.66-4.31-1.42-6.46-2.29-2.15-.87-3.98-2.27-5.47-4.22-1.5-1.94-2.24-4.41-2.24-7.4,0-4.01,1.57-7.15,4.71-9.42,3.14-2.27,7.4-3.41,12.79-3.41,4.43,0,7.97.73,10.63,2.2,2.66,1.47,4.2,3.63,4.62,6.51.42,2.93-.6,4.85-3.05,5.74-1.97.78-3.62.6-4.94-.54-.54-.48-.84-1.08-.9-1.79-.18-2.63-.72-4.56-1.62-5.79-.9-1.23-2.39-1.84-4.49-1.84-1.62,0-2.92.52-3.9,1.57-.99,1.05-1.48,2.29-1.48,3.72,0,1.74.75,3.17,2.24,4.31,1.49,1.14,3.31,2.05,5.43,2.74,2.12.69,4.25,1.45,6.37,2.29,2.12.84,3.93,2.18,5.43,4.04,1.49,1.85,2.24,4.22,2.24,7.09,0,4.49-1.62,7.9-4.85,10.23-3.23,2.33-7.72,3.5-13.46,3.5Z"/>
    <path class="cls-2" d="m302.86,217.62c0,1.62.73,3.14,2.2,4.58,1.47,1.44,2.2,2.51,2.2,3.23,0,1.08-.78,1.62-2.33,1.62h-17.05c-1.56,0-2.33-.54-2.33-1.62,0-.72.73-1.79,2.2-3.23,1.47-1.44,2.2-2.96,2.2-4.58v-21.09c0-1.02-.22-1.9-.67-2.65-.45-.75-.94-1.32-1.48-1.71-.54-.39-1.03-.84-1.48-1.35-.45-.51-.67-1.03-.67-1.57s.18-.97.54-1.3c.36-.33,1.14-.64,2.33-.94l11.76-2.87c1.73-.42,2.6.15,2.6,1.71v31.77Zm-8.26-39.76c-2.39,0-4.34-.76-5.83-2.29-1.5-1.53-2.09-3.37-1.79-5.52.24-2.09,1.27-3.92,3.1-5.47,1.82-1.56,3.9-2.33,6.24-2.33,2.15,0,3.96.78,5.43,2.33,1.47,1.56,2.08,3.38,1.84,5.47-.24,2.1-1.26,3.92-3.05,5.47-1.79,1.56-3.77,2.33-5.92,2.33Z"/>
    <path class="cls-2" d="m337.94,223.9c11.07.72,16.6,4.82,16.6,12.29,0,4.61-2,7.82-6.01,9.65-4.01,1.82-9.45,2.74-16.33,2.74-7.48,0-12.77-.76-15.88-2.29-3.11-1.53-4.67-3.69-4.67-6.51,0-2.21.88-3.81,2.65-4.8,1.76-.99,3.53-1.12,5.29-.4,1.76.72,2.65,2,2.65,3.86s.78,3.13,2.33,3.99c1.56.87,4.1,1.3,7.63,1.3,7.24,0,10.86-1.68,10.86-5.03,0-1.38-.54-2.48-1.62-3.32-1.08-.84-2.51-1.32-4.31-1.44l-13.1-.99c-2.99-.24-5.27-1.03-6.82-2.38-1.56-1.35-2.33-3.1-2.33-5.25,0-3.41,2.81-6.19,8.44-8.35-3.29-1.26-5.89-3.26-7.81-6.01-1.92-2.75-2.87-5.98-2.87-9.69,0-5.14,1.73-9.32,5.21-12.52,3.47-3.2,8.05-4.8,13.73-4.8,3.89,0,7.33.87,10.32,2.6,1.26-.36,2.05-1.35,2.38-2.96.33-1.62.43-3.26.31-4.94-.12-1.67.24-3.2,1.08-4.58.84-1.38,2.3-2.06,4.4-2.06,2.87,0,4.61,1.35,5.2,4.04.54,2.87-.36,5.68-2.69,8.44-1.97,2.27-4.46,3.77-7.45,4.49,3.47,3.29,5.21,7.39,5.21,12.29,0,5.15-1.69,9.29-5.07,12.43-3.38,3.14-8,4.71-13.87,4.71-.84,0-1.92-.06-3.23-.18-1.74,1.02-2.69,2.09-2.87,3.23-.12,1.02.84,1.62,2.87,1.79l9.78.63Zm-8.26-35.81c-3.65,0-5.24,3.47-4.76,10.41.3,4.07,1.14,7.61,2.51,10.63,1.38,3.02,3.26,4.53,5.65,4.53,3.65,0,5.23-3.47,4.76-10.41-.18-2.51-.55-4.86-1.12-7.04-.57-2.18-1.47-4.08-2.69-5.7-1.23-1.62-2.68-2.42-4.35-2.42Z"/>
    <path class="cls-2" d="m404.26,218.43c.12,1.32.87,2.63,2.24,3.95,1.38,1.32,2.06,2.33,2.06,3.05,0,1.08-.57,1.62-1.71,1.62h-17.59c-.9,0-1.35-.54-1.35-1.62,0-.66.55-1.57,1.66-2.74,1.11-1.17,1.63-2.35,1.57-3.54l-.9-15.26c-.18-2.75-.51-5.01-.99-6.78-.48-1.76-1.11-3.02-1.88-3.77-.78-.75-1.48-1.24-2.11-1.48-.63-.24-1.36-.36-2.2-.36-2.27,0-4.08.93-5.43,2.78-1.35,1.85-2.02,3.89-2.02,6.1v17.23c0,1.62.57,3.14,1.71,4.58,1.14,1.44,1.71,2.51,1.71,3.23,0,1.08-.6,1.62-1.79,1.62h-16.6c-1.56,0-2.33-.54-2.33-1.62,0-.72.73-1.79,2.2-3.23,1.47-1.44,2.2-2.96,2.2-4.58v-21.09c0-1.02-.22-1.9-.67-2.65-.45-.75-.94-1.32-1.48-1.71-.54-.39-1.03-.84-1.48-1.35-.45-.51-.67-1.03-.67-1.57s.18-.97.54-1.3c.36-.33,1.14-.64,2.33-.94l11.76-2.87c1.73-.42,2.6.15,2.6,1.71v3.5c0,.96.33,1.44.99,1.44.42,0,.97-.36,1.66-1.08.69-.72,1.44-1.49,2.24-2.33.81-.84,2.02-1.62,3.63-2.33,1.62-.72,3.41-1.08,5.38-1.08,1.49,0,2.89.22,4.17.67,1.29.45,2.62,1.26,3.99,2.42,1.38,1.17,2.53,2.99,3.46,5.47.93,2.48,1.54,5.52,1.84,9.11l1.26,16.78Z"/>
  </g>
  <g>
    <path d="m46.15,252.82h13.02v2.15h-10.54v5.92h9.47v2.15h-9.47v6.59h10.81v2.15h-13.29v-18.97Z"/>
    <path d="m62.33,265.63h2.42c.03,2.93,2.1,4.68,5.65,4.68,3.09,0,4.9-1.35,4.9-3.47,0-2.61-2.64-3.04-5.49-3.5-3.42-.54-7.18-1.43-7.18-5.54,0-3.42,2.61-5.65,7.18-5.65s7.48,2.42,7.51,6.43h-2.37c0-2.69-1.88-4.28-5.14-4.28-3.07,0-4.73,1.32-4.73,3.36,0,2.5,2.53,2.96,5.33,3.39,3.44.56,7.34,1.32,7.34,5.62,0,3.55-2.72,5.78-7.37,5.78-4.98,0-8.04-2.61-8.04-6.83Z"/>
    <path d="m81.83,252.82h7.56c4.14,0,6.83,2.18,6.81,5.81,0,3.58-2.77,5.81-6.81,5.81h-5.17v7.34h-2.39v-18.97Zm7.56,9.44c2.74,0,4.39-1.43,4.39-3.63s-1.64-3.66-4.39-3.66h-5.17v7.29h5.17Z"/>
    <path d="m106.62,252.82h2.45v18.97h-2.45v-18.97Z"/>
    <path d="m114.18,252.82h2.45v18.97h-2.45v-18.97Z"/>
    <path d="m128.46,252.82h7.56c4.14,0,6.83,2.18,6.81,5.81,0,3.58-2.77,5.81-6.81,5.81h-5.17v7.34h-2.39v-18.97Zm7.56,9.44c2.74,0,4.39-1.43,4.39-3.63s-1.64-3.66-4.39-3.66h-5.17v7.29h5.17Z"/>
    <path d="m146.04,258.2h2.18v1.83h.24c.62-1.24,2.12-2.1,3.63-2.1.62,0,1.26.13,1.67.35v2.07c-.7-.3-1.51-.4-2.02-.4-2.04,0-3.47,1.83-3.47,4.52v7.32h-2.23v-13.58Z"/>
    <path d="m155.37,264.98c0-4.28,3.01-7.32,7.29-7.32s7.29,3.04,7.29,7.32-3.04,7.34-7.29,7.34-7.29-3.04-7.29-7.34Zm12.35,0c0-3.07-2.13-5.3-5.06-5.3s-5.06,2.23-5.06,5.3,2.1,5.33,5.06,5.33,5.06-2.23,5.06-5.33Z"/>
    <path d="m169.85,277.49v-1.91c.51.16,1.21.24,1.75.24,1.24,0,2.04-.89,2.04-2.15v-15.47h2.23v15.47c0,2.42-1.53,4.17-3.66,4.17-.83,0-1.75-.13-2.37-.35Zm3.28-23.48c0-.91.67-1.56,1.61-1.56s1.61.65,1.61,1.56-.67,1.61-1.61,1.61-1.61-.67-1.61-1.61Z"/>
    <path d="m179.78,264.82c0-4.14,3.01-7.16,7.21-7.16s7.13,3.01,7.13,7.18c0,.27,0,.59-.03.89h-12.02c.32,2.74,2.31,4.57,5.08,4.57,2.02,0,3.79-1.02,4.65-2.64l1.86.94c-1.1,2.31-3.55,3.71-6.56,3.71-4.25,0-7.32-3.15-7.32-7.51Zm12-1.05c-.4-2.45-2.31-4.09-4.9-4.09s-4.41,1.64-4.79,4.09h9.68Z"/>
    <path d="m196.87,264.98c0-4.25,2.96-7.32,7.07-7.32,3.34,0,6.11,2.1,6.62,5l-2.18.3c-.48-1.96-2.34-3.28-4.41-3.28-2.77,0-4.9,2.18-4.87,5.3,0,3.15,2.07,5.33,4.84,5.33,2.13,0,3.93-1.32,4.47-3.23l2.21.3c-.62,2.88-3.42,4.95-6.67,4.95-4.12,0-7.1-3.09-7.07-7.34Z"/>
    <path d="m214.68,268.29v-8.31h-2.21v-1.78h2.21l.51-4.39h1.75l-.03,4.39h3.5v1.78h-3.5v8.23c0,1.29.81,2.21,2.1,2.21.4,0,1.1-.11,1.61-.27v1.8c-.65.21-1.53.35-2.21.35-2.29,0-3.74-1.61-3.74-4.01Z"/>
  </g>
  <g>
    <path d="m1270.44,54.6h-6.11v-3.71h16.68v3.71h-6.11v15.44h-4.47v-15.44Z"/>
    <path d="m1279.8,63.05c0-4.3,3.15-7.21,7.59-7.21s7.4,2.93,7.4,7.26c0,.35,0,.92-.05,1.21h-10.81c.32,1.94,1.69,3.2,3.66,3.2,1.53,0,2.72-.75,3.31-1.88l3.39.86c-.86,2.47-3.52,3.98-6.86,3.98-4.46,0-7.61-2.99-7.61-7.42Zm10.92-1.21c-.24-1.75-1.59-3.04-3.44-3.04s-3.07,1.21-3.39,3.04h6.83Z"/>
    <path d="m1296.35,66.44c0-2.58,2.18-4.17,6.51-4.71l2.93-.35v-.56c0-1.32-.92-2.21-2.5-2.21-1.45,0-2.45.81-2.42,2.18h-3.9c0-3.01,2.5-4.95,6.38-4.95s6.43,1.99,6.43,5.11v9.09h-3.98v-1.75h-.27c-.86,1.37-2.45,2.1-4.41,2.1-2.82,0-4.76-1.48-4.76-3.95Zm9.44-1.67v-.97l-2.83.35c-1.96.24-2.72,1.02-2.72,1.96,0,1.02.81,1.67,2.18,1.67,1.99,0,3.36-1.29,3.36-3.01Z"/>
    <path d="m1312.6,56.27h3.96v2.04h.27c.78-1.48,2.23-2.48,3.98-2.48s3.5,1.05,4.22,2.61h.27c.83-1.59,2.37-2.58,4.33-2.58,3.04,0,5.22,2.31,5.22,5.65v8.53h-3.98v-7.85c0-1.67-1.05-2.91-2.58-2.93-1.56,0-2.64,1.21-2.64,2.93v7.85h-4.01v-7.85c0-1.78-.97-2.93-2.47-2.93s-2.58,1.16-2.58,2.93v7.85h-3.98v-13.77Z"/>
    <path d="m1344.73,50.89h6.19l5.03,13.61h.27l5-13.61h6.24v19.15h-4.36v-13.18h-.27l-4.92,13.18h-3.63l-4.92-13.18h-.27v13.18h-4.36v-19.15Z"/>
    <path d="m1370.35,63.05c0-4.3,3.15-7.21,7.59-7.21s7.4,2.93,7.4,7.26c0,.35,0,.92-.05,1.21h-10.81c.32,1.94,1.69,3.2,3.66,3.2,1.53,0,2.72-.75,3.31-1.88l3.39.86c-.86,2.47-3.53,3.98-6.86,3.98-4.47,0-7.61-2.99-7.61-7.42Zm10.92-1.21c-.24-1.75-1.59-3.04-3.44-3.04s-3.07,1.21-3.39,3.04h6.83Z"/>
    <path d="m1387.76,56.27h3.96v2.04h.27c.78-1.48,2.23-2.48,3.98-2.48s3.5,1.05,4.22,2.61h.27c.83-1.59,2.37-2.58,4.33-2.58,3.04,0,5.22,2.31,5.22,5.65v8.53h-3.98v-7.85c0-1.67-1.05-2.91-2.58-2.93-1.56,0-2.64,1.21-2.64,2.93v7.85h-4.01v-7.85c0-1.78-.97-2.93-2.47-2.93s-2.58,1.16-2.58,2.93v7.85h-3.98v-13.77Z"/>
    <path d="m1417.08,68.29h-.27v1.75h-3.98v-19.96h3.98v7.91h.27c.97-1.37,2.48-2.15,4.36-2.15,3.77,0,6.51,2.96,6.51,7.32s-2.72,7.32-6.51,7.32c-1.96,0-3.39-.78-4.36-2.18Zm6.86-5.14c0-2.21-1.51-3.9-3.63-3.9s-3.66,1.69-3.66,3.9,1.53,3.93,3.66,3.93,3.63-1.69,3.63-3.93Z"/>
    <path d="m1429.89,63.05c0-4.3,3.15-7.21,7.59-7.21s7.4,2.93,7.4,7.26c0,.35,0,.92-.05,1.21h-10.81c.32,1.94,1.7,3.2,3.66,3.2,1.53,0,2.72-.75,3.31-1.88l3.39.86c-.86,2.47-3.52,3.98-6.86,3.98-4.47,0-7.61-2.99-7.61-7.42Zm10.92-1.21c-.24-1.75-1.59-3.04-3.44-3.04s-3.07,1.21-3.39,3.04h6.83Z"/>
    <path d="m1447.33,56.27h3.93v1.88h.3c.59-1.29,1.94-2.15,3.39-2.15.56,0,1.13.13,1.56.35v3.58c-.78-.35-1.7-.51-2.26-.51-1.75,0-2.93,1.45-2.93,3.58v7.05h-3.98v-13.77Z"/>
    <path d="m1458.07,65.44h3.53c0,1.45,1.18,2.45,3.15,2.45,1.51,0,2.5-.65,2.5-1.69,0-1.26-1.43-1.43-3.09-1.59-2.53-.27-5.92-.67-5.92-4.22,0-2.83,2.45-4.6,6.13-4.6s6.35,1.8,6.35,4.65h-3.63c-.03-1.24-1.13-2.02-2.72-2.02-1.45,0-2.45.65-2.45,1.64,0,1.29,1.7,1.37,3.6,1.59,2.53.3,5.62.91,5.62,4.2,0,2.93-2.45,4.68-6.51,4.68s-6.56-1.91-6.56-5.08Z"/>
    <path d="m1473.05,58.77c0-1.29.97-2.23,2.31-2.23s2.31.94,2.31,2.23-.97,2.26-2.31,2.26-2.31-.94-2.31-2.26Zm0,9.33c0-1.32.97-2.26,2.31-2.26s2.31.94,2.31,2.26-.97,2.26-2.31,2.26-2.31-.94-2.31-2.26Z"/>
    <path d="m1003.64,83.37h8.26c4.12,0,6.83,2.26,6.83,5.76,0,3.23-2.53,5.49-6.05,5.65h-.32l6.89,7.56h-3.09l-6.56-7.42h-3.5v7.42h-2.45v-18.96Zm8.26,9.39c2.72,0,4.38-1.4,4.38-3.63s-1.67-3.61-4.38-3.61h-5.81v7.24h5.81Z"/>
    <path d="m1021.51,95.53c0-4.28,3.01-7.32,7.29-7.32s7.29,3.04,7.29,7.32-3.04,7.34-7.29,7.34-7.29-3.04-7.29-7.34Zm12.35,0c0-3.07-2.12-5.3-5.06-5.3s-5.06,2.23-5.06,5.3,2.1,5.33,5.06,5.33,5.06-2.23,5.06-5.33Z"/>
    <path d="m1039.51,88.75h2.15v1.8h.27c.75-1.4,2.18-2.34,3.95-2.34,1.91,0,3.66,1.05,4.44,2.64h.24c.94-1.59,2.5-2.61,4.55-2.61,3.2,0,5.49,2.47,5.49,6v8.1h-2.23v-8.12c0-2.31-1.48-3.98-3.52-3.98-2.18,0-3.71,1.67-3.71,3.98v8.12h-2.23v-8.12c0-2.39-1.4-3.98-3.5-3.98-2.21,0-3.66,1.59-3.66,3.98v8.12h-2.23v-13.58Z"/>
    <path d="m1063.79,95.36c0-4.14,3.01-7.16,7.21-7.16s7.13,3.01,7.13,7.18c0,.27,0,.59-.03.89h-12.02c.32,2.74,2.31,4.57,5.08,4.57,2.02,0,3.79-1.02,4.65-2.64l1.86.94c-1.1,2.31-3.55,3.71-6.56,3.71-4.25,0-7.32-3.15-7.32-7.5Zm12-1.05c-.4-2.45-2.31-4.09-4.9-4.09s-4.41,1.64-4.79,4.09h9.69Z"/>
    <path d="m1081.57,82.56h2.23v19.77h-2.23v-19.77Z"/>
    <path d="m1095.13,83.37h2.45v16.81h9.55v2.15h-12v-18.96Z"/>
    <path d="m1122.12,102.33h-2.23v-1.86h-.27c-.94,1.48-2.47,2.34-4.25,2.34-3.47,0-5.65-2.5-5.65-5.97v-8.1h2.23v8.1c0,2.31,1.34,3.95,3.69,3.95s4.25-1.75,4.25-4.14v-7.91h2.23v13.58Z"/>
    <path d="m1126,84.55c0-.92.67-1.56,1.61-1.56s1.59.65,1.59,1.56-.65,1.61-1.59,1.61-1.61-.67-1.61-1.61Zm.48,4.2h2.23v13.58h-2.23v-13.58Z"/>
    <path d="m1132.48,97.73h2.15c.03,1.94,1.53,3.25,4.09,3.25,2.04,0,3.36-.86,3.36-2.29,0-1.78-1.86-1.91-3.9-2.18-2.53-.3-5.46-.97-5.46-4.06,0-2.64,2.21-4.25,5.46-4.25s5.7,1.8,5.7,4.6h-2.18c-.03-1.67-1.45-2.72-3.55-2.72-1.96,0-3.31.89-3.31,2.29,0,1.69,1.83,1.83,3.85,2.07,2.56.32,5.49.97,5.49,4.22,0,2.66-2.07,4.2-5.54,4.2-3.9,0-6.16-1.91-6.16-5.14Z"/>
    <path d="m1154.95,83.37h12.08v2.15h-9.6v5.92h8.53v2.15h-8.53v8.74h-2.48v-18.96Z"/>
    <path d="m1168.54,98.89c0-2.39,2.04-4.17,6.08-4.63l3.77-.46v-.54c0-1.83-1.32-3.01-3.55-3.01-2.04,0-3.39,1-3.36,2.69h-2.26c0-2.88,2.23-4.71,5.65-4.71s5.76,1.99,5.76,5.08v9.01h-2.23v-1.99h-.24c-.97,1.56-2.55,2.42-4.73,2.42-2.93,0-4.87-1.53-4.87-3.87Zm9.85-1.96v-1.21l-3.77.43c-2.77.35-3.85,1.43-3.85,2.69s1.13,2.07,2.96,2.07c2.77,0,4.65-1.69,4.65-3.98Z"/>
    <path d="m1184.22,84.55c0-.92.67-1.56,1.61-1.56s1.59.65,1.59,1.56-.65,1.61-1.59,1.61-1.61-.67-1.61-1.61Zm.48,4.2h2.23v13.58h-2.23v-13.58Z"/>
    <path d="m1192.51,90.52h-2.18v-1.78h2.18v-2.74c0-2.42,1.48-3.98,3.63-3.98.78,0,1.45.13,2.07.32v1.94c-.46-.13-.94-.24-1.48-.24-1.18,0-1.99.86-1.99,2.18v2.53h3.44v1.78h-3.44v11.81h-2.23v-11.81Z"/>
    <path d="m1199.83,95.36c0-4.14,3.01-7.16,7.21-7.16s7.13,3.01,7.13,7.18c0,.27,0,.59-.03.89h-12.03c.32,2.74,2.31,4.57,5.08,4.57,2.02,0,3.79-1.02,4.65-2.64l1.86.94c-1.1,2.31-3.55,3.71-6.56,3.71-4.25,0-7.32-3.15-7.32-7.5Zm12-1.05c-.4-2.45-2.31-4.09-4.9-4.09s-4.41,1.64-4.79,4.09h9.68Z"/>
    <path d="m1223.67,92.83c0-5.89,4.12-10.14,9.82-10.14,4.28,0,8.04,2.91,8.98,6.89l-2.39.32c-.7-2.93-3.47-5.06-6.59-5.06-4.3,0-7.37,3.36-7.37,7.99s3.09,8.02,7.37,8.02c3.07,0,5.84-2.07,6.62-4.87l2.34.46c-.94,3.79-4.71,6.56-8.96,6.56-5.7,0-9.85-4.28-9.82-10.17Z"/>
    <path d="m1245.95,88.75h2.18v1.83h.24c.62-1.24,2.12-2.1,3.63-2.1.62,0,1.26.13,1.67.35v2.07c-.7-.3-1.51-.4-2.02-.4-2.04,0-3.47,1.83-3.47,4.52v7.32h-2.23v-13.58Z"/>
    <path d="m1268.69,102.33h-2.23v-1.86h-.27c-.94,1.48-2.47,2.34-4.25,2.34-3.47,0-5.65-2.5-5.65-5.97v-8.1h2.23v8.1c0,2.31,1.34,3.95,3.69,3.95s4.25-1.75,4.25-4.14v-7.91h2.23v13.58Z"/>
    <path d="m1271.62,101.36l8.37-10.36v-.24h-8.1v-2.02h11.73v.97l-8.31,10.33v.27h8.58v2.02h-12.27v-.97Z"/>
    <path d="m1292.88,94.85c0-4.87,1.72-9.79,4.28-12.35h2.29c-2.8,2.74-4.57,7.45-4.57,12.35s1.78,9.66,4.57,12.32h-2.29c-2.56-2.56-4.28-7.45-4.28-12.32Z"/>
    <path d="m1307.11,85.52h-6.27v-2.15h15.01v2.15h-6.29v16.81h-2.45v-16.81Z"/>
    <path d="m1315.16,95.36c0-4.14,3.01-7.16,7.21-7.16s7.13,3.01,7.13,7.18c0,.27,0,.59-.03.89h-12.02c.32,2.74,2.31,4.57,5.08,4.57,2.02,0,3.79-1.02,4.65-2.64l1.86.94c-1.1,2.31-3.55,3.71-6.56,3.71-4.25,0-7.32-3.15-7.32-7.5Zm12-1.05c-.4-2.45-2.31-4.09-4.9-4.09s-4.41,1.64-4.79,4.09h9.68Z"/>
    <path d="m1331.87,98.89c0-2.39,2.04-4.17,6.08-4.63l3.77-.46v-.54c0-1.83-1.32-3.01-3.55-3.01-2.04,0-3.39,1-3.36,2.69h-2.26c0-2.88,2.23-4.71,5.65-4.71s5.76,1.99,5.76,5.08v9.01h-2.23v-1.99h-.24c-.97,1.56-2.56,2.42-4.74,2.42-2.93,0-4.87-1.53-4.87-3.87Zm9.85-1.96v-1.21l-3.77.43c-2.77.35-3.85,1.43-3.85,2.69s1.13,2.07,2.96,2.07c2.77,0,4.65-1.69,4.65-3.98Z"/>
    <path d="m1347.82,88.75h2.15v1.8h.27c.75-1.4,2.18-2.34,3.95-2.34,1.91,0,3.66,1.05,4.44,2.64h.24c.94-1.59,2.5-2.61,4.55-2.61,3.2,0,5.49,2.47,5.49,6v8.1h-2.23v-8.12c0-2.31-1.48-3.98-3.52-3.98-2.18,0-3.71,1.67-3.71,3.98v8.12h-2.23v-8.12c0-2.39-1.4-3.98-3.5-3.98-2.21,0-3.66,1.59-3.66,3.98v8.12h-2.23v-13.58Z"/>
    <path d="m1380.01,83.37h2.45v16.81h9.55v2.15h-12v-18.96Z"/>
    <path d="m1394.11,95.36c0-4.14,3.01-7.16,7.21-7.16s7.13,3.01,7.13,7.18c0,.27,0,.59-.03.89h-12.03c.32,2.74,2.31,4.57,5.08,4.57,2.02,0,3.79-1.02,4.65-2.64l1.86.94c-1.1,2.31-3.55,3.71-6.56,3.71-4.25,0-7.32-3.15-7.32-7.5Zm12-1.05c-.4-2.45-2.31-4.09-4.9-4.09s-4.41,1.64-4.79,4.09h9.68Z"/>
    <path d="m1410.82,98.89c0-2.39,2.04-4.17,6.08-4.63l3.77-.46v-.54c0-1.83-1.32-3.01-3.55-3.01-2.04,0-3.39,1-3.36,2.69h-2.26c0-2.88,2.23-4.71,5.65-4.71s5.76,1.99,5.76,5.08v9.01h-2.23v-1.99h-.24c-.97,1.56-2.56,2.42-4.73,2.42-2.93,0-4.87-1.53-4.87-3.87Zm9.85-1.96v-1.21l-3.77.43c-2.77.35-3.85,1.43-3.85,2.69s1.13,2.07,2.96,2.07c2.77,0,4.65-1.69,4.65-3.98Z"/>
    <path d="m1426.07,95.53c0-4.25,3.04-7.32,7.02-7.32,2.18,0,3.98.92,4.98,2.56h.27v-8.21h2.23v19.77h-2.23v-2.1h-.27c-1,1.67-2.74,2.64-4.95,2.64-3.98,0-7.05-3.09-7.05-7.34Zm12.32,0c0-2.99-2.13-5.3-5.03-5.3s-5.06,2.31-5.06,5.3,2.15,5.33,5.06,5.33,5.03-2.34,5.03-5.33Z"/>
    <path d="m1443.99,95.36c0-4.14,3.01-7.16,7.21-7.16s7.13,3.01,7.13,7.18c0,.27,0,.59-.03.89h-12.02c.32,2.74,2.31,4.57,5.08,4.57,2.02,0,3.79-1.02,4.65-2.64l1.86.94c-1.1,2.31-3.55,3.71-6.56,3.71-4.25,0-7.32-3.15-7.32-7.5Zm12-1.05c-.4-2.45-2.31-4.09-4.9-4.09s-4.41,1.64-4.79,4.09h9.69Z"/>
    <path d="m1461.78,88.75h2.18v1.83h.24c.62-1.24,2.12-2.1,3.63-2.1.62,0,1.26.13,1.67.35v2.07c-.7-.3-1.51-.4-2.02-.4-2.04,0-3.47,1.83-3.47,4.52v7.32h-2.23v-13.58Z"/>
    <path d="m1470.63,107.17c2.8-2.66,4.57-7.34,4.57-12.32s-1.78-9.6-4.57-12.35h2.31c2.56,2.56,4.28,7.48,4.28,12.35s-1.72,9.77-4.28,12.32h-2.31Z"/>
    <path d="m999.37,117.81h-6.27v-2.15h15.01v2.15h-6.29v16.81h-2.45v-16.81Z"/>
    <path d="m1007.55,131.18c0-2.39,2.04-4.17,6.08-4.63l3.77-.46v-.54c0-1.83-1.32-3.01-3.55-3.01-2.04,0-3.39,1-3.36,2.69h-2.26c0-2.88,2.23-4.71,5.65-4.71s5.76,1.99,5.76,5.08v9.01h-2.23v-1.99h-.24c-.97,1.56-2.56,2.42-4.73,2.42-2.93,0-4.87-1.53-4.87-3.87Zm9.85-1.96v-1.21l-3.77.43c-2.77.35-3.85,1.43-3.85,2.69s1.13,2.07,2.96,2.07c2.77,0,4.65-1.7,4.65-3.98Z"/>
    <path d="m1023.5,121.04h2.18v1.83h.24c.62-1.24,2.12-2.1,3.63-2.1.62,0,1.27.13,1.67.35v2.07c-.7-.3-1.51-.4-2.02-.4-2.04,0-3.47,1.83-3.47,4.52v7.32h-2.23v-13.58Z"/>
    <path d="m1032.73,131.18c0-2.39,2.04-4.17,6.08-4.63l3.77-.46v-.54c0-1.83-1.32-3.01-3.55-3.01-2.04,0-3.39,1-3.36,2.69h-2.26c0-2.88,2.23-4.71,5.65-4.71s5.76,1.99,5.76,5.08v9.01h-2.23v-1.99h-.24c-.97,1.56-2.55,2.42-4.73,2.42-2.93,0-4.87-1.53-4.87-3.87Zm9.85-1.96v-1.21l-3.77.43c-2.77.35-3.85,1.43-3.85,2.69s1.13,2.07,2.96,2.07c2.77,0,4.65-1.7,4.65-3.98Z"/>
    <path d="m1048.69,121.04h2.23v1.86h.27c.97-1.51,2.47-2.37,4.28-2.37,3.44,0,5.65,2.53,5.65,5.97v8.12h-2.23v-8.12c0-2.29-1.37-3.96-3.71-3.96s-4.25,1.78-4.25,4.14v7.94h-2.23v-13.58Z"/>
    <path d="m1064.27,127.81c0-4.25,3.04-7.32,7.02-7.32,2.18,0,3.98.91,4.98,2.56h.27v-8.21h2.23v19.77h-2.23v-2.1h-.27c-1,1.67-2.74,2.64-4.95,2.64-3.98,0-7.05-3.09-7.05-7.34Zm12.32,0c0-2.99-2.12-5.3-5.03-5.3s-5.06,2.31-5.06,5.3,2.15,5.33,5.06,5.33,5.03-2.34,5.03-5.33Z"/>
    <path d="m1082.19,127.65c0-4.14,3.01-7.16,7.21-7.16s7.13,3.01,7.13,7.18c0,.27,0,.59-.03.89h-12.02c.32,2.74,2.31,4.57,5.08,4.57,2.02,0,3.79-1.02,4.65-2.64l1.86.94c-1.1,2.31-3.55,3.71-6.56,3.71-4.25,0-7.32-3.15-7.32-7.51Zm12-1.05c-.4-2.45-2.31-4.09-4.9-4.09s-4.41,1.64-4.79,4.09h9.68Z"/>
    <path d="m1099.28,127.65c0-4.14,3.01-7.16,7.21-7.16s7.13,3.01,7.13,7.18c0,.27,0,.59-.03.89h-12.03c.32,2.74,2.31,4.57,5.08,4.57,2.02,0,3.79-1.02,4.65-2.64l1.86.94c-1.1,2.31-3.55,3.71-6.56,3.71-4.25,0-7.32-3.15-7.32-7.51Zm12-1.05c-.4-2.45-2.31-4.09-4.9-4.09s-4.41,1.64-4.79,4.09h9.68Z"/>
    <path d="m1131.54,127.81c0,4.25-3.04,7.34-6.99,7.34-2.18,0-4.01-.94-5-2.56h-.24v8.21h-2.23v-19.77h2.23v2.07h.24c1-1.64,2.74-2.61,4.98-2.61,3.96,0,7.02,3.07,7.02,7.32Zm-12.32,0c0,2.99,2.12,5.33,5.06,5.33s5.03-2.34,5.03-5.33-2.13-5.3-5.03-5.3-5.06,2.31-5.06,5.3Z"/>
    <path d="m1142.19,115.66h2.45v16.81h9.55v2.15h-12v-18.97Z"/>
    <path d="m1169.18,134.62h-2.23v-1.86h-.27c-.94,1.48-2.47,2.34-4.25,2.34-3.47,0-5.65-2.5-5.65-5.97v-8.1h2.23v8.1c0,2.31,1.34,3.96,3.69,3.96s4.25-1.75,4.25-4.14v-7.91h2.23v13.58Z"/>
    <path d="m1175.8,132.52h-.24v2.1h-2.23v-19.77h2.23v8.21h.24c1-1.64,2.83-2.56,5-2.56,3.96,0,6.99,3.07,6.99,7.32s-3.07,7.34-7.02,7.34c-2.23,0-3.98-.97-4.98-2.64Zm9.77-4.71c0-2.99-2.12-5.3-5.03-5.3s-5.06,2.31-5.06,5.3,2.12,5.33,5.06,5.33,5.03-2.29,5.03-5.33Z"/>
    <path d="m1190.17,131.18c0-2.39,2.04-4.17,6.08-4.63l3.77-.46v-.54c0-1.83-1.32-3.01-3.55-3.01-2.04,0-3.39,1-3.36,2.69h-2.26c0-2.88,2.23-4.71,5.65-4.71s5.76,1.99,5.76,5.08v9.01h-2.23v-1.99h-.24c-.97,1.56-2.56,2.42-4.74,2.42-2.93,0-4.87-1.53-4.87-3.87Zm9.85-1.96v-1.21l-3.77.43c-2.77.35-3.85,1.43-3.85,2.69s1.13,2.07,2.96,2.07c2.77,0,4.65-1.7,4.65-3.98Z"/>
    <path d="m1206.13,121.04h2.23v1.86h.27c.97-1.51,2.47-2.37,4.28-2.37,3.44,0,5.65,2.53,5.65,5.97v8.12h-2.23v-8.12c0-2.29-1.37-3.96-3.71-3.96s-4.25,1.78-4.25,4.14v7.94h-2.23v-13.58Z"/>
    <path d="m1221.33,131.18c0-2.39,2.04-4.17,6.08-4.63l3.77-.46v-.54c0-1.83-1.32-3.01-3.55-3.01-2.04,0-3.39,1-3.36,2.69h-2.26c0-2.88,2.23-4.71,5.65-4.71s5.76,1.99,5.76,5.08v9.01h-2.23v-1.99h-.24c-.97,1.56-2.55,2.42-4.73,2.42-2.93,0-4.87-1.53-4.87-3.87Zm9.85-1.96v-1.21l-3.77.43c-2.77.35-3.85,1.43-3.85,2.69s1.13,2.07,2.96,2.07c2.77,0,4.65-1.7,4.65-3.98Z"/>
    <path d="m1243.34,127.14c0-4.87,1.72-9.79,4.28-12.35h2.29c-2.8,2.74-4.57,7.45-4.57,12.35s1.78,9.66,4.57,12.32h-2.29c-2.56-2.56-4.28-7.45-4.28-12.32Z"/>
    <path d="m1252.81,115.66h7.56c4.14,0,6.83,2.18,6.81,5.81,0,3.58-2.77,5.81-6.81,5.81h-5.17v7.34h-2.39v-18.97Zm7.56,9.44c2.74,0,4.38-1.43,4.38-3.63s-1.64-3.66-4.38-3.66h-5.17v7.29h5.17Z"/>
    <path d="m1270.38,121.04h2.18v1.83h.24c.62-1.24,2.12-2.1,3.63-2.1.62,0,1.26.13,1.67.35v2.07c-.7-.3-1.51-.4-2.02-.4-2.04,0-3.47,1.83-3.47,4.52v7.32h-2.23v-13.58Z"/>
    <path d="m1279.72,127.81c0-4.28,3.01-7.32,7.29-7.32s7.29,3.04,7.29,7.32-3.04,7.34-7.29,7.34-7.29-3.04-7.29-7.34Zm12.35,0c0-3.07-2.12-5.3-5.06-5.3s-5.06,2.23-5.06,5.3,2.1,5.33,5.06,5.33,5.06-2.23,5.06-5.33Z"/>
    <path d="m1294.2,140.32v-1.91c.51.16,1.21.24,1.75.24,1.24,0,2.04-.89,2.04-2.15v-15.47h2.23v15.47c0,2.42-1.53,4.17-3.66,4.17-.83,0-1.75-.13-2.37-.35Zm3.28-23.49c0-.91.67-1.56,1.61-1.56s1.61.65,1.61,1.56-.67,1.61-1.61,1.61-1.61-.67-1.61-1.61Z"/>
    <path d="m1304.13,127.65c0-4.14,3.01-7.16,7.21-7.16s7.13,3.01,7.13,7.18c0,.27,0,.59-.03.89h-12.03c.32,2.74,2.31,4.57,5.08,4.57,2.02,0,3.79-1.02,4.65-2.64l1.86.94c-1.1,2.31-3.55,3.71-6.56,3.71-4.25,0-7.32-3.15-7.32-7.51Zm12-1.05c-.4-2.45-2.31-4.09-4.9-4.09s-4.41,1.64-4.79,4.09h9.68Z"/>
    <path d="m1321.21,127.81c0-4.25,2.96-7.32,7.07-7.32,3.34,0,6.11,2.1,6.62,5l-2.18.3c-.48-1.96-2.34-3.28-4.41-3.28-2.77,0-4.9,2.18-4.87,5.3,0,3.15,2.07,5.33,4.84,5.33,2.13,0,3.93-1.32,4.47-3.23l2.21.3c-.62,2.88-3.42,4.95-6.67,4.95-4.12,0-7.1-3.09-7.07-7.34Z"/>
    <path d="m1339.03,131.12v-8.31h-2.21v-1.78h2.21l.51-4.39h1.75l-.03,4.39h3.5v1.78h-3.5v8.23c0,1.29.81,2.21,2.1,2.21.4,0,1.1-.11,1.61-.27v1.8c-.65.21-1.53.35-2.21.35-2.29,0-3.74-1.61-3.74-4.01Z"/>
    <path d="m1355.55,115.66h3.87l6.27,15.55h.24l6.29-15.55h3.85v18.97h-2.45v-15.87h-.24l-6.4,15.87h-2.34l-6.38-15.84h-.24v15.84h-2.47v-18.97Z"/>
    <path d="m1379.66,131.18c0-2.39,2.04-4.17,6.08-4.63l3.77-.46v-.54c0-1.83-1.32-3.01-3.55-3.01-2.04,0-3.39,1-3.36,2.69h-2.26c0-2.88,2.23-4.71,5.65-4.71s5.76,1.99,5.76,5.08v9.01h-2.23v-1.99h-.24c-.97,1.56-2.56,2.42-4.74,2.42-2.93,0-4.87-1.53-4.87-3.87Zm9.85-1.96v-1.21l-3.77.43c-2.77.35-3.85,1.43-3.85,2.69s1.13,2.07,2.96,2.07c2.77,0,4.65-1.7,4.65-3.98Z"/>
    <path d="m1395.61,121.04h2.23v1.86h.27c.97-1.51,2.47-2.37,4.28-2.37,3.44,0,5.65,2.53,5.65,5.97v8.12h-2.23v-8.12c0-2.29-1.37-3.96-3.71-3.96s-4.25,1.78-4.25,4.14v7.94h-2.23v-13.58Z"/>
    <path d="m1410.82,131.18c0-2.39,2.04-4.17,6.08-4.63l3.77-.46v-.54c0-1.83-1.32-3.01-3.55-3.01-2.04,0-3.39,1-3.36,2.69h-2.26c0-2.88,2.23-4.71,5.65-4.71s5.76,1.99,5.76,5.08v9.01h-2.23v-1.99h-.24c-.97,1.56-2.55,2.42-4.73,2.42-2.93,0-4.87-1.53-4.87-3.87Zm9.85-1.96v-1.21l-3.77.43c-2.77.35-3.85,1.43-3.85,2.69s1.13,2.07,2.96,2.07c2.77,0,4.65-1.7,4.65-3.98Z"/>
    <path d="m1426.34,136.83l2.23-.83c.73,2.1,2.45,3.33,4.87,3.33,2.96,0,4.9-1.91,4.9-4.95v-1.83h-.27c-1.18,1.51-2.83,2.42-4.95,2.42-4.09,0-7.05-2.99-7.05-7.16s2.96-7.29,7.05-7.29c2.18,0,3.82.94,4.98,2.45h.27v-1.94h2.21v13.34c0,4.25-2.85,6.97-7.24,6.97-3.5,0-6.08-1.69-6.99-4.52Zm12.08-9.01c0-3.07-2.15-5.3-5.06-5.3s-5.06,2.23-5.06,5.3,2.12,5.19,5.06,5.19,5.06-2.21,5.06-5.19Z"/>
    <path d="m1443.99,127.65c0-4.14,3.01-7.16,7.21-7.16s7.13,3.01,7.13,7.18c0,.27,0,.59-.03.89h-12.02c.32,2.74,2.31,4.57,5.08,4.57,2.02,0,3.79-1.02,4.65-2.64l1.86.94c-1.1,2.31-3.55,3.71-6.56,3.71-4.25,0-7.32-3.15-7.32-7.51Zm12-1.05c-.4-2.45-2.31-4.09-4.9-4.09s-4.41,1.64-4.79,4.09h9.68Z"/>
    <path d="m1461.78,121.04h2.18v1.83h.24c.62-1.24,2.12-2.1,3.63-2.1.62,0,1.27.13,1.67.35v2.07c-.7-.3-1.51-.4-2.02-.4-2.04,0-3.47,1.83-3.47,4.52v7.32h-2.23v-13.58Z"/>
    <path d="m1470.63,139.46c2.8-2.66,4.57-7.34,4.57-12.32s-1.78-9.6-4.57-12.35h2.31c2.56,2.56,4.28,7.48,4.28,12.35s-1.72,9.76-4.28,12.32h-2.31Z"/>
    <path d="m1183.5,160.75h2.42c.03,2.93,2.1,4.68,5.65,4.68,3.09,0,4.9-1.35,4.9-3.47,0-2.61-2.64-3.04-5.49-3.5-3.42-.54-7.18-1.43-7.18-5.54,0-3.42,2.61-5.65,7.18-5.65s7.48,2.42,7.51,6.43h-2.37c0-2.69-1.88-4.28-5.14-4.28-3.07,0-4.73,1.32-4.73,3.36,0,2.5,2.53,2.96,5.33,3.39,3.44.56,7.34,1.32,7.34,5.62,0,3.55-2.72,5.78-7.37,5.78-4.98,0-8.04-2.61-8.04-6.83Z"/>
    <path d="m1202.52,147.14h2.23v7.91h.27c.97-1.43,2.48-2.26,4.28-2.26,3.44,0,5.65,2.5,5.65,5.97v8.15h-2.23v-8.15c0-2.31-1.37-3.95-3.71-3.95s-4.25,1.75-4.25,4.17v7.94h-2.23v-19.77Z"/>
    <path d="m1218.83,147.14h2.23v19.77h-2.23v-19.77Z"/>
    <path d="m1224.45,160.1c0-4.28,3.01-7.32,7.29-7.32s7.29,3.04,7.29,7.32-3.04,7.34-7.29,7.34-7.29-3.04-7.29-7.34Zm12.35,0c0-3.07-2.13-5.3-5.06-5.3s-5.06,2.23-5.06,5.3,2.1,5.33,5.06,5.33,5.06-2.23,5.06-5.33Z"/>
    <path d="m1242.45,147.14h2.23v12h.27l5.81-5.81h2.96l-6.7,6.51,6.86,7.08h-2.99l-5.95-6.32h-.27v6.32h-2.23v-19.77Z"/>
    <path d="m1263.2,147.95h6.08c6.56,0,10.92,3.74,10.92,9.47s-4.36,9.5-10.92,9.5h-6.08v-18.97Zm6.08,16.81c5.08,0,8.5-2.8,8.5-7.34s-3.44-7.32-8.5-7.32h-3.63v14.66h3.63Z"/>
    <path d="m1282.98,159.94c0-4.14,3.01-7.16,7.21-7.16s7.13,3.01,7.13,7.18c0,.27,0,.59-.03.89h-12.03c.32,2.74,2.31,4.57,5.08,4.57,2.02,0,3.79-1.02,4.65-2.64l1.86.94c-1.1,2.31-3.55,3.71-6.56,3.71-4.25,0-7.32-3.15-7.32-7.51Zm12-1.05c-.4-2.45-2.31-4.09-4.9-4.09s-4.41,1.64-4.79,4.09h9.68Z"/>
    <path d="m1300.17,162.31h2.15c.03,1.94,1.53,3.25,4.09,3.25,2.04,0,3.36-.86,3.36-2.29,0-1.78-1.86-1.91-3.9-2.18-2.53-.3-5.46-.97-5.46-4.06,0-2.64,2.21-4.25,5.46-4.25s5.7,1.8,5.7,4.6h-2.18c-.03-1.67-1.45-2.72-3.55-2.72-1.96,0-3.31.89-3.31,2.29,0,1.7,1.83,1.83,3.85,2.07,2.56.32,5.49.97,5.49,4.22,0,2.66-2.07,4.2-5.54,4.2-3.9,0-6.16-1.91-6.16-5.14Z"/>
    <path d="m1314.35,163.47c0-2.39,2.04-4.17,6.08-4.63l3.77-.46v-.54c0-1.83-1.32-3.01-3.55-3.01-2.04,0-3.39,1-3.36,2.69h-2.26c0-2.88,2.23-4.71,5.65-4.71s5.76,1.99,5.76,5.08v9.01h-2.23v-1.99h-.24c-.97,1.56-2.55,2.42-4.73,2.42-2.93,0-4.87-1.53-4.87-3.87Zm9.85-1.96v-1.21l-3.77.43c-2.77.35-3.85,1.43-3.85,2.69s1.13,2.07,2.96,2.07c2.77,0,4.65-1.7,4.65-3.98Z"/>
    <path d="m1330.04,149.13c0-.91.67-1.56,1.61-1.56s1.59.65,1.59,1.56-.65,1.61-1.59,1.61-1.61-.67-1.61-1.61Zm.48,4.2h2.23v13.58h-2.23v-13.58Z"/>
    <path d="m1343.17,159.43c0-4.87,1.72-9.79,4.28-12.35h2.29c-2.8,2.74-4.57,7.45-4.57,12.35s1.78,9.66,4.57,12.32h-2.29c-2.56-2.56-4.28-7.45-4.28-12.32Z"/>
    <path d="m1352.61,147.95h3.87l6.27,15.55h.24l6.29-15.55h3.85v18.97h-2.45v-15.87h-.24l-6.4,15.87h-2.34l-6.38-15.84h-.24v15.84h-2.47v-18.97Z"/>
    <path d="m1377.1,159.94c0-4.14,3.01-7.16,7.21-7.16s7.13,3.01,7.13,7.18c0,.27,0,.59-.03.89h-12.03c.32,2.74,2.31,4.57,5.08,4.57,2.02,0,3.79-1.02,4.65-2.64l1.86.94c-1.1,2.31-3.55,3.71-6.56,3.71-4.25,0-7.32-3.15-7.32-7.51Zm12-1.05c-.4-2.45-2.31-4.09-4.9-4.09s-4.41,1.64-4.79,4.09h9.68Z"/>
    <path d="m1394.19,160.1c0-4.25,3.04-7.32,7.02-7.32,2.18,0,3.98.91,4.98,2.56h.27v-8.21h2.23v19.77h-2.23v-2.1h-.27c-1,1.67-2.74,2.64-4.95,2.64-3.98,0-7.05-3.09-7.05-7.34Zm12.32,0c0-2.99-2.12-5.3-5.03-5.3s-5.06,2.31-5.06,5.3,2.15,5.33,5.06,5.33,5.03-2.34,5.03-5.33Z"/>
    <path d="m1412.54,149.13c0-.91.67-1.56,1.61-1.56s1.59.65,1.59,1.56-.65,1.61-1.59,1.61-1.61-.67-1.61-1.61Zm.48,4.2h2.23v13.58h-2.23v-13.58Z"/>
    <path d="m1418.54,163.47c0-2.39,2.04-4.17,6.08-4.63l3.77-.46v-.54c0-1.83-1.32-3.01-3.55-3.01-2.04,0-3.39,1-3.36,2.69h-2.26c0-2.88,2.23-4.71,5.65-4.71s5.76,1.99,5.76,5.08v9.01h-2.23v-1.99h-.24c-.97,1.56-2.56,2.42-4.73,2.42-2.93,0-4.87-1.53-4.87-3.87Zm9.85-1.96v-1.21l-3.77.43c-2.77.35-3.85,1.43-3.85,2.69s1.13,2.07,2.96,2.07c2.77,0,4.65-1.7,4.65-3.98Z"/>
    <path d="m1435.68,163.41v-8.31h-2.21v-1.78h2.21l.51-4.39h1.75l-.03,4.39h3.5v1.78h-3.5v8.23c0,1.29.81,2.21,2.1,2.21.4,0,1.1-.11,1.61-.27v1.8c-.64.21-1.53.35-2.21.35-2.29,0-3.74-1.61-3.74-4.01Z"/>
    <path d="m1443.78,160.1c0-4.28,3.01-7.32,7.29-7.32s7.29,3.04,7.29,7.32-3.04,7.34-7.29,7.34-7.29-3.04-7.29-7.34Zm12.35,0c0-3.07-2.13-5.3-5.06-5.3s-5.06,2.23-5.06,5.3,2.1,5.33,5.06,5.33,5.06-2.23,5.06-5.33Z"/>
    <path d="m1461.78,153.33h2.18v1.83h.24c.62-1.24,2.12-2.1,3.63-2.1.62,0,1.26.13,1.67.35v2.07c-.7-.3-1.51-.4-2.02-.4-2.04,0-3.47,1.83-3.47,4.52v7.32h-2.23v-13.58Z"/>
    <path d="m1470.63,171.75c2.8-2.66,4.57-7.34,4.57-12.32s-1.78-9.6-4.57-12.35h2.31c2.56,2.56,4.28,7.48,4.28,12.35s-1.72,9.76-4.28,12.32h-2.31Z"/>
    <path d="m1011.98,189.17l-6.56-8.93h2.77l5.27,7.51h.24l5.43-7.51h2.77l-6.72,8.93,6.99,10.03h-2.74l-5.73-8.42h-.24l-5.57,8.42h-2.74l6.83-10.03Z"/>
    <path d="m1025.04,181.42c0-.92.67-1.56,1.61-1.56s1.59.65,1.59,1.56-.65,1.61-1.59,1.61-1.61-.67-1.61-1.61Zm.48,4.2h2.23v13.58h-2.23v-13.58Z"/>
    <path d="m1032.11,185.62h2.23v1.86h.27c.97-1.51,2.47-2.37,4.28-2.37,3.44,0,5.65,2.53,5.65,5.97v8.12h-2.23v-8.12c0-2.29-1.37-3.96-3.71-3.96s-4.25,1.78-4.25,4.14v7.94h-2.23v-13.58Z"/>
    <path d="m1053.99,192.26l-6.86-12.03h2.58l5.38,9.68h.27l5.27-9.68h2.64l-6.81,12.03v6.94h-2.47v-6.94Z"/>
    <path d="m1076.21,199.2h-2.23v-1.86h-.27c-.94,1.48-2.48,2.34-4.25,2.34-3.47,0-5.65-2.5-5.65-5.97v-8.1h2.23v8.1c0,2.31,1.35,3.96,3.69,3.96s4.25-1.75,4.25-4.14v-7.91h2.23v13.58Z"/>
    <path d="m1086.41,191.72c0-4.87,1.72-9.79,4.28-12.35h2.29c-2.8,2.74-4.57,7.45-4.57,12.35s1.78,9.66,4.57,12.32h-2.29c-2.56-2.56-4.28-7.45-4.28-12.32Z"/>
    <path d="m1095.88,180.23h8.26c4.12,0,6.83,2.26,6.83,5.76,0,3.23-2.53,5.49-6.05,5.65h-.32l6.89,7.56h-3.09l-6.56-7.42h-3.5v7.42h-2.45v-18.97Zm8.26,9.39c2.72,0,4.38-1.4,4.38-3.63s-1.67-3.6-4.38-3.6h-5.81v7.24h5.81Z"/>
    <path d="m1114.21,181.42c0-.92.67-1.56,1.61-1.56s1.59.65,1.59,1.56-.65,1.61-1.59,1.61-1.61-.67-1.61-1.61Zm.48,4.2h2.23v13.58h-2.23v-13.58Z"/>
    <path d="m1120.59,192.39c0-4.25,2.96-7.32,7.08-7.32,3.34,0,6.11,2.1,6.62,5l-2.18.3c-.48-1.96-2.34-3.28-4.41-3.28-2.77,0-4.9,2.18-4.87,5.3,0,3.15,2.07,5.33,4.84,5.33,2.13,0,3.93-1.32,4.47-3.23l2.21.3c-.62,2.88-3.42,4.95-6.67,4.95-4.12,0-7.1-3.09-7.08-7.34Z"/>
    <path d="m1137.75,179.43h2.23v7.91h.27c.97-1.43,2.47-2.26,4.28-2.26,3.44,0,5.65,2.5,5.65,5.97v8.15h-2.23v-8.15c0-2.31-1.37-3.95-3.71-3.95s-4.25,1.75-4.25,4.17v7.94h-2.23v-19.77Z"/>
    <path d="m1152.98,195.76c0-2.39,2.04-4.17,6.08-4.63l3.77-.46v-.54c0-1.83-1.32-3.01-3.55-3.01-2.04,0-3.39,1-3.36,2.69h-2.26c0-2.88,2.23-4.71,5.65-4.71s5.76,1.99,5.76,5.08v9.01h-2.23v-1.99h-.24c-.97,1.56-2.56,2.42-4.74,2.42-2.93,0-4.87-1.53-4.87-3.87Zm9.85-1.96v-1.21l-3.77.43c-2.77.35-3.85,1.43-3.85,2.69s1.13,2.07,2.96,2.07c2.77,0,4.65-1.69,4.65-3.98Z"/>
    <path d="m1168.94,185.62h2.18v1.83h.24c.62-1.24,2.12-2.1,3.63-2.1.62,0,1.26.13,1.67.35v2.07c-.7-.3-1.51-.4-2.02-.4-2.04,0-3.47,1.83-3.47,4.52v7.32h-2.23v-13.58Z"/>
    <path d="m1178.3,192.39c0-4.25,3.04-7.32,7.02-7.32,2.18,0,3.98.91,4.98,2.56h.27v-8.21h2.23v19.77h-2.23v-2.1h-.27c-1,1.67-2.74,2.64-4.95,2.64-3.98,0-7.05-3.09-7.05-7.34Zm12.32,0c0-2.99-2.12-5.3-5.03-5.3s-5.06,2.31-5.06,5.3,2.15,5.33,5.06,5.33,5.03-2.34,5.03-5.33Z"/>
    <path d="m1195.18,204.04c2.8-2.66,4.57-7.34,4.57-12.32s-1.78-9.6-4.57-12.35h2.31c2.56,2.56,4.28,7.48,4.28,12.35s-1.72,9.76-4.28,12.32h-2.31Z"/>
    <path d="m1212.42,180.23h2.45v16.81h9.55v2.15h-12v-18.97Z"/>
    <path d="m1227.06,181.42c0-.92.67-1.56,1.62-1.56s1.59.65,1.59,1.56-.64,1.61-1.59,1.61-1.62-.67-1.62-1.61Zm.48,4.2h2.23v13.58h-2.23v-13.58Z"/>
    <path d="m1246.27,199.2h-2.23v-1.86h-.27c-.94,1.48-2.47,2.34-4.25,2.34-3.47,0-5.65-2.5-5.65-5.97v-8.1h2.23v8.1c0,2.31,1.34,3.96,3.69,3.96s4.25-1.75,4.25-4.14v-7.91h2.23v13.58Z"/>
    <path d="m1256.47,191.72c0-4.87,1.72-9.79,4.28-12.35h2.29c-2.8,2.74-4.57,7.45-4.57,12.35s1.78,9.66,4.57,12.32h-2.29c-2.56-2.56-4.28-7.45-4.28-12.32Z"/>
    <path d="m1264.79,189.7c0-5.89,4.12-10.14,9.82-10.14,4.28,0,8.04,2.91,8.99,6.89l-2.39.32c-.7-2.93-3.47-5.06-6.59-5.06-4.3,0-7.37,3.36-7.37,7.99s3.09,8.02,7.37,8.02c3.07,0,5.84-2.07,6.62-4.87l2.34.46c-.94,3.79-4.71,6.56-8.96,6.56-5.7,0-9.85-4.28-9.82-10.17Z"/>
    <path d="m1286.34,192.39c0-4.28,3.01-7.32,7.29-7.32s7.29,3.04,7.29,7.32-3.04,7.34-7.29,7.34-7.29-3.04-7.29-7.34Zm12.35,0c0-3.07-2.13-5.3-5.06-5.3s-5.06,2.23-5.06,5.3,2.1,5.33,5.06,5.33,5.06-2.23,5.06-5.33Z"/>
    <path d="m1304.34,185.62h2.23v1.86h.27c.97-1.51,2.48-2.37,4.28-2.37,3.44,0,5.65,2.53,5.65,5.97v8.12h-2.23v-8.12c0-2.29-1.37-3.96-3.71-3.96s-4.25,1.78-4.25,4.14v7.94h-2.23v-13.58Z"/>
    <path d="m1321.8,195.7v-8.31h-2.21v-1.78h2.21l.51-4.38h1.75l-.03,4.38h3.5v1.78h-3.5v8.23c0,1.29.81,2.21,2.1,2.21.4,0,1.1-.11,1.61-.27v1.8c-.64.22-1.53.35-2.21.35-2.29,0-3.74-1.61-3.74-4.01Z"/>
    <path d="m1330.06,195.76c0-2.39,2.04-4.17,6.08-4.63l3.77-.46v-.54c0-1.83-1.32-3.01-3.55-3.01-2.04,0-3.39,1-3.36,2.69h-2.26c0-2.88,2.23-4.71,5.65-4.71s5.76,1.99,5.76,5.08v9.01h-2.23v-1.99h-.24c-.97,1.56-2.55,2.42-4.73,2.42-2.93,0-4.87-1.53-4.87-3.87Zm9.85-1.96v-1.21l-3.77.43c-2.77.35-3.85,1.43-3.85,2.69s1.13,2.07,2.96,2.07c2.77,0,4.65-1.69,4.65-3.98Z"/>
    <path d="m1345.32,192.39c0-4.25,2.96-7.32,7.08-7.32,3.34,0,6.11,2.1,6.62,5l-2.18.3c-.48-1.96-2.34-3.28-4.41-3.28-2.77,0-4.9,2.18-4.87,5.3,0,3.15,2.07,5.33,4.84,5.33,2.12,0,3.93-1.32,4.46-3.23l2.21.3c-.62,2.88-3.42,4.95-6.67,4.95-4.12,0-7.1-3.09-7.08-7.34Z"/>
    <path d="m1363.13,195.7v-8.31h-2.21v-1.78h2.21l.51-4.38h1.75l-.03,4.38h3.5v1.78h-3.5v8.23c0,1.29.81,2.21,2.1,2.21.4,0,1.1-.11,1.62-.27v1.8c-.65.22-1.53.35-2.21.35-2.29,0-3.74-1.61-3.74-4.01Z"/>
    <path d="m1379.68,180.23h7.56c4.14,0,6.83,2.18,6.81,5.81,0,3.58-2.77,5.81-6.81,5.81h-5.17v7.34h-2.39v-18.97Zm7.56,9.44c2.74,0,4.38-1.43,4.38-3.63s-1.64-3.66-4.38-3.66h-5.17v7.29h5.17Z"/>
    <path d="m1395.77,192.23c0-4.14,3.01-7.16,7.21-7.16s7.13,3.01,7.13,7.18c0,.27,0,.59-.03.89h-12.03c.32,2.74,2.31,4.57,5.08,4.57,2.02,0,3.79-1.02,4.65-2.64l1.86.94c-1.1,2.31-3.55,3.71-6.56,3.71-4.25,0-7.32-3.15-7.32-7.51Zm12-1.05c-.4-2.45-2.31-4.09-4.9-4.09s-4.41,1.64-4.79,4.09h9.68Z"/>
    <path d="m1413.56,185.62h2.18v1.83h.24c.62-1.24,2.12-2.1,3.63-2.1.62,0,1.26.13,1.67.35v2.07c-.7-.3-1.51-.4-2.02-.4-2.04,0-3.47,1.83-3.47,4.52v7.32h-2.23v-13.58Z"/>
    <path d="m1423.57,194.6h2.15c.03,1.94,1.53,3.26,4.09,3.26,2.04,0,3.36-.86,3.36-2.29,0-1.78-1.86-1.91-3.9-2.18-2.53-.3-5.46-.97-5.46-4.06,0-2.64,2.21-4.25,5.46-4.25s5.7,1.8,5.7,4.6h-2.18c-.03-1.67-1.45-2.72-3.55-2.72-1.96,0-3.31.89-3.31,2.29,0,1.69,1.83,1.83,3.85,2.07,2.55.32,5.49.97,5.49,4.22,0,2.66-2.07,4.2-5.54,4.2-3.9,0-6.16-1.91-6.16-5.14Z"/>
    <path d="m1438.1,192.39c0-4.28,3.01-7.32,7.29-7.32s7.29,3.04,7.29,7.32-3.04,7.34-7.29,7.34-7.29-3.04-7.29-7.34Zm12.35,0c0-3.07-2.13-5.3-5.06-5.3s-5.06,2.23-5.06,5.3,2.1,5.33,5.06,5.33,5.06-2.23,5.06-5.33Z"/>
    <path d="m1456.1,185.62h2.23v1.86h.27c.97-1.51,2.48-2.37,4.28-2.37,3.44,0,5.65,2.53,5.65,5.97v8.12h-2.23v-8.12c0-2.29-1.37-3.96-3.71-3.96s-4.25,1.78-4.25,4.14v7.94h-2.23v-13.58Z"/>
    <path d="m1470.63,204.04c2.8-2.66,4.57-7.34,4.57-12.32s-1.78-9.6-4.57-12.35h2.31c2.56,2.56,4.28,7.48,4.28,12.35s-1.72,9.76-4.28,12.32h-2.31Z"/>
    <path d="m1103.61,224.55l-6.86-12.03h2.58l5.38,9.68h.27l5.27-9.68h2.64l-6.81,12.03v6.94h-2.47v-6.94Z"/>
    <path d="m1125.83,231.49h-2.23v-1.86h-.27c-.94,1.48-2.48,2.34-4.25,2.34-3.47,0-5.65-2.5-5.65-5.97v-8.1h2.23v8.1c0,2.31,1.35,3.96,3.69,3.96s4.25-1.75,4.25-4.14v-7.91h2.23v13.58Z"/>
    <path d="m1136.03,224.01c0-4.87,1.72-9.79,4.28-12.35h2.29c-2.8,2.74-4.57,7.45-4.57,12.35s1.78,9.66,4.57,12.32h-2.29c-2.56-2.56-4.28-7.45-4.28-12.32Z"/>
    <path d="m1145.5,212.52h7.56c4.14,0,6.83,2.18,6.81,5.81,0,3.58-2.77,5.81-6.81,5.81h-5.17v7.34h-2.39v-18.97Zm7.56,9.44c2.74,0,4.38-1.43,4.38-3.63s-1.64-3.66-4.38-3.66h-5.17v7.29h5.17Z"/>
    <path d="m1161.59,224.52c0-4.14,3.01-7.16,7.21-7.16s7.13,3.01,7.13,7.18c0,.27,0,.59-.03.89h-12.03c.32,2.74,2.31,4.57,5.08,4.57,2.02,0,3.79-1.02,4.65-2.64l1.86.94c-1.1,2.31-3.55,3.71-6.56,3.71-4.25,0-7.32-3.15-7.32-7.51Zm12-1.05c-.4-2.45-2.31-4.09-4.9-4.09s-4.41,1.64-4.79,4.09h9.68Z"/>
    <path d="m1180.03,227.99v-8.31h-2.21v-1.78h2.21l.51-4.38h1.75l-.03,4.38h3.5v1.78h-3.5v8.23c0,1.29.81,2.21,2.1,2.21.4,0,1.1-.11,1.61-.27v1.8c-.65.22-1.53.35-2.21.35-2.29,0-3.74-1.61-3.74-4.01Z"/>
    <path d="m1188.15,224.52c0-4.14,3.01-7.16,7.21-7.16s7.13,3.01,7.13,7.18c0,.27,0,.59-.03.89h-12.03c.32,2.74,2.31,4.57,5.08,4.57,2.02,0,3.79-1.02,4.65-2.64l1.86.94c-1.1,2.31-3.55,3.71-6.56,3.71-4.25,0-7.32-3.15-7.32-7.51Zm12-1.05c-.4-2.45-2.31-4.09-4.9-4.09s-4.41,1.64-4.79,4.09h9.68Z"/>
    <path d="m1205.94,217.91h2.18v1.83h.24c.62-1.24,2.12-2.1,3.63-2.1.62,0,1.26.13,1.67.35v2.07c-.7-.3-1.51-.4-2.02-.4-2.04,0-3.47,1.83-3.47,4.52v7.32h-2.23v-13.58Z"/>
    <path d="m1214.79,236.33c2.8-2.66,4.57-7.34,4.57-12.32s-1.78-9.6-4.57-12.35h2.31c2.56,2.56,4.28,7.48,4.28,12.35s-1.72,9.76-4.28,12.32h-2.31Z"/>
    <path d="m1232.01,212.52h3.87l6.27,15.55h.24l6.29-15.55h3.85v18.97h-2.45v-15.87h-.24l-6.4,15.87h-2.34l-6.38-15.84h-.24v15.84h-2.47v-18.97Z"/>
    <path d="m1256.12,228.05c0-2.39,2.04-4.17,6.08-4.63l3.77-.46v-.54c0-1.83-1.32-3.01-3.55-3.01-2.04,0-3.39,1-3.36,2.69h-2.26c0-2.88,2.23-4.71,5.65-4.71s5.76,1.99,5.76,5.08v9.01h-2.23v-1.99h-.24c-.97,1.56-2.56,2.42-4.73,2.42-2.93,0-4.87-1.53-4.87-3.87Zm9.85-1.96v-1.21l-3.77.43c-2.77.35-3.85,1.43-3.85,2.69s1.13,2.07,2.96,2.07c2.77,0,4.65-1.69,4.65-3.98Z"/>
    <path d="m1278.13,224.01c0-4.87,1.72-9.79,4.28-12.35h2.29c-2.8,2.74-4.57,7.45-4.57,12.35s1.78,9.66,4.57,12.32h-2.29c-2.55-2.56-4.28-7.45-4.28-12.32Z"/>
    <path d="m1287.6,212.52h6.08c6.56,0,10.92,3.74,10.92,9.47s-4.36,9.5-10.92,9.5h-6.08v-18.97Zm6.08,16.81c5.08,0,8.5-2.8,8.5-7.34s-3.44-7.32-8.5-7.32h-3.63v14.66h3.63Z"/>
    <path d="m1307.01,228.05c0-2.39,2.04-4.17,6.08-4.63l3.77-.46v-.54c0-1.83-1.32-3.01-3.55-3.01-2.04,0-3.39,1-3.36,2.69h-2.26c0-2.88,2.23-4.71,5.65-4.71s5.76,1.99,5.76,5.08v9.01h-2.23v-1.99h-.24c-.97,1.56-2.56,2.42-4.73,2.42-2.93,0-4.87-1.53-4.87-3.87Zm9.85-1.96v-1.21l-3.77.43c-2.77.35-3.85,1.43-3.85,2.69s1.13,2.07,2.96,2.07c2.77,0,4.65-1.69,4.65-3.98Z"/>
    <path d="m1324.14,227.99v-8.31h-2.21v-1.78h2.21l.51-4.38h1.75l-.03,4.38h3.5v1.78h-3.5v8.23c0,1.29.81,2.21,2.1,2.21.4,0,1.1-.11,1.61-.27v1.8c-.64.22-1.53.35-2.21.35-2.29,0-3.74-1.61-3.74-4.01Z"/>
    <path d="m1332.41,228.05c0-2.39,2.04-4.17,6.08-4.63l3.77-.46v-.54c0-1.83-1.32-3.01-3.55-3.01-2.04,0-3.39,1-3.36,2.69h-2.26c0-2.88,2.23-4.71,5.65-4.71s5.76,1.99,5.76,5.08v9.01h-2.23v-1.99h-.24c-.97,1.56-2.55,2.42-4.73,2.42-2.93,0-4.87-1.53-4.87-3.87Zm9.85-1.96v-1.21l-3.77.43c-2.77.35-3.85,1.43-3.85,2.69s1.13,2.07,2.96,2.07c2.77,0,4.65-1.69,4.65-3.98Z"/>
    <path d="m1355.55,212.52h3.87l6.27,15.55h.24l6.29-15.55h3.85v18.97h-2.45v-15.87h-.24l-6.4,15.87h-2.34l-6.38-15.84h-.24v15.84h-2.47v-18.97Z"/>
    <path d="m1379.66,228.05c0-2.39,2.04-4.17,6.08-4.63l3.77-.46v-.54c0-1.83-1.32-3.01-3.55-3.01-2.04,0-3.39,1-3.36,2.69h-2.26c0-2.88,2.23-4.71,5.65-4.71s5.76,1.99,5.76,5.08v9.01h-2.23v-1.99h-.24c-.97,1.56-2.56,2.42-4.74,2.42-2.93,0-4.87-1.53-4.87-3.87Zm9.85-1.96v-1.21l-3.77.43c-2.77.35-3.85,1.43-3.85,2.69s1.13,2.07,2.96,2.07c2.77,0,4.65-1.69,4.65-3.98Z"/>
    <path d="m1395.61,217.91h2.23v1.86h.27c.97-1.51,2.47-2.37,4.28-2.37,3.44,0,5.65,2.53,5.65,5.97v8.12h-2.23v-8.12c0-2.29-1.37-3.96-3.71-3.96s-4.25,1.78-4.25,4.14v7.94h-2.23v-13.58Z"/>
    <path d="m1410.82,228.05c0-2.39,2.04-4.17,6.08-4.63l3.77-.46v-.54c0-1.83-1.32-3.01-3.55-3.01-2.04,0-3.39,1-3.36,2.69h-2.26c0-2.88,2.23-4.71,5.65-4.71s5.76,1.99,5.76,5.08v9.01h-2.23v-1.99h-.24c-.97,1.56-2.56,2.42-4.73,2.42-2.93,0-4.87-1.53-4.87-3.87Zm9.85-1.96v-1.21l-3.77.43c-2.77.35-3.85,1.43-3.85,2.69s1.13,2.07,2.96,2.07c2.77,0,4.65-1.69,4.65-3.98Z"/>
    <path d="m1426.34,233.7l2.23-.83c.73,2.1,2.45,3.34,4.87,3.34,2.96,0,4.9-1.91,4.9-4.95v-1.83h-.27c-1.18,1.51-2.83,2.42-4.95,2.42-4.09,0-7.05-2.99-7.05-7.16s2.96-7.29,7.05-7.29c2.18,0,3.82.94,4.98,2.45h.27v-1.94h2.21v13.34c0,4.25-2.85,6.97-7.24,6.97-3.5,0-6.08-1.7-6.99-4.52Zm12.08-9.01c0-3.07-2.15-5.3-5.06-5.3s-5.06,2.23-5.06,5.3,2.12,5.19,5.06,5.19,5.06-2.21,5.06-5.19Z"/>
    <path d="m1443.99,224.52c0-4.14,3.01-7.16,7.21-7.16s7.13,3.01,7.13,7.18c0,.27,0,.59-.03.89h-12.02c.32,2.74,2.31,4.57,5.08,4.57,2.02,0,3.79-1.02,4.65-2.64l1.86.94c-1.1,2.31-3.55,3.71-6.56,3.71-4.25,0-7.32-3.15-7.32-7.51Zm12-1.05c-.4-2.45-2.31-4.09-4.9-4.09s-4.41,1.64-4.79,4.09h9.69Z"/>
    <path d="m1461.78,217.91h2.18v1.83h.24c.62-1.24,2.12-2.1,3.63-2.1.62,0,1.26.13,1.67.35v2.07c-.7-.3-1.51-.4-2.02-.4-2.04,0-3.47,1.83-3.47,4.52v7.32h-2.23v-13.58Z"/>
    <path d="m1470.63,236.33c2.8-2.66,4.57-7.34,4.57-12.32s-1.78-9.6-4.57-12.35h2.31c2.56,2.56,4.28,7.48,4.28,12.35s-1.72,9.76-4.28,12.32h-2.31Z"/>
    <path d="m1099.55,263.78v-2.1c1,.3,2.18.48,2.93.48,2.23,0,3.82-1.56,3.82-4.06v-13.29h2.45v13.26c0,3.71-2.42,6.24-5.73,6.24-1.02,0-2.42-.21-3.47-.54Z"/>
    <path d="m1113,246c0-.92.67-1.56,1.61-1.56s1.59.65,1.59,1.56-.65,1.61-1.59,1.61-1.61-.67-1.61-1.61Zm.48,4.2h2.23v13.58h-2.23v-13.58Z"/>
    <path d="m1120.08,250.2h2.23v1.86h.27c.97-1.51,2.47-2.37,4.28-2.37,3.44,0,5.65,2.53,5.65,5.97v8.12h-2.23v-8.12c0-2.29-1.37-3.96-3.71-3.96s-4.25,1.78-4.25,4.14v7.94h-2.23v-13.58Z"/>
    <path d="m1135.93,265.99l2.23-.83c.73,2.1,2.45,3.34,4.87,3.34,2.96,0,4.9-1.91,4.9-4.95v-1.83h-.27c-1.18,1.51-2.82,2.42-4.95,2.42-4.09,0-7.05-2.99-7.05-7.16s2.96-7.29,7.05-7.29c2.18,0,3.82.94,4.98,2.45h.27v-1.94h2.21v13.34c0,4.25-2.85,6.97-7.24,6.97-3.5,0-6.08-1.7-6.99-4.52Zm12.08-9.01c0-3.07-2.15-5.3-5.06-5.3s-5.06,2.23-5.06,5.3,2.12,5.19,5.06,5.19,5.06-2.21,5.06-5.19Z"/>
    <path d="m1153.44,269.38v-1.96c.62.24,1.29.4,1.8.4,2.02,0,2.56-2.15,3.36-4.06l-6.05-13.56h2.34l4.65,10.63h.27l3.98-10.63h2.39l-5.38,13.8c-1.21,3.01-2.29,5.81-5.22,5.81-.67,0-1.53-.16-2.15-.43Z"/>
    <path d="m1168.32,246c0-.92.67-1.56,1.61-1.56s1.59.65,1.59,1.56-.65,1.61-1.59,1.61-1.61-.67-1.61-1.61Zm.48,4.2h2.23v13.58h-2.23v-13.58Z"/>
    <path d="m1181.45,256.3c0-4.87,1.72-9.79,4.28-12.35h2.29c-2.8,2.74-4.57,7.45-4.57,12.35s1.78,9.66,4.57,12.32h-2.29c-2.56-2.56-4.28-7.45-4.28-12.32Z"/>
    <path d="m1196.33,244.81h3.33l7.08,18.97h-2.34l-1.62-4.25h-9.66l-1.62,4.25h-2.34l7.16-18.97Zm5.76,12.7l-3.98-10.55h-.24l-4.01,10.55h8.23Z"/>
    <path d="m1209.62,250.2h2.23v1.86h.27c.97-1.51,2.48-2.37,4.28-2.37,3.44,0,5.65,2.53,5.65,5.97v8.12h-2.23v-8.12c0-2.29-1.37-3.96-3.71-3.96s-4.25,1.78-4.25,4.14v7.94h-2.23v-13.58Z"/>
    <path d="m1225.47,265.99l2.23-.83c.73,2.1,2.45,3.34,4.87,3.34,2.96,0,4.9-1.91,4.9-4.95v-1.83h-.27c-1.18,1.51-2.82,2.42-4.95,2.42-4.09,0-7.05-2.99-7.05-7.16s2.96-7.29,7.05-7.29c2.18,0,3.82.94,4.98,2.45h.27v-1.94h2.21v13.34c0,4.25-2.85,6.97-7.24,6.97-3.5,0-6.08-1.7-6.99-4.52Zm12.08-9.01c0-3.07-2.15-5.3-5.06-5.3s-5.06,2.23-5.06,5.3,2.12,5.19,5.06,5.19,5.06-2.21,5.06-5.19Z"/>
    <path d="m1243.13,256.81c0-4.14,3.01-7.16,7.21-7.16s7.13,3.01,7.13,7.18c0,.27,0,.59-.03.89h-12.03c.32,2.74,2.31,4.57,5.08,4.57,2.02,0,3.79-1.02,4.65-2.64l1.86.94c-1.1,2.31-3.55,3.71-6.56,3.71-4.25,0-7.32-3.15-7.32-7.51Zm12-1.05c-.4-2.45-2.31-4.09-4.9-4.09s-4.41,1.64-4.79,4.09h9.68Z"/>
    <path d="m1260.91,244.01h2.23v19.77h-2.23v-19.77Z"/>
    <path d="m1266.19,260.34c0-2.39,2.04-4.17,6.08-4.63l3.77-.46v-.54c0-1.83-1.32-3.01-3.55-3.01-2.04,0-3.39,1-3.36,2.69h-2.26c0-2.88,2.23-4.71,5.65-4.71s5.76,1.99,5.76,5.08v9.01h-2.23v-1.99h-.24c-.97,1.56-2.55,2.42-4.73,2.42-2.93,0-4.87-1.53-4.87-3.87Zm9.85-1.96v-1.21l-3.77.43c-2.77.35-3.85,1.43-3.85,2.69s1.13,2.07,2.96,2.07c2.77,0,4.65-1.69,4.65-3.98Z"/>
    <path d="m1280.39,268.62c2.8-2.66,4.57-7.34,4.57-12.32s-1.78-9.6-4.57-12.35h2.31c2.56,2.56,4.28,7.48,4.28,12.35s-1.72,9.76-4.28,12.32h-2.31Z"/>
    <path d="m1297.64,244.81h2.45v16.81h9.55v2.15h-12v-18.97Z"/>
    <path d="m1312.28,246c0-.92.67-1.56,1.61-1.56s1.59.65,1.59,1.56-.65,1.61-1.59,1.61-1.61-.67-1.61-1.61Zm.48,4.2h2.23v13.58h-2.23v-13.58Z"/>
    <path d="m1331.49,263.78h-2.23v-1.86h-.27c-.94,1.48-2.47,2.34-4.25,2.34-3.47,0-5.65-2.5-5.65-5.97v-8.1h2.23v8.1c0,2.31,1.34,3.96,3.69,3.96s4.25-1.75,4.25-4.14v-7.91h2.23v13.58Z"/>
    <path d="m1341.69,256.3c0-4.87,1.72-9.79,4.28-12.35h2.29c-2.8,2.74-4.57,7.45-4.57,12.35s1.78,9.66,4.57,12.32h-2.29c-2.56-2.56-4.28-7.45-4.28-12.32Z"/>
    <path d="m1356.57,244.81h3.33l7.08,18.97h-2.34l-1.62-4.25h-9.66l-1.62,4.25h-2.34l7.16-18.97Zm5.76,12.7l-3.98-10.55h-.24l-4.01,10.55h8.23Z"/>
    <path d="m1368.79,259.18h2.15c.03,1.94,1.53,3.26,4.09,3.26,2.04,0,3.36-.86,3.36-2.29,0-1.78-1.86-1.91-3.9-2.18-2.53-.3-5.46-.97-5.46-4.06,0-2.64,2.21-4.25,5.46-4.25s5.7,1.8,5.7,4.6h-2.18c-.03-1.67-1.45-2.72-3.55-2.72-1.96,0-3.31.89-3.31,2.29,0,1.69,1.83,1.83,3.85,2.07,2.56.32,5.49.97,5.49,4.22,0,2.66-2.07,4.2-5.54,4.2-3.9,0-6.16-1.91-6.16-5.14Z"/>
    <path d="m1383.45,259.18h2.15c.03,1.94,1.53,3.26,4.09,3.26,2.04,0,3.36-.86,3.36-2.29,0-1.78-1.86-1.91-3.9-2.18-2.53-.3-5.46-.97-5.46-4.06,0-2.64,2.21-4.25,5.46-4.25s5.7,1.8,5.7,4.6h-2.18c-.03-1.67-1.45-2.72-3.55-2.72-1.96,0-3.31.89-3.31,2.29,0,1.69,1.83,1.83,3.85,2.07,2.55.32,5.49.97,5.49,4.22,0,2.66-2.07,4.2-5.54,4.2-3.9,0-6.16-1.91-6.16-5.14Z"/>
    <path d="m1398.44,246c0-.92.67-1.56,1.61-1.56s1.59.65,1.59,1.56-.65,1.61-1.59,1.61-1.61-.67-1.61-1.61Zm.48,4.2h2.23v13.58h-2.23v-13.58Z"/>
    <path d="m1404.92,259.18h2.15c.03,1.94,1.53,3.26,4.09,3.26,2.04,0,3.36-.86,3.36-2.29,0-1.78-1.86-1.91-3.9-2.18-2.53-.3-5.46-.97-5.46-4.06,0-2.64,2.21-4.25,5.46-4.25s5.7,1.8,5.7,4.6h-2.18c-.03-1.67-1.45-2.72-3.55-2.72-1.96,0-3.31.89-3.31,2.29,0,1.69,1.83,1.83,3.85,2.07,2.56.32,5.49.97,5.49,4.22,0,2.66-2.07,4.2-5.54,4.2-3.9,0-6.16-1.91-6.16-5.14Z"/>
    <path d="m1421.36,260.28v-8.31h-2.21v-1.78h2.21l.51-4.38h1.75l-.03,4.38h3.5v1.78h-3.5v8.23c0,1.29.81,2.21,2.1,2.21.4,0,1.1-.11,1.61-.27v1.8c-.64.22-1.53.35-2.21.35-2.29,0-3.74-1.61-3.74-4.01Z"/>
    <path d="m1429.62,260.34c0-2.39,2.04-4.17,6.08-4.63l3.77-.46v-.54c0-1.83-1.32-3.01-3.55-3.01-2.04,0-3.39,1-3.36,2.69h-2.26c0-2.88,2.23-4.71,5.65-4.71s5.76,1.99,5.76,5.08v9.01h-2.23v-1.99h-.24c-.97,1.56-2.55,2.42-4.73,2.42-2.93,0-4.87-1.53-4.87-3.87Zm9.85-1.96v-1.21l-3.77.43c-2.77.35-3.85,1.43-3.85,2.69s1.13,2.07,2.96,2.07c2.77,0,4.65-1.69,4.65-3.98Z"/>
    <path d="m1445.58,250.2h2.23v1.86h.27c.97-1.51,2.48-2.37,4.28-2.37,3.44,0,5.65,2.53,5.65,5.97v8.12h-2.23v-8.12c0-2.29-1.37-3.96-3.71-3.96s-4.25,1.78-4.25,4.14v7.94h-2.23v-13.58Z"/>
    <path d="m1463.04,260.28v-8.31h-2.21v-1.78h2.21l.51-4.38h1.75l-.03,4.38h3.5v1.78h-3.5v8.23c0,1.29.81,2.21,2.1,2.21.4,0,1.1-.11,1.61-.27v1.8c-.65.22-1.53.35-2.21.35-2.29,0-3.74-1.61-3.74-4.01Z"/>
    <path d="m1470.63,268.62c2.8-2.66,4.57-7.34,4.57-12.32s-1.78-9.6-4.57-12.35h2.31c2.56,2.56,4.28,7.48,4.28,12.35s-1.72,9.76-4.28,12.32h-2.31Z"/>
  </g>
  <rect class="cls-2" y="318" width="1532" height="460"/>
</svg>