<?xml version="1.0" encoding="UTF-8"?>
<svg id="Capa_1" data-name="Capa 1" xmlns="http://www.w3.org/2000/svg" viewBox="0 0 36.45 27.36">
  <defs>
    <style>
      .cls-1 {
        fill: #fff;
      }
    </style>
  </defs>
  <path class="cls-1" d="M12.4.89L.27,13.02c-.36.36-.36.96,0,1.32l12.12,12.12c1.12,1.13,2.94,1.2,4.04.16.56-.53.88-1.25.89-2.02.02-.73-.28-1.5-.83-2.04l-6.12-6.12h23.24c1.56,0,2.83-1.27,2.83-2.83s-1.27-2.83-2.83-2.83H10.52l5.98-5.98c.55-.54.86-1.31.83-2.04-.01-.77-.33-1.49-.89-2.02-1.1-1.04-2.91-.97-4.04.16Z"/>
</svg>