<?xml version="1.0" encoding="UTF-8"?>
<svg id="Capa_1" data-name="Capa 1" xmlns="http://www.w3.org/2000/svg" viewBox="0 0 37.83 26.72">
  <defs>
    <style>
      .cls-1 {
        fill: #fdfefe;
      }
    </style>
  </defs>
  <path class="cls-1" d="M35.58,4.5H2.25c-1.24,0-2.25-1.01-2.25-2.25S1.01,0,2.25,0h33.33c1.24,0,2.25,1.01,2.25,2.25s-1.01,2.25-2.25,2.25Z"/>
  <path class="cls-1" d="M31,15.61H6.84c-1.24,0-2.25-1.01-2.25-2.25s1.01-2.25,2.25-2.25h24.16c1.24,0,2.25,1.01,2.25,2.25s-1.01,2.25-2.25,2.25Z"/>
  <path class="cls-1" d="M26.26,26.72h-14.68c-1.24,0-2.25-1.01-2.25-2.25s1.01-2.25,2.25-2.25h14.68c1.24,0,2.25,1.01,2.25,2.25s-1.01,2.25-2.25,2.25Z"/>
</svg>