<?xml version="1.0" encoding="UTF-8"?>
<svg id="Capa_1" data-name="Capa 1" xmlns="http://www.w3.org/2000/svg" viewBox="0 0 35.04 35.11">
  <defs>
    <style>
      .cls-1 {
        fill: #fdfefe;
      }

      .cls-2 {
        fill: #fcfdfd;
      }
    </style>
  </defs>
  <g id="_8XbIyT" data-name="8XbIyT">
    <g>
      <path class="cls-1" d="M21.37,31.41c-.37.55-.73.92-1.2,1.02-.61.12-1.26.08-1.73-.39L3.33,16.93c-.5-.5-.75-.99-.71-1.69.03-.54.4-1.07.94-1.44,3.89-2.65,8.85-2.96,13.07-.82l5.65-5.66-2.18-2.2c-1.05-1.2-1.09-2.97-.02-4.12,1-1.07,2.92-1.46,4.11-.28l9.93,9.87c1.2,1.2,1.24,3.17.06,4.34-1.25,1.24-3.23,1.14-4.39-.12l-2-1.97-5.65,5.64c2.06,4.19,1.84,9.08-.76,12.93Z"/>
      <path class="cls-2" d="M2.74,34.55c-.66.73-1.64.73-2.28.1-.58-.57-.65-1.5.02-2.17l7.06-7.04c.79.69,1.47,1.36,2.18,2.14l-6.98,6.97Z"/>
    </g>
  </g>
</svg>