<?xml version="1.0" encoding="UTF-8"?>
<svg id="Capa_1" data-name="Capa 1" xmlns="http://www.w3.org/2000/svg" viewBox="0 0 26.97 34.33">
  <defs>
    <style>
      .cls-1 {
        fill: #fff;
      }
    </style>
  </defs>
  <path class="cls-1" d="M26.62,30.86l-6.09-9.49c1.89-1.7,3.21-3.94,3.76-6.48,1.44-6.62-2.77-13.17-9.38-14.62C8.29-1.16,1.73,3.05.28,9.67c-1.44,6.62,2.77,13.17,9.38,14.62.88.19,1.76.29,2.64.29,1.5,0,2.99-.28,4.39-.83l6.13,9.55c.43.67,1.16,1.04,1.9,1.04.42,0,.84-.12,1.21-.36,1.05-.67,1.35-2.06.68-3.11ZM10.63,19.89c-4.19-.92-6.86-5.07-5.95-9.26.79-3.64,4.02-6.12,7.6-6.12.55,0,1.1.06,1.66.18,2.03.44,3.77,1.65,4.89,3.4,1.12,1.75,1.5,3.83,1.05,5.86s-1.65,3.77-3.4,4.89c-1.75,1.12-3.83,1.5-5.86,1.05Z"/>
</svg>