<?xml version="1.0" encoding="UTF-8"?>
<svg id="Capa_1" data-name="Capa 1" xmlns="http://www.w3.org/2000/svg" viewBox="0 0 46.57 35.71">
  <defs>
    <style>
      .cls-1 {
        fill: #fff;
      }
    </style>
  </defs>
  <path class="cls-1" d="M20.75,23.42l12.13,12.13c.1.1.24.16.39.16h0c.15,0,.29-.06.4-.16l12.12-12.12c.98-.98,1.05-2.56.15-3.51-.46-.49-1.08-.76-1.75-.77-.65-.03-1.3.24-1.77.72l-6.76,6.76V2.46c0-1.35-1.1-2.46-2.46-2.46s-2.46,1.1-2.46,2.46v24.01l-6.62-6.62c-.48-.48-1.05-.72-1.71-.72-.02,0-.04,0-.06,0-.67,0-1.29.28-1.75.77-.9.96-.83,2.53.15,3.51Z"/>
  <path class="cls-1" d="M25.83,12.29L13.7.16c-.22-.22-.57-.21-.79,0L.78,12.29c-.98.98-1.05,2.56-.15,3.51.46.49,1.08.76,1.75.77.62,0,1.3-.25,1.77-.72l6.76-6.76v24.15c0,1.35,1.1,2.46,2.46,2.46s2.46-1.1,2.46-2.46V9.24l6.62,6.62c.47.48,1.13.73,1.76.72.68-.01,1.3-.29,1.76-.77.9-.96.83-2.53-.15-3.51Z"/>
</svg>