<?xml version="1.0" encoding="UTF-8"?>
<svg id="Capa_1" data-name="Capa 1" xmlns="http://www.w3.org/2000/svg" viewBox="0 0 586 827">
  <defs>
    <style>
      .cls-1 {
        fill: #fff;
      }

      .cls-2 {
        fill: #183084;
      }

      .cls-3 {
        fill: #284fff;
      }
    </style>
  </defs>
  <rect class="cls-3" width="586" height="827"/>
  <path class="cls-2" d="m-140.72,692.71c2.56-16.64,26.28-156.78,141.52-207.27,12.14-5.32,100.14-42.42,166.65-.23,94.97,60.24,52.87,222.97,114.94,242.06,61.01,18.77,116.12-134.03,220.33-126.5,62.37,4.51,116.17,64.56,136.79,120.35,22.22,60.13,5.73,114.83-3.04,142.51-42.44,133.96-202.92,298.63-404.82,285.27-238.93-15.82-400.66-272.05-372.38-456.18Z"/>
  <path class="cls-2" d="m71.72-115.37c72.96-71.23,141.51-139.15,239.67-134.49,14.49.69,118.88,7.1,163.61,80.85,63.86,105.29-56.6,244.46-4.99,293.39,50.73,48.09,179.12-75,277.7-16.92,59,34.76,82.56,119.85,75.65,184.61-7.46,69.88-49.91,115.14-72.32,138.33-122.22,126.51-362,166.68-430.44,81.14-62.95-78.67,63.32-208.32.5-293.08-82.38-111.16-365.57,22.78-413.49-63.82C-131.85,83.35,25.4-70.16,71.72-115.37Z"/>
  <g>
    <g>
      <path class="cls-1" d="m492.85,337.05c-.18.85-.32,1.7-.56,2.53-1.25,4.4-4.28,7.13-8.39,8.82-2.73,1.13-5.6,1.67-8.53,1.84-4.44.25-8.85.04-13.13-1.37-3.08-1.02-5.85-2.54-7.9-5.13-1.6-2.01-2.48-4.32-2.64-6.89-.05-.89-.08-1.79-.08-2.68,0-17.59,0-35.19,0-52.78,0-2.73.39-5.35,1.91-7.7,1.9-2.93,4.71-4.61,7.93-5.69,4.31-1.45,8.77-1.68,13.27-1.5,3.39.14,6.71.63,9.86,1.95,4.57,1.92,7.47,5.18,8.11,10.22.02.18.1.35.14.52v57.85Zm-23.59-29.08c0,8.16-.02,16.33.03,24.49,0,1.27.25,2.57.6,3.79.19.64.75,1.3,1.32,1.69,1.31.88,3,.29,3.78-1.21.69-1.32.8-2.76.79-4.22,0-10.66,0-21.33,0-31.99,0-5.77,0-11.53,0-17.3,0-1.38-.14-2.74-.77-3.99-.53-1.05-1.36-1.65-2.58-1.61-1.16.04-1.91.66-2.4,1.65-.65,1.31-.76,2.72-.76,4.15,0,8.19,0,16.38,0,24.57Z"/>
      <path class="cls-1" d="m139.05,335.77c2.35-.3,4.56-.58,6.83-.87v-1.22c0-23.05,0-46.1,0-69.15,0-.5.01-1,.02-1.5.01-1.09.48-1.93,1.4-2.51,1.77-1.1,3.59-2.11,5.31-3.28,2.98-2.02,5.55-4.45,7.28-7.66.26-.48.42-1.08.42-1.63.03-5.85.03-11.7,0-17.54,0-.59.19-.88.71-1.13,1.14-.55,2.24-1.16,3.35-1.77.99-.55,1.84-.51,2.66.27,7.59,7.21,12.45,15.83,13.5,26.38.08.81.1,1.63.1,2.45,0,28.64,0,57.27,0,85.91,0,.31,0,.63,0,1.06-2.23-.32-4.41-.63-6.72-.95v-.99c0-28.42,0-56.85,0-85.27,0-5.44-1.01-10.63-3.75-15.39-.66-1.14-1.42-2.22-2.17-3.29-.16-.22-.49-.32-.91-.58v105.2c-1.89-.07-3.71-.12-5.52-.2-1.23-.05-1.22-.07-1.22-1.26,0-26.98,0-53.95,0-80.93v-1.09c-.31.27-.5.42-.68.59-1.96,1.86-4.04,3.54-6.43,4.82-.64.34-.91.82-.91,1.58.02,22.68.01,45.36.01,68.05v.89c1.83.13,3.55.26,5.27.39,0,.08,0,.16,0,.24-.19.01-.38.04-.57.04-10.28.16-20.18,2.17-29.67,6.17-.31.13-.65.28-.98.28-4.03.02-8.06.01-12.15-.1.19-.09.37-.19.56-.26,5.46-2.06,11.06-3.58,16.77-4.73.58-.12.76-.32.76-.92-.02-19.34-.02-38.67,0-58.01,0-.59-.13-.83-.77-.88-.7-.05-1.4-.24-2.08-.44-2.87-.88-5.75-1.71-8.57-2.7-2.36-.82-4.65-1.82-6.97-2.75-.33-.13-.66-.29-1.12-.5v71.24h-6.15v-85.21c-.54.17-1.02.21-1.36.44-3.87,2.65-5.8,6.27-5.79,11.02.04,24.21.02,48.42.02,72.63,0,.34,0,.68,0,1.1h-6.15c0-.39,0-.75,0-1.12,0-23.84.08-47.68-.05-71.52-.04-7.05,2.8-12.44,8.18-16.69,1.3-1.03,2.74-1.86,4.09-2.82.95-.68,1.95-.77,3-.41,1.37.46,2.73.95,4.07,1.51.22.09.4.57.4.86.03,3.69.04,7.38,0,11.06,0,.67.22.95.83,1.19,7.36,2.97,14.84,5.54,22.53,7.49.46.12.91.28,1.34.47.68.29,1.09.83,1.17,1.57.07.57.1,1.15.1,1.73,0,19.78,0,39.57,0,59.35v1.3Z"/>
      <path class="cls-1" d="m385.57,287.55v61.03h-14v-80.87h22.91c2.7,17.58,5.4,35.16,8.1,52.74.06,0,.12-.01.18-.02v-52.72h14.08v80.85h-21.75c-3.1-20.35-6.21-40.69-9.32-61.04l-.2.03Z"/>
      <path class="cls-1" d="m273.84,308.13c0,8.96,0,17.91,0,26.87,0,3.13-.65,6.06-2.6,8.6-1.98,2.58-4.62,4.23-7.68,5.18-7.45,2.3-14.9,2.41-22.21-.53-4.46-1.8-7.54-4.97-8.48-9.85-.23-1.18-.28-2.41-.28-3.61-.02-17.7.08-35.4-.05-53.1-.06-8.33,4.76-12.08,10.36-13.84,4.55-1.43,9.23-1.55,13.93-1.19,2.93.22,5.79.78,8.51,1.92,5.72,2.39,8.47,6.48,8.48,12.69.01,8.96,0,17.91,0,26.87Zm-23.61-.17c0,8.29-.02,16.59.02,24.88,0,1.28.09,2.6.44,3.82.56,1.95,2.97,2.33,4.26.74.34-.42.65-.94.75-1.45.23-1.21.46-2.44.47-3.66.03-12.16.02-24.33.02-36.49,0-4.13.06-8.27-.03-12.4-.03-1.34-.31-2.72-.73-3.99-.43-1.3-1.6-1.9-2.78-1.76-1.14.14-1.91.87-2.14,2.29-.19,1.16-.25,2.36-.26,3.53-.02,8.16-.01,16.32,0,24.49Z"/>
      <path class="cls-1" d="m366.13,308.12c0,9.32.06,18.65-.03,27.97-.04,4.83-2.22,8.58-6.39,11.11-1.91,1.16-3.97,1.94-6.16,2.38-6.42,1.3-12.79,1.22-19-1.03-3.77-1.36-6.82-3.64-8.52-7.41-.84-1.86-1.15-3.83-1.15-5.84,0-18.12-.02-36.24,0-54.36,0-6.31,3.3-10.63,9.57-12.8,3.63-1.26,7.39-1.66,11.2-1.66,4,0,7.95.35,11.72,1.81,4.5,1.75,7.6,4.75,8.49,9.66.2,1.11.25,2.25.25,3.38.02,8.93.01,17.86.01,26.78h-.01Zm-17.35-.07h-.02c0-8.45.02-16.91-.02-25.36,0-1.01-.24-2.04-.55-3-.45-1.38-1.49-2.09-2.69-2.06-1.36.04-2.27.81-2.61,2.04-.34,1.23-.59,2.52-.61,3.79-.07,4.58-.03,9.16-.03,13.75,0,11.74-.01,23.49.02,35.23,0,1.27.16,2.58.48,3.81.38,1.47,1.45,2.13,2.87,2.09,1.24-.03,1.99-.74,2.47-1.79.63-1.35.68-2.8.68-4.25,0-8.08,0-16.17,0-24.25Z"/>
      <path class="cls-1" d="m323.05,348.92h-.87c-5.4,0-10.81-.01-16.21.02-.67,0-.93-.24-1.19-.82-1.46-3.37-2.04-6.88-2.03-10.54.03-6.9-.02-13.8-.05-20.7,0-.73-.11-1.47-.28-2.19-.64-2.85-2.87-4.36-5.89-3.97v38.15h-17.33v-81.15c.24-.02.46-.05.69-.05,6.85,0,13.71-.03,20.56.02,3.69.03,7.3.58,10.72,2.04,5.31,2.27,8.58,6.21,9.04,12.01.3,3.69.34,7.44,0,11.12-.54,5.79-4.3,9.63-10,10.83-.87.18-1.77.26-2.65.43-.25.05-.47.25-.7.39.23.11.46.27.7.31,1.66.27,3.36.38,4.99.78,4.87,1.19,7.27,4.07,7.68,9.07.12,1.44.16,2.89.18,4.34.06,6.4.05,12.8.16,19.2.06,3.34.91,6.55,2.11,9.67.12.31.22.64.36,1.05Zm-26.82-47.7c.8,0,1.49.02,2.17,0,2.35-.08,3.58-1.1,3.64-3.47.13-5.02.09-10.05.11-15.07,0-.49-.09-1-.2-1.48-.34-1.52-1.12-2.19-2.68-2.32-.71-.06-1.42,0-2.13-.07-.72-.07-.93.17-.93.91.03,6.87.02,13.73.02,20.6v.9Z"/>
      <path class="cls-1" d="m209.58,260.85h-13.23v-12.6h43.8v12.57h-12.9v87.74h-17.66v-87.71Z"/>
      <path class="cls-1" d="m425.79,279.98h-6.75v-12.25h30.83v12.23h-6.43v68.62h-17.65v-68.6Z"/>
      <path class="cls-1" d="m194.72,351.56c-1.36-.39-2.71-.79-4.07-1.16-3.3-.89-6.65-1.35-10.07-1.35-28.76,0-57.53,0-86.29,0-.36,0-.73,0-1.15,0v-4.31c.26-.01.53-.04.81-.04,22.23,0,44.45,0,66.68.02,5.67,0,11.33.23,16.94,1.17,5.88.98,11.48,2.86,16.91,5.28.11.05.2.13.31.2-.02.06-.04.12-.06.18Z"/>
    </g>
    <g>
      <path class="cls-1" d="m63.79,396.8h27.25c13.21,0,21.97,7.4,21.97,18.42,0,8.83-5.74,15.02-13.59,16.46l-.6.15,15.93,19.02h-17.74l-13.44-17.81h-3.85v17.81h-15.93v-54.05Zm24.46,25.89c5.06,0,8.83-2.72,8.83-7.25s-3.77-7.17-8.83-7.17h-8.53v14.42h8.53Z"/>
      <path class="cls-1" d="m116.18,431.23c0-12.38,9.06-20.31,21.97-20.31s21.29,8,21.29,20.46c0,1.13-.08,3.1-.23,3.85h-28.46c.91,4.23,3.77,6.87,8,6.87,3.4,0,5.81-1.74,7.02-4.23l12.15,2.19c-1.96,7.32-9.96,11.78-19.93,11.78-12.91,0-21.82-8.08-21.82-20.61Zm28.99-3.55c-.38-3.85-3.32-7.02-7.32-7.02s-6.49,2.72-7.25,7.02h14.57Z"/>
      <path class="cls-1" d="m164.41,411.9h14.12v5.74h.75c3.09-4.53,6.34-6.64,10.95-6.64,8.08,0,13.74,6.57,13.74,15.55v24.31h-14.12v-21.66c0-3.77-2.11-6.34-5.43-6.34s-5.89,2.72-5.89,6.57v21.44h-14.12v-38.95Z"/>
      <path class="cls-1" d="m212.8,436.81v-14.87h-4.98v-10.04h5.51l2.57-12.15h11.1v12.15h8.15v10.04h-8.15v14.19c0,3.02,1.81,5.06,4.6,5.06,1.06,0,2.57-.23,3.77-.53v9.81c-2.49.91-6.11,1.36-8.53,1.36-8.53,0-14.04-6.04-14.04-15.02Z"/>
      <path class="cls-1" d="m239.44,433.04h14.95c.08,4.53,3.77,7.47,10.27,7.47,5.13,0,8.45-1.89,8.45-5.21,0-3.93-4.45-4.83-9.96-5.59-9.29-1.28-23.33-2.42-23.33-16.3,0-10.72,9.21-17.66,23.48-17.66s23.93,7.7,23.93,18.87h-14.42c0-4.76-3.55-7.47-8.98-7.47-5.06,0-8.08,2.11-8.08,5.13,0,4.08,5.36,4.76,11.62,5.66,9.21,1.36,21.67,3.32,21.67,16.38,0,10.72-9.89,17.66-24.99,17.66s-24.61-7.77-24.61-18.95Z"/>
      <path class="cls-1" d="m292.28,440.59c0-7.55,6.11-11.55,18.87-13.29l6.79-.83v-1.74c0-2.87-1.89-4.83-5.13-4.83s-5.28,1.96-5.28,5.28h-13.66c0-8.68,7.47-14.27,19.1-14.27s19.17,5.59,19.17,14.34v25.59h-14.19v-4.6h-.75c-2.19,3.62-6.87,5.51-11.93,5.51-7.7,0-12.98-4.08-12.98-11.17Zm25.67-4.3v-2.34l-6.26.91c-4.15.53-5.81,2.11-5.81,4.38,0,2.42,1.81,4,4.91,4,4.23,0,7.17-2.94,7.17-6.94Z"/>
      <path class="cls-1" d="m341.5,421.94h-4.98v-10.04h4.98v-2.72c0-9.36,5.51-15.62,13.74-15.62,2.87,0,5.96.53,8.53,1.36v10.95c-1.13-.23-2.42-.45-3.55-.45-2.79,0-4.6,1.59-4.6,3.93v2.57h8.15v10.04h-8.15v28.91h-14.12v-28.91Z"/>
      <path class="cls-1" d="m366.33,431.23c0-12.38,9.06-20.31,21.97-20.31s21.29,8,21.29,20.46c0,1.13-.08,3.1-.23,3.85h-28.46c.91,4.23,3.77,6.87,8,6.87,3.4,0,5.81-1.74,7.02-4.23l12.15,2.19c-1.96,7.32-9.96,11.78-19.93,11.78-12.91,0-21.82-8.08-21.82-20.61Zm28.99-3.55c-.38-3.85-3.32-7.02-7.32-7.02s-6.49,2.72-7.25,7.02h14.57Z"/>
      <path class="cls-1" d="m428.91,409.86h-16.91v-13.06h49.75v13.06h-16.91v40.99h-15.93v-40.99Z"/>
      <path class="cls-1" d="m463.63,423.83c0-17.21,12.23-28.08,30.34-28.08s30.27,10.87,30.27,28.08-12.23,28.16-30.27,28.16-30.34-10.95-30.34-28.16Zm44.69,0c0-9.06-5.81-15.1-14.34-15.1s-14.42,6.04-14.42,15.1,5.89,15.1,14.42,15.1,14.34-5.96,14.34-15.1Z"/>
      <path class="cls-1" d="m119.62,487.38h27.25c13.21,0,21.97,7.4,21.97,18.42,0,8.83-5.74,15.02-13.59,16.46l-.6.15,15.93,19.02h-17.74l-13.44-17.81h-3.85v17.81h-15.93v-54.05Zm24.46,25.89c5.06,0,8.83-2.72,8.83-7.25s-3.77-7.17-8.83-7.17h-8.53v14.42h8.53Z"/>
      <path class="cls-1" d="m172,521.81c0-12.38,9.06-20.31,21.97-20.31s21.29,8,21.29,20.46c0,1.13-.08,3.1-.23,3.85h-28.46c.91,4.23,3.77,6.87,8,6.87,3.4,0,5.81-1.74,7.02-4.23l12.15,2.19c-1.96,7.32-9.96,11.78-19.93,11.78-12.91,0-21.82-8.08-21.82-20.61Zm28.99-3.55c-.38-3.85-3.32-7.02-7.32-7.02s-6.49,2.72-7.25,7.02h14.57Z"/>
      <path class="cls-1" d="m219.18,521.96c0-12.38,7.02-20.46,17.21-20.46,4.98,0,8.76,1.96,11.32,5.51h.75v-21.89h14.12v56.31h-14.12v-4.53h-.75c-2.57,3.55-6.19,5.51-11.25,5.51-10.34,0-17.29-7.93-17.29-20.46Zm29.89,0c0-4.91-3.32-8.6-7.85-8.6s-7.85,3.7-7.85,8.6,3.25,8.61,7.85,8.61,7.85-3.7,7.85-8.61Z"/>
      <path class="cls-1" d="m267.64,521.81c0-12.38,9.06-20.31,21.97-20.31s21.29,8,21.29,20.46c0,1.13-.08,3.1-.23,3.85h-28.46c.91,4.23,3.77,6.87,8,6.87,3.4,0,5.81-1.74,7.02-4.23l12.15,2.19c-1.96,7.32-9.96,11.78-19.93,11.78-12.91,0-21.82-8.08-21.82-20.61Zm28.99-3.55c-.38-3.85-3.32-7.02-7.32-7.02s-6.49,2.72-7.25,7.02h14.57Z"/>
      <path class="cls-1" d="m314.36,528.6h12c0,3.32,2.87,5.51,7.32,5.51,3.32,0,5.66-1.43,5.66-3.77,0-2.79-3.32-3.25-7.4-3.62-7.02-.68-17.36-1.28-17.36-12.08,0-8.23,7.32-13.36,18.42-13.36s18.8,5.06,18.8,13.06h-12.53c-.08-2.72-2.64-4.53-6.27-4.53-3.17,0-5.43,1.43-5.43,3.55,0,2.94,4.6,3.09,9.81,3.7,7.1.75,16,2.49,16,11.7,0,8.68-7.62,13.96-20,13.96-11.7,0-19.02-5.36-19.02-14.12Z"/>
      <path class="cls-1" d="m357.76,490.48c0-4.53,3.4-7.7,8-7.7s8.08,3.17,8.08,7.7-3.32,7.77-8.08,7.77-8-3.25-8-7.77Zm.98,12h14.12v38.95h-14.12v-38.95Z"/>
      <path class="cls-1" d="m378.29,545.51l13.59-1.89c.91,3.32,3.77,5.36,7.55,5.36,4.91,0,8-3.32,8-8.3v-4h-.75c-2.87,3.25-6.42,5.06-11.32,5.06-10.19,0-17.21-7.62-17.21-19.78,0-12.91,6.94-20.38,17.13-20.38,5.36,0,9.06,2.04,11.93,5.74h.75v-4.83h13.59v38.72c0,11.78-8.23,18.57-21.44,18.57-12.23,0-20.38-5.06-21.82-14.27Zm29.74-23.55c0-4.98-3.32-8.6-7.85-8.6s-7.85,3.62-7.85,8.6,3.25,8.46,7.85,8.46,7.85-3.55,7.85-8.46Z"/>
      <path class="cls-1" d="m428.26,502.48h14.12v5.74h.75c3.09-4.53,6.34-6.64,10.95-6.64,8.08,0,13.74,6.57,13.74,15.55v24.31h-14.12v-21.66c0-3.77-2.11-6.34-5.43-6.34s-5.89,2.72-5.89,6.57v21.44h-14.12v-38.95Z"/>
    </g>
    <g>
      <path class="cls-1" d="m209.98,573.69h13.02v2.15h-10.54v5.92h9.47v2.15h-9.47v6.59h10.81v2.15h-13.29v-18.97Z"/>
      <path class="cls-1" d="m226.15,586.49h2.42c.03,2.93,2.1,4.68,5.65,4.68,3.09,0,4.9-1.34,4.9-3.47,0-2.61-2.64-3.04-5.49-3.5-3.42-.54-7.18-1.43-7.18-5.54,0-3.42,2.61-5.65,7.18-5.65s7.48,2.42,7.51,6.43h-2.37c0-2.69-1.88-4.28-5.14-4.28-3.07,0-4.73,1.32-4.73,3.36,0,2.5,2.53,2.96,5.33,3.39,3.44.57,7.34,1.32,7.34,5.62,0,3.55-2.72,5.78-7.37,5.78-4.98,0-8.04-2.61-8.04-6.83Z"/>
      <path class="cls-1" d="m245.66,573.69h7.56c4.14,0,6.83,2.18,6.81,5.81,0,3.58-2.77,5.81-6.81,5.81h-5.16v7.34h-2.39v-18.97Zm7.56,9.44c2.74,0,4.39-1.43,4.39-3.63s-1.64-3.66-4.39-3.66h-5.16v7.29h5.16Z"/>
      <path class="cls-1" d="m270.44,573.69h2.45v18.97h-2.45v-18.97Z"/>
      <path class="cls-1" d="m278,573.69h2.45v18.97h-2.45v-18.97Z"/>
      <path class="cls-1" d="m292.29,573.69h7.56c4.14,0,6.83,2.18,6.81,5.81,0,3.58-2.77,5.81-6.81,5.81h-5.16v7.34h-2.39v-18.97Zm7.56,9.44c2.74,0,4.39-1.43,4.39-3.63s-1.64-3.66-4.39-3.66h-5.16v7.29h5.16Z"/>
      <path class="cls-1" d="m309.86,579.07h2.18v1.83h.24c.62-1.24,2.12-2.1,3.63-2.1.62,0,1.27.13,1.67.35v2.07c-.7-.3-1.51-.4-2.02-.4-2.04,0-3.47,1.83-3.47,4.52v7.32h-2.23v-13.59Z"/>
      <path class="cls-1" d="m319.2,585.85c0-4.28,3.01-7.32,7.29-7.32s7.29,3.04,7.29,7.32-3.04,7.34-7.29,7.34-7.29-3.04-7.29-7.34Zm12.35,0c0-3.07-2.12-5.3-5.06-5.3s-5.06,2.23-5.06,5.3,2.1,5.33,5.06,5.33,5.06-2.23,5.06-5.33Z"/>
      <path class="cls-1" d="m333.68,598.36v-1.91c.51.16,1.21.24,1.75.24,1.24,0,2.04-.89,2.04-2.15v-15.47h2.23v15.47c0,2.42-1.53,4.17-3.66,4.17-.83,0-1.75-.13-2.37-.35Zm3.28-23.49c0-.92.67-1.56,1.61-1.56s1.62.64,1.62,1.56-.67,1.61-1.62,1.61-1.61-.67-1.61-1.61Z"/>
      <path class="cls-1" d="m343.61,585.69c0-4.14,3.01-7.16,7.21-7.16s7.13,3.01,7.13,7.18c0,.27,0,.59-.03.89h-12.02c.32,2.74,2.31,4.57,5.08,4.57,2.02,0,3.79-1.02,4.65-2.64l1.86.94c-1.1,2.31-3.55,3.71-6.56,3.71-4.25,0-7.32-3.15-7.32-7.5Zm12-1.05c-.4-2.45-2.31-4.09-4.9-4.09s-4.41,1.64-4.79,4.09h9.68Z"/>
      <path class="cls-1" d="m360.69,585.85c0-4.25,2.96-7.32,7.08-7.32,3.34,0,6.11,2.1,6.62,5l-2.18.3c-.48-1.96-2.34-3.28-4.41-3.28-2.77,0-4.9,2.18-4.87,5.3,0,3.15,2.07,5.33,4.84,5.33,2.13,0,3.93-1.32,4.47-3.23l2.21.3c-.62,2.88-3.42,4.95-6.67,4.95-4.12,0-7.1-3.09-7.08-7.34Z"/>
      <path class="cls-1" d="m378.5,589.16v-8.31h-2.21v-1.78h2.21l.51-4.38h1.75l-.03,4.38h3.5v1.78h-3.5v8.23c0,1.29.81,2.21,2.1,2.21.4,0,1.1-.11,1.61-.27v1.8c-.64.21-1.53.35-2.21.35-2.29,0-3.74-1.61-3.74-4.01Z"/>
    </g>
  </g>
</svg>