<?xml version="1.0" encoding="UTF-8"?>
<svg id="Capa_1" data-name="Capa 1" xmlns="http://www.w3.org/2000/svg" viewBox="0 0 1532 318">
  <defs>
    <style>
      .cls-1 {
        fill: #ff001f;
      }

      .cls-2 {
        fill: #fcf6f7;
      }
    </style>
  </defs>
  <rect class="cls-1" width="1532" height="318"/>
  <g>
    <path class="cls-2" d="m1330.55,54.6h-6.11v-3.71h16.68v3.71h-6.11v15.44h-4.47v-15.44Z"/>
    <path class="cls-2" d="m1339.89,63.15c0-4.44,3.04-7.32,7.64-7.32s7.64,2.88,7.64,7.32-3.07,7.32-7.64,7.32-7.64-2.88-7.64-7.32Zm11.27,0c0-2.29-1.51-3.9-3.63-3.9s-3.66,1.61-3.66,3.9,1.51,3.93,3.66,3.93,3.63-1.64,3.63-3.93Z"/>
    <path class="cls-2" d="m1357.05,63.15c0-4.44,3.04-7.32,7.64-7.32s7.64,2.88,7.64,7.32-3.07,7.32-7.64,7.32-7.64-2.88-7.64-7.32Zm11.27,0c0-2.29-1.51-3.9-3.63-3.9s-3.66,1.61-3.66,3.9,1.51,3.93,3.66,3.93,3.63-1.64,3.63-3.93Z"/>
    <path class="cls-2" d="m1374.73,50.08h3.98v19.96h-3.98v-19.96Z"/>
    <path class="cls-2" d="m1381.19,65.44h3.52c0,1.45,1.18,2.45,3.15,2.45,1.51,0,2.5-.65,2.5-1.69,0-1.26-1.43-1.43-3.09-1.59-2.53-.27-5.92-.67-5.92-4.22,0-2.82,2.45-4.6,6.13-4.6s6.35,1.8,6.35,4.65h-3.63c-.03-1.24-1.13-2.02-2.72-2.02-1.45,0-2.45.65-2.45,1.64,0,1.29,1.69,1.37,3.6,1.59,2.53.3,5.62.91,5.62,4.2,0,2.93-2.45,4.68-6.51,4.68s-6.56-1.91-6.56-5.08Z"/>
    <path class="cls-2" d="m1403.69,62.37v-11.49h4.47v11.38c0,2.72,1.69,4.57,4.12,4.57s4.09-1.88,4.09-4.57v-11.38h4.47v11.49c0,4.92-3.52,8.18-8.55,8.18s-8.58-3.26-8.58-8.18Z"/>
    <path class="cls-2" d="m1423.6,65.44h3.52c0,1.45,1.18,2.45,3.15,2.45,1.51,0,2.5-.65,2.5-1.69,0-1.26-1.43-1.43-3.09-1.59-2.53-.27-5.92-.67-5.92-4.22,0-2.82,2.45-4.6,6.13-4.6s6.35,1.8,6.35,4.65h-3.63c-.03-1.24-1.13-2.02-2.72-2.02-1.45,0-2.45.65-2.45,1.64,0,1.29,1.69,1.37,3.6,1.59,2.53.3,5.62.91,5.62,4.2,0,2.93-2.45,4.68-6.51,4.68s-6.56-1.91-6.56-5.08Z"/>
    <path class="cls-2" d="m1438.59,63.05c0-4.3,3.15-7.21,7.59-7.21s7.4,2.93,7.4,7.26c0,.35,0,.91-.05,1.21h-10.81c.32,1.94,1.69,3.2,3.66,3.2,1.53,0,2.72-.75,3.31-1.88l3.39.86c-.86,2.47-3.52,3.98-6.86,3.98-4.47,0-7.61-2.99-7.61-7.42Zm10.92-1.21c-.24-1.75-1.59-3.04-3.44-3.04s-3.07,1.21-3.39,3.04h6.83Z"/>
    <path class="cls-2" d="m1455.51,63.15c0-4.36,2.74-7.32,6.48-7.32,1.91,0,3.42.78,4.38,2.15h.27v-7.91h3.98v19.96h-3.98v-1.75h-.27c-.97,1.4-2.42,2.18-4.36,2.18-3.79,0-6.51-2.93-6.51-7.32Zm11.27,0c0-2.21-1.51-3.9-3.63-3.9s-3.66,1.69-3.66,3.9,1.56,3.93,3.66,3.93,3.63-1.72,3.63-3.93Z"/>
    <path class="cls-2" d="m1473.05,58.77c0-1.29.97-2.23,2.31-2.23s2.31.94,2.31,2.23-.97,2.26-2.31,2.26-2.31-.94-2.31-2.26Zm0,9.33c0-1.32.97-2.26,2.31-2.26s2.31.94,2.31,2.26-.97,2.26-2.31,2.26-2.31-.94-2.31-2.26Z"/>
    <path class="cls-2" d="m1149.11,83.37h3.34l7.08,18.97h-2.34l-1.61-4.25h-9.66l-1.61,4.25h-2.34l7.16-18.97Zm5.76,12.7l-3.98-10.55h-.24l-4.01,10.55h8.23Z"/>
    <path class="cls-2" d="m1161.19,95.53c0-4.25,3.04-7.32,7.02-7.32,2.18,0,3.98.91,4.98,2.56h.27v-8.21h2.23v19.77h-2.23v-2.1h-.27c-1,1.67-2.74,2.64-4.95,2.64-3.98,0-7.05-3.09-7.05-7.34Zm12.32,0c0-2.99-2.13-5.3-5.03-5.3s-5.06,2.31-5.06,5.3,2.15,5.33,5.06,5.33,5.03-2.34,5.03-5.33Z"/>
    <path class="cls-2" d="m1179.09,95.53c0-4.28,3.01-7.32,7.29-7.32s7.29,3.04,7.29,7.32-3.04,7.34-7.29,7.34-7.29-3.04-7.29-7.34Zm12.35,0c0-3.07-2.13-5.3-5.06-5.3s-5.06,2.23-5.06,5.3,2.1,5.33,5.06,5.33,5.06-2.23,5.06-5.33Z"/>
    <path class="cls-2" d="m1199.56,100.23h-.24v2.1h-2.23v-19.77h2.23v8.21h.24c1-1.64,2.82-2.56,5-2.56,3.95,0,6.99,3.07,6.99,7.32s-3.07,7.34-7.02,7.34c-2.23,0-3.98-.97-4.98-2.64Zm9.77-4.71c0-2.99-2.13-5.3-5.03-5.3s-5.06,2.31-5.06,5.3,2.12,5.33,5.06,5.33,5.03-2.29,5.03-5.33Z"/>
    <path class="cls-2" d="m1214.31,95.36c0-4.14,3.01-7.16,7.21-7.16s7.13,3.01,7.13,7.18c0,.27,0,.59-.03.89h-12.02c.32,2.74,2.31,4.57,5.08,4.57,2.02,0,3.79-1.02,4.65-2.64l1.86.94c-1.1,2.31-3.55,3.71-6.56,3.71-4.25,0-7.32-3.15-7.32-7.51Zm12-1.05c-.4-2.45-2.31-4.09-4.9-4.09s-4.41,1.64-4.79,4.09h9.68Z"/>
    <path class="cls-2" d="m1239.31,83.37h2.45v18.97h-2.45v-18.97Z"/>
    <path class="cls-2" d="m1246.38,82.56h2.23v19.77h-2.23v-19.77Z"/>
    <path class="cls-2" d="m1252.73,82.56h2.23v19.77h-2.23v-19.77Z"/>
    <path class="cls-2" d="m1271.21,102.33h-2.23v-1.86h-.27c-.94,1.48-2.48,2.34-4.25,2.34-3.47,0-5.65-2.5-5.65-5.97v-8.1h2.23v8.1c0,2.31,1.35,3.95,3.69,3.95s4.25-1.75,4.25-4.14v-7.91h2.23v13.58Z"/>
    <path class="cls-2" d="m1274.77,97.73h2.15c.03,1.94,1.53,3.25,4.09,3.25,2.04,0,3.36-.86,3.36-2.29,0-1.78-1.86-1.91-3.9-2.18-2.53-.3-5.46-.97-5.46-4.06,0-2.64,2.21-4.25,5.46-4.25s5.7,1.8,5.7,4.6h-2.18c-.03-1.67-1.45-2.72-3.55-2.72-1.96,0-3.31.89-3.31,2.29,0,1.69,1.83,1.83,3.85,2.07,2.56.32,5.49.97,5.49,4.22,0,2.66-2.07,4.2-5.54,4.2-3.9,0-6.16-1.91-6.16-5.14Z"/>
    <path class="cls-2" d="m1291.21,98.83v-8.31h-2.21v-1.78h2.21l.51-4.39h1.75l-.03,4.39h3.5v1.78h-3.5v8.23c0,1.29.81,2.21,2.1,2.21.4,0,1.1-.11,1.61-.27v1.8c-.65.21-1.53.35-2.21.35-2.29,0-3.74-1.61-3.74-4.01Z"/>
    <path class="cls-2" d="m1300.55,88.75h2.18v1.83h.24c.62-1.24,2.12-2.1,3.63-2.1.62,0,1.26.13,1.67.35v2.07c-.7-.3-1.51-.4-2.02-.4-2.04,0-3.47,1.83-3.47,4.52v7.32h-2.23v-13.58Z"/>
    <path class="cls-2" d="m1309.78,98.89c0-2.39,2.04-4.17,6.08-4.63l3.77-.46v-.54c0-1.83-1.32-3.01-3.55-3.01-2.04,0-3.39,1-3.36,2.69h-2.26c0-2.88,2.23-4.71,5.65-4.71s5.76,1.99,5.76,5.08v9.01h-2.23v-1.99h-.24c-.97,1.56-2.56,2.42-4.73,2.42-2.93,0-4.87-1.53-4.87-3.87Zm9.85-1.96v-1.21l-3.77.43c-2.77.35-3.85,1.43-3.85,2.69s1.13,2.07,2.96,2.07c2.77,0,4.65-1.69,4.65-3.98Z"/>
    <path class="cls-2" d="m1326.92,98.83v-8.31h-2.21v-1.78h2.21l.51-4.39h1.75l-.03,4.39h3.5v1.78h-3.5v8.23c0,1.29.81,2.21,2.1,2.21.4,0,1.1-.11,1.61-.27v1.8c-.65.21-1.53.35-2.21.35-2.29,0-3.74-1.61-3.74-4.01Z"/>
    <path class="cls-2" d="m1335.02,95.53c0-4.28,3.01-7.32,7.29-7.32s7.29,3.04,7.29,7.32-3.04,7.34-7.29,7.34-7.29-3.04-7.29-7.34Zm12.35,0c0-3.07-2.13-5.3-5.06-5.3s-5.06,2.23-5.06,5.3,2.1,5.33,5.06,5.33,5.06-2.23,5.06-5.33Z"/>
    <path class="cls-2" d="m1353.02,88.75h2.18v1.83h.24c.62-1.24,2.12-2.1,3.63-2.1.62,0,1.26.13,1.67.35v2.07c-.7-.3-1.51-.4-2.02-.4-2.04,0-3.47,1.83-3.47,4.52v7.32h-2.23v-13.58Z"/>
    <path class="cls-2" d="m1369.67,94.85c0-4.87,1.72-9.79,4.28-12.35h2.29c-2.8,2.74-4.57,7.45-4.57,12.35s1.78,9.66,4.57,12.32h-2.29c-2.56-2.56-4.28-7.45-4.28-12.32Z"/>
    <path class="cls-2" d="m1379.15,83.37h6.08c6.56,0,10.92,3.74,10.92,9.47s-4.36,9.5-10.92,9.5h-6.08v-18.97Zm6.08,16.81c5.08,0,8.5-2.8,8.5-7.34s-3.44-7.32-8.5-7.32h-3.63v14.66h3.63Z"/>
    <path class="cls-2" d="m1398.92,95.36c0-4.14,3.01-7.16,7.21-7.16s7.13,3.01,7.13,7.18c0,.27,0,.59-.03.89h-12.02c.32,2.74,2.31,4.57,5.08,4.57,2.02,0,3.79-1.02,4.65-2.64l1.86.94c-1.1,2.31-3.55,3.71-6.56,3.71-4.25,0-7.32-3.15-7.32-7.51Zm12-1.05c-.4-2.45-2.31-4.09-4.9-4.09s-4.41,1.64-4.79,4.09h9.68Z"/>
    <path class="cls-2" d="m1416.12,97.73h2.15c.03,1.94,1.53,3.25,4.09,3.25,2.04,0,3.36-.86,3.36-2.29,0-1.78-1.86-1.91-3.9-2.18-2.53-.3-5.46-.97-5.46-4.06,0-2.64,2.21-4.25,5.46-4.25s5.7,1.8,5.7,4.6h-2.18c-.03-1.67-1.45-2.72-3.55-2.72-1.96,0-3.31.89-3.31,2.29,0,1.69,1.83,1.83,3.85,2.07,2.56.32,5.49.97,5.49,4.22,0,2.66-2.07,4.2-5.54,4.2-3.9,0-6.16-1.91-6.16-5.14Z"/>
    <path class="cls-2" d="m1431.1,84.55c0-.91.67-1.56,1.61-1.56s1.59.65,1.59,1.56-.65,1.61-1.59,1.61-1.61-.67-1.61-1.61Zm.48,4.2h2.23v13.58h-2.23v-13.58Z"/>
    <path class="cls-2" d="m1437.75,104.54l2.23-.83c.73,2.1,2.45,3.34,4.87,3.34,2.96,0,4.9-1.91,4.9-4.95v-1.83h-.27c-1.18,1.51-2.82,2.42-4.95,2.42-4.09,0-7.05-2.99-7.05-7.16s2.96-7.29,7.05-7.29c2.18,0,3.82.94,4.98,2.45h.27v-1.94h2.21v13.34c0,4.25-2.85,6.97-7.24,6.97-3.5,0-6.08-1.69-6.99-4.52Zm12.08-9.01c0-3.07-2.15-5.3-5.06-5.3s-5.06,2.23-5.06,5.3,2.12,5.19,5.06,5.19,5.06-2.21,5.06-5.19Z"/>
    <path class="cls-2" d="m1456.1,88.75h2.23v1.86h.27c.97-1.51,2.48-2.37,4.28-2.37,3.44,0,5.65,2.53,5.65,5.97v8.12h-2.23v-8.12c0-2.29-1.37-3.95-3.71-3.95s-4.25,1.78-4.25,4.14v7.94h-2.23v-13.58Z"/>
    <path class="cls-2" d="m1470.63,107.17c2.8-2.66,4.57-7.34,4.57-12.32s-1.78-9.6-4.57-12.35h2.31c2.56,2.56,4.28,7.48,4.28,12.35s-1.72,9.77-4.28,12.32h-2.31Z"/>
    <path class="cls-2" d="m1299.6,115.66h3.34l7.08,18.97h-2.34l-1.61-4.25h-9.66l-1.61,4.25h-2.34l7.16-18.97Zm5.76,12.7l-3.98-10.55h-.24l-4.01,10.55h8.23Z"/>
    <path class="cls-2" d="m1311.69,127.81c0-4.25,3.04-7.32,7.02-7.32,2.18,0,3.98.91,4.98,2.56h.27v-8.21h2.23v19.77h-2.23v-2.1h-.27c-1,1.67-2.74,2.64-4.95,2.64-3.98,0-7.05-3.09-7.05-7.34Zm12.32,0c0-2.99-2.13-5.3-5.03-5.3s-5.06,2.31-5.06,5.3,2.15,5.33,5.06,5.33,5.03-2.34,5.03-5.33Z"/>
    <path class="cls-2" d="m1329.58,127.81c0-4.28,3.01-7.32,7.29-7.32s7.29,3.04,7.29,7.32-3.04,7.34-7.29,7.34-7.29-3.04-7.29-7.34Zm12.35,0c0-3.07-2.13-5.3-5.06-5.3s-5.06,2.23-5.06,5.3,2.1,5.33,5.06,5.33,5.06-2.23,5.06-5.33Z"/>
    <path class="cls-2" d="m1350.06,132.52h-.24v2.1h-2.23v-19.77h2.23v8.21h.24c1-1.64,2.82-2.56,5-2.56,3.95,0,6.99,3.07,6.99,7.32s-3.07,7.34-7.02,7.34c-2.23,0-3.98-.97-4.98-2.64Zm9.77-4.71c0-2.99-2.13-5.3-5.03-5.3s-5.06,2.31-5.06,5.3,2.12,5.33,5.06,5.33,5.03-2.29,5.03-5.33Z"/>
    <path class="cls-2" d="m1364.8,127.65c0-4.14,3.01-7.16,7.21-7.16s7.13,3.01,7.13,7.18c0,.27,0,.59-.03.89h-12.02c.32,2.74,2.31,4.57,5.08,4.57,2.02,0,3.79-1.02,4.65-2.64l1.86.94c-1.1,2.31-3.55,3.71-6.56,3.71-4.25,0-7.32-3.15-7.32-7.51Zm12-1.05c-.4-2.45-2.31-4.09-4.9-4.09s-4.41,1.64-4.79,4.09h9.68Z"/>
    <path class="cls-2" d="m1395.13,124.59l-6.56-8.93h2.77l5.27,7.51h.24l5.43-7.51h2.77l-6.73,8.93,6.99,10.03h-2.74l-5.73-8.42h-.24l-5.57,8.42h-2.74l6.83-10.03Z"/>
    <path class="cls-2" d="m1408.93,115.66h6.08c6.56,0,10.92,3.74,10.92,9.47s-4.36,9.5-10.92,9.5h-6.08v-18.97Zm6.08,16.81c5.08,0,8.5-2.8,8.5-7.34s-3.44-7.32-8.5-7.32h-3.63v14.66h3.63Z"/>
    <path class="cls-2" d="m1435.46,127.14c0-4.87,1.72-9.79,4.28-12.35h2.29c-2.8,2.74-4.57,7.45-4.57,12.35s1.78,9.66,4.57,12.32h-2.29c-2.56-2.56-4.28-7.45-4.28-12.32Z"/>
    <path class="cls-2" d="m1444.77,127.33v-11.68h2.48v11.68c0,3.39,2.23,5.81,5.33,5.81s5.3-2.42,5.3-5.81v-11.68h2.45v11.68c0,4.63-3.23,7.96-7.75,7.96s-7.8-3.34-7.8-7.96Z"/>
    <path class="cls-2" d="m1465.3,115.66h2.45v18.97h-2.45v-18.97Z"/>
    <path class="cls-2" d="m1470.63,139.46c2.8-2.66,4.57-7.34,4.57-12.32s-1.78-9.6-4.57-12.35h2.31c2.56,2.56,4.28,7.48,4.28,12.35s-1.72,9.77-4.28,12.32h-2.31Z"/>
    <path class="cls-2" d="m1053.4,147.95h3.34l7.08,18.97h-2.34l-1.61-4.25h-9.66l-1.61,4.25h-2.34l7.16-18.97Zm5.76,12.7l-3.98-10.55h-.24l-4.01,10.55h8.23Z"/>
    <path class="cls-2" d="m1065.48,160.1c0-4.25,3.04-7.32,7.02-7.32,2.18,0,3.98.91,4.98,2.56h.27v-8.21h2.23v19.77h-2.23v-2.1h-.27c-1,1.67-2.74,2.64-4.95,2.64-3.98,0-7.05-3.09-7.05-7.34Zm12.32,0c0-2.99-2.13-5.3-5.03-5.3s-5.06,2.31-5.06,5.3,2.15,5.33,5.06,5.33,5.03-2.34,5.03-5.33Z"/>
    <path class="cls-2" d="m1083.37,160.1c0-4.28,3.01-7.32,7.29-7.32s7.29,3.04,7.29,7.32-3.04,7.34-7.29,7.34-7.29-3.04-7.29-7.34Zm12.35,0c0-3.07-2.13-5.3-5.06-5.3s-5.06,2.23-5.06,5.3,2.1,5.33,5.06,5.33,5.06-2.23,5.06-5.33Z"/>
    <path class="cls-2" d="m1103.85,164.81h-.24v2.1h-2.23v-19.77h2.23v8.21h.24c1-1.64,2.82-2.56,5-2.56,3.95,0,6.99,3.07,6.99,7.32s-3.07,7.34-7.02,7.34c-2.23,0-3.98-.97-4.98-2.64Zm9.77-4.71c0-2.99-2.13-5.3-5.03-5.3s-5.06,2.31-5.06,5.3,2.12,5.33,5.06,5.33,5.03-2.29,5.03-5.33Z"/>
    <path class="cls-2" d="m1118.6,159.94c0-4.14,3.01-7.16,7.21-7.16s7.13,3.01,7.13,7.18c0,.27,0,.59-.03.89h-12.02c.32,2.74,2.31,4.57,5.08,4.57,2.02,0,3.79-1.02,4.65-2.64l1.86.94c-1.1,2.31-3.55,3.71-6.56,3.71-4.25,0-7.32-3.15-7.32-7.51Zm12-1.05c-.4-2.45-2.31-4.09-4.9-4.09s-4.41,1.64-4.79,4.09h9.68Z"/>
    <path class="cls-2" d="m1149,147.95h3.34l7.08,18.97h-2.34l-1.61-4.25h-9.66l-1.61,4.25h-2.34l7.16-18.97Zm5.76,12.7l-3.98-10.55h-.24l-4.01,10.55h8.23Z"/>
    <path class="cls-2" d="m1162.72,155.1h-2.18v-1.78h2.18v-2.74c0-2.42,1.48-3.98,3.63-3.98.78,0,1.45.13,2.07.32v1.94c-.46-.13-.94-.24-1.48-.24-1.18,0-1.99.86-1.99,2.18v2.53h3.44v1.78h-3.44v11.81h-2.23v-11.81Z"/>
    <path class="cls-2" d="m1172.73,163.41v-8.31h-2.21v-1.78h2.21l.51-4.39h1.75l-.03,4.39h3.5v1.78h-3.5v8.23c0,1.29.81,2.21,2.1,2.21.4,0,1.1-.11,1.61-.27v1.8c-.65.21-1.53.35-2.21.35-2.29,0-3.74-1.61-3.74-4.01Z"/>
    <path class="cls-2" d="m1180.86,159.94c0-4.14,3.01-7.16,7.21-7.16s7.13,3.01,7.13,7.18c0,.27,0,.59-.03.89h-12.02c.32,2.74,2.31,4.57,5.08,4.57,2.02,0,3.79-1.02,4.65-2.64l1.86.94c-1.1,2.31-3.55,3.71-6.56,3.71-4.25,0-7.32-3.15-7.32-7.51Zm12-1.05c-.4-2.45-2.31-4.09-4.9-4.09s-4.41,1.64-4.79,4.09h9.68Z"/>
    <path class="cls-2" d="m1198.65,153.33h2.18v1.83h.24c.62-1.24,2.12-2.1,3.63-2.1.62,0,1.26.13,1.67.35v2.07c-.7-.3-1.51-.4-2.02-.4-2.04,0-3.47,1.83-3.47,4.52v7.32h-2.23v-13.58Z"/>
    <path class="cls-2" d="m1216.46,147.95h13.02v2.15h-10.54v5.92h9.47v2.15h-9.47v6.59h10.81v2.15h-13.29v-18.97Z"/>
    <path class="cls-2" d="m1234.38,155.1h-2.18v-1.78h2.18v-2.74c0-2.42,1.48-3.98,3.63-3.98.78,0,1.45.13,2.07.32v1.94c-.46-.13-.94-.24-1.48-.24-1.18,0-1.99.86-1.99,2.18v2.53h3.44v1.78h-3.44v11.81h-2.23v-11.81Z"/>
    <path class="cls-2" d="m1243.45,155.1h-2.18v-1.78h2.18v-2.74c0-2.42,1.48-3.98,3.63-3.98.78,0,1.45.13,2.07.32v1.94c-.46-.13-.94-.24-1.48-.24-1.18,0-1.99.86-1.99,2.18v2.53h3.44v1.78h-3.44v11.81h-2.23v-11.81Z"/>
    <path class="cls-2" d="m1250.77,159.94c0-4.14,3.01-7.16,7.21-7.16s7.13,3.01,7.13,7.18c0,.27,0,.59-.03.89h-12.02c.32,2.74,2.31,4.57,5.08,4.57,2.02,0,3.79-1.02,4.65-2.64l1.86.94c-1.1,2.31-3.55,3.71-6.56,3.71-4.25,0-7.32-3.15-7.32-7.51Zm12-1.05c-.4-2.45-2.31-4.09-4.9-4.09s-4.41,1.64-4.79,4.09h9.68Z"/>
    <path class="cls-2" d="m1267.85,160.1c0-4.25,2.96-7.32,7.07-7.32,3.34,0,6.11,2.1,6.62,5l-2.18.3c-.48-1.96-2.34-3.28-4.41-3.28-2.77,0-4.9,2.18-4.87,5.3,0,3.15,2.07,5.33,4.84,5.33,2.13,0,3.93-1.32,4.47-3.23l2.21.3c-.62,2.88-3.42,4.95-6.67,4.95-4.12,0-7.1-3.09-7.07-7.34Z"/>
    <path class="cls-2" d="m1285.67,163.41v-8.31h-2.21v-1.78h2.21l.51-4.39h1.75l-.03,4.39h3.5v1.78h-3.5v8.23c0,1.29.81,2.21,2.1,2.21.4,0,1.1-.11,1.61-.27v1.8c-.65.21-1.53.35-2.21.35-2.29,0-3.74-1.61-3.74-4.01Z"/>
    <path class="cls-2" d="m1294.41,162.31h2.15c.03,1.94,1.53,3.25,4.09,3.25,2.04,0,3.36-.86,3.36-2.29,0-1.78-1.86-1.91-3.9-2.18-2.53-.3-5.46-.97-5.46-4.06,0-2.64,2.21-4.25,5.46-4.25s5.7,1.8,5.7,4.6h-2.18c-.03-1.67-1.45-2.72-3.55-2.72-1.96,0-3.31.89-3.31,2.29,0,1.69,1.83,1.83,3.85,2.07,2.56.32,5.49.97,5.49,4.22,0,2.66-2.07,4.2-5.54,4.2-3.9,0-6.16-1.91-6.16-5.14Z"/>
    <path class="cls-2" d="m1315.72,159.43c0-4.87,1.72-9.79,4.28-12.35h2.29c-2.8,2.74-4.57,7.45-4.57,12.35s1.78,9.66,4.57,12.32h-2.29c-2.56-2.56-4.28-7.45-4.28-12.32Z"/>
    <path class="cls-2" d="m1330.6,147.95h3.34l7.08,18.97h-2.34l-1.61-4.25h-9.66l-1.61,4.25h-2.34l7.16-18.97Zm5.76,12.7l-3.98-10.55h-.24l-4.01,10.55h8.23Z"/>
    <path class="cls-2" d="m1343.9,153.33h2.23v1.86h.27c.97-1.51,2.48-2.37,4.28-2.37,3.44,0,5.65,2.53,5.65,5.97v8.12h-2.23v-8.12c0-2.29-1.37-3.95-3.71-3.95s-4.25,1.78-4.25,4.14v7.94h-2.23v-13.58Z"/>
    <path class="cls-2" d="m1359.91,149.13c0-.91.67-1.56,1.61-1.56s1.59.65,1.59,1.56-.65,1.61-1.59,1.61-1.61-.67-1.61-1.61Zm.48,4.2h2.23v13.58h-2.23v-13.58Z"/>
    <path class="cls-2" d="m1366.98,153.33h2.15v1.8h.27c.75-1.4,2.18-2.34,3.95-2.34,1.91,0,3.66,1.05,4.44,2.64h.24c.94-1.59,2.5-2.61,4.55-2.61,3.2,0,5.49,2.47,5.49,6v8.1h-2.23v-8.12c0-2.31-1.48-3.98-3.52-3.98-2.18,0-3.71,1.67-3.71,3.98v8.12h-2.23v-8.12c0-2.39-1.4-3.98-3.5-3.98-2.21,0-3.66,1.59-3.66,3.98v8.12h-2.23v-13.58Z"/>
    <path class="cls-2" d="m1390.88,163.47c0-2.39,2.04-4.17,6.08-4.63l3.77-.46v-.54c0-1.83-1.32-3.01-3.55-3.01-2.04,0-3.39,1-3.36,2.69h-2.26c0-2.88,2.23-4.71,5.65-4.71s5.76,1.99,5.76,5.08v9.01h-2.23v-1.99h-.24c-.97,1.56-2.56,2.42-4.73,2.42-2.93,0-4.87-1.53-4.87-3.87Zm9.85-1.96v-1.21l-3.77.43c-2.77.35-3.85,1.43-3.85,2.69s1.13,2.07,2.96,2.07c2.77,0,4.65-1.69,4.65-3.98Z"/>
    <path class="cls-2" d="m1408.02,163.41v-8.31h-2.21v-1.78h2.21l.51-4.39h1.75l-.03,4.39h3.5v1.78h-3.5v8.23c0,1.29.81,2.21,2.1,2.21.4,0,1.1-.11,1.61-.27v1.8c-.65.21-1.53.35-2.21.35-2.29,0-3.74-1.61-3.74-4.01Z"/>
    <path class="cls-2" d="m1417.09,149.13c0-.91.67-1.56,1.61-1.56s1.59.65,1.59,1.56-.65,1.61-1.59,1.61-1.61-.67-1.61-1.61Zm.48,4.2h2.23v13.58h-2.23v-13.58Z"/>
    <path class="cls-2" d="m1423.44,160.1c0-4.28,3.01-7.32,7.29-7.32s7.29,3.04,7.29,7.32-3.04,7.34-7.29,7.34-7.29-3.04-7.29-7.34Zm12.35,0c0-3.07-2.13-5.3-5.06-5.3s-5.06,2.23-5.06,5.3,2.1,5.33,5.06,5.33,5.06-2.23,5.06-5.33Z"/>
    <path class="cls-2" d="m1441.44,153.33h2.23v1.86h.27c.97-1.51,2.48-2.37,4.28-2.37,3.44,0,5.65,2.53,5.65,5.97v8.12h-2.23v-8.12c0-2.29-1.37-3.95-3.71-3.95s-4.25,1.78-4.25,4.14v7.94h-2.23v-13.58Z"/>
    <path class="cls-2" d="m1457.12,162.31h2.15c.03,1.94,1.53,3.25,4.09,3.25,2.04,0,3.36-.86,3.36-2.29,0-1.78-1.86-1.91-3.9-2.18-2.53-.3-5.46-.97-5.46-4.06,0-2.64,2.21-4.25,5.46-4.25s5.7,1.8,5.7,4.6h-2.18c-.03-1.67-1.45-2.72-3.55-2.72-1.96,0-3.31.89-3.31,2.29,0,1.69,1.83,1.83,3.85,2.07,2.56.32,5.49.97,5.49,4.22,0,2.66-2.07,4.2-5.54,4.2-3.9,0-6.16-1.91-6.16-5.14Z"/>
    <path class="cls-2" d="m1470.63,171.75c2.8-2.66,4.57-7.34,4.57-12.32s-1.78-9.6-4.57-12.35h2.31c2.56,2.56,4.28,7.48,4.28,12.35s-1.72,9.77-4.28,12.32h-2.31Z"/>
    <path class="cls-2" d="m1183.82,180.23h2.47v7.99h10.22v-7.99h2.45v18.97h-2.45v-8.82h-10.22v8.82h-2.47v-18.97Z"/>
    <path class="cls-2" d="m1208.12,182.39h-6.27v-2.15h15.01v2.15h-6.29v16.81h-2.45v-16.81Z"/>
    <path class="cls-2" d="m1219.72,180.23h3.87l6.27,15.55h.24l6.29-15.55h3.85v18.97h-2.45v-15.87h-.24l-6.4,15.87h-2.34l-6.38-15.84h-.24v15.84h-2.47v-18.97Z"/>
    <path class="cls-2" d="m1245.39,180.23h2.45v16.81h9.55v2.15h-12v-18.97Z"/>
    <path class="cls-2" d="m1259.54,202.64l1.24-3.12c-.7-.16-1.16-.73-1.16-1.45,0-.86.62-1.48,1.48-1.48s1.48.62,1.48,1.48c0,.38-.08.7-.3,1.13l-1.61,3.71-1.13-.27Z"/>
    <path class="cls-2" d="m1272.08,189.7c0-5.89,4.12-10.14,9.82-10.14,4.28,0,8.04,2.91,8.98,6.89l-2.39.32c-.7-2.93-3.47-5.06-6.59-5.06-4.3,0-7.37,3.36-7.37,7.99s3.09,8.02,7.37,8.02c3.07,0,5.84-2.07,6.62-4.87l2.34.46c-.94,3.79-4.71,6.56-8.96,6.56-5.7,0-9.85-4.28-9.82-10.17Z"/>
    <path class="cls-2" d="m1293.82,193.04h2.42c.03,2.93,2.1,4.68,5.65,4.68,3.09,0,4.9-1.34,4.9-3.47,0-2.61-2.64-3.04-5.49-3.5-3.42-.54-7.18-1.43-7.18-5.54,0-3.42,2.61-5.65,7.18-5.65s7.48,2.42,7.51,6.43h-2.37c0-2.69-1.88-4.28-5.14-4.28-3.07,0-4.73,1.32-4.73,3.36,0,2.5,2.53,2.96,5.33,3.39,3.44.56,7.34,1.32,7.34,5.62,0,3.55-2.72,5.78-7.37,5.78-4.98,0-8.04-2.61-8.04-6.83Z"/>
    <path class="cls-2" d="m1312.31,193.04h2.42c.03,2.93,2.1,4.68,5.65,4.68,3.09,0,4.9-1.34,4.9-3.47,0-2.61-2.64-3.04-5.49-3.5-3.42-.54-7.18-1.43-7.18-5.54,0-3.42,2.61-5.65,7.18-5.65s7.48,2.42,7.51,6.43h-2.37c0-2.69-1.88-4.28-5.14-4.28-3.07,0-4.73,1.32-4.73,3.36,0,2.5,2.53,2.96,5.33,3.39,3.44.56,7.34,1.32,7.34,5.62,0,3.55-2.72,5.78-7.37,5.78-4.98,0-8.04-2.61-8.04-6.83Z"/>
    <path class="cls-2" d="m1330.58,202.64l1.24-3.12c-.7-.16-1.16-.73-1.16-1.45,0-.86.62-1.48,1.48-1.48s1.48.62,1.48,1.48c0,.38-.08.7-.3,1.13l-1.61,3.71-1.13-.27Z"/>
    <path class="cls-2" d="m1342.79,199.2v-2.1c1,.3,2.18.48,2.93.48,2.23,0,3.82-1.56,3.82-4.06v-13.29h2.45v13.26c0,3.71-2.42,6.24-5.73,6.24-1.02,0-2.42-.21-3.47-.54Z"/>
    <path class="cls-2" d="m1355.44,195.76c0-2.39,2.04-4.17,6.08-4.63l3.77-.46v-.54c0-1.83-1.32-3.01-3.55-3.01-2.04,0-3.39,1-3.36,2.69h-2.26c0-2.88,2.23-4.71,5.65-4.71s5.76,1.99,5.76,5.08v9.01h-2.23v-1.99h-.24c-.97,1.56-2.56,2.42-4.73,2.42-2.93,0-4.87-1.53-4.87-3.87Zm9.85-1.96v-1.21l-3.77.43c-2.77.35-3.85,1.43-3.85,2.69s1.13,2.07,2.96,2.07c2.77,0,4.65-1.69,4.65-3.98Z"/>
    <path class="cls-2" d="m1369.62,185.62h2.29l4.33,11.81h.24l4.36-11.81h2.29l-5.17,13.58h-3.17l-5.17-13.58Z"/>
    <path class="cls-2" d="m1384.45,195.76c0-2.39,2.04-4.17,6.08-4.63l3.77-.46v-.54c0-1.83-1.32-3.01-3.55-3.01-2.04,0-3.39,1-3.36,2.69h-2.26c0-2.88,2.23-4.71,5.65-4.71s5.76,1.99,5.76,5.08v9.01h-2.23v-1.99h-.24c-.97,1.56-2.56,2.42-4.73,2.42-2.93,0-4.87-1.53-4.87-3.87Zm9.85-1.96v-1.21l-3.77.43c-2.77.35-3.85,1.43-3.85,2.69s1.13,2.07,2.96,2.07c2.77,0,4.65-1.69,4.65-3.98Z"/>
    <path class="cls-2" d="m1399.86,193.04h2.42c.03,2.93,2.1,4.68,5.65,4.68,3.09,0,4.9-1.34,4.9-3.47,0-2.61-2.64-3.04-5.49-3.5-3.42-.54-7.18-1.43-7.18-5.54,0-3.42,2.61-5.65,7.18-5.65s7.48,2.42,7.51,6.43h-2.37c0-2.69-1.88-4.28-5.14-4.28-3.07,0-4.73,1.32-4.73,3.36,0,2.5,2.53,2.96,5.33,3.39,3.44.56,7.34,1.32,7.34,5.62,0,3.55-2.72,5.78-7.37,5.78-4.98,0-8.04-2.61-8.04-6.83Z"/>
    <path class="cls-2" d="m1418.19,192.39c0-4.25,2.96-7.32,7.07-7.32,3.34,0,6.11,2.1,6.62,5l-2.18.3c-.48-1.96-2.34-3.28-4.41-3.28-2.77,0-4.9,2.18-4.87,5.3,0,3.15,2.07,5.33,4.84,5.33,2.13,0,3.93-1.32,4.47-3.23l2.21.3c-.62,2.88-3.42,4.95-6.67,4.95-4.12,0-7.1-3.09-7.07-7.34Z"/>
    <path class="cls-2" d="m1435.36,185.62h2.18v1.83h.24c.62-1.24,2.12-2.1,3.63-2.1.62,0,1.26.13,1.67.35v2.07c-.7-.3-1.51-.4-2.02-.4-2.04,0-3.47,1.83-3.47,4.52v7.32h-2.23v-13.58Z"/>
    <path class="cls-2" d="m1445.69,181.42c0-.92.67-1.56,1.61-1.56s1.59.65,1.59,1.56-.65,1.61-1.59,1.61-1.61-.67-1.61-1.61Zm.48,4.2h2.23v13.58h-2.23v-13.58Z"/>
    <path class="cls-2" d="m1467.24,192.39c0,4.25-3.04,7.34-6.99,7.34-2.18,0-4.01-.94-5-2.56h-.24v8.21h-2.23v-19.77h2.23v2.07h.24c1-1.64,2.74-2.61,4.98-2.61,3.95,0,7.02,3.07,7.02,7.32Zm-12.32,0c0,2.99,2.12,5.33,5.06,5.33s5.03-2.34,5.03-5.33-2.13-5.3-5.03-5.3-5.06,2.31-5.06,5.3Z"/>
    <path class="cls-2" d="m1471.33,195.7v-8.31h-2.21v-1.78h2.21l.51-4.38h1.75l-.03,4.38h3.5v1.78h-3.5v8.23c0,1.29.81,2.21,2.1,2.21.4,0,1.1-.11,1.61-.27v1.8c-.65.22-1.53.35-2.21.35-2.29,0-3.74-1.61-3.74-4.01Z"/>
    <path class="cls-2" d="m1220.26,237.19v-1.91c.51.16,1.21.24,1.75.24,1.24,0,2.04-.89,2.04-2.15v-15.47h2.23v15.47c0,2.42-1.53,4.17-3.66,4.17-.83,0-1.75-.13-2.37-.35Zm3.28-23.48c0-.92.67-1.56,1.61-1.56s1.61.65,1.61,1.56-.67,1.61-1.61,1.61-1.61-.67-1.61-1.61Z"/>
    <path class="cls-2" d="m1230.21,221.99c0-5.92,4.22-10.14,10.22-10.14s10.25,4.22,10.25,10.14c0,2.72-.91,5.06-2.42,6.81l2.99,2.69h-3.15l-1.37-1.29c-1.72,1.24-3.9,1.96-6.29,1.96-6,0-10.22-4.2-10.22-10.17Zm14.74,6.67l-6.46-5.76h3.15l4.84,4.3c1.1-1.34,1.75-3.15,1.75-5.22,0-4.65-3.26-7.99-7.8-7.99s-7.77,3.33-7.77,7.99,3.23,8.02,7.77,8.02c1.75,0,3.28-.48,4.52-1.34Z"/>
    <path class="cls-2" d="m1266.29,231.49h-2.23v-1.86h-.27c-.94,1.48-2.48,2.34-4.25,2.34-3.47,0-5.65-2.5-5.65-5.97v-8.1h2.23v8.1c0,2.31,1.35,3.96,3.69,3.96s4.25-1.75,4.25-4.14v-7.91h2.23v13.58Z"/>
    <path class="cls-2" d="m1269.74,224.52c0-4.14,3.01-7.16,7.21-7.16s7.13,3.01,7.13,7.18c0,.27,0,.59-.03.89h-12.02c.32,2.74,2.31,4.57,5.08,4.57,2.02,0,3.79-1.02,4.65-2.64l1.86.94c-1.1,2.31-3.55,3.71-6.56,3.71-4.25,0-7.32-3.15-7.32-7.51Zm12-1.05c-.4-2.45-2.31-4.09-4.9-4.09s-4.41,1.64-4.79,4.09h9.68Z"/>
    <path class="cls-2" d="m1287.52,217.91h2.18v1.83h.24c.62-1.24,2.12-2.1,3.63-2.1.62,0,1.26.13,1.67.35v2.07c-.7-.3-1.51-.4-2.02-.4-2.04,0-3.47,1.83-3.47,4.52v7.32h-2.23v-13.58Z"/>
    <path class="cls-2" d="m1297.29,237.09v-1.96c.62.24,1.29.4,1.8.4,2.02,0,2.56-2.15,3.36-4.06l-6.05-13.56h2.34l4.65,10.63h.27l3.98-10.63h2.39l-5.38,13.8c-1.21,3.01-2.29,5.81-5.22,5.81-.67,0-1.53-.16-2.15-.43Z"/>
    <path class="cls-2" d="m1318.9,213.71c0-.92.67-1.56,1.61-1.56s1.59.65,1.59,1.56-.65,1.61-1.59,1.61-1.61-.67-1.61-1.61Zm.48,4.2h2.23v13.58h-2.23v-13.58Z"/>
    <path class="cls-2" d="m1325.38,226.89h2.15c.03,1.94,1.53,3.26,4.09,3.26,2.04,0,3.36-.86,3.36-2.29,0-1.78-1.86-1.91-3.9-2.18-2.53-.3-5.46-.97-5.46-4.06,0-2.64,2.21-4.25,5.46-4.25s5.7,1.8,5.7,4.6h-2.18c-.03-1.67-1.45-2.72-3.55-2.72-1.96,0-3.31.89-3.31,2.29,0,1.69,1.83,1.83,3.85,2.07,2.56.32,5.49.97,5.49,4.22,0,2.66-2.07,4.2-5.54,4.2-3.9,0-6.16-1.91-6.16-5.14Z"/>
    <path class="cls-2" d="m1340.37,213.71c0-.92.67-1.56,1.61-1.56s1.59.65,1.59,1.56-.65,1.61-1.59,1.61-1.61-.67-1.61-1.61Zm.48,4.2h2.23v13.58h-2.23v-13.58Z"/>
    <path class="cls-2" d="m1347.45,217.91h2.23v1.86h.27c.97-1.51,2.48-2.37,4.28-2.37,3.44,0,5.65,2.53,5.65,5.97v8.12h-2.23v-8.12c0-2.29-1.37-3.96-3.71-3.96s-4.25,1.78-4.25,4.14v7.94h-2.23v-13.58Z"/>
    <path class="cls-2" d="m1361.95,217.91h2.29l4.33,11.81h.24l4.36-11.81h2.29l-5.17,13.58h-3.17l-5.17-13.58Z"/>
    <path class="cls-2" d="m1377.58,213.71c0-.92.67-1.56,1.61-1.56s1.59.65,1.59,1.56-.65,1.61-1.59,1.61-1.61-.67-1.61-1.61Zm.48,4.2h2.23v13.58h-2.23v-13.58Z"/>
    <path class="cls-2" d="m1383.96,224.52c0-4.14,3.01-7.16,7.21-7.16s7.13,3.01,7.13,7.18c0,.27,0,.59-.03.89h-12.02c.32,2.74,2.31,4.57,5.08,4.57,2.02,0,3.79-1.02,4.65-2.64l1.86.94c-1.1,2.31-3.55,3.71-6.56,3.71-4.25,0-7.32-3.15-7.32-7.51Zm12-1.05c-.4-2.45-2.31-4.09-4.9-4.09s-4.41,1.64-4.79,4.09h9.68Z"/>
    <path class="cls-2" d="m1400.27,217.91h2.21l3.79,11.38h.24l3.04-11.38h2.85l3.12,11.41h.24l3.71-11.41h2.21l-4.55,13.58h-3.2l-2.82-11h-.27l-2.85,11h-3.17l-4.55-13.58Z"/>
    <path class="cls-2" d="m1438.82,224.68c0,4.25-3.04,7.34-6.99,7.34-2.18,0-4.01-.94-5-2.56h-.24v8.21h-2.23v-19.77h2.23v2.07h.24c1-1.64,2.74-2.61,4.98-2.61,3.95,0,7.02,3.07,7.02,7.32Zm-12.32,0c0,2.99,2.12,5.33,5.06,5.33s5.03-2.34,5.03-5.33-2.13-5.3-5.03-5.3-5.06,2.31-5.06,5.3Z"/>
    <path class="cls-2" d="m1441.55,224.68c0-4.28,3.01-7.32,7.29-7.32s7.29,3.04,7.29,7.32-3.04,7.34-7.29,7.34-7.29-3.04-7.29-7.34Zm12.35,0c0-3.07-2.13-5.3-5.06-5.3s-5.06,2.23-5.06,5.3,2.1,5.33,5.06,5.33,5.06-2.23,5.06-5.33Z"/>
    <path class="cls-2" d="m1459.55,217.91h2.18v1.83h.24c.62-1.24,2.12-2.1,3.63-2.1.62,0,1.26.13,1.67.35v2.07c-.7-.3-1.51-.4-2.02-.4-2.04,0-3.47,1.83-3.47,4.52v7.32h-2.23v-13.58Z"/>
    <path class="cls-2" d="m1471.33,227.99v-8.31h-2.21v-1.78h2.21l.51-4.38h1.75l-.03,4.38h3.5v1.78h-3.5v8.23c0,1.29.81,2.21,2.1,2.21.4,0,1.1-.11,1.61-.27v1.8c-.65.22-1.53.35-2.21.35-2.29,0-3.74-1.61-3.74-4.01Z"/>
    <path class="cls-2" d="m1189.39,244.81h2.45v16.81h9.55v2.15h-12v-18.97Z"/>
    <path class="cls-2" d="m1203.46,256.97c0-4.28,3.01-7.32,7.29-7.32s7.29,3.04,7.29,7.32-3.04,7.34-7.29,7.34-7.29-3.04-7.29-7.34Zm12.35,0c0-3.07-2.13-5.3-5.06-5.3s-5.06,2.23-5.06,5.3,2.1,5.33,5.06,5.33,5.06-2.23,5.06-5.33Z"/>
    <path class="cls-2" d="m1222.11,260.28v-8.31h-2.21v-1.78h2.21l.51-4.38h1.75l-.03,4.38h3.5v1.78h-3.5v8.23c0,1.29.81,2.21,2.1,2.21.4,0,1.1-.11,1.61-.27v1.8c-.65.22-1.53.35-2.21.35-2.29,0-3.74-1.61-3.74-4.01Z"/>
    <path class="cls-2" d="m1232.63,260.28v-8.31h-2.21v-1.78h2.21l.51-4.38h1.75l-.03,4.38h3.5v1.78h-3.5v8.23c0,1.29.81,2.21,2.1,2.21.4,0,1.1-.11,1.61-.27v1.8c-.65.22-1.53.35-2.21.35-2.29,0-3.74-1.61-3.74-4.01Z"/>
    <path class="cls-2" d="m1241.7,246c0-.92.67-1.56,1.61-1.56s1.59.65,1.59,1.56-.65,1.61-1.59,1.61-1.61-.67-1.61-1.61Zm.48,4.2h2.23v13.58h-2.23v-13.58Z"/>
    <path class="cls-2" d="m1248.08,256.81c0-4.14,3.01-7.16,7.21-7.16s7.13,3.01,7.13,7.18c0,.27,0,.59-.03.89h-12.02c.32,2.74,2.31,4.57,5.08,4.57,2.02,0,3.79-1.02,4.65-2.64l1.86.94c-1.1,2.31-3.55,3.71-6.56,3.71-4.25,0-7.32-3.15-7.32-7.51Zm12-1.05c-.4-2.45-2.31-4.09-4.9-4.09s-4.41,1.64-4.79,4.09h9.68Z"/>
    <path class="cls-2" d="m1266.35,244.81h12.08v2.15h-9.6v5.92h8.53v2.15h-8.53v8.74h-2.48v-18.97Z"/>
    <path class="cls-2" d="m1281.09,246c0-.92.67-1.56,1.61-1.56s1.59.65,1.59,1.56-.65,1.61-1.59,1.61-1.61-.67-1.61-1.61Zm.48,4.2h2.23v13.58h-2.23v-13.58Z"/>
    <path class="cls-2" d="m1288.17,244.01h2.23v19.77h-2.23v-19.77Z"/>
    <path class="cls-2" d="m1293.82,256.81c0-4.14,3.01-7.16,7.21-7.16s7.13,3.01,7.13,7.18c0,.27,0,.59-.03.89h-12.02c.32,2.74,2.31,4.57,5.08,4.57,2.02,0,3.79-1.02,4.65-2.64l1.86.94c-1.1,2.31-3.55,3.71-6.56,3.71-4.25,0-7.32-3.15-7.32-7.51Zm12-1.05c-.4-2.45-2.31-4.09-4.9-4.09s-4.41,1.64-4.79,4.09h9.68Z"/>
    <path class="cls-2" d="m1311.01,259.18h2.15c.03,1.94,1.53,3.26,4.09,3.26,2.04,0,3.36-.86,3.36-2.29,0-1.78-1.86-1.91-3.9-2.18-2.53-.3-5.46-.97-5.46-4.06,0-2.64,2.21-4.25,5.46-4.25s5.7,1.8,5.7,4.6h-2.18c-.03-1.67-1.45-2.72-3.55-2.72-1.96,0-3.31.89-3.31,2.29,0,1.69,1.83,1.83,3.85,2.07,2.56.32,5.49.97,5.49,4.22,0,2.66-2.07,4.2-5.54,4.2-3.9,0-6.16-1.91-6.16-5.14Z"/>
    <path class="cls-2" d="m1338.89,244.81h3.34l7.08,18.97h-2.34l-1.61-4.25h-9.66l-1.61,4.25h-2.34l7.16-18.97Zm5.76,12.7l-3.98-10.55h-.24l-4.01,10.55h8.23Z"/>
    <path class="cls-2" d="m1352.18,250.2h2.23v1.86h.27c.97-1.51,2.48-2.37,4.28-2.37,3.44,0,5.65,2.53,5.65,5.97v8.12h-2.23v-8.12c0-2.29-1.37-3.96-3.71-3.96s-4.25,1.78-4.25,4.14v7.94h-2.23v-13.58Z"/>
    <path class="cls-2" d="m1368.19,246c0-.92.67-1.56,1.61-1.56s1.59.65,1.59,1.56-.65,1.61-1.59,1.61-1.61-.67-1.61-1.61Zm.48,4.2h2.23v13.58h-2.23v-13.58Z"/>
    <path class="cls-2" d="m1375.27,250.2h2.15v1.8h.27c.75-1.4,2.18-2.34,3.95-2.34,1.91,0,3.66,1.05,4.44,2.64h.24c.94-1.59,2.5-2.61,4.55-2.61,3.2,0,5.49,2.48,5.49,6v8.1h-2.23v-8.12c0-2.31-1.48-3.98-3.52-3.98-2.18,0-3.71,1.67-3.71,3.98v8.12h-2.23v-8.12c0-2.39-1.4-3.98-3.5-3.98-2.21,0-3.66,1.59-3.66,3.98v8.12h-2.23v-13.58Z"/>
    <path class="cls-2" d="m1399.16,260.34c0-2.39,2.04-4.17,6.08-4.63l3.77-.46v-.54c0-1.83-1.32-3.01-3.55-3.01-2.04,0-3.39,1-3.36,2.69h-2.26c0-2.88,2.23-4.71,5.65-4.71s5.76,1.99,5.76,5.08v9.01h-2.23v-1.99h-.24c-.97,1.56-2.56,2.42-4.73,2.42-2.93,0-4.87-1.53-4.87-3.87Zm9.85-1.96v-1.21l-3.77.43c-2.77.35-3.85,1.43-3.85,2.69s1.13,2.07,2.96,2.07c2.77,0,4.65-1.69,4.65-3.98Z"/>
    <path class="cls-2" d="m1416.3,260.28v-8.31h-2.21v-1.78h2.21l.51-4.38h1.75l-.03,4.38h3.5v1.78h-3.5v8.23c0,1.29.81,2.21,2.1,2.21.4,0,1.1-.11,1.61-.27v1.8c-.65.22-1.53.35-2.21.35-2.29,0-3.74-1.61-3.74-4.01Z"/>
    <path class="cls-2" d="m1425.37,246c0-.92.67-1.56,1.61-1.56s1.59.65,1.59,1.56-.65,1.61-1.59,1.61-1.61-.67-1.61-1.61Zm.48,4.2h2.23v13.58h-2.23v-13.58Z"/>
    <path class="cls-2" d="m1431.72,256.97c0-4.28,3.01-7.32,7.29-7.32s7.29,3.04,7.29,7.32-3.04,7.34-7.29,7.34-7.29-3.04-7.29-7.34Zm12.35,0c0-3.07-2.13-5.3-5.06-5.3s-5.06,2.23-5.06,5.3,2.1,5.33,5.06,5.33,5.06-2.23,5.06-5.33Z"/>
    <path class="cls-2" d="m1449.72,250.2h2.23v1.86h.27c.97-1.51,2.48-2.37,4.28-2.37,3.44,0,5.65,2.53,5.65,5.97v8.12h-2.23v-8.12c0-2.29-1.37-3.96-3.71-3.96s-4.25,1.78-4.25,4.14v7.94h-2.23v-13.58Z"/>
    <path class="cls-2" d="m1465.41,259.18h2.15c.03,1.94,1.53,3.26,4.09,3.26,2.04,0,3.36-.86,3.36-2.29,0-1.78-1.86-1.91-3.9-2.18-2.53-.3-5.46-.97-5.46-4.06,0-2.64,2.21-4.25,5.46-4.25s5.7,1.8,5.7,4.6h-2.18c-.03-1.67-1.45-2.72-3.55-2.72-1.96,0-3.31.89-3.31,2.29,0,1.69,1.83,1.83,3.85,2.07,2.56.32,5.49.97,5.49,4.22,0,2.66-2.07,4.2-5.54,4.2-3.9,0-6.16-1.91-6.16-5.14Z"/>
  </g>
  <g>
    <g>
      <path class="cls-2" d="m54.92,210.61h9.84c5.39,0,8.89,2.84,8.86,7.56,0,4.66-3.6,7.56-8.86,7.56h-6.72v9.56h-3.12v-24.68Zm9.84,12.29c3.57,0,5.71-1.86,5.71-4.73s-2.14-4.76-5.71-4.76h-6.72v9.49h6.72Z"/>
      <path class="cls-2" d="m75.82,226.44c0-5.57,3.92-9.52,9.49-9.52s9.49,3.96,9.49,9.52-3.96,9.56-9.49,9.56-9.49-3.96-9.49-9.56Zm16.07,0c0-3.99-2.77-6.9-6.58-6.9s-6.58,2.91-6.58,6.9,2.73,6.93,6.58,6.93,6.58-2.91,6.58-6.93Z"/>
      <path class="cls-2" d="m99.25,217.62h2.84v2.38h.31c.81-1.61,2.77-2.73,4.73-2.73.8,0,1.65.17,2.17.46v2.7c-.91-.39-1.96-.52-2.62-.52-2.66,0-4.52,2.38-4.52,5.88v9.52h-2.91v-17.68Z"/>
      <path class="cls-2" d="m114.58,230.74v-10.82h-2.87v-2.31h2.87l.67-5.71h2.28l-.04,5.71h4.55v2.31h-4.55v10.71c0,1.68,1.05,2.87,2.73,2.87.52,0,1.44-.14,2.1-.35v2.35c-.84.28-2,.46-2.87.46-2.98,0-4.87-2.1-4.87-5.22Z"/>
      <path class="cls-2" d="m128.3,219.93h-2.84v-2.31h2.84v-3.57c0-3.15,1.93-5.18,4.73-5.18,1.02,0,1.89.17,2.7.42v2.52c-.6-.18-1.23-.32-1.93-.32-1.54,0-2.59,1.12-2.59,2.84v3.29h4.48v2.31h-4.48v15.37h-2.91v-15.37Z"/>
      <path class="cls-2" d="m137.79,226.44c0-5.57,3.92-9.52,9.49-9.52s9.49,3.96,9.49,9.52-3.96,9.56-9.49,9.56-9.49-3.96-9.49-9.56Zm16.07,0c0-3.99-2.77-6.9-6.58-6.9s-6.58,2.91-6.58,6.9,2.73,6.93,6.58,6.93,6.58-2.91,6.58-6.93Z"/>
      <path class="cls-2" d="m161.21,209.56h2.91v25.73h-2.91v-25.73Z"/>
      <path class="cls-2" d="m169.12,212.16c0-1.19.88-2.03,2.1-2.03s2.07.84,2.07,2.03-.84,2.1-2.07,2.1-2.1-.88-2.1-2.1Zm.63,5.46h2.91v17.68h-2.91v-17.68Z"/>
      <path class="cls-2" d="m177.38,226.44c0-5.57,3.92-9.52,9.49-9.52s9.49,3.96,9.49,9.52-3.96,9.56-9.49,9.56-9.49-3.96-9.49-9.56Zm16.07,0c0-3.99-2.77-6.9-6.58-6.9s-6.58,2.91-6.58,6.9,2.73,6.93,6.58,6.93,6.58-2.91,6.58-6.93Z"/>
      <path class="cls-2" d="m208.54,210.61h3.08l6.3,21.98h.35l5.6-21.98h4.13l5.57,21.98h.35l6.3-21.98h3.05l-7.14,24.68h-4.9l-5.15-20.83h-.31l-5.15,20.83h-4.9l-7.18-24.68Z"/>
      <path class="cls-2" d="m244.08,226.23c0-5.39,3.92-9.31,9.38-9.31s9.28,3.92,9.28,9.35c0,.35,0,.77-.04,1.15h-15.65c.42,3.57,3.01,5.95,6.62,5.95,2.63,0,4.94-1.33,6.06-3.43l2.42,1.23c-1.44,3.01-4.62,4.83-8.54,4.83-5.53,0-9.52-4.1-9.52-9.77Zm15.61-1.37c-.53-3.19-3.01-5.32-6.37-5.32s-5.74,2.14-6.23,5.32h12.6Z"/>
      <path class="cls-2" d="m270.44,232.56h-.31v2.73h-2.91v-25.73h2.91v10.68h.31c1.3-2.14,3.68-3.33,6.51-3.33,5.15,0,9.1,3.99,9.1,9.52s-3.99,9.56-9.14,9.56c-2.91,0-5.18-1.26-6.48-3.43Zm12.71-6.13c0-3.89-2.77-6.9-6.55-6.9s-6.58,3.01-6.58,6.9,2.77,6.93,6.58,6.93,6.55-2.98,6.55-6.93Z"/>
      <path class="cls-2" d="m289.76,229.31h2.8c.03,2.52,2,4.24,5.32,4.24,2.66,0,4.38-1.12,4.38-2.98,0-2.31-2.42-2.49-5.08-2.83-3.29-.39-7.11-1.26-7.11-5.29,0-3.43,2.87-5.53,7.11-5.53s7.42,2.35,7.42,5.99h-2.83c-.04-2.17-1.89-3.54-4.62-3.54-2.56,0-4.31,1.16-4.31,2.98,0,2.21,2.38,2.38,5.01,2.7,3.33.42,7.14,1.26,7.14,5.5,0,3.47-2.7,5.46-7.21,5.46-5.08,0-8.02-2.49-8.02-6.69Z"/>
      <path class="cls-2" d="m309.26,212.16c0-1.19.88-2.03,2.1-2.03s2.07.84,2.07,2.03-.84,2.1-2.07,2.1-2.1-.88-2.1-2.1Zm.63,5.46h2.91v17.68h-2.91v-17.68Z"/>
      <path class="cls-2" d="m320.01,230.74v-10.82h-2.87v-2.31h2.87l.67-5.71h2.28l-.04,5.71h4.55v2.31h-4.55v10.71c0,1.68,1.05,2.87,2.73,2.87.52,0,1.44-.14,2.1-.35v2.35c-.84.28-2,.46-2.87.46-2.98,0-4.87-2.1-4.87-5.22Z"/>
      <path class="cls-2" d="m330.58,226.23c0-5.39,3.92-9.31,9.38-9.31s9.28,3.92,9.28,9.35c0,.35,0,.77-.04,1.15h-15.65c.42,3.57,3.01,5.95,6.62,5.95,2.63,0,4.94-1.33,6.06-3.43l2.42,1.23c-1.44,3.01-4.62,4.83-8.54,4.83-5.53,0-9.52-4.1-9.52-9.77Zm15.61-1.37c-.53-3.19-3.01-5.32-6.37-5.32s-5.74,2.14-6.23,5.32h12.6Z"/>
    </g>
    <g>
      <path class="cls-2" d="m104.68,113.69c6.22,0,9.18,3.44,8.9,10.33-.19,4.88-2.44,9.28-6.74,13.2-4.3,3.92-9.95,5.88-16.93,5.88h-7.03v24.39c0,2.01.86,3.68,2.58,5.02,1.72,1.34,3.44,2.56,5.17,3.66,1.72,1.1,2.58,2.27,2.58,3.52,0,1.91-1.44,2.87-4.3,2.87h-29.99c-2.49,0-3.73-.86-3.73-2.58,0-1.15,1.17-2.87,3.52-5.17,2.34-2.3,3.52-4.73,3.52-7.32v-33.72c0-1.63-.36-3.04-1.08-4.23-.72-1.19-1.51-2.1-2.37-2.73-.86-.62-1.65-1.34-2.37-2.15-.72-.81-1.08-1.65-1.08-2.51s.29-1.55.86-2.08c.57-.52,1.82-1.03,3.73-1.51l18.8-4.59c2.77-.67,4.16.24,4.16,2.73v20.66h3.01c1.43,0,2.68-.48,3.73-1.43,1.05-.96,1.96-2.51,2.73-4.66.76-2.15,1.27-3.68,1.51-4.59.24-.91.6-2.6,1.08-5.09,1.05-5.26,4.3-7.89,9.76-7.89Z"/>
      <path class="cls-2" d="m178.86,174.39c-6.79,6.41-15.4,9.61-25.83,9.61s-19.04-3.2-25.83-9.61c-6.79-6.41-10.19-14.92-10.19-25.54s3.39-19.13,10.19-25.54c6.79-6.41,15.4-9.61,25.83-9.61s19.03,3.21,25.83,9.61c6.79,6.41,10.19,14.92,10.19,25.54s-3.4,19.13-10.19,25.54Zm-24.1,2.58c7.94,0,11.91-7.65,11.91-22.96,0-5.55-.46-10.74-1.36-15.57-.91-4.83-2.58-9.04-5.02-12.63-2.44-3.59-5.48-5.38-9.11-5.38-7.84,0-11.77,7.65-11.77,22.96,0,5.65.45,10.86,1.36,15.64.91,4.78,2.56,8.97,4.95,12.55,2.39,3.59,5.4,5.38,9.04,5.38Z"/>
      <path class="cls-2" d="m313.58,168.79c.19,2.1,1.39,4.21,3.59,6.31,2.2,2.1,3.3,3.73,3.3,4.88,0,1.72-.91,2.58-2.73,2.58h-27.69c-1.91,0-2.87-.86-2.87-2.58,0-.86.96-2.25,2.87-4.16s2.82-3.92,2.73-6.03l-1.15-23.67c-.19-4.3-.69-7.91-1.51-10.83-.81-2.92-1.84-5.02-3.08-6.31-1.24-1.29-2.42-2.15-3.52-2.58-1.1-.43-2.32-.65-3.66-.65-3.73,0-6.65,1.63-8.75,4.88-2.11,3.25-3.16,7.32-3.16,12.2v24.68c0,2.58,1.17,5.02,3.52,7.32,2.34,2.3,3.52,4.02,3.52,5.17,0,1.72-1.24,2.58-3.73,2.58h-27.26c-2.49,0-3.73-.86-3.73-2.58,0-1.15,1.17-2.87,3.52-5.17,2.34-2.3,3.52-4.73,3.52-7.32v-28.27c0-5.26-.91-8.97-2.73-11.12-1.82-2.15-4.5-3.23-8.03-3.23-3.25,0-6.24,1.79-8.97,5.38s-4.09,7.73-4.09,12.41v24.82c0,2.58,1.17,5.02,3.52,7.32,2.34,2.3,3.52,4.02,3.52,5.17,0,1.72-1.24,2.58-3.73,2.58h-27.26c-2.49,0-3.73-.86-3.73-2.58,0-1.15,1.17-2.87,3.52-5.17,2.34-2.3,3.52-4.73,3.52-7.32v-33.72c0-1.63-.36-3.04-1.08-4.23-.72-1.19-1.51-2.1-2.37-2.73-.86-.62-1.65-1.34-2.37-2.15-.72-.81-1.08-1.65-1.08-2.51s.29-1.55.86-2.08c.57-.52,1.82-1.03,3.73-1.51l18.8-4.59c2.77-.67,4.16.24,4.16,2.73v6.6c0,1.53.52,2.3,1.58,2.3.57,0,1.41-.62,2.51-1.87,1.1-1.24,2.27-2.6,3.52-4.09,1.24-1.48,3.18-2.85,5.81-4.09,2.63-1.24,5.67-1.87,9.11-1.87,8.51,0,14.68,3.4,18.51,10.19.67,1.24,1.48,1.87,2.44,1.87.57,0,1.51-.62,2.8-1.87,1.29-1.24,2.65-2.63,4.09-4.16,1.43-1.53,3.59-2.92,6.46-4.16,2.87-1.24,6.03-1.87,9.47-1.87,12.72,0,19.85,8.8,21.38,26.4l2.44,28.7Z"/>
      <path class="cls-2" d="m357.49,184c-9.38,0-17.19-3.2-23.46-9.61-6.27-6.41-9.4-15.06-9.4-25.97s3.23-19.06,9.68-25.32c6.46-6.26,14.56-9.4,24.32-9.4,7.65,0,13.77,1.6,18.36,4.81,4.59,3.21,6.93,7.68,7.03,13.42.09,5.45-2.56,10.16-7.96,14.13-5.4,3.97-13.85,6.43-25.32,7.39l-5.17.43c1.53,9.66,6.74,14.49,15.64,14.49,5.07,0,9.21-1.36,12.41-4.09,3.2-2.73,5.47-5.76,6.82-9.11.76-2.1,2.22-2.92,4.38-2.44,2.15.48,3.13,1.77,2.94,3.87-.29,3.16-1.03,6.22-2.22,9.18-1.2,2.97-2.92,5.88-5.17,8.75-2.25,2.87-5.36,5.17-9.33,6.89-3.97,1.72-8.49,2.58-13.56,2.58Zm-12.91-37.3l3.3-.29c6.89-.57,11.74-2.53,14.56-5.88,2.82-3.35,4.23-6.98,4.23-10.9,0-2.68-.72-4.85-2.15-6.53-1.43-1.67-3.44-2.51-6.03-2.51-4.5,0-8.06,2.46-10.69,7.39-2.63,4.93-3.71,11.17-3.23,18.72Z"/>
      <path class="cls-2" d="m421.48,167.5c0,2.58,1.17,5.02,3.52,7.32,2.34,2.3,3.52,4.02,3.52,5.17,0,1.72-1.24,2.58-3.73,2.58h-27.26c-2.49,0-3.73-.86-3.73-2.58,0-1.15,1.17-2.87,3.52-5.17,2.34-2.3,3.52-4.73,3.52-7.32v-68.15c0-1.62-.36-3.04-1.08-4.23-.72-1.19-1.51-2.1-2.37-2.73-.86-.62-1.65-1.34-2.37-2.15-.72-.81-1.08-1.65-1.08-2.51s.29-1.55.86-2.08c.57-.52,1.82-1.03,3.73-1.51l18.8-4.59c2.77-.67,4.16.24,4.16,2.73v85.23Z"/>
      <path class="cls-2" d="m507.85,163.91c0,1.63.36,3.04,1.08,4.23.72,1.2,1.51,2.1,2.37,2.73.86.62,1.65,1.34,2.37,2.15.72.81,1.08,1.65,1.08,2.51s-.29,1.56-.86,2.08c-.57.53-1.82,1.03-3.73,1.51l-18.8,4.59c-2.78.67-4.16-.24-4.16-2.73v-6.6c0-1.53-.53-2.3-1.58-2.3-.57,0-1.41.62-2.51,1.87-1.1,1.24-2.27,2.61-3.52,4.09-1.24,1.48-3.18,2.85-5.81,4.09-2.63,1.24-5.67,1.87-9.11,1.87-6.79,0-12.15-2.2-16.07-6.6-3.92-4.4-5.88-10.85-5.88-19.37v-24.25c0-1.63-.36-3.04-1.08-4.23-.72-1.19-1.51-2.1-2.37-2.73-.86-.62-1.65-1.34-2.37-2.15-.72-.81-1.08-1.65-1.08-2.51s.29-1.55.86-2.08c.57-.52,1.82-1.03,3.73-1.51l18.8-4.59c2.77-.67,4.16.24,4.16,2.73v41.75c0,5.26.91,8.97,2.73,11.12,1.82,2.15,4.49,3.23,8.03,3.23,3.25,0,6.24-1.79,8.97-5.38s4.09-7.72,4.09-12.41v-21.23c0-1.63-.36-3.04-1.08-4.23-.72-1.19-1.51-2.1-2.37-2.73-.86-.62-1.65-1.34-2.37-2.15-.72-.81-1.08-1.65-1.08-2.51s.29-1.55.86-2.08c.57-.52,1.82-1.03,3.73-1.51l18.8-4.59c2.77-.67,4.16.24,4.16,2.73v47.2Z"/>
      <path class="cls-2" d="m546.88,167.5c0,2.58,1.17,5.02,3.52,7.32,2.34,2.3,3.52,4.02,3.52,5.17,0,1.72-1.24,2.58-3.73,2.58h-27.26c-2.49,0-3.73-.86-3.73-2.58,0-1.15,1.17-2.87,3.52-5.17,2.34-2.3,3.52-4.73,3.52-7.32v-33.72c0-1.63-.36-3.04-1.08-4.23-.72-1.19-1.51-2.1-2.37-2.73-.86-.62-1.65-1.34-2.37-2.15-.72-.81-1.08-1.65-1.08-2.51s.29-1.55.86-2.08c.57-.52,1.82-1.03,3.73-1.51l18.8-4.59c2.77-.67,4.16.24,4.16,2.73v50.79Zm-13.2-63.56c-3.83,0-6.94-1.22-9.33-3.66-2.39-2.44-3.35-5.38-2.87-8.82.38-3.35,2.03-6.26,4.95-8.75,2.92-2.49,6.24-3.73,9.97-3.73,3.44,0,6.34,1.24,8.68,3.73,2.34,2.49,3.32,5.4,2.94,8.75-.38,3.35-2.01,6.27-4.88,8.75-2.87,2.49-6.03,3.73-9.47,3.73Z"/>
      <path class="cls-2" d="m587.05,184c-7.08,0-12.94-1.29-17.58-3.87-4.64-2.58-7.25-5.69-7.82-9.33-.77-5.07.76-8.42,4.59-10.04,2.96-1.34,5.6-1.05,7.89.86,1.05.96,1.67,2.2,1.87,3.73.29,3.16,1.31,5.79,3.08,7.89,1.77,2.11,4.28,3.16,7.53,3.16,6.79,0,10.19-3.01,10.19-9.04,0-2.77-1.2-5.02-3.59-6.74-2.39-1.72-5.31-3.11-8.75-4.16-3.44-1.05-6.89-2.27-10.33-3.66-3.44-1.39-6.36-3.63-8.75-6.74-2.39-3.11-3.59-7.05-3.59-11.84,0-6.41,2.51-11.43,7.53-15.07,5.02-3.63,11.84-5.45,20.45-5.45,7.08,0,12.74,1.17,17,3.52,4.25,2.35,6.72,5.81,7.39,10.4.67,4.69-.96,7.75-4.88,9.18-3.16,1.24-5.79.96-7.89-.86-.86-.76-1.34-1.72-1.43-2.87-.29-4.21-1.15-7.29-2.58-9.25-1.43-1.96-3.83-2.94-7.17-2.94-2.58,0-4.66.84-6.24,2.51-1.58,1.67-2.37,3.66-2.37,5.95,0,2.78,1.19,5.07,3.59,6.89,2.39,1.82,5.28,3.28,8.68,4.38,3.39,1.1,6.79,2.32,10.19,3.66,3.39,1.34,6.29,3.49,8.68,6.46,2.39,2.97,3.59,6.74,3.59,11.33,0,7.17-2.58,12.63-7.75,16.36-5.17,3.73-12.34,5.6-21.52,5.6Z"/>
      <path class="cls-2" d="m646.66,180.55c-2.54,2.3-5.43,3.44-8.68,3.44s-6.12-1.15-8.61-3.44c-2.49-2.3-3.73-5.26-3.73-8.9s1.27-6.48,3.8-8.82c2.53-2.34,5.38-3.52,8.54-3.52,3.35,0,6.26,1.15,8.75,3.44,2.49,2.3,3.73,5.26,3.73,8.9s-1.27,6.6-3.8,8.9Z"/>
      <path class="cls-2" d="m691.93,184c-9.57,0-17.53-3.2-23.89-9.61-6.36-6.41-9.54-15.11-9.54-26.11,0-10.23,3.47-18.56,10.4-24.96,6.93-6.41,14.99-9.61,24.18-9.61s15.61,1.79,19.87,5.38c4.25,3.59,6.38,7.68,6.38,12.27,0,3.73-1.03,6.67-3.08,8.82-2.06,2.15-4.38,3.23-6.96,3.23-2.2,0-4.14-.79-5.81-2.37-1.67-1.58-2.51-3.71-2.51-6.38,0-3.44-.81-6.67-2.44-9.68-1.63-3.01-4.16-4.52-7.6-4.52-4.02,0-6.94,1.99-8.75,5.95-1.82,3.97-2.73,8.87-2.73,14.71,0,7.94,1.46,14.44,4.38,19.51,2.92,5.07,7.34,7.6,13.27,7.6,4.88,0,8.39-1.05,10.55-3.16,2.15-2.1,3.66-4.97,4.52-8.61.29-1.24.93-2.13,1.94-2.65,1-.52,1.98-.69,2.94-.5.96.19,1.82.72,2.58,1.58.76.86,1.1,1.82,1,2.87-.86,7.46-3.56,13.7-8.11,18.72-4.54,5.02-11.41,7.53-20.59,7.53Z"/>
      <path class="cls-2" d="m791.64,174.39c-6.79,6.41-15.4,9.61-25.83,9.61s-19.04-3.2-25.83-9.61c-6.79-6.41-10.19-14.92-10.19-25.54s3.39-19.13,10.19-25.54c6.79-6.41,15.4-9.61,25.83-9.61s19.03,3.21,25.83,9.61c6.79,6.41,10.19,14.92,10.19,25.54s-3.4,19.13-10.19,25.54Zm-24.1,2.58c7.94,0,11.91-7.65,11.91-22.96,0-5.55-.46-10.74-1.36-15.57-.91-4.83-2.58-9.04-5.02-12.63-2.44-3.59-5.48-5.38-9.11-5.38-7.84,0-11.77,7.65-11.77,22.96,0,5.65.45,10.86,1.36,15.64.91,4.78,2.56,8.97,4.95,12.55,2.39,3.59,5.4,5.38,9.04,5.38Z"/>
      <path class="cls-2" d="m926.37,168.79c.19,2.1,1.39,4.21,3.59,6.31,2.2,2.1,3.3,3.73,3.3,4.88,0,1.72-.91,2.58-2.73,2.58h-27.69c-1.91,0-2.87-.86-2.87-2.58,0-.86.96-2.25,2.87-4.16s2.82-3.92,2.73-6.03l-1.15-23.67c-.19-4.3-.69-7.91-1.51-10.83-.81-2.92-1.84-5.02-3.08-6.31-1.24-1.29-2.42-2.15-3.52-2.58-1.1-.43-2.32-.65-3.66-.65-3.73,0-6.65,1.63-8.75,4.88-2.11,3.25-3.16,7.32-3.16,12.2v24.68c0,2.58,1.17,5.02,3.52,7.32,2.34,2.3,3.52,4.02,3.52,5.17,0,1.72-1.24,2.58-3.73,2.58h-27.26c-2.49,0-3.73-.86-3.73-2.58,0-1.15,1.17-2.87,3.52-5.17,2.34-2.3,3.52-4.73,3.52-7.32v-28.27c0-5.26-.91-8.97-2.73-11.12-1.82-2.15-4.5-3.23-8.03-3.23-3.25,0-6.24,1.79-8.97,5.38s-4.09,7.73-4.09,12.41v24.82c0,2.58,1.17,5.02,3.52,7.32,2.34,2.3,3.52,4.02,3.52,5.17,0,1.72-1.24,2.58-3.73,2.58h-27.26c-2.49,0-3.73-.86-3.73-2.58,0-1.15,1.17-2.87,3.52-5.17,2.34-2.3,3.52-4.73,3.52-7.32v-33.72c0-1.63-.36-3.04-1.08-4.23-.72-1.19-1.51-2.1-2.37-2.73-.86-.62-1.65-1.34-2.37-2.15-.72-.81-1.08-1.65-1.08-2.51s.29-1.55.86-2.08c.57-.52,1.82-1.03,3.73-1.51l18.8-4.59c2.77-.67,4.16.24,4.16,2.73v6.6c0,1.53.52,2.3,1.58,2.3.57,0,1.41-.62,2.51-1.87,1.1-1.24,2.27-2.6,3.52-4.09,1.24-1.48,3.18-2.85,5.81-4.09,2.63-1.24,5.67-1.87,9.11-1.87,8.51,0,14.68,3.4,18.51,10.19.67,1.24,1.48,1.87,2.44,1.87.57,0,1.51-.62,2.8-1.87,1.29-1.24,2.65-2.63,4.09-4.16,1.43-1.53,3.59-2.92,6.46-4.16,2.87-1.24,6.03-1.87,9.47-1.87,12.72,0,19.85,8.8,21.38,26.4l2.44,28.7Z"/>
    </g>
  </g>
</svg>