<svg id="Layer_1" data-name="Layer 1" xmlns="http://www.w3.org/2000/svg" viewBox="0 0 442 135.05"><defs><style>.cls-1{fill:#fcf7f8;}.cls-2{fill:#302624;}</style></defs><path class="cls-1" d="M19.89,46.63q12.56.81,12.55,9.3a7.38,7.38,0,0,1-4.54,7.3c-3,1.38-7.15,2.07-12.36,2.07q-8.47,0-12-1.73T0,58.65A3.86,3.86,0,0,1,2,55a4.46,4.46,0,0,1,4-.3,2.93,2.93,0,0,1,2,2.92,3.25,3.25,0,0,0,1.76,3,12.61,12.61,0,0,0,5.77,1q8.22,0,8.22-3.8a3,3,0,0,0-1.23-2.51,5.83,5.83,0,0,0-3.25-1.09l-9.91-.74a8.74,8.74,0,0,1-5.16-1.8,5,5,0,0,1-1.77-4q0-3.87,6.38-6.32a12.36,12.36,0,0,1-5.9-4.54A12.51,12.51,0,0,1,.75,29.53a12.3,12.3,0,0,1,3.93-9.47q3.95-3.63,10.39-3.63a15.27,15.27,0,0,1,7.8,2,2.6,2.6,0,0,0,1.8-2.24,13.66,13.66,0,0,0,.24-3.73A5.73,5.73,0,0,1,25.72,9,3.59,3.59,0,0,1,29.05,7.4a3.62,3.62,0,0,1,3.94,3,7.5,7.5,0,0,1-2,6.38,10.56,10.56,0,0,1-5.63,3.4,12.31,12.31,0,0,1,3.93,9.3,12.22,12.22,0,0,1-3.83,9.4q-3.84,3.56-10.49,3.56c-.63,0-1.45,0-2.44-.13-1.31.77-2,1.58-2.17,2.44S11,46,12.49,46.16ZM13.64,19.55q-4.14,0-3.59,7.87a23.17,23.17,0,0,0,1.9,8q1.56,3.42,4.27,3.42,4.14,0,3.6-7.87A29.85,29.85,0,0,0,19,25.69a12,12,0,0,0-2-4.31A4,4,0,0,0,13.64,19.55Z"/><path class="cls-1" d="M58.71,16.43c2.94,0,4.35,1.63,4.21,4.88a8.8,8.8,0,0,1-3.19,6.25,11.47,11.47,0,0,1-8,2.78H48.39V41.88a2.91,2.91,0,0,0,1.23,2.38c.81.63,1.62,1.21,2.44,1.73s1.22,1.07,1.22,1.66c0,.9-.68,1.36-2,1.36H37.06q-1.77,0-1.77-1.23c0-.54.56-1.35,1.67-2.44a4.8,4.8,0,0,0,1.66-3.46v-16a3.79,3.79,0,0,0-.51-2A4.14,4.14,0,0,0,37,22.64a7.22,7.22,0,0,1-1.12-1,1.8,1.8,0,0,1-.51-1.19,1.27,1.27,0,0,1,.41-1,4.5,4.5,0,0,1,1.76-.72l8.9-2.17c1.31-.31,2,.12,2,1.29v9.78h1.43A2.52,2.52,0,0,0,51.58,27a5.34,5.34,0,0,0,1.29-2.21c.37-1,.6-1.74.72-2.17s.28-1.23.51-2.41A4.22,4.22,0,0,1,58.71,16.43Z"/><path class="cls-1" d="M76.22,49.69A12.38,12.38,0,0,1,67.87,47a9.26,9.26,0,0,1-3.12-7.43,8.19,8.19,0,0,1,3.73-7.33,16,16,0,0,1,9-2.44A13.29,13.29,0,0,1,82.94,31a2,2,0,0,0,.75.21c.36,0,.52-.32.47-.95L84,27.9a9.29,9.29,0,0,0-1.46-4.58q-1.19-1.66-4.38-1.67-4.75,0-7.19,4.89a2.12,2.12,0,0,1-2,1.22,2.48,2.48,0,0,1-1.76-.68,2.26,2.26,0,0,1-.75-1.76q0-3.19,4.31-6a15.87,15.87,0,0,1,8.86-2.85Q93.13,16.43,94,29L95,43a2.82,2.82,0,0,0,.61,2,3.28,3.28,0,0,0,2,.44c1.32,0,2,.54,2,1.63q0,2.58-5,2.58-6.8,0-9-4.55Q82.93,49.69,76.22,49.69Zm4.28-4.48a4,4,0,0,0,3.12-1.36,5.8,5.8,0,0,0,1.22-4c0-2.3-.46-4-1.39-5.05a4.58,4.58,0,0,0-3.63-1.6,5.2,5.2,0,0,0-3.43,1.22,4.79,4.79,0,0,0-1.46,3.87Q74.93,45.21,80.5,45.21Z"/><path class="cls-1" d="M118.88,17.51a8.46,8.46,0,0,1,4.31-1.08,13.78,13.78,0,0,1,4.75.84,15.45,15.45,0,0,1,4.48,2.65,12.44,12.44,0,0,1,3.5,5.13,20.82,20.82,0,0,1,1.32,7.73,20.79,20.79,0,0,1-1.35,7.74,13.71,13.71,0,0,1-3.53,5.3,16.23,16.23,0,0,1-4.62,2.88,12.94,12.94,0,0,1-4.89,1,10.91,10.91,0,0,1-8.62-3.81V57.49A4.82,4.82,0,0,0,115.9,61c1.1,1.09,1.66,1.9,1.66,2.45,0,.81-.59,1.22-1.77,1.22H102.9c-1.18,0-1.77-.41-1.77-1.22,0-.55.56-1.36,1.67-2.45a4.84,4.84,0,0,0,1.66-3.46V25.93a3.79,3.79,0,0,0-.51-2,4.14,4.14,0,0,0-1.12-1.29,7.22,7.22,0,0,1-1.12-1,1.8,1.8,0,0,1-.51-1.19,1.27,1.27,0,0,1,.41-1,4.5,4.5,0,0,1,1.76-.72l8.89-2.17c1.32-.31,2,.12,2,1.29V20q0,.81.48.81c.18,0,.61-.36,1.29-1.09A13.12,13.12,0,0,1,118.88,17.51Zm2.68,27.63q2.52,0,3.94-2.85T126.93,34a18.71,18.71,0,0,0-1.74-8.56,5.73,5.73,0,0,0-5.46-3.39,4.66,4.66,0,0,0-3.94,2.27q-1.56,2.28-1.56,6.89a34.2,34.2,0,0,0,.58,6.62A11.58,11.58,0,0,0,117.12,43,5.44,5.44,0,0,0,121.56,45.14Z"/><path class="cls-1" d="M175.18,42.49a4.88,4.88,0,0,0,1.7,3c1,1,1.56,1.76,1.56,2.3q0,1.23-1.29,1.23h-13.3q-1,0-1-1.23a3.73,3.73,0,0,1,1.26-2.07A3.63,3.63,0,0,0,165.27,43l-.67-11.54a27.25,27.25,0,0,0-.75-5.12,6.19,6.19,0,0,0-1.43-2.85,5,5,0,0,0-1.59-1.12,4.72,4.72,0,0,0-1.67-.27,4.82,4.82,0,0,0-4.1,2.1,7.69,7.69,0,0,0-1.53,4.62v13a5.47,5.47,0,0,0,1.29,3.46,4.86,4.86,0,0,1,1.29,2.44c0,.82-.45,1.23-1.36,1.23H142.2q-1.77,0-1.77-1.23c0-.54.56-1.35,1.66-2.44a4.82,4.82,0,0,0,1.67-3.46V9.64a3.79,3.79,0,0,0-.51-2,4.14,4.14,0,0,0-1.12-1.29,7.22,7.22,0,0,1-1.12-1,1.8,1.8,0,0,1-.51-1.19,1.23,1.23,0,0,1,.41-1,4.5,4.5,0,0,1,1.76-.72L151.56.27c1.31-.31,2,.11,2,1.29V20.5c0,.72.25,1.09.75,1.09.31,0,.73-.28,1.25-.82l1.7-1.76A8.59,8.59,0,0,1,160,17.24a10,10,0,0,1,4.07-.81,8.8,8.8,0,0,1,6.18,2.34,9.78,9.78,0,0,1,2.61,4.14,25.83,25.83,0,0,1,1.39,6.89Z"/><path class="cls-1" d="M194.6,41.88a4.8,4.8,0,0,0,1.66,3.46c1.11,1.09,1.66,1.9,1.66,2.44,0,.82-.59,1.23-1.76,1.23h-12.9c-1.18,0-1.76-.41-1.76-1.23,0-.54.55-1.35,1.66-2.44a4.8,4.8,0,0,0,1.66-3.46v-16a3.79,3.79,0,0,0-.51-2,4.14,4.14,0,0,0-1.12-1.29,7.7,7.7,0,0,1-1.12-1,1.8,1.8,0,0,1-.51-1.19,1.27,1.27,0,0,1,.41-1,4.49,4.49,0,0,1,1.77-.72l8.89-2.17c1.31-.31,2,.12,2,1.29Zm-6.25-30.07a5.91,5.91,0,0,1-4.41-1.73,4.75,4.75,0,0,1-1.36-4.17,6.25,6.25,0,0,1,2.34-4.14A7.07,7.07,0,0,1,189.64,0a5.42,5.42,0,0,1,4.11,1.77,4.94,4.94,0,0,1,1.39,4.14,6.34,6.34,0,0,1-2.31,4.14A6.72,6.72,0,0,1,188.35,11.81Z"/><path class="cls-1" d="M216.38,49.69a15.29,15.29,0,0,1-11.3-4.55q-4.52-4.55-4.51-12.36A15.36,15.36,0,0,1,205.49,21a16.33,16.33,0,0,1,11.44-4.54c4.25,0,7.38.84,9.4,2.54a7.48,7.48,0,0,1,3,5.8A5.81,5.81,0,0,1,227.89,29a4.45,4.45,0,0,1-3.29,1.53,3.92,3.92,0,0,1-2.75-1.12,4,4,0,0,1-1.19-3,9.46,9.46,0,0,0-1.15-4.58,3.82,3.82,0,0,0-3.6-2.14,4.31,4.31,0,0,0-4.14,2.81,16.7,16.7,0,0,0-1.29,7,18.33,18.33,0,0,0,2.07,9.23,6.78,6.78,0,0,0,6.28,3.6q3.46,0,5-1.49A8.14,8.14,0,0,0,226,36.65a1.83,1.83,0,0,1,.92-1.25,2.07,2.07,0,0,1,1.39-.24,2.19,2.19,0,0,1,1.22.75,1.72,1.72,0,0,1,.48,1.35,15.48,15.48,0,0,1-3.84,8.86Q222.9,49.69,216.38,49.69Z"/><path class="cls-1" d="M279.58,40.18a3.85,3.85,0,0,0,.51,2,3.91,3.91,0,0,0,1.15,1.28,6.61,6.61,0,0,1,1.15,1,1.8,1.8,0,0,1,.51,1.19,1.16,1.16,0,0,1-.4,1,5.15,5.15,0,0,1-1.77.68l-9,2.24a2.19,2.19,0,0,1-1.59,0c-.34-.21-.47-.63-.38-1.26a5,5,0,0,0,0-2c-1.94,2.31-4.75,3.47-8.41,3.47a15.23,15.23,0,0,1-5.06-.85,15.84,15.84,0,0,1-4.65-2.65,12.19,12.19,0,0,1-3.56-5.12,20.71,20.71,0,0,1-1.33-7.74,20.59,20.59,0,0,1,1.36-7.74,13.45,13.45,0,0,1,3.53-5.29,16.26,16.26,0,0,1,4.62-2.89,13,13,0,0,1,4.88-1,8.44,8.44,0,0,1,4.31,1.08,11.35,11.35,0,0,1,2.82,2.17c.63.73,1,1.09,1.15,1.09s.34-.14.34-.41V9.64a3.79,3.79,0,0,0-.51-2,4.14,4.14,0,0,0-1.12-1.29,7.7,7.7,0,0,1-1.12-1,1.8,1.8,0,0,1-.51-1.19,1.27,1.27,0,0,1,.41-1,4.49,4.49,0,0,1,1.77-.72L277.61.27c1.31-.31,2,.11,2,1.29ZM264.44,45q5.35,0,5.36-10.11a24.29,24.29,0,0,0-1.69-9.71,5.8,5.8,0,0,0-5.64-3.87q-2.37,0-3.87,2.72t-1.49,8.08a25.83,25.83,0,0,0,.68,6.1A11.14,11.14,0,0,0,260.2,43,5.41,5.41,0,0,0,264.44,45Z"/><path class="cls-1" d="M301.09,49.69A14.88,14.88,0,0,1,290,45.14q-4.46-4.55-4.45-12.29,0-7.53,4.58-12a15.88,15.88,0,0,1,11.51-4.44c3.62,0,6.51.75,8.68,2.27a7.47,7.47,0,0,1,3.33,6.35c0,2.58-1.21,4.8-3.77,6.68s-6.55,3.05-12,3.5l-2.44.2q1.08,6.85,7.4,6.86a8.75,8.75,0,0,0,5.87-1.94A11.06,11.06,0,0,0,312,36,1.61,1.61,0,0,1,314,34.89a1.56,1.56,0,0,1,1.39,1.83,15,15,0,0,1-1.05,4.35,17.13,17.13,0,0,1-2.44,4.14,11.08,11.08,0,0,1-4.41,3.25A15.91,15.91,0,0,1,301.09,49.69ZM295,32l1.57-.14q4.88-.41,6.89-2.78a7.86,7.86,0,0,0,2-5.16,4.57,4.57,0,0,0-1-3.09,3.56,3.56,0,0,0-2.85-1.19c-2.13,0-3.81,1.17-5.06,3.5A16.52,16.52,0,0,0,295,32Z"/><path class="cls-1" d="M331.64,49.69a16.88,16.88,0,0,1-8.32-1.84c-2.19-1.22-3.43-2.69-3.7-4.41q-.54-3.6,2.17-4.75a3.31,3.31,0,0,1,3.74.41,2.79,2.79,0,0,1,.88,1.76,6.59,6.59,0,0,0,1.46,3.74,4.41,4.41,0,0,0,3.56,1.49c3.22,0,4.82-1.43,4.82-4.28a3.75,3.75,0,0,0-1.7-3.19,14.22,14.22,0,0,0-4.14-2q-2.43-.74-4.88-1.73a9.71,9.71,0,0,1-4.14-3.19,8.91,8.91,0,0,1-1.7-5.6A8.31,8.31,0,0,1,323.25,19q3.57-2.58,9.68-2.58a16.67,16.67,0,0,1,8,1.66A6.44,6.44,0,0,1,344.46,23q.48,3.33-2.3,4.34a3.42,3.42,0,0,1-3.74-.4,2,2,0,0,1-.67-1.36,8.53,8.53,0,0,0-1.23-4.38,3.9,3.9,0,0,0-3.39-1.39A3.86,3.86,0,0,0,330.18,21a4,4,0,0,0,.57,6.07,13.66,13.66,0,0,0,4.11,2.07c1.61.52,3.21,1.1,4.82,1.73a10,10,0,0,1,4.11,3.06,8.27,8.27,0,0,1,1.69,5.36A9,9,0,0,1,341.82,47Q338.15,49.68,331.64,49.69Z"/><path class="cls-1" d="M362,41.88a4.82,4.82,0,0,0,1.67,3.46c1.11,1.09,1.66,1.9,1.66,2.44,0,.82-.59,1.23-1.76,1.23h-12.9q-1.77,0-1.77-1.23c0-.54.56-1.35,1.67-2.44a4.84,4.84,0,0,0,1.66-3.46v-16a3.79,3.79,0,0,0-.51-2,4.14,4.14,0,0,0-1.12-1.29,7.22,7.22,0,0,1-1.12-1,1.8,1.8,0,0,1-.51-1.19,1.27,1.27,0,0,1,.41-1,4.5,4.5,0,0,1,1.76-.72l8.9-2.17c1.31-.31,2,.12,2,1.29ZM355.8,11.81a5.91,5.91,0,0,1-4.41-1.73A4.72,4.72,0,0,1,350,5.91a6.25,6.25,0,0,1,2.34-4.14A7.05,7.05,0,0,1,357.09,0a5.42,5.42,0,0,1,4.11,1.77,5,5,0,0,1,1.39,4.14,6.34,6.34,0,0,1-2.31,4.14A6.72,6.72,0,0,1,355.8,11.81Z"/><path class="cls-1" d="M388.58,46.63q12.56.81,12.56,9.3a7.39,7.39,0,0,1-4.55,7.3Q392,65.3,384.24,65.3q-8.49,0-12-1.73t-3.53-4.92a3.85,3.85,0,0,1,2-3.64,4.44,4.44,0,0,1,4-.3,2.91,2.91,0,0,1,2,2.92,3.24,3.24,0,0,0,1.77,3,12.58,12.58,0,0,0,5.77,1q8.2,0,8.21-3.8a3,3,0,0,0-1.22-2.51A5.86,5.86,0,0,0,388,54.23l-9.91-.74a8.8,8.8,0,0,1-5.16-1.8,5,5,0,0,1-1.76-4q0-3.87,6.38-6.32a12.22,12.22,0,0,1-8.08-11.87,12.27,12.27,0,0,1,3.94-9.47q3.93-3.63,10.38-3.63a15.3,15.3,0,0,1,7.81,2,2.6,2.6,0,0,0,1.8-2.24,14.07,14.07,0,0,0,.24-3.73A5.66,5.66,0,0,1,394.42,9a4.16,4.16,0,0,1,7.26,1.49,7.49,7.49,0,0,1-2,6.38,10.63,10.63,0,0,1-5.64,3.4,12.28,12.28,0,0,1,3.94,9.3,12.23,12.23,0,0,1-3.84,9.4q-3.83,3.56-10.48,3.56c-.64,0-1.45,0-2.45-.13-1.31.77-2,1.58-2.17,2.44s.63,1.22,2.17,1.36Zm-6.24-27.08q-4.14,0-3.6,7.87a23.63,23.63,0,0,0,1.9,8q1.56,3.42,4.28,3.42,4.14,0,3.59-7.87a29,29,0,0,0-.84-5.33,12.2,12.2,0,0,0-2-4.31A4.07,4.07,0,0,0,382.34,19.55Z"/><path class="cls-1" d="M438.74,42.49a4.88,4.88,0,0,0,1.7,3c1,1,1.56,1.76,1.56,2.3Q442,49,440.71,49h-13.3q-1,0-1-1.23a3.75,3.75,0,0,1,1.25-2.07A3.6,3.6,0,0,0,428.83,43l-.68-11.54a26.54,26.54,0,0,0-.74-5.12A6.29,6.29,0,0,0,426,23.52a5,5,0,0,0-1.59-1.12,4.72,4.72,0,0,0-1.67-.27,4.8,4.8,0,0,0-4.1,2.1,7.69,7.69,0,0,0-1.53,4.62v13a5.47,5.47,0,0,0,1.29,3.46,4.86,4.86,0,0,1,1.29,2.44c0,.82-.45,1.23-1.36,1.23H405.75c-1.17,0-1.76-.41-1.76-1.23,0-.54.55-1.35,1.66-2.44a4.8,4.8,0,0,0,1.66-3.46v-16a3.78,3.78,0,0,0-.5-2,4.27,4.27,0,0,0-1.12-1.29,7.22,7.22,0,0,1-1.12-1,1.8,1.8,0,0,1-.51-1.19,1.26,1.26,0,0,1,.4-1,4.57,4.57,0,0,1,1.77-.72l8.89-2.17c1.31-.31,2,.12,2,1.29V20.5c0,.72.25,1.09.75,1.09.31,0,.73-.28,1.25-.82l1.7-1.76a8.59,8.59,0,0,1,2.75-1.77,10,10,0,0,1,4.07-.81,8.8,8.8,0,0,1,6.18,2.34,9.78,9.78,0,0,1,2.61,4.14,26.23,26.23,0,0,1,1.39,6.89Z"/><path class="cls-2" d="M202.4,97.07c.91,0,1.55.55,1.93,1.66a4.89,4.89,0,0,1,0,3.33c-.38,1.11-1,1.66-1.93,1.66H193v9.43c0,.86-.54,1.47-1.6,1.84a4.76,4.76,0,0,1-3.16,0c-1-.37-1.56-1-1.56-1.84v-9.43h-9.43c-.91,0-1.55-.55-1.94-1.66a5,5,0,0,1,0-3.33c.39-1.11,1-1.66,1.94-1.66h9.43V87.63q0-1.29,1.56-1.83a4.76,4.76,0,0,1,3.16,0c1.06.36,1.6,1,1.6,1.83v9.44Z"/><path class="cls-1" d="M238.51,119.44a15.27,15.27,0,0,1-11.3-4.55q-4.52-4.55-4.52-12.36a15.33,15.33,0,0,1,4.93-11.81,16.32,16.32,0,0,1,11.43-4.54c4.26,0,7.39.84,9.4,2.54a7.45,7.45,0,0,1,3,5.8A5.77,5.77,0,0,1,250,98.7a4.45,4.45,0,0,1-3.29,1.53,3.93,3.93,0,0,1-3.93-4.14,9.54,9.54,0,0,0-1.16-4.59,3.82,3.82,0,0,0-3.6-2.13,4.31,4.31,0,0,0-4.14,2.81,16.7,16.7,0,0,0-1.29,7,18.23,18.23,0,0,0,2.08,9.23A6.76,6.76,0,0,0,241,112q3.47,0,5-1.5a8.15,8.15,0,0,0,2.14-4.07,1.8,1.8,0,0,1,.92-1.25,2,2,0,0,1,1.39-.24,2.19,2.19,0,0,1,1.22.75,1.71,1.71,0,0,1,.47,1.35,15.4,15.4,0,0,1-3.83,8.86Q245,119.44,238.51,119.44Z"/><path class="cls-1" d="M285.68,114.89a18.67,18.67,0,0,1-24.43,0q-4.83-4.55-4.82-12.08c0-5,1.6-9,4.82-12.09a18.7,18.7,0,0,1,24.43,0c3.22,3,4.82,7.06,4.82,12.09S288.9,111.86,285.68,114.89Zm-11.4,1.22q5.64,0,5.63-10.86a39.9,39.9,0,0,0-.64-7.37,15.57,15.57,0,0,0-2.38-6,5.07,5.07,0,0,0-4.31-2.54q-5.56,0-5.56,10.86a39.58,39.58,0,0,0,.64,7.39,15.87,15.87,0,0,0,2.34,5.94A5,5,0,0,0,274.28,116.11Z"/><path class="cls-1" d="M327.29,109.93a3.79,3.79,0,0,0,.51,2,4,4,0,0,0,1.15,1.29,6.68,6.68,0,0,1,1.16,1,1.8,1.8,0,0,1,.51,1.19,1.18,1.18,0,0,1-.41.95,5,5,0,0,1-1.77.68l-9,2.24a2.19,2.19,0,0,1-1.59,0c-.34-.21-.47-.63-.37-1.26a5.38,5.38,0,0,0,0-2c-1.95,2.31-4.75,3.47-8.42,3.47a15.27,15.27,0,0,1-5.06-.85,16.09,16.09,0,0,1-4.65-2.65,12.17,12.17,0,0,1-3.56-5.13,23.08,23.08,0,0,1,0-15.47,13.68,13.68,0,0,1,3.53-5.3A16.45,16.45,0,0,1,304,87.16a12.93,12.93,0,0,1,4.89-1,8.46,8.46,0,0,1,4.31,1.08A11.46,11.46,0,0,1,316,89.43c.64.73,1,1.09,1.16,1.09s.34-.14.34-.41V79.39a3.79,3.79,0,0,0-.51-2,4.27,4.27,0,0,0-1.12-1.29,7.22,7.22,0,0,1-1.12-1,1.8,1.8,0,0,1-.51-1.19,1.22,1.22,0,0,1,.41-1,4.43,4.43,0,0,1,1.76-.72L325.32,70c1.31-.32,2,.11,2,1.29Zm-15.14,4.82q5.37,0,5.37-10.11a24.28,24.28,0,0,0-1.7-9.71,5.79,5.79,0,0,0-5.63-3.87q-2.38,0-3.87,2.72t-1.5,8.07a25.86,25.86,0,0,0,.68,6.11,11.31,11.31,0,0,0,2.41,4.79A5.42,5.42,0,0,0,312.15,114.75Z"/><path class="cls-1" d="M347.24,111.63a4.83,4.83,0,0,0,1.67,3.46c1.11,1.09,1.66,1.9,1.66,2.44,0,.82-.59,1.23-1.76,1.23h-12.9c-1.18,0-1.76-.41-1.76-1.23,0-.54.55-1.35,1.66-2.44a4.82,4.82,0,0,0,1.66-3.46V95.68a3.79,3.79,0,0,0-.51-2,4.14,4.14,0,0,0-1.12-1.29,7.22,7.22,0,0,1-1.12-1,1.8,1.8,0,0,1-.51-1.19,1.27,1.27,0,0,1,.41-1,4.5,4.5,0,0,1,1.76-.72l8.9-2.17c1.31-.31,2,.11,2,1.29ZM341,81.56a5.91,5.91,0,0,1-4.41-1.73,4.74,4.74,0,0,1-1.36-4.18,6.3,6.3,0,0,1,2.34-4.14,7.11,7.11,0,0,1,4.72-1.76,5.44,5.44,0,0,1,4.11,1.76,5,5,0,0,1,1.39,4.14,6.34,6.34,0,0,1-2.31,4.15A6.72,6.72,0,0,1,341,81.56Z"/><path class="cls-1" d="M388.85,112.24a4.88,4.88,0,0,0,1.7,3c1,1,1.56,1.76,1.56,2.3q0,1.23-1.29,1.23h-13.3q-1,0-1-1.23a3.73,3.73,0,0,1,1.26-2.07,3.63,3.63,0,0,0,1.18-2.68l-.68-11.54a26.54,26.54,0,0,0-.74-5.12,6.29,6.29,0,0,0-1.43-2.85,5,5,0,0,0-1.59-1.12,4.72,4.72,0,0,0-1.67-.27,4.81,4.81,0,0,0-4.1,2.1,7.67,7.67,0,0,0-1.53,4.62v13a5.49,5.49,0,0,0,1.29,3.46,4.86,4.86,0,0,1,1.29,2.44c0,.82-.45,1.23-1.36,1.23H355.87q-1.77,0-1.77-1.23c0-.54.55-1.35,1.66-2.44a4.83,4.83,0,0,0,1.67-3.46V95.68a3.79,3.79,0,0,0-.51-2,4.27,4.27,0,0,0-1.12-1.29,7.22,7.22,0,0,1-1.12-1,1.8,1.8,0,0,1-.51-1.19,1.23,1.23,0,0,1,.41-1,4.43,4.43,0,0,1,1.76-.72l8.89-2.17c1.31-.31,2,.11,2,1.29v2.65q0,1.08.75,1.08c.31,0,.73-.27,1.25-.81l1.7-1.76A8.59,8.59,0,0,1,373.65,87a10,10,0,0,1,4.07-.81,9.56,9.56,0,0,1,3.16.51,9.42,9.42,0,0,1,3,1.83,9.78,9.78,0,0,1,2.61,4.14,25.83,25.83,0,0,1,1.39,6.89Z"/><path class="cls-1" d="M414.17,116.38q12.56.81,12.56,9.3a7.39,7.39,0,0,1-4.55,7.3q-4.55,2.07-12.35,2.07-8.49,0-12-1.73t-3.53-4.93a3.85,3.85,0,0,1,2-3.63,4.44,4.44,0,0,1,4-.3,2.93,2.93,0,0,1,2,2.92,3.24,3.24,0,0,0,1.77,3,12.58,12.58,0,0,0,5.77,1q8.21,0,8.21-3.8a3,3,0,0,0-1.22-2.51,5.79,5.79,0,0,0-3.26-1.09l-9.91-.74a8.86,8.86,0,0,1-5.16-1.8,5,5,0,0,1-1.76-4q0-3.87,6.38-6.32A12.22,12.22,0,0,1,395,99.28,12.26,12.26,0,0,1,399,89.81q3.93-3.63,10.38-3.63a15.33,15.33,0,0,1,7.81,2A2.6,2.6,0,0,0,419,85.9a14.06,14.06,0,0,0,.23-3.73,5.66,5.66,0,0,1,.82-3.46,3.57,3.57,0,0,1,3.32-1.56,3.6,3.6,0,0,1,3.94,3,7.47,7.47,0,0,1-2,6.38A10.56,10.56,0,0,1,419.6,90a13.18,13.18,0,0,1,.1,18.7q-3.82,3.55-10.48,3.56c-.64,0-1.45,0-2.45-.14a3.9,3.9,0,0,0-2.17,2.45c-.09.77.63,1.22,2.17,1.36ZM407.93,89.3q-4.14,0-3.6,7.87a23.4,23.4,0,0,0,1.9,8c1,2.28,2.46,3.42,4.28,3.42q4.13,0,3.59-7.87a29,29,0,0,0-.85-5.33,12,12,0,0,0-2-4.31A4.07,4.07,0,0,0,407.93,89.3Z"/><path class="cls-1" d="M439.25,117.81a6,6,0,0,1-4.1,1.63,5.87,5.87,0,0,1-4.08-1.63,5.83,5.83,0,0,1,0-8.39,5.79,5.79,0,0,1,4-1.66,5.9,5.9,0,0,1,4.14,1.63,5.48,5.48,0,0,1,1.76,4.21A5.42,5.42,0,0,1,439.25,117.81Z"/></svg>