<svg id="Layer_1" data-name="Layer 1" xmlns="http://www.w3.org/2000/svg" viewBox="0 0 309.03 76.73"><defs><style>.cls-1{fill:#fcf7f8;}.cls-2{fill:#1c1815;}</style></defs><path class="cls-1" d="M12.82,58.62a12.54,12.54,0,0,1-8.44-2.7,9.38,9.38,0,0,1-3.15-7.51A8.26,8.26,0,0,1,5,41a16.19,16.19,0,0,1,9.05-2.46A13.34,13.34,0,0,1,19.6,39.7a2.08,2.08,0,0,0,.76.21q.54,0,.48-1l-.21-2.33A9.35,9.35,0,0,0,19.16,32c-.8-1.12-2.28-1.68-4.42-1.68q-4.8,0-7.27,4.93a2.12,2.12,0,0,1-2.06,1.24,2.55,2.55,0,0,1-1.78-.69A2.26,2.26,0,0,1,2.87,34q0-3.22,4.36-6.1a16,16,0,0,1,9-2.88q13.71,0,14.6,12.68l1,14.2a2.75,2.75,0,0,0,.62,2,3.21,3.21,0,0,0,2,.44c1.33,0,2,.55,2,1.65,0,1.74-1.69,2.6-5.07,2.6q-6.85,0-9-4.59Q19.61,58.62,12.82,58.62Zm4.32-4.52a4.05,4.05,0,0,0,3.15-1.37,5.89,5.89,0,0,0,1.23-4q0-3.49-1.4-5.11A4.65,4.65,0,0,0,16.45,42,5.23,5.23,0,0,0,13,43.2a4.79,4.79,0,0,0-1.48,3.91Q11.51,54.1,17.14,54.1Z"/><path class="cls-1" d="M60.54,25a13.14,13.14,0,0,1,4.76.89,14.57,14.57,0,0,1,4.39,2.74A12.66,12.66,0,0,1,73,33.84a22.19,22.19,0,0,1,1.23,7.71,20.12,20.12,0,0,1-1.47,7.92,13.69,13.69,0,0,1-3.84,5.38A17.14,17.14,0,0,1,64,57.7a15.27,15.27,0,0,1-5.24.92,10.07,10.07,0,0,1-6.31-2.09,11.38,11.38,0,0,1-3.84-4.83,10,10,0,0,0-1.17,1.65c-.36.64-.79,1.47-1.27,2.5s-.74,1.59-.79,1.68a2.2,2.2,0,0,1-2.19,1.09,2.07,2.07,0,0,1-1.47-.54,2,2,0,0,1-.59-1.51V18.17a3.55,3.55,0,0,0-.82-2.4,15.05,15.05,0,0,0-1.64-1.65,1.9,1.9,0,0,1-.83-1.43c0-.83.73-1.42,2.2-1.79l9-2.19c1.32-.37,2,.07,2,1.3V29.14c0,.41.16.62.48.62a10.37,10.37,0,0,0,2.26-2A9.21,9.21,0,0,1,60.54,25ZM58.28,54.17q5.55,0,5.55-9.88a31.29,31.29,0,0,0-.62-6.51,11.27,11.27,0,0,0-2.33-4.94,5.44,5.44,0,0,0-4.39-2.05,4.56,4.56,0,0,0-4.15,2.84,17.71,17.71,0,0,0-1.47,8,19.78,19.78,0,0,0,1.82,8.91A5.9,5.9,0,0,0,58.28,54.17Z"/><path class="cls-1" d="M107.85,54a17.28,17.28,0,0,1-12.34,4.59A17.25,17.25,0,0,1,83.17,54q-4.87-4.59-4.87-12.2t4.87-12.21A17.25,17.25,0,0,1,95.51,25a17.28,17.28,0,0,1,12.34,4.59q4.86,4.59,4.87,12.21T107.85,54ZM96.33,55.27q5.69,0,5.69-11a40.46,40.46,0,0,0-.65-7.43,15.86,15.86,0,0,0-2.4-6,5.16,5.16,0,0,0-4.35-2.57q-5.62,0-5.63,11a40.35,40.35,0,0,0,.65,7.47,16.2,16.2,0,0,0,2.37,6A5.05,5.05,0,0,0,96.33,55.27Z"/><path class="cls-1" d="M150.09,49a3.89,3.89,0,0,0,.51,2,4.32,4.32,0,0,0,1.13,1.3,6.88,6.88,0,0,1,1.13,1,1.79,1.79,0,0,1,.52,1.2,1.29,1.29,0,0,1-.41,1,4.33,4.33,0,0,1-1.79.72l-9,2.2c-1.33.32-2-.12-2-1.3V54c0-.73-.25-1.1-.75-1.1q-.42,0-1.2.9t-1.68,2a8.06,8.06,0,0,1-2.78,1.95,10,10,0,0,1-4.35.89,9.76,9.76,0,0,1-7.68-3.15Q119,52.32,119,46.21V34.63a3.83,3.83,0,0,0-.52-2,4.32,4.32,0,0,0-1.13-1.3,6.88,6.88,0,0,1-1.13-1,1.82,1.82,0,0,1-.51-1.2,1.26,1.26,0,0,1,.41-1,4.49,4.49,0,0,1,1.78-.72l9-2.2c1.33-.32,2,.12,2,1.31v20c0,2.51.43,4.29,1.3,5.31A4.75,4.75,0,0,0,134,53.28q2.34,0,4.29-2.57a9.58,9.58,0,0,0,2-5.94V34.63a3.92,3.92,0,0,0-.51-2,4.32,4.32,0,0,0-1.13-1.3,6.88,6.88,0,0,1-1.13-1,1.79,1.79,0,0,1-.52-1.2,1.29,1.29,0,0,1,.41-1,4.62,4.62,0,0,1,1.79-.72l9-2.2c1.32-.32,2,.12,2,1.31Z"/><path class="cls-1" d="M171.68,58.62c-3.61,0-6.46-.93-8.57-2.81S160,51.22,160,47.65V30.17h-3a1.79,1.79,0,0,1-1.13-.34,1.41,1.41,0,0,1-.55-.83,2.73,2.73,0,0,1,0-1,1.48,1.48,0,0,1,.44-.89,1.54,1.54,0,0,1,.86-.45q3.5-.34,4.59-1.47t3.09-6.07a2.88,2.88,0,0,1,1.78-1.71,3,3,0,0,1,2.44.07,2,2,0,0,1,1.13,1.92v6.3h9.73c1.19,0,1.79.73,1.79,2.2a2.65,2.65,0,0,1-.48,1.57,1.52,1.52,0,0,1-1.31.69h-9.53V48.82q0,5.15,3.64,5.14,4.46,0,3.43-7.13a2.15,2.15,0,0,1,1.57-2.67,1.86,1.86,0,0,1,2.54,1.3q2.06,5.55-.34,9.36T171.68,58.62Z"/><path class="cls-2" d="M255.34,51.36a4.9,4.9,0,0,0,1.71,3c1.05,1,1.58,1.79,1.58,2.34,0,.82-.44,1.23-1.31,1.23H244.09c-.91,0-1.37-.41-1.37-1.23,0-.42.46-1.08,1.37-2a3.78,3.78,0,0,0,1.3-2.88l-.54-11.32a24.53,24.53,0,0,0-.72-5.17,7.06,7.06,0,0,0-1.48-3A4.77,4.77,0,0,0,241,31.1a4.66,4.66,0,0,0-1.75-.31A4.72,4.72,0,0,0,235,33.12,10.49,10.49,0,0,0,233.53,39V50.74a4.89,4.89,0,0,0,1.68,3.5c1.12,1.09,1.68,1.92,1.68,2.47,0,.82-.59,1.23-1.78,1.23h-13c-1.19,0-1.78-.41-1.78-1.23,0-.55.56-1.38,1.68-2.47a4.89,4.89,0,0,0,1.68-3.5V37.23c0-2.51-.44-4.28-1.3-5.31a4.74,4.74,0,0,0-3.84-1.54c-1.56,0-3,.85-4.29,2.57a9.54,9.54,0,0,0-1.95,5.93V50.74a4.89,4.89,0,0,0,1.68,3.5c1.12,1.09,1.68,1.92,1.68,2.47,0,.82-.6,1.23-1.79,1.23h-13c-1.19,0-1.79-.41-1.79-1.23,0-.55.56-1.38,1.68-2.47a4.89,4.89,0,0,0,1.68-3.5V34.63a3.92,3.92,0,0,0-.51-2,4.32,4.32,0,0,0-1.13-1.3,6.88,6.88,0,0,1-1.13-1,1.79,1.79,0,0,1-.52-1.2,1.29,1.29,0,0,1,.41-1,4.62,4.62,0,0,1,1.79-.72l9-2.2c1.32-.32,2,.12,2,1.31v3.15c0,.73.25,1.1.75,1.1.27,0,.67-.3,1.2-.89s1.09-1.25,1.68-2a8.09,8.09,0,0,1,2.78-1.95A10.12,10.12,0,0,1,223,25q6.11,0,8.85,4.87c.32.59.7.89,1.16.89.28,0,.72-.3,1.34-.89s1.27-1.26,2-2a9.27,9.27,0,0,1,3.09-2A11.32,11.32,0,0,1,244,25q9.12,0,10.22,12.61Z"/><path class="cls-2" d="M276.32,58.62A15,15,0,0,1,265.11,54q-4.5-4.59-4.49-12.41,0-7.6,4.62-12.1A16,16,0,0,1,276.87,25a15.05,15.05,0,0,1,8.77,2.29A7.54,7.54,0,0,1,289,33.74q.08,3.9-3.8,6.75T273.1,44l-2.47.21q1.1,6.92,7.47,6.92A8.85,8.85,0,0,0,284,49.2a11.29,11.29,0,0,0,3.26-4.36,1.62,1.62,0,0,1,2.09-1.16,1.58,1.58,0,0,1,1.41,1.85,15.58,15.58,0,0,1-1.07,4.39,17.17,17.17,0,0,1-2.47,4.18,11.13,11.13,0,0,1-4.45,3.29A16.21,16.21,0,0,1,276.32,58.62ZM270.15,40.8l1.57-.14c3.3-.27,5.61-1.21,7-2.81a7.93,7.93,0,0,0,2-5.21,4.66,4.66,0,0,0-1-3.12,3.6,3.6,0,0,0-2.88-1.2q-3.23,0-5.11,3.53A16.55,16.55,0,0,0,270.15,40.8Z"/><path class="cls-1" d="M304.4,57a6,6,0,0,1-4.15,1.64A5.87,5.87,0,0,1,296.13,57a5.88,5.88,0,0,1,0-8.47,5.86,5.86,0,0,1,4.08-1.68,6,6,0,0,1,4.18,1.65,5.93,5.93,0,0,1,0,8.5Z"/></svg>