<svg id="Layer_1" data-name="Layer 1" xmlns="http://www.w3.org/2000/svg" xmlns:xlink="http://www.w3.org/1999/xlink" viewBox="0 0 19.16 17.54"><defs><style>.cls-1{fill:url(#linear-gradient);}</style><linearGradient id="linear-gradient" y1="8.77" x2="19.16" y2="8.77" gradientUnits="userSpaceOnUse"><stop offset="0" stop-color="#fcf7f8"/><stop offset="1" stop-color="#fff"/></linearGradient></defs><path class="cls-1" d="M10.71.31A1.06,1.06,0,0,0,10,0a1,1,0,0,0-.75.31,1.06,1.06,0,0,0,0,1.5l5.91,5.91H1.06a1.06,1.06,0,1,0,0,2.12h14L9.21,15.73a1,1,0,0,0-.31.75,1.06,1.06,0,0,0,.31.75,1.05,1.05,0,0,0,1.49,0l8.46-8.46Z"/></svg>