<?xml version="1.0" encoding="UTF-8"?>
<svg id="Capa_1" data-name="Capa 1" xmlns="http://www.w3.org/2000/svg" viewBox="0 0 586 827">
  <defs>
    <style>
      .cls-1 {
        fill: #fff;
      }

      .cls-2 {
        fill: #ff001f;
      }

      .cls-3 {
        fill: #fcf6f7;
      }

      .cls-4 {
        fill: #d2001f;
      }
    </style>
  </defs>
  <rect class="cls-2" width="586" height="827"/>
  <g>
    <path class="cls-4" d="m-4.7,69.37c-6.11-6.75-9.17-14.46-9.17-23.12s3.06-16.31,9.17-22.93c6.11-6.63,14.01-9.94,23.69-9.94s17.26,3.37,23.5,10.13c6.24,6.75,9.36,14.33,9.36,22.74,0,8.91-3.06,16.68-9.17,23.31-6.11,6.62-14.01,9.94-23.69,9.94s-17.58-3.38-23.69-10.13Z"/>
    <path class="cls-4" d="m-13.87,189.93c0-25.48,8.53-46.68,25.6-63.62,17.06-16.94,40.25-25.41,69.55-25.41,27.26,0,49.42,9.23,66.49,27.7,17.06,18.47,25.6,39.93,25.6,64.39s-4.78,41.59-14.33,52.92c-9.55,11.33-20.44,17-32.67,17-9.93,0-17.77-2.74-23.5-8.21-5.73-5.48-8.6-11.65-8.6-18.53,0-5.86,2.1-11.02,6.3-15.47,4.2-4.46,9.87-6.69,17-6.69,9.17,0,17.77-2.17,25.79-6.5,8.02-4.34,12.04-11.08,12.04-20.25,0-10.7-5.29-18.47-15.86-23.31-10.57-4.84-23.63-7.26-39.17-7.26-21.15,0-38.47,3.88-51.97,11.65-13.51,7.77-20.25,19.55-20.25,35.35,0,12.99,2.8,22.36,8.41,28.09,5.6,5.73,13.24,9.74,22.93,12.04,3.31.76,5.67,2.48,7.07,5.16,1.4,2.68,1.84,5.29,1.34,7.83-.51,2.54-1.91,4.84-4.2,6.88-2.29,2.04-4.84,2.93-7.64,2.67-19.87-2.29-36.49-9.49-49.87-21.59-13.37-12.1-20.06-30.38-20.06-54.83Z"/>
    <path class="cls-4" d="m11.73,455.5c-17.07-18.09-25.6-41.02-25.6-68.78s8.53-50.7,25.6-68.78c17.06-18.09,39.74-27.13,68.02-27.13s50.95,9.04,68.02,27.13c17.06,18.08,25.6,41.01,25.6,68.78s-8.54,50.69-25.6,68.78c-17.07,18.08-39.74,27.13-68.02,27.13s-50.95-9.04-68.02-27.13Zm-6.88-64.2c0,21.14,20.38,31.72,61.14,31.72,14.77,0,28.59-1.21,41.46-3.63,12.86-2.42,24.07-6.88,33.63-13.37,9.55-6.5,14.33-14.59,14.33-24.26,0-20.89-20.38-31.33-61.14-31.33-15.03,0-28.92,1.21-41.65,3.63-12.74,2.42-23.88,6.81-33.44,13.18-9.55,6.36-14.33,14.39-14.33,24.07Z"/>
    <path class="cls-4" d="m26.64,814.31c-5.61.51-11.21,3.69-16.81,9.55-5.61,5.86-9.93,8.79-12.99,8.79-4.58,0-6.88-2.42-6.88-7.26v-73.75c0-5.1,2.29-7.64,6.88-7.64,2.29,0,5.98,2.54,11.08,7.64s10.44,7.51,16.05,7.26l63.05-3.06c11.46-.51,21.08-1.85,28.85-4.01,7.77-2.17,13.37-4.91,16.81-8.22,3.44-3.31,5.73-6.44,6.88-9.36,1.15-2.93,1.72-6.18,1.72-9.74,0-9.94-4.33-17.71-12.99-23.31-8.66-5.61-19.49-8.41-32.48-8.41H30.08c-6.88,0-13.38,3.12-19.49,9.36-6.11,6.24-10.7,9.36-13.76,9.36-4.58,0-6.88-3.31-6.88-9.94v-72.6c0-6.63,2.29-9.94,6.88-9.94,3.06,0,7.64,3.12,13.76,9.36,6.11,6.24,12.61,9.36,19.49,9.36h75.28c14.01,0,23.88-2.42,29.62-7.26,5.73-4.84,8.6-11.98,8.6-21.4,0-8.66-4.78-16.62-14.33-23.88-9.55-7.26-20.58-10.89-33.05-10.89H30.08c-6.88,0-13.38,3.12-19.49,9.36-6.11,6.24-10.7,9.36-13.76,9.36-4.58,0-6.88-3.31-6.88-9.93v-72.6c0-6.63,2.29-9.94,6.88-9.94,3.06,0,7.64,3.12,13.76,9.36,6.11,6.24,12.61,9.36,19.49,9.36h89.8c4.33,0,8.08-.96,11.27-2.87,3.18-1.91,5.6-4.01,7.26-6.3,1.65-2.29,3.56-4.39,5.73-6.31,2.16-1.91,4.39-2.87,6.69-2.87s4.14.76,5.54,2.29c1.4,1.53,2.73,4.84,4.01,9.94l12.23,50.06c1.78,7.39-.64,11.08-7.26,11.08h-17.58c-4.08,0-6.11,1.4-6.11,4.2,0,1.53,1.65,3.76,4.97,6.69,3.31,2.92,6.94,6.05,10.89,9.36,3.95,3.31,7.58,8.47,10.89,15.48,3.31,7,4.97,15.09,4.97,24.26,0,22.67-9.04,39.1-27.13,49.29-3.31,1.78-4.97,3.95-4.97,6.5,0,1.53,1.65,4.01,4.97,7.45,3.31,3.44,7,7.07,11.08,10.89,4.07,3.82,7.77,9.55,11.08,17.2,3.31,7.64,4.97,16.05,4.97,25.22,0,33.88-23.44,52.86-70.31,56.94l-76.42,6.5Z"/>
  </g>
  <g>
    <g>
      <path class="cls-1" d="m142.22,463.61h10.94c6.08,0,9.99,3.21,9.96,8.35,0,5.1-3.95,8.39-9.99,8.39h-5.17v8.14h-5.73v-24.88Zm10.45,12.33c2.87,0,4.65-1.57,4.65-3.98s-1.82-3.95-4.65-3.95h-4.72v7.93h4.72Z"/>
      <path class="cls-1" d="m164.47,479.54c0-5.77,3.95-9.5,9.92-9.5s9.92,3.74,9.92,9.5-3.98,9.5-9.92,9.5-9.92-3.74-9.92-9.5Zm14.64,0c0-2.97-1.96-5.07-4.72-5.07s-4.75,2.1-4.75,5.07,1.96,5.1,4.75,5.1,4.72-2.13,4.72-5.1Z"/>
      <path class="cls-1" d="m187.46,470.6h5.1v2.45h.38c.77-1.68,2.52-2.79,4.4-2.79.73,0,1.47.17,2.03.45v4.65c-1.01-.45-2.2-.66-2.94-.66-2.27,0-3.81,1.89-3.81,4.65v9.16h-5.17v-17.89Z"/>
      <path class="cls-1" d="m203.78,482.72v-8.35h-2.52v-3.77h2.66l1.01-5.66h4.05l-.03,5.66h4.09v3.77h-4.09v8.14c0,1.5.91,2.52,2.38,2.52.49,0,1.26-.1,1.85-.24v3.7c-1.01.35-2.48.56-3.49.56-3.6,0-5.91-2.55-5.91-6.32Z"/>
      <path class="cls-1" d="m218,474.37h-2.52v-3.77h2.52v-2.13c0-3.88,2.31-6.46,5.73-6.46,1.22,0,2.45.24,3.46.56v4.12c-.52-.14-1.12-.24-1.71-.24-1.4,0-2.31.87-2.31,2.2v1.96h4.02v3.77h-4.02v14.12h-5.17v-14.12Z"/>
      <path class="cls-1" d="m228.73,479.54c0-5.77,3.95-9.5,9.92-9.5s9.92,3.74,9.92,9.5-3.98,9.5-9.92,9.5-9.92-3.74-9.92-9.5Zm14.64,0c0-2.97-1.96-5.07-4.72-5.07s-4.75,2.1-4.75,5.07,1.96,5.1,4.75,5.1,4.72-2.13,4.72-5.1Z"/>
      <path class="cls-1" d="m251.68,462.56h5.17v25.93h-5.17v-25.93Z"/>
      <path class="cls-1" d="m260.45,465.08c0-1.75,1.29-3.04,3.11-3.04s3.11,1.29,3.11,3.04-1.29,3.04-3.11,3.04-3.11-1.26-3.11-3.04Zm.52,5.52h5.17v17.89h-5.17v-17.89Z"/>
      <path class="cls-1" d="m269.43,479.54c0-5.77,3.95-9.5,9.92-9.5s9.92,3.74,9.92,9.5-3.98,9.5-9.92,9.5-9.92-3.74-9.92-9.5Zm14.64,0c0-2.97-1.96-5.07-4.72-5.07s-4.75,2.1-4.75,5.07,1.96,5.1,4.75,5.1,4.72-2.13,4.72-5.1Z"/>
      <path class="cls-1" d="m300.14,463.61h5.73l5.28,19.71h.35l5-19.71h6.11l4.96,19.71h.35l5.28-19.71h5.73l-6.88,24.88h-8.25l-4.09-17.3h-.35l-4.09,17.3h-8.25l-6.88-24.88Z"/>
      <path class="cls-1" d="m338.55,479.4c0-5.59,4.09-9.37,9.85-9.37s9.61,3.81,9.61,9.43c0,.45,0,1.19-.07,1.57h-14.05c.42,2.52,2.2,4.16,4.75,4.16,1.99,0,3.53-.98,4.3-2.45l4.4,1.12c-1.12,3.21-4.58,5.17-8.91,5.17-5.8,0-9.89-3.88-9.89-9.64Zm14.19-1.57c-.31-2.27-2.06-3.95-4.47-3.95s-3.98,1.57-4.4,3.95h8.88Z"/>
      <path class="cls-1" d="m366.67,486.22h-.35v2.27h-5.17v-25.93h5.17v10.27h.35c1.26-1.78,3.21-2.8,5.66-2.8,4.89,0,8.46,3.84,8.46,9.5s-3.53,9.5-8.46,9.5c-2.55,0-4.4-1.01-5.66-2.83Zm8.91-6.67c0-2.87-1.96-5.07-4.72-5.07s-4.75,2.2-4.75,5.07,1.99,5.1,4.75,5.1,4.72-2.2,4.72-5.1Z"/>
      <path class="cls-1" d="m383.23,482.51h4.58c0,1.89,1.54,3.18,4.09,3.18,1.96,0,3.25-.84,3.25-2.2,0-1.64-1.85-1.85-4.02-2.06-3.29-.35-7.69-.87-7.69-5.49,0-3.67,3.18-5.97,7.97-5.97s8.25,2.34,8.25,6.04h-4.72c-.04-1.61-1.47-2.62-3.53-2.62-1.89,0-3.18.84-3.18,2.13,0,1.68,2.2,1.78,4.68,2.06,3.28.38,7.3,1.19,7.3,5.45,0,3.81-3.18,6.08-8.46,6.08s-8.53-2.48-8.53-6.6Z"/>
      <path class="cls-1" d="m403.15,465.08c0-1.75,1.29-3.04,3.11-3.04s3.11,1.29,3.11,3.04-1.29,3.04-3.11,3.04-3.11-1.26-3.11-3.04Zm.52,5.52h5.17v17.89h-5.17v-17.89Z"/>
      <path class="cls-1" d="m414.33,482.72v-8.35h-2.52v-3.77h2.66l1.01-5.66h4.05l-.03,5.66h4.09v3.77h-4.09v8.14c0,1.5.91,2.52,2.38,2.52.49,0,1.26-.1,1.85-.24v3.7c-1.01.35-2.48.56-3.49.56-3.6,0-5.91-2.55-5.91-6.32Z"/>
      <path class="cls-1" d="m425.69,479.4c0-5.59,4.09-9.37,9.85-9.37s9.61,3.81,9.61,9.43c0,.45,0,1.19-.07,1.57h-14.05c.42,2.52,2.2,4.16,4.75,4.16,1.99,0,3.53-.98,4.3-2.45l4.4,1.12c-1.12,3.21-4.58,5.17-8.91,5.17-5.8,0-9.89-3.88-9.89-9.64Zm14.19-1.57c-.31-2.27-2.06-3.95-4.47-3.95s-3.98,1.57-4.4,3.95h8.88Z"/>
    </g>
    <g>
      <path class="cls-3" d="m90.13,374.15c5.45,0,8.05,3.02,7.8,9.05-.17,4.28-2.14,8.13-5.91,11.57-3.77,3.44-8.72,5.16-14.84,5.16h-6.16v21.38c0,1.76.75,3.23,2.26,4.4,1.51,1.17,3.02,2.24,4.53,3.21,1.51.96,2.26,1.99,2.26,3.08,0,1.68-1.26,2.52-3.77,2.52h-26.29c-2.18,0-3.27-.75-3.27-2.26,0-1.01,1.03-2.52,3.08-4.53,2.05-2.01,3.08-4.15,3.08-6.41v-29.56c0-1.42-.31-2.66-.94-3.71-.63-1.05-1.32-1.84-2.08-2.39-.75-.54-1.45-1.17-2.08-1.89-.63-.71-.94-1.45-.94-2.2s.25-1.36.75-1.82c.5-.46,1.59-.9,3.27-1.32l16.48-4.02c2.43-.59,3.65.21,3.65,2.39v18.11h2.64c1.26,0,2.35-.42,3.27-1.26.92-.84,1.72-2.2,2.39-4.09.67-1.89,1.11-3.23,1.32-4.02.21-.8.52-2.28.94-4.46.92-4.61,3.77-6.92,8.55-6.92Z"/>
      <path class="cls-3" d="m155.16,427.35c-5.95,5.62-13.5,8.43-22.64,8.43s-16.69-2.81-22.64-8.43c-5.96-5.62-8.93-13.08-8.93-22.39s2.98-16.77,8.93-22.39c5.95-5.62,13.5-8.43,22.64-8.43s16.68,2.81,22.64,8.43c5.95,5.62,8.93,13.08,8.93,22.39s-2.98,16.77-8.93,22.39Zm-21.13,2.26c6.96,0,10.44-6.71,10.44-20.12,0-4.86-.4-9.41-1.2-13.65-.8-4.23-2.26-7.92-4.4-11.07-2.14-3.14-4.8-4.72-7.99-4.72-6.88,0-10.31,6.71-10.31,20.12,0,4.95.4,9.52,1.19,13.71.8,4.19,2.24,7.86,4.34,11.01,2.09,3.14,4.74,4.72,7.92,4.72Z"/>
      <path class="cls-3" d="m273.25,422.44c.17,1.85,1.21,3.69,3.14,5.53,1.93,1.84,2.89,3.27,2.89,4.28,0,1.51-.8,2.26-2.39,2.26h-24.27c-1.68,0-2.52-.75-2.52-2.26,0-.75.84-1.97,2.52-3.65s2.47-3.44,2.39-5.28l-1.01-20.75c-.17-3.77-.61-6.94-1.32-9.5-.71-2.56-1.62-4.4-2.7-5.53-1.09-1.13-2.12-1.89-3.08-2.26-.96-.38-2.03-.57-3.21-.57-3.27,0-5.83,1.43-7.67,4.28-1.85,2.85-2.77,6.41-2.77,10.69v21.63c0,2.26,1.03,4.4,3.08,6.41,2.05,2.01,3.08,3.52,3.08,4.53,0,1.51-1.09,2.26-3.27,2.26h-23.9c-2.18,0-3.27-.75-3.27-2.26,0-1.01,1.03-2.52,3.08-4.53,2.05-2.01,3.08-4.15,3.08-6.41v-24.78c0-4.61-.8-7.86-2.39-9.75-1.59-1.89-3.94-2.83-7.04-2.83-2.85,0-5.47,1.57-7.86,4.72s-3.58,6.77-3.58,10.88v21.76c0,2.26,1.03,4.4,3.08,6.41,2.05,2.01,3.08,3.52,3.08,4.53,0,1.51-1.09,2.26-3.27,2.26h-23.9c-2.18,0-3.27-.75-3.27-2.26,0-1.01,1.03-2.52,3.08-4.53,2.05-2.01,3.08-4.15,3.08-6.41v-29.56c0-1.42-.31-2.66-.94-3.71-.63-1.05-1.32-1.84-2.08-2.39-.75-.54-1.45-1.17-2.08-1.89-.63-.71-.94-1.45-.94-2.2s.25-1.36.75-1.82c.5-.46,1.59-.9,3.27-1.32l16.48-4.02c2.43-.59,3.65.21,3.65,2.39v5.79c0,1.34.46,2.01,1.38,2.01.5,0,1.24-.54,2.2-1.63.96-1.09,1.99-2.28,3.08-3.58,1.09-1.3,2.79-2.49,5.09-3.58,2.31-1.09,4.97-1.63,7.99-1.63,7.46,0,12.87,2.98,16.22,8.93.59,1.09,1.3,1.63,2.14,1.63.5,0,1.32-.54,2.45-1.63,1.13-1.09,2.33-2.31,3.58-3.65,1.26-1.34,3.14-2.56,5.66-3.65,2.52-1.09,5.28-1.63,8.3-1.63,11.15,0,17.4,7.71,18.74,23.14l2.14,25.15Z"/>
      <path class="cls-3" d="m311.74,435.77c-8.22,0-15.07-2.81-20.56-8.43-5.49-5.62-8.24-13.21-8.24-22.76s2.83-16.71,8.49-22.2c5.66-5.49,12.77-8.24,21.32-8.24,6.71,0,12.07,1.4,16.1,4.21,4.02,2.81,6.08,6.73,6.16,11.76.08,4.78-2.24,8.91-6.98,12.39-4.74,3.48-12.14,5.64-22.2,6.48l-4.53.38c1.34,8.47,5.91,12.7,13.71,12.7,4.44,0,8.07-1.2,10.88-3.58,2.81-2.39,4.8-5.05,5.97-7.99.67-1.84,1.95-2.56,3.84-2.14,1.89.42,2.75,1.55,2.58,3.4-.25,2.77-.9,5.45-1.95,8.05-1.05,2.6-2.56,5.16-4.53,7.67-1.97,2.52-4.7,4.53-8.18,6.04-3.48,1.51-7.44,2.26-11.89,2.26Zm-11.32-32.7l2.89-.25c6.04-.5,10.29-2.22,12.77-5.16,2.47-2.93,3.71-6.12,3.71-9.56,0-2.35-.63-4.25-1.89-5.72-1.26-1.47-3.02-2.2-5.28-2.2-3.94,0-7.06,2.16-9.37,6.48-2.31,4.32-3.25,9.79-2.83,16.41Z"/>
      <path class="cls-3" d="m367.83,421.31c0,2.26,1.03,4.4,3.08,6.41,2.05,2.01,3.08,3.52,3.08,4.53,0,1.51-1.09,2.26-3.27,2.26h-23.9c-2.18,0-3.27-.75-3.27-2.26,0-1.01,1.03-2.52,3.08-4.53,2.05-2.01,3.08-4.15,3.08-6.41v-59.74c0-1.42-.31-2.66-.94-3.71-.63-1.05-1.32-1.84-2.08-2.39-.75-.54-1.45-1.17-2.08-1.89-.63-.71-.94-1.45-.94-2.2s.25-1.36.75-1.82c.5-.46,1.59-.9,3.27-1.32l16.48-4.03c2.43-.58,3.65.21,3.65,2.39v74.71Z"/>
      <path class="cls-3" d="m443.55,418.17c0,1.43.31,2.66.94,3.71.63,1.05,1.32,1.84,2.08,2.39.75.55,1.45,1.17,2.08,1.89.63.71.94,1.45.94,2.2s-.25,1.36-.75,1.82c-.5.46-1.59.9-3.27,1.32l-16.48,4.02c-2.43.59-3.65-.21-3.65-2.39v-5.79c0-1.34-.46-2.01-1.38-2.01-.5,0-1.24.55-2.2,1.64-.96,1.09-1.99,2.29-3.08,3.58-1.09,1.3-2.79,2.5-5.09,3.58-2.31,1.09-4.97,1.63-7.99,1.63-5.96,0-10.65-1.93-14.09-5.79-3.44-3.86-5.16-9.52-5.16-16.98v-21.26c0-1.42-.31-2.66-.94-3.71-.63-1.05-1.32-1.84-2.08-2.39-.75-.54-1.45-1.17-2.08-1.89-.63-.71-.94-1.45-.94-2.2s.25-1.36.75-1.82c.5-.46,1.59-.9,3.27-1.32l16.48-4.02c2.43-.59,3.65.21,3.65,2.39v36.6c0,4.61.8,7.86,2.39,9.75,1.59,1.89,3.94,2.83,7.04,2.83,2.85,0,5.47-1.57,7.86-4.72,2.39-3.14,3.58-6.77,3.58-10.88v-18.61c0-1.42-.31-2.66-.94-3.71-.63-1.05-1.32-1.84-2.08-2.39-.75-.54-1.45-1.17-2.08-1.89-.63-.71-.94-1.45-.94-2.2s.25-1.36.75-1.82c.5-.46,1.59-.9,3.27-1.32l16.48-4.02c2.43-.59,3.65.21,3.65,2.39v41.38Z"/>
      <path class="cls-3" d="m477.76,421.31c0,2.26,1.03,4.4,3.08,6.41,2.05,2.01,3.08,3.52,3.08,4.53,0,1.51-1.09,2.26-3.27,2.26h-23.9c-2.18,0-3.27-.75-3.27-2.26,0-1.01,1.03-2.52,3.08-4.53,2.05-2.01,3.08-4.15,3.08-6.41v-29.56c0-1.42-.31-2.66-.94-3.71-.63-1.05-1.32-1.84-2.08-2.39-.75-.54-1.45-1.17-2.08-1.89-.63-.71-.94-1.45-.94-2.2s.25-1.36.75-1.82c.5-.46,1.59-.9,3.27-1.32l16.48-4.02c2.43-.59,3.65.21,3.65,2.39v44.52Zm-11.57-55.72c-3.35,0-6.08-1.07-8.18-3.21-2.1-2.14-2.94-4.72-2.52-7.74.33-2.93,1.78-5.49,4.34-7.67,2.56-2.18,5.47-3.27,8.74-3.27,3.02,0,5.55,1.09,7.61,3.27,2.05,2.18,2.91,4.74,2.58,7.67-.34,2.94-1.76,5.49-4.28,7.67-2.52,2.18-5.28,3.27-8.3,3.27Z"/>
      <path class="cls-3" d="m512.97,435.77c-6.21,0-11.34-1.13-15.41-3.4-4.07-2.26-6.35-4.99-6.85-8.18-.67-4.44.67-7.38,4.02-8.8,2.6-1.17,4.91-.92,6.92.75.92.84,1.47,1.93,1.64,3.27.25,2.77,1.15,5.07,2.7,6.92,1.55,1.84,3.75,2.77,6.6,2.77,5.95,0,8.93-2.64,8.93-7.92,0-2.43-1.05-4.4-3.14-5.91-2.1-1.51-4.65-2.72-7.67-3.65-3.02-.92-6.04-1.99-9.06-3.21-3.02-1.21-5.58-3.19-7.67-5.91-2.1-2.72-3.14-6.18-3.14-10.38,0-5.62,2.2-10.02,6.6-13.21,4.4-3.19,10.38-4.78,17.92-4.78,6.2,0,11.17,1.03,14.9,3.08,3.73,2.06,5.89,5.09,6.48,9.12.59,4.11-.84,6.79-4.28,8.05-2.77,1.09-5.07.84-6.92-.75-.75-.67-1.18-1.51-1.26-2.52-.25-3.69-1.01-6.39-2.26-8.11-1.26-1.72-3.35-2.58-6.29-2.58-2.26,0-4.09.74-5.47,2.2-1.38,1.47-2.08,3.21-2.08,5.22,0,2.43,1.05,4.45,3.14,6.04,2.09,1.59,4.63,2.87,7.61,3.84,2.98.96,5.95,2.03,8.93,3.21,2.98,1.17,5.51,3.06,7.61,5.66,2.09,2.6,3.14,5.91,3.14,9.94,0,6.29-2.26,11.07-6.79,14.34-4.53,3.27-10.82,4.91-18.87,4.91Z"/>
    </g>
  </g>
</svg>