<?xml version="1.0" encoding="UTF-8"?>
<svg id="Capa_1" data-name="Capa 1" xmlns="http://www.w3.org/2000/svg" viewBox="0 0 1532 318">
  <defs>
    <style>
      .cls-1 {
        fill: #fff;
      }

      .cls-2 {
        fill: #fcf6f7;
      }

      .cls-3 {
        fill: #8fbd49;
      }

      .cls-4 {
        fill: #0c594c;
      }
    </style>
  </defs>
  <rect class="cls-4" width="1532" height="318"/>
  <g>
    <path class="cls-2" d="m293.13,242.63h2.42c.03,2.93,2.1,4.68,5.65,4.68,3.09,0,4.9-1.35,4.9-3.47,0-2.61-2.64-3.04-5.49-3.5-3.42-.54-7.18-1.43-7.18-5.54,0-3.42,2.61-5.65,7.18-5.65s7.48,2.42,7.51,6.43h-2.37c0-2.69-1.88-4.28-5.14-4.28-3.07,0-4.73,1.32-4.73,3.36,0,2.5,2.53,2.96,5.33,3.39,3.44.56,7.34,1.32,7.34,5.62,0,3.55-2.72,5.78-7.37,5.78-4.98,0-8.04-2.61-8.04-6.83Z"/>
    <path class="cls-2" d="m312.15,229.02h2.23v12h.27l5.81-5.81h2.96l-6.7,6.51,6.86,7.08h-2.99l-5.95-6.32h-.27v6.32h-2.23v-19.77Z"/>
    <path class="cls-2" d="m337.82,248.79h-2.23v-1.86h-.27c-.94,1.48-2.48,2.34-4.25,2.34-3.47,0-5.65-2.5-5.65-5.97v-8.1h2.23v8.1c0,2.31,1.35,3.95,3.69,3.95s4.25-1.75,4.25-4.14v-7.91h2.23v13.58Z"/>
    <path class="cls-2" d="m341.97,229.02h2.23v19.77h-2.23v-19.77Z"/>
    <path class="cls-2" d="m347.62,241.82c0-4.14,3.01-7.16,7.21-7.16s7.13,3.01,7.13,7.18c0,.27,0,.59-.03.89h-12.02c.32,2.74,2.31,4.57,5.08,4.57,2.02,0,3.79-1.02,4.65-2.64l1.86.94c-1.1,2.31-3.55,3.71-6.56,3.71-4.25,0-7.32-3.15-7.32-7.51Zm12-1.05c-.4-2.45-2.31-4.09-4.9-4.09s-4.41,1.64-4.79,4.09h9.68Z"/>
    <path class="cls-2" d="m378.02,229.82h3.34l7.08,18.97h-2.34l-1.61-4.25h-9.66l-1.61,4.25h-2.34l7.16-18.97Zm5.76,12.7l-3.98-10.55h-.24l-4.01,10.55h8.23Z"/>
    <path class="cls-2" d="m390.24,244.19h2.15c.03,1.94,1.53,3.25,4.09,3.25,2.04,0,3.36-.86,3.36-2.29,0-1.78-1.86-1.91-3.9-2.18-2.53-.3-5.46-.97-5.46-4.06,0-2.64,2.21-4.25,5.46-4.25s5.7,1.8,5.7,4.6h-2.18c-.03-1.67-1.45-2.72-3.55-2.72-1.96,0-3.31.89-3.31,2.29,0,1.69,1.83,1.83,3.85,2.07,2.56.32,5.49.97,5.49,4.22,0,2.66-2.07,4.2-5.54,4.2-3.9,0-6.16-1.91-6.16-5.14Z"/>
    <path class="cls-2" d="m404.91,244.19h2.15c.03,1.94,1.53,3.25,4.09,3.25,2.04,0,3.36-.86,3.36-2.29,0-1.78-1.86-1.91-3.9-2.18-2.53-.3-5.46-.97-5.46-4.06,0-2.64,2.21-4.25,5.46-4.25s5.7,1.8,5.7,4.6h-2.18c-.03-1.67-1.45-2.72-3.55-2.72-1.96,0-3.31.89-3.31,2.29,0,1.69,1.83,1.83,3.85,2.07,2.56.32,5.49.97,5.49,4.22,0,2.66-2.07,4.2-5.54,4.2-3.9,0-6.16-1.91-6.16-5.14Z"/>
    <path class="cls-2" d="m419.44,241.98c0-4.28,3.01-7.32,7.29-7.32s7.29,3.04,7.29,7.32-3.04,7.34-7.29,7.34-7.29-3.04-7.29-7.34Zm12.35,0c0-3.07-2.13-5.3-5.06-5.3s-5.06,2.23-5.06,5.3,2.1,5.33,5.06,5.33,5.06-2.23,5.06-5.33Z"/>
    <path class="cls-2" d="m436.74,241.98c0-4.25,2.96-7.32,7.07-7.32,3.34,0,6.11,2.1,6.62,5l-2.18.3c-.48-1.96-2.34-3.28-4.41-3.28-2.77,0-4.9,2.18-4.87,5.3,0,3.15,2.07,5.33,4.84,5.33,2.13,0,3.93-1.32,4.47-3.23l2.21.3c-.62,2.88-3.42,4.95-6.67,4.95-4.12,0-7.1-3.09-7.07-7.34Z"/>
    <path class="cls-2" d="m453.64,231.01c0-.91.67-1.56,1.61-1.56s1.59.65,1.59,1.56-.65,1.61-1.59,1.61-1.61-.67-1.61-1.61Zm.48,4.2h2.23v13.58h-2.23v-13.58Z"/>
    <path class="cls-2" d="m459.64,245.34c0-2.39,2.04-4.17,6.08-4.63l3.77-.46v-.54c0-1.83-1.32-3.01-3.55-3.01-2.04,0-3.39,1-3.36,2.69h-2.26c0-2.88,2.23-4.71,5.65-4.71s5.76,1.99,5.76,5.08v9.01h-2.23v-1.99h-.24c-.97,1.56-2.56,2.42-4.73,2.42-2.93,0-4.87-1.53-4.87-3.87Zm9.85-1.96v-1.21l-3.77.43c-2.77.35-3.85,1.43-3.85,2.69s1.13,2.07,2.96,2.07c2.77,0,4.65-1.69,4.65-3.98Z"/>
    <path class="cls-2" d="m476.78,245.29v-8.31h-2.21v-1.78h2.21l.51-4.39h1.75l-.03,4.39h3.5v1.78h-3.5v8.23c0,1.29.81,2.21,2.1,2.21.4,0,1.1-.11,1.61-.27v1.8c-.65.21-1.53.35-2.21.35-2.29,0-3.74-1.61-3.74-4.01Z"/>
    <path class="cls-2" d="m484.9,241.82c0-4.14,3.01-7.16,7.21-7.16s7.13,3.01,7.13,7.18c0,.27,0,.59-.03.89h-12.02c.32,2.74,2.31,4.57,5.08,4.57,2.02,0,3.79-1.02,4.65-2.64l1.86.94c-1.1,2.31-3.55,3.71-6.56,3.71-4.25,0-7.32-3.15-7.32-7.51Zm12-1.05c-.4-2.45-2.31-4.09-4.9-4.09s-4.41,1.64-4.79,4.09h9.68Z"/>
    <path class="cls-2" d="m501.99,241.98c0-4.25,3.04-7.32,7.02-7.32,2.18,0,3.98.91,4.98,2.56h.27v-8.21h2.23v19.77h-2.23v-2.1h-.27c-1,1.67-2.74,2.64-4.95,2.64-3.98,0-7.05-3.09-7.05-7.34Zm12.32,0c0-2.99-2.13-5.3-5.03-5.3s-5.06,2.31-5.06,5.3,2.15,5.33,5.06,5.33,5.03-2.34,5.03-5.33Z"/>
    <path class="cls-2" d="m526.67,239.29c0-5.89,4.12-10.14,9.82-10.14,4.28,0,8.04,2.91,8.98,6.89l-2.39.32c-.7-2.93-3.47-5.06-6.59-5.06-4.3,0-7.37,3.36-7.37,7.99s3.09,8.02,7.37,8.02c3.07,0,5.84-2.07,6.62-4.87l2.34.46c-.94,3.79-4.71,6.56-8.96,6.56-5.7,0-9.85-4.28-9.82-10.17Z"/>
    <path class="cls-2" d="m548.95,229.02h2.23v19.77h-2.23v-19.77Z"/>
    <path class="cls-2" d="m567.43,248.79h-2.23v-1.86h-.27c-.94,1.48-2.48,2.34-4.25,2.34-3.47,0-5.65-2.5-5.65-5.97v-8.1h2.23v8.1c0,2.31,1.35,3.95,3.69,3.95s4.25-1.75,4.25-4.14v-7.91h2.23v13.58Z"/>
    <path class="cls-2" d="m574.05,246.69h-.24v2.1h-2.23v-19.77h2.23v8.21h.24c1-1.64,2.82-2.56,5-2.56,3.95,0,6.99,3.07,6.99,7.32s-3.07,7.34-7.02,7.34c-2.23,0-3.98-.97-4.98-2.64Zm9.77-4.71c0-2.99-2.13-5.3-5.03-5.3s-5.06,2.31-5.06,5.3,2.12,5.33,5.06,5.33,5.03-2.29,5.03-5.33Z"/>
  </g>
  <g>
    <path class="cls-2" d="m1129.87,50.89h14.12v3.6h-9.77v4.22h9.04v3.15h-9.04v4.57h10.04v3.6h-14.39v-19.15Z"/>
    <path class="cls-2" d="m1150.4,62.89l-4.63-6.62h4.44l2.9,4.33h.27l2.91-4.33h4.44l-4.63,6.62,4.87,7.16h-4.57l-3.01-4.76h-.27l-3.01,4.76h-4.57l4.87-7.16Z"/>
    <path class="cls-2" d="m1161.27,63.05c0-4.3,3.15-7.21,7.59-7.21s7.4,2.93,7.4,7.26c0,.35,0,.92-.05,1.21h-10.81c.32,1.94,1.7,3.2,3.66,3.2,1.53,0,2.72-.75,3.31-1.88l3.39.86c-.86,2.47-3.52,3.98-6.86,3.98-4.47,0-7.61-2.99-7.61-7.42Zm10.92-1.21c-.24-1.75-1.59-3.04-3.44-3.04s-3.07,1.21-3.39,3.04h6.83Z"/>
    <path class="cls-2" d="m1178.2,63.15c0-4.38,3.04-7.32,7.48-7.32,3.74,0,6.59,2.1,7.05,5.35l-3.71.48c-.35-1.51-1.75-2.56-3.28-2.56-2.02,0-3.55,1.67-3.55,4.04s1.51,4.04,3.52,4.04c1.59,0,2.93-1.05,3.31-2.53l3.74.46c-.51,3.25-3.39,5.35-7.08,5.35-4.38,0-7.48-2.96-7.48-7.32Z"/>
    <path class="cls-2" d="m1208.44,70.04h-3.98v-1.94h-.27c-1.02,1.56-2.34,2.34-4.01,2.34-3.12,0-5.19-2.42-5.19-5.73v-8.45h3.98v7.88c0,1.7.97,2.88,2.58,2.88s2.91-1.26,2.91-3.01v-7.75h3.98v13.77Z"/>
    <path class="cls-2" d="m1212.56,65.6v-6.43h-1.94v-2.91h2.04l.78-4.36h3.12l-.03,4.36h3.15v2.91h-3.15v6.27c0,1.16.7,1.94,1.83,1.94.38,0,.97-.08,1.43-.19v2.85c-.78.27-1.91.43-2.69.43-2.77,0-4.55-1.96-4.55-4.87Z"/>
    <path class="cls-2" d="m1221.98,52.02c0-1.35,1-2.34,2.39-2.34s2.39,1,2.39,2.34-1,2.34-2.39,2.34-2.39-.97-2.39-2.34Zm.4,4.25h3.98v13.77h-3.98v-13.77Z"/>
    <path class="cls-2" d="m1228.17,56.27h4.2l3.34,10.52h.27l3.36-10.52h4.17l-4.79,13.77h-5.76l-4.79-13.77Z"/>
    <path class="cls-2" d="m1244.1,63.05c0-4.3,3.15-7.21,7.59-7.21s7.4,2.93,7.4,7.26c0,.35,0,.92-.05,1.21h-10.81c.32,1.94,1.7,3.2,3.66,3.2,1.53,0,2.72-.75,3.31-1.88l3.39.86c-.86,2.47-3.52,3.98-6.86,3.98-4.47,0-7.61-2.99-7.61-7.42Zm10.92-1.21c-.24-1.75-1.59-3.04-3.44-3.04s-3.07,1.21-3.39,3.04h6.83Z"/>
    <path class="cls-2" d="m1268.55,50.89h6.19l5.03,13.61h.27l5-13.61h6.24v19.15h-4.36v-13.18h-.27l-4.92,13.18h-3.63l-4.92-13.18h-.27v13.18h-4.36v-19.15Z"/>
    <path class="cls-2" d="m1294.17,63.05c0-4.3,3.15-7.21,7.59-7.21s7.4,2.93,7.4,7.26c0,.35,0,.92-.05,1.21h-10.81c.32,1.94,1.69,3.2,3.66,3.2,1.53,0,2.72-.75,3.31-1.88l3.39.86c-.86,2.47-3.53,3.98-6.86,3.98-4.47,0-7.61-2.99-7.61-7.42Zm10.92-1.21c-.24-1.75-1.59-3.04-3.44-3.04s-3.07,1.21-3.39,3.04h6.83Z"/>
    <path class="cls-2" d="m1311.58,56.27h3.96v2.04h.27c.78-1.48,2.23-2.48,3.98-2.48s3.5,1.05,4.22,2.61h.27c.83-1.59,2.37-2.58,4.33-2.58,3.04,0,5.22,2.31,5.22,5.65v8.53h-3.98v-7.85c0-1.67-1.05-2.91-2.58-2.93-1.56,0-2.64,1.21-2.64,2.93v7.85h-4.01v-7.85c0-1.78-.97-2.93-2.47-2.93s-2.58,1.16-2.58,2.93v7.85h-3.98v-13.77Z"/>
    <path class="cls-2" d="m1340.91,68.29h-.27v1.75h-3.98v-19.96h3.98v7.91h.27c.97-1.37,2.48-2.15,4.36-2.15,3.77,0,6.51,2.96,6.51,7.32s-2.72,7.32-6.51,7.32c-1.96,0-3.39-.78-4.36-2.18Zm6.86-5.14c0-2.21-1.51-3.9-3.63-3.9s-3.66,1.69-3.66,3.9,1.53,3.93,3.66,3.93,3.63-1.69,3.63-3.93Z"/>
    <path class="cls-2" d="m1353.72,63.05c0-4.3,3.15-7.21,7.59-7.21s7.4,2.93,7.4,7.26c0,.35,0,.92-.05,1.21h-10.81c.32,1.94,1.7,3.2,3.66,3.2,1.53,0,2.72-.75,3.31-1.88l3.39.86c-.86,2.47-3.52,3.98-6.86,3.98-4.47,0-7.61-2.99-7.61-7.42Zm10.92-1.21c-.24-1.75-1.59-3.04-3.44-3.04s-3.07,1.21-3.39,3.04h6.83Z"/>
    <path class="cls-2" d="m1371.15,56.27h3.93v1.88h.3c.59-1.29,1.94-2.15,3.39-2.15.56,0,1.13.13,1.56.35v3.58c-.78-.35-1.7-.51-2.26-.51-1.75,0-2.93,1.45-2.93,3.58v7.05h-3.98v-13.77Z"/>
    <path class="cls-2" d="m1381.89,65.44h3.53c0,1.45,1.18,2.45,3.15,2.45,1.51,0,2.5-.65,2.5-1.69,0-1.26-1.43-1.43-3.09-1.59-2.53-.27-5.92-.67-5.92-4.22,0-2.83,2.45-4.6,6.13-4.6s6.35,1.8,6.35,4.65h-3.63c-.03-1.24-1.13-2.02-2.72-2.02-1.45,0-2.45.65-2.45,1.64,0,1.29,1.7,1.37,3.6,1.59,2.53.3,5.62.91,5.62,4.2,0,2.93-2.45,4.68-6.51,4.68s-6.56-1.91-6.56-5.08Z"/>
    <path class="cls-2" d="m1403.77,67.57l7.96-7.08c1.4-1.26,2.5-2.21,2.5-3.63,0-1.67-1.29-2.88-2.99-2.88-1.94,0-3.36,1.53-3.44,3.87h-3.98c-.11-4.33,3.04-7.48,7.48-7.48,4.09,0,7.05,2.58,7.08,6.11,0,2.31-1.48,4.06-3.79,6.05l-4.44,3.85v.27h7.8v3.39h-14.18v-2.47Z"/>
    <path class="cls-2" d="m1420.42,60.46c0-5.95,3.55-10.09,8.72-10.09s8.72,4.14,8.72,10.09-3.58,10.09-8.72,10.09-8.72-4.14-8.72-10.09Zm12.97,0c0-3.71-1.69-6.24-4.25-6.24s-4.25,2.53-4.25,6.24,1.7,6.24,4.25,6.24,4.25-2.53,4.25-6.24Z"/>
    <path class="cls-2" d="m1440.2,67.57l7.96-7.08c1.4-1.26,2.5-2.21,2.5-3.63,0-1.67-1.29-2.88-2.99-2.88-1.94,0-3.36,1.53-3.44,3.87h-3.98c-.11-4.33,3.04-7.48,7.48-7.48,4.09,0,7.05,2.58,7.07,6.11,0,2.31-1.48,4.06-3.79,6.05l-4.44,3.85v.27h7.8v3.39h-14.18v-2.47Z"/>
    <path class="cls-2" d="m1456.13,63.24h4.17c0,2.21,1.51,3.82,3.5,3.82s3.34-1.32,3.34-3.12-1.43-3.15-3.36-3.15c-.54,0-1.21.11-1.61.3l-.97-2.56,3.93-3.98v-.27h-7.75v-3.39h13.26v2.61l-4.55,4.65c3.01.51,5.27,2.96,5.27,6.08,0,3.66-3.15,6.32-7.51,6.32s-7.56-3.09-7.72-7.32Z"/>
    <path class="cls-2" d="m1473.05,58.77c0-1.29.97-2.23,2.31-2.23s2.31.94,2.31,2.23-.97,2.26-2.31,2.26-2.31-.94-2.31-2.26Zm0,9.33c0-1.32.97-2.26,2.31-2.26s2.31.94,2.31,2.26-.97,2.26-2.31,2.26-2.31-.94-2.31-2.26Z"/>
    <path class="cls-2" d="m993.02,83.37h8.26c4.12,0,6.83,2.26,6.83,5.76,0,3.23-2.53,5.49-6.05,5.65h-.32l6.89,7.56h-3.09l-6.56-7.42h-3.5v7.42h-2.45v-18.96Zm8.26,9.39c2.72,0,4.38-1.4,4.38-3.63s-1.67-3.61-4.38-3.61h-5.81v7.24h5.81Z"/>
    <path class="cls-2" d="m1010.88,95.53c0-4.28,3.01-7.32,7.29-7.32s7.29,3.04,7.29,7.32-3.04,7.34-7.29,7.34-7.29-3.04-7.29-7.34Zm12.35,0c0-3.07-2.12-5.3-5.06-5.3s-5.06,2.23-5.06,5.3,2.1,5.33,5.06,5.33,5.06-2.23,5.06-5.33Z"/>
    <path class="cls-2" d="m1028.88,88.75h2.15v1.8h.27c.75-1.4,2.18-2.34,3.95-2.34,1.91,0,3.66,1.05,4.44,2.64h.24c.94-1.59,2.5-2.61,4.55-2.61,3.2,0,5.49,2.47,5.49,6v8.1h-2.23v-8.12c0-2.31-1.48-3.98-3.52-3.98-2.18,0-3.71,1.67-3.71,3.98v8.12h-2.23v-8.12c0-2.39-1.4-3.98-3.5-3.98-2.21,0-3.66,1.59-3.66,3.98v8.12h-2.23v-13.58Z"/>
    <path class="cls-2" d="m1053.16,95.36c0-4.14,3.01-7.16,7.21-7.16s7.13,3.01,7.13,7.18c0,.27,0,.59-.03.89h-12.02c.32,2.74,2.31,4.57,5.08,4.57,2.02,0,3.79-1.02,4.65-2.64l1.86.94c-1.1,2.31-3.55,3.71-6.56,3.71-4.25,0-7.32-3.15-7.32-7.5Zm12-1.05c-.4-2.45-2.31-4.09-4.9-4.09s-4.41,1.64-4.79,4.09h9.69Z"/>
    <path class="cls-2" d="m1070.94,82.56h2.23v19.77h-2.23v-19.77Z"/>
    <path class="cls-2" d="m1084.5,83.37h2.45v16.81h9.55v2.15h-12v-18.96Z"/>
    <path class="cls-2" d="m1111.49,102.33h-2.23v-1.86h-.27c-.94,1.48-2.47,2.34-4.25,2.34-3.47,0-5.65-2.5-5.65-5.97v-8.1h2.23v8.1c0,2.31,1.34,3.95,3.69,3.95s4.25-1.75,4.25-4.14v-7.91h2.23v13.58Z"/>
    <path class="cls-2" d="m1115.37,84.55c0-.92.67-1.56,1.61-1.56s1.59.65,1.59,1.56-.65,1.61-1.59,1.61-1.61-.67-1.61-1.61Zm.48,4.2h2.23v13.58h-2.23v-13.58Z"/>
    <path class="cls-2" d="m1121.85,97.73h2.15c.03,1.94,1.53,3.25,4.09,3.25,2.04,0,3.36-.86,3.36-2.29,0-1.78-1.86-1.91-3.9-2.18-2.53-.3-5.46-.97-5.46-4.06,0-2.64,2.21-4.25,5.46-4.25s5.7,1.8,5.7,4.6h-2.18c-.03-1.67-1.45-2.72-3.55-2.72-1.96,0-3.31.89-3.31,2.29,0,1.69,1.83,1.83,3.85,2.07,2.56.32,5.49.97,5.49,4.22,0,2.66-2.07,4.2-5.54,4.2-3.9,0-6.16-1.91-6.16-5.14Z"/>
    <path class="cls-2" d="m1144.32,83.37h12.08v2.15h-9.6v5.92h8.53v2.15h-8.53v8.74h-2.48v-18.96Z"/>
    <path class="cls-2" d="m1157.91,98.89c0-2.39,2.04-4.17,6.08-4.63l3.77-.46v-.54c0-1.83-1.32-3.01-3.55-3.01-2.04,0-3.39,1-3.36,2.69h-2.26c0-2.88,2.23-4.71,5.65-4.71s5.76,1.99,5.76,5.08v9.01h-2.23v-1.99h-.24c-.97,1.56-2.55,2.42-4.73,2.42-2.93,0-4.87-1.53-4.87-3.87Zm9.85-1.96v-1.21l-3.77.43c-2.77.35-3.85,1.43-3.85,2.69s1.13,2.07,2.96,2.07c2.77,0,4.65-1.69,4.65-3.98Z"/>
    <path class="cls-2" d="m1173.6,84.55c0-.92.67-1.56,1.61-1.56s1.59.65,1.59,1.56-.65,1.61-1.59,1.61-1.61-.67-1.61-1.61Zm.48,4.2h2.23v13.58h-2.23v-13.58Z"/>
    <path class="cls-2" d="m1181.88,90.52h-2.18v-1.78h2.18v-2.74c0-2.42,1.48-3.98,3.63-3.98.78,0,1.45.13,2.07.32v1.94c-.46-.13-.94-.24-1.48-.24-1.18,0-1.99.86-1.99,2.18v2.53h3.44v1.78h-3.44v11.81h-2.23v-11.81Z"/>
    <path class="cls-2" d="m1189.2,95.36c0-4.14,3.01-7.16,7.21-7.16s7.13,3.01,7.13,7.18c0,.27,0,.59-.03.89h-12.03c.32,2.74,2.31,4.57,5.08,4.57,2.02,0,3.79-1.02,4.65-2.64l1.86.94c-1.1,2.31-3.55,3.71-6.56,3.71-4.25,0-7.32-3.15-7.32-7.5Zm12-1.05c-.4-2.45-2.31-4.09-4.9-4.09s-4.41,1.64-4.79,4.09h9.68Z"/>
    <path class="cls-2" d="m1213.04,92.83c0-5.89,4.12-10.14,9.82-10.14,4.28,0,8.04,2.91,8.98,6.89l-2.39.32c-.7-2.93-3.47-5.06-6.59-5.06-4.3,0-7.37,3.36-7.37,7.99s3.09,8.02,7.37,8.02c3.07,0,5.84-2.07,6.62-4.87l2.34.46c-.94,3.79-4.71,6.56-8.96,6.56-5.7,0-9.85-4.28-9.82-10.17Z"/>
    <path class="cls-2" d="m1235.32,88.75h2.18v1.83h.24c.62-1.24,2.12-2.1,3.63-2.1.62,0,1.26.13,1.67.35v2.07c-.7-.3-1.51-.4-2.02-.4-2.04,0-3.47,1.83-3.47,4.52v7.32h-2.23v-13.58Z"/>
    <path class="cls-2" d="m1258.06,102.33h-2.23v-1.86h-.27c-.94,1.48-2.47,2.34-4.25,2.34-3.47,0-5.65-2.5-5.65-5.97v-8.1h2.23v8.1c0,2.31,1.34,3.95,3.69,3.95s4.25-1.75,4.25-4.14v-7.91h2.23v13.58Z"/>
    <path class="cls-2" d="m1260.99,101.36l8.37-10.36v-.24h-8.1v-2.02h11.73v.97l-8.31,10.33v.27h8.58v2.02h-12.27v-.97Z"/>
    <path class="cls-2" d="m1282.25,94.85c0-4.87,1.72-9.79,4.28-12.35h2.29c-2.8,2.74-4.57,7.45-4.57,12.35s1.78,9.66,4.57,12.32h-2.29c-2.56-2.56-4.28-7.45-4.28-12.32Z"/>
    <path class="cls-2" d="m1290.56,92.83c0-5.89,4.12-10.14,9.82-10.14,4.28,0,8.04,2.91,8.99,6.89l-2.39.32c-.7-2.93-3.47-5.06-6.59-5.06-4.3,0-7.37,3.36-7.37,7.99s3.09,8.02,7.37,8.02c3.07,0,5.84-2.07,6.62-4.87l2.34.46c-.94,3.79-4.71,6.56-8.96,6.56-5.7,0-9.85-4.28-9.82-10.17Z"/>
    <path class="cls-2" d="m1312.12,95.53c0-4.28,3.01-7.32,7.29-7.32s7.29,3.04,7.29,7.32-3.04,7.34-7.29,7.34-7.29-3.04-7.29-7.34Zm12.35,0c0-3.07-2.12-5.3-5.06-5.3s-5.06,2.23-5.06,5.3,2.1,5.33,5.06,5.33,5.06-2.23,5.06-5.33Z"/>
    <path class="cls-2" d="m1329.42,92.94h11.03v2.02h-11.03v-2.02Z"/>
    <path class="cls-2" d="m1344.38,83.37h7.56c4.14,0,6.83,2.18,6.81,5.81,0,3.58-2.77,5.81-6.81,5.81h-5.17v7.34h-2.39v-18.96Zm7.56,9.44c2.74,0,4.38-1.43,4.38-3.63s-1.64-3.66-4.38-3.66h-5.17v7.29h5.17Z"/>
    <path class="cls-2" d="m1361.95,88.75h2.18v1.83h.24c.62-1.24,2.12-2.1,3.63-2.1.62,0,1.26.13,1.67.35v2.07c-.7-.3-1.51-.4-2.02-.4-2.04,0-3.47,1.83-3.47,4.52v7.32h-2.23v-13.58Z"/>
    <path class="cls-2" d="m1371.32,95.36c0-4.14,3.01-7.16,7.21-7.16s7.13,3.01,7.13,7.18c0,.27,0,.59-.03.89h-12.03c.32,2.74,2.31,4.57,5.08,4.57,2.02,0,3.79-1.02,4.65-2.64l1.86.94c-1.1,2.31-3.55,3.71-6.56,3.71-4.25,0-7.32-3.15-7.32-7.5Zm12-1.05c-.4-2.45-2.31-4.09-4.9-4.09s-4.41,1.64-4.79,4.09h9.68Z"/>
    <path class="cls-2" d="m1388.51,97.73h2.15c.03,1.94,1.53,3.25,4.09,3.25,2.04,0,3.36-.86,3.36-2.29,0-1.78-1.86-1.91-3.9-2.18-2.53-.3-5.46-.97-5.46-4.06,0-2.64,2.21-4.25,5.46-4.25s5.7,1.8,5.7,4.6h-2.18c-.03-1.67-1.45-2.72-3.55-2.72-1.96,0-3.31.89-3.31,2.29,0,1.69,1.83,1.83,3.85,2.07,2.55.32,5.49.97,5.49,4.22,0,2.66-2.07,4.2-5.54,4.2-3.9,0-6.16-1.91-6.16-5.14Z"/>
    <path class="cls-2" d="m1403.5,84.55c0-.92.67-1.56,1.61-1.56s1.59.65,1.59,1.56-.65,1.61-1.59,1.61-1.61-.67-1.61-1.61Zm.48,4.2h2.23v13.58h-2.23v-13.58Z"/>
    <path class="cls-2" d="m1409.88,95.53c0-4.25,3.04-7.32,7.02-7.32,2.18,0,3.98.92,4.98,2.56h.27v-8.21h2.23v19.77h-2.23v-2.1h-.27c-1,1.67-2.74,2.64-4.95,2.64-3.98,0-7.05-3.09-7.05-7.34Zm12.32,0c0-2.99-2.12-5.3-5.03-5.3s-5.06,2.31-5.06,5.3,2.15,5.33,5.06,5.33,5.03-2.34,5.03-5.33Z"/>
    <path class="cls-2" d="m1427.79,95.36c0-4.14,3.01-7.16,7.21-7.16s7.13,3.01,7.13,7.18c0,.27,0,.59-.03.89h-12.02c.32,2.74,2.31,4.57,5.08,4.57,2.02,0,3.79-1.02,4.65-2.64l1.86.94c-1.1,2.31-3.55,3.71-6.56,3.71-4.25,0-7.32-3.15-7.32-7.5Zm12-1.05c-.4-2.45-2.31-4.09-4.9-4.09s-4.41,1.64-4.79,4.09h9.68Z"/>
    <path class="cls-2" d="m1445.58,88.75h2.23v1.86h.27c.97-1.51,2.48-2.37,4.28-2.37,3.44,0,5.65,2.53,5.65,5.97v8.12h-2.23v-8.12c0-2.29-1.37-3.95-3.71-3.95s-4.25,1.78-4.25,4.14v7.94h-2.23v-13.58Z"/>
    <path class="cls-2" d="m1463.04,98.83v-8.31h-2.21v-1.78h2.21l.51-4.38h1.75l-.03,4.38h3.5v1.78h-3.5v8.23c0,1.29.81,2.21,2.1,2.21.4,0,1.1-.11,1.61-.27v1.8c-.65.21-1.53.35-2.21.35-2.29,0-3.74-1.61-3.74-4.01Z"/>
    <path class="cls-2" d="m1470.63,107.17c2.8-2.66,4.57-7.34,4.57-12.32s-1.78-9.6-4.57-12.35h2.31c2.56,2.56,4.28,7.48,4.28,12.35s-1.72,9.77-4.28,12.32h-2.31Z"/>
    <path class="cls-2" d="m942.51,115.66h8.23c3.5,0,6,2.12,6,5.08,0,1.8-1.16,3.42-2.77,3.93v.27c1.94.54,3.31,2.31,3.31,4.36,0,3.07-2.74,5.33-6.54,5.33h-8.23v-18.97Zm7.94,8.15c2.26,0,3.87-1.24,3.87-2.99s-1.61-3.01-3.87-3.01h-5.49v6h5.49Zm-.05,8.66c2.61,0,4.47-1.4,4.47-3.31s-1.86-3.2-4.47-3.2h-5.43v6.51h5.43Z"/>
    <path class="cls-2" d="m960.08,127.65c0-4.14,3.01-7.16,7.21-7.16s7.13,3.01,7.13,7.18c0,.27,0,.59-.03.89h-12.03c.32,2.74,2.31,4.57,5.08,4.57,2.02,0,3.79-1.02,4.65-2.64l1.86.94c-1.1,2.31-3.55,3.71-6.56,3.71-4.25,0-7.32-3.15-7.32-7.51Zm12-1.05c-.4-2.45-2.31-4.09-4.9-4.09s-4.41,1.64-4.79,4.09h9.68Z"/>
    <path class="cls-2" d="m976.79,131.18c0-2.39,2.04-4.17,6.08-4.63l3.77-.46v-.54c0-1.83-1.32-3.01-3.55-3.01-2.04,0-3.39,1-3.36,2.69h-2.26c0-2.88,2.23-4.71,5.65-4.71s5.76,1.99,5.76,5.08v9.01h-2.23v-1.99h-.24c-.97,1.56-2.56,2.42-4.73,2.42-2.93,0-4.87-1.53-4.87-3.87Zm9.85-1.96v-1.21l-3.77.43c-2.77.35-3.85,1.43-3.85,2.69s1.13,2.07,2.96,2.07c2.77,0,4.65-1.7,4.65-3.98Z"/>
    <path class="cls-2" d="m993.93,131.12v-8.31h-2.21v-1.78h2.21l.51-4.39h1.75l-.03,4.39h3.5v1.78h-3.5v8.23c0,1.29.81,2.21,2.1,2.21.4,0,1.1-.11,1.61-.27v1.8c-.65.21-1.53.35-2.21.35-2.29,0-3.74-1.61-3.74-4.01Z"/>
    <path class="cls-2" d="m1003.27,121.04h2.18v1.83h.24c.62-1.24,2.12-2.1,3.63-2.1.62,0,1.26.13,1.67.35v2.07c-.7-.3-1.51-.4-2.02-.4-2.04,0-3.47,1.83-3.47,4.52v7.32h-2.23v-13.58Z"/>
    <path class="cls-2" d="m1013.6,116.84c0-.91.67-1.56,1.61-1.56s1.59.65,1.59,1.56-.65,1.61-1.59,1.61-1.61-.67-1.61-1.61Zm.48,4.2h2.23v13.58h-2.23v-13.58Z"/>
    <path class="cls-2" d="m1019.47,133.65l8.37-10.36v-.24h-8.1v-2.02h11.73v.97l-8.31,10.33v.27h8.58v2.02h-12.27v-.97Z"/>
    <path class="cls-2" d="m1041.88,115.66h7.56c4.14,0,6.83,2.18,6.81,5.81,0,3.58-2.77,5.81-6.81,5.81h-5.17v7.34h-2.39v-18.97Zm7.56,9.44c2.74,0,4.38-1.43,4.38-3.63s-1.64-3.66-4.38-3.66h-5.17v7.29h5.17Z"/>
    <path class="cls-2" d="m1058.32,131.18c0-2.39,2.04-4.17,6.08-4.63l3.77-.46v-.54c0-1.83-1.32-3.01-3.55-3.01-2.04,0-3.39,1-3.36,2.69h-2.26c0-2.88,2.23-4.71,5.65-4.71s5.76,1.99,5.76,5.08v9.01h-2.23v-1.99h-.24c-.97,1.56-2.56,2.42-4.74,2.42-2.93,0-4.87-1.53-4.87-3.87Zm9.85-1.96v-1.21l-3.77.43c-2.77.35-3.85,1.43-3.85,2.69s1.13,2.07,2.96,2.07c2.77,0,4.65-1.7,4.65-3.98Z"/>
    <path class="cls-2" d="m1073.85,136.83l2.23-.83c.73,2.1,2.45,3.33,4.87,3.33,2.96,0,4.9-1.91,4.9-4.95v-1.83h-.27c-1.18,1.51-2.82,2.42-4.95,2.42-4.09,0-7.05-2.99-7.05-7.16s2.96-7.29,7.05-7.29c2.18,0,3.82.94,4.98,2.45h.27v-1.94h2.21v13.34c0,4.25-2.85,6.97-7.24,6.97-3.5,0-6.08-1.69-6.99-4.52Zm12.08-9.01c0-3.07-2.15-5.3-5.06-5.3s-5.06,2.23-5.06,5.3,2.12,5.19,5.06,5.19,5.06-2.21,5.06-5.19Z"/>
    <path class="cls-2" d="m1092.2,114.85h2.23v19.77h-2.23v-19.77Z"/>
    <path class="cls-2" d="m1098.28,116.84c0-.91.67-1.56,1.61-1.56s1.59.65,1.59,1.56-.65,1.61-1.59,1.61-1.61-.67-1.61-1.61Zm.48,4.2h2.23v13.58h-2.23v-13.58Z"/>
    <path class="cls-2" d="m1104.28,131.18c0-2.39,2.04-4.17,6.08-4.63l3.77-.46v-.54c0-1.83-1.32-3.01-3.55-3.01-2.04,0-3.39,1-3.36,2.69h-2.26c0-2.88,2.23-4.71,5.65-4.71s5.76,1.99,5.76,5.08v9.01h-2.23v-1.99h-.24c-.97,1.56-2.55,2.42-4.73,2.42-2.93,0-4.87-1.53-4.87-3.87Zm9.85-1.96v-1.21l-3.77.43c-2.77.35-3.85,1.43-3.85,2.69s1.13,2.07,2.96,2.07c2.77,0,4.65-1.7,4.65-3.98Z"/>
    <path class="cls-2" d="m1120.24,121.04h2.18v1.83h.24c.62-1.24,2.12-2.1,3.63-2.1.62,0,1.26.13,1.67.35v2.07c-.7-.3-1.51-.4-2.02-.4-2.04,0-3.47,1.83-3.47,4.52v7.32h-2.23v-13.58Z"/>
    <path class="cls-2" d="m1129.47,131.18c0-2.39,2.04-4.17,6.08-4.63l3.77-.46v-.54c0-1.83-1.32-3.01-3.55-3.01-2.04,0-3.39,1-3.36,2.69h-2.26c0-2.88,2.23-4.71,5.65-4.71s5.76,1.99,5.76,5.08v9.01h-2.23v-1.99h-.24c-.97,1.56-2.56,2.42-4.74,2.42-2.93,0-4.87-1.53-4.87-3.87Zm9.85-1.96v-1.21l-3.77.43c-2.77.35-3.85,1.43-3.85,2.69s1.13,2.07,2.96,2.07c2.77,0,4.65-1.7,4.65-3.98Z"/>
    <path class="cls-2" d="m1145.42,121.04h2.23v1.86h.27c.97-1.51,2.47-2.37,4.28-2.37,3.44,0,5.65,2.53,5.65,5.97v8.12h-2.23v-8.12c0-2.29-1.37-3.96-3.71-3.96s-4.25,1.78-4.25,4.14v7.94h-2.23v-13.58Z"/>
    <path class="cls-2" d="m1161.43,116.84c0-.91.67-1.56,1.62-1.56s1.59.65,1.59,1.56-.64,1.61-1.59,1.61-1.62-.67-1.62-1.61Zm.48,4.2h2.23v13.58h-2.23v-13.58Z"/>
    <path class="cls-2" d="m1175.72,115.66h8.26c4.12,0,6.83,2.26,6.83,5.76,0,3.23-2.53,5.49-6.05,5.65h-.32l6.89,7.56h-3.09l-6.56-7.42h-3.5v7.42h-2.45v-18.97Zm8.26,9.39c2.72,0,4.38-1.4,4.38-3.63s-1.67-3.6-4.38-3.6h-5.81v7.24h5.81Z"/>
    <path class="cls-2" d="m1193.24,131.18c0-2.39,2.04-4.17,6.08-4.63l3.77-.46v-.54c0-1.83-1.32-3.01-3.55-3.01-2.04,0-3.39,1-3.36,2.69h-2.26c0-2.88,2.23-4.71,5.65-4.71s5.76,1.99,5.76,5.08v9.01h-2.23v-1.99h-.24c-.97,1.56-2.56,2.42-4.73,2.42-2.93,0-4.87-1.53-4.87-3.87Zm9.85-1.96v-1.21l-3.77.43c-2.77.35-3.85,1.43-3.85,2.69s1.13,2.07,2.96,2.07c2.77,0,4.65-1.7,4.65-3.98Z"/>
    <path class="cls-2" d="m1208.49,127.81c0-4.25,2.96-7.32,7.08-7.32,3.34,0,6.11,2.1,6.62,5l-2.18.3c-.48-1.96-2.34-3.28-4.41-3.28-2.77,0-4.9,2.18-4.87,5.3,0,3.15,2.07,5.33,4.84,5.33,2.13,0,3.93-1.32,4.47-3.23l2.21.3c-.62,2.88-3.42,4.95-6.67,4.95-4.12,0-7.1-3.09-7.08-7.34Z"/>
    <path class="cls-2" d="m1225.39,116.84c0-.91.67-1.56,1.61-1.56s1.59.65,1.59,1.56-.65,1.61-1.59,1.61-1.61-.67-1.61-1.61Zm.48,4.2h2.23v13.58h-2.23v-13.58Z"/>
    <path class="cls-2" d="m1231.77,127.81c0-4.25,2.96-7.32,7.08-7.32,3.34,0,6.11,2.1,6.62,5l-2.18.3c-.48-1.96-2.34-3.28-4.41-3.28-2.77,0-4.9,2.18-4.87,5.3,0,3.15,2.07,5.33,4.84,5.33,2.13,0,3.93-1.32,4.47-3.23l2.21.3c-.62,2.88-3.42,4.95-6.67,4.95-4.12,0-7.1-3.09-7.08-7.34Z"/>
    <path class="cls-2" d="m1248.21,127.81c0-4.28,3.01-7.32,7.29-7.32s7.29,3.04,7.29,7.32-3.04,7.34-7.29,7.34-7.29-3.04-7.29-7.34Zm12.35,0c0-3.07-2.12-5.3-5.06-5.3s-5.06,2.23-5.06,5.3,2.1,5.33,5.06,5.33,5.06-2.23,5.06-5.33Z"/>
    <path class="cls-2" d="m1266.86,131.12v-8.31h-2.21v-1.78h2.21l.51-4.39h1.75l-.03,4.39h3.5v1.78h-3.5v8.23c0,1.29.81,2.21,2.1,2.21.4,0,1.1-.11,1.61-.27v1.8c-.64.21-1.53.35-2.21.35-2.29,0-3.74-1.61-3.74-4.01Z"/>
    <path class="cls-2" d="m1282.25,127.14c0-4.87,1.72-9.79,4.28-12.35h2.29c-2.8,2.74-4.57,7.45-4.57,12.35s1.78,9.66,4.57,12.32h-2.29c-2.56-2.56-4.28-7.45-4.28-12.32Z"/>
    <path class="cls-2" d="m1290.56,125.12c0-5.89,4.12-10.14,9.82-10.14,4.28,0,8.04,2.91,8.99,6.89l-2.39.32c-.7-2.93-3.47-5.06-6.59-5.06-4.3,0-7.37,3.36-7.37,7.99s3.09,8.02,7.37,8.02c3.07,0,5.84-2.07,6.62-4.87l2.34.46c-.94,3.79-4.71,6.56-8.96,6.56-5.7,0-9.85-4.28-9.82-10.17Z"/>
    <path class="cls-2" d="m1312.12,127.81c0-4.28,3.01-7.32,7.29-7.32s7.29,3.04,7.29,7.32-3.04,7.34-7.29,7.34-7.29-3.04-7.29-7.34Zm12.35,0c0-3.07-2.12-5.3-5.06-5.3s-5.06,2.23-5.06,5.3,2.1,5.33,5.06,5.33,5.06-2.23,5.06-5.33Z"/>
    <path class="cls-2" d="m1329.42,125.23h11.03v2.02h-11.03v-2.02Z"/>
    <path class="cls-2" d="m1344.38,115.66h7.56c4.14,0,6.83,2.18,6.81,5.81,0,3.58-2.77,5.81-6.81,5.81h-5.17v7.34h-2.39v-18.97Zm7.56,9.44c2.74,0,4.38-1.43,4.38-3.63s-1.64-3.66-4.38-3.66h-5.17v7.29h5.17Z"/>
    <path class="cls-2" d="m1361.95,121.04h2.18v1.83h.24c.62-1.24,2.12-2.1,3.63-2.1.62,0,1.26.13,1.67.35v2.07c-.7-.3-1.51-.4-2.02-.4-2.04,0-3.47,1.83-3.47,4.52v7.32h-2.23v-13.58Z"/>
    <path class="cls-2" d="m1371.32,127.65c0-4.14,3.01-7.16,7.21-7.16s7.13,3.01,7.13,7.18c0,.27,0,.59-.03.89h-12.03c.32,2.74,2.31,4.57,5.08,4.57,2.02,0,3.79-1.02,4.65-2.64l1.86.94c-1.1,2.31-3.55,3.71-6.56,3.71-4.25,0-7.32-3.15-7.32-7.51Zm12-1.05c-.4-2.45-2.31-4.09-4.9-4.09s-4.41,1.64-4.79,4.09h9.68Z"/>
    <path class="cls-2" d="m1388.51,130.02h2.15c.03,1.94,1.53,3.25,4.09,3.25,2.04,0,3.36-.86,3.36-2.29,0-1.78-1.86-1.91-3.9-2.18-2.53-.3-5.46-.97-5.46-4.06,0-2.64,2.21-4.25,5.46-4.25s5.7,1.8,5.7,4.6h-2.18c-.03-1.67-1.45-2.72-3.55-2.72-1.96,0-3.31.89-3.31,2.29,0,1.7,1.83,1.83,3.85,2.07,2.55.32,5.49.97,5.49,4.22,0,2.66-2.07,4.2-5.54,4.2-3.9,0-6.16-1.91-6.16-5.14Z"/>
    <path class="cls-2" d="m1403.5,116.84c0-.91.67-1.56,1.61-1.56s1.59.65,1.59,1.56-.65,1.61-1.59,1.61-1.61-.67-1.61-1.61Zm.48,4.2h2.23v13.58h-2.23v-13.58Z"/>
    <path class="cls-2" d="m1409.88,127.81c0-4.25,3.04-7.32,7.02-7.32,2.18,0,3.98.91,4.98,2.56h.27v-8.21h2.23v19.77h-2.23v-2.1h-.27c-1,1.67-2.74,2.64-4.95,2.64-3.98,0-7.05-3.09-7.05-7.34Zm12.32,0c0-2.99-2.12-5.3-5.03-5.3s-5.06,2.31-5.06,5.3,2.15,5.33,5.06,5.33,5.03-2.34,5.03-5.33Z"/>
    <path class="cls-2" d="m1427.79,127.65c0-4.14,3.01-7.16,7.21-7.16s7.13,3.01,7.13,7.18c0,.27,0,.59-.03.89h-12.02c.32,2.74,2.31,4.57,5.08,4.57,2.02,0,3.79-1.02,4.65-2.64l1.86.94c-1.1,2.31-3.55,3.71-6.56,3.71-4.25,0-7.32-3.15-7.32-7.51Zm12-1.05c-.4-2.45-2.31-4.09-4.9-4.09s-4.41,1.64-4.79,4.09h9.68Z"/>
    <path class="cls-2" d="m1445.58,121.04h2.23v1.86h.27c.97-1.51,2.48-2.37,4.28-2.37,3.44,0,5.65,2.53,5.65,5.97v8.12h-2.23v-8.12c0-2.29-1.37-3.96-3.71-3.96s-4.25,1.78-4.25,4.14v7.94h-2.23v-13.58Z"/>
    <path class="cls-2" d="m1463.04,131.12v-8.31h-2.21v-1.78h2.21l.51-4.39h1.75l-.03,4.39h3.5v1.78h-3.5v8.23c0,1.29.81,2.21,2.1,2.21.4,0,1.1-.11,1.61-.27v1.8c-.65.21-1.53.35-2.21.35-2.29,0-3.74-1.61-3.74-4.01Z"/>
    <path class="cls-2" d="m1470.63,139.46c2.8-2.66,4.57-7.34,4.57-12.32s-1.78-9.6-4.57-12.35h2.31c2.56,2.56,4.28,7.48,4.28,12.35s-1.72,9.76-4.28,12.32h-2.31Z"/>
    <path class="cls-2" d="m1048.12,160.75h2.42c.03,2.93,2.1,4.68,5.65,4.68,3.09,0,4.9-1.35,4.9-3.47,0-2.61-2.64-3.04-5.49-3.5-3.42-.54-7.18-1.43-7.18-5.54,0-3.42,2.61-5.65,7.18-5.65s7.48,2.42,7.51,6.43h-2.37c0-2.69-1.88-4.28-5.14-4.28-3.07,0-4.73,1.32-4.73,3.36,0,2.5,2.53,2.96,5.33,3.39,3.44.56,7.34,1.32,7.34,5.62,0,3.55-2.72,5.78-7.37,5.78-4.98,0-8.04-2.61-8.04-6.83Z"/>
    <path class="cls-2" d="m1066.42,160.1c0-4.28,3.01-7.32,7.29-7.32s7.29,3.04,7.29,7.32-3.04,7.34-7.29,7.34-7.29-3.04-7.29-7.34Zm12.35,0c0-3.07-2.12-5.3-5.06-5.3s-5.06,2.23-5.06,5.3,2.1,5.33,5.06,5.33,5.06-2.23,5.06-5.33Z"/>
    <path class="cls-2" d="m1085.09,155.1h-2.18v-1.78h2.18v-2.74c0-2.42,1.48-3.98,3.63-3.98.78,0,1.45.13,2.07.32v1.94c-.46-.13-.94-.24-1.48-.24-1.18,0-1.99.86-1.99,2.18v2.53h3.44v1.78h-3.44v11.81h-2.23v-11.81Z"/>
    <path class="cls-2" d="m1093.65,149.13c0-.91.67-1.56,1.62-1.56s1.59.65,1.59,1.56-.64,1.61-1.59,1.61-1.62-.67-1.62-1.61Zm.48,4.2h2.23v13.58h-2.23v-13.58Z"/>
    <path class="cls-2" d="m1099.65,163.47c0-2.39,2.04-4.17,6.08-4.63l3.77-.46v-.54c0-1.83-1.32-3.01-3.55-3.01-2.04,0-3.39,1-3.36,2.69h-2.26c0-2.88,2.23-4.71,5.65-4.71s5.76,1.99,5.76,5.08v9.01h-2.23v-1.99h-.24c-.97,1.56-2.56,2.42-4.74,2.42-2.93,0-4.87-1.53-4.87-3.87Zm9.85-1.96v-1.21l-3.77.43c-2.77.35-3.85,1.43-3.85,2.69s1.13,2.07,2.96,2.07c2.77,0,4.65-1.7,4.65-3.98Z"/>
    <path class="cls-2" d="m1121.58,165.78l11.14-15.42v-.27h-10.87v-2.15h14.47v1.1l-11.14,15.44v.27h11.41v2.15h-15.01v-1.13Z"/>
    <path class="cls-2" d="m1138.88,163.47c0-2.39,2.04-4.17,6.08-4.63l3.77-.46v-.54c0-1.83-1.32-3.01-3.55-3.01-2.04,0-3.39,1-3.36,2.69h-2.26c0-2.88,2.23-4.71,5.65-4.71s5.76,1.99,5.76,5.08v9.01h-2.23v-1.99h-.24c-.97,1.56-2.56,2.42-4.74,2.42-2.93,0-4.87-1.53-4.87-3.87Zm9.85-1.96v-1.21l-3.77.43c-2.77.35-3.85,1.43-3.85,2.69s1.13,2.07,2.96,2.07c2.77,0,4.65-1.7,4.65-3.98Z"/>
    <path class="cls-2" d="m1154.84,153.33h2.15v1.8h.27c.75-1.4,2.18-2.34,3.95-2.34,1.91,0,3.66,1.05,4.44,2.64h.24c.94-1.59,2.5-2.61,4.55-2.61,3.2,0,5.49,2.47,5.49,6v8.1h-2.23v-8.12c0-2.31-1.48-3.98-3.52-3.98-2.18,0-3.71,1.67-3.71,3.98v8.12h-2.23v-8.12c0-2.39-1.4-3.98-3.5-3.98-2.21,0-3.66,1.59-3.66,3.98v8.12h-2.23v-13.58Z"/>
    <path class="cls-2" d="m1179.08,160.1c0-4.28,3.01-7.32,7.29-7.32s7.29,3.04,7.29,7.32-3.04,7.34-7.29,7.34-7.29-3.04-7.29-7.34Zm12.35,0c0-3.07-2.12-5.3-5.06-5.3s-5.06,2.23-5.06,5.3,2.1,5.33,5.06,5.33,5.06-2.23,5.06-5.33Z"/>
    <path class="cls-2" d="m1197.09,153.33h2.18v1.83h.24c.62-1.24,2.12-2.1,3.63-2.1.62,0,1.26.13,1.67.35v2.07c-.7-.3-1.51-.4-2.02-.4-2.04,0-3.47,1.83-3.47,4.52v7.32h-2.23v-13.58Z"/>
    <path class="cls-2" d="m1206.32,163.47c0-2.39,2.04-4.17,6.08-4.63l3.77-.46v-.54c0-1.83-1.32-3.01-3.55-3.01-2.04,0-3.39,1-3.36,2.69h-2.26c0-2.88,2.23-4.71,5.65-4.71s5.76,1.99,5.76,5.08v9.01h-2.23v-1.99h-.24c-.97,1.56-2.56,2.42-4.74,2.42-2.93,0-4.87-1.53-4.87-3.87Zm9.85-1.96v-1.21l-3.77.43c-2.77.35-3.85,1.43-3.85,2.69s1.13,2.07,2.96,2.07c2.77,0,4.65-1.7,4.65-3.98Z"/>
    <path class="cls-2" d="m1222.27,153.33h2.23v1.86h.27c.97-1.51,2.47-2.37,4.28-2.37,3.44,0,5.65,2.53,5.65,5.97v8.12h-2.23v-8.12c0-2.29-1.37-3.96-3.71-3.96s-4.25,1.78-4.25,4.14v7.94h-2.23v-13.58Z"/>
    <path class="cls-2" d="m1237.82,160.1c0-4.28,3.01-7.32,7.29-7.32s7.29,3.04,7.29,7.32-3.04,7.34-7.29,7.34-7.29-3.04-7.29-7.34Zm12.35,0c0-3.07-2.12-5.3-5.06-5.3s-5.06,2.23-5.06,5.3,2.1,5.33,5.06,5.33,5.06-2.23,5.06-5.33Z"/>
    <path class="cls-2" d="m1261.88,159.43c0-4.87,1.72-9.79,4.28-12.35h2.29c-2.8,2.74-4.57,7.45-4.57,12.35s1.78,9.66,4.57,12.32h-2.29c-2.56-2.56-4.28-7.45-4.28-12.32Z"/>
    <path class="cls-2" d="m1269.58,147.95h2.5l6.05,17.14h.24l6.03-17.14h2.5l-6.75,18.97h-3.82l-6.75-18.97Z"/>
    <path class="cls-2" d="m1289.49,149.13c0-.91.67-1.56,1.61-1.56s1.59.65,1.59,1.56-.65,1.61-1.59,1.61-1.61-.67-1.61-1.61Zm.48,4.2h2.23v13.58h-2.23v-13.58Z"/>
    <path class="cls-2" d="m1295.87,160.1c0-4.25,2.96-7.32,7.07-7.32,3.34,0,6.11,2.1,6.62,5l-2.18.3c-.48-1.96-2.34-3.28-4.41-3.28-2.77,0-4.9,2.18-4.87,5.3,0,3.15,2.07,5.33,4.84,5.33,2.13,0,3.93-1.32,4.47-3.23l2.21.3c-.62,2.88-3.42,4.95-6.67,4.95-4.12,0-7.1-3.09-7.07-7.34Z"/>
    <path class="cls-2" d="m1312.33,159.94c0-4.14,3.01-7.16,7.21-7.16s7.13,3.01,7.13,7.18c0,.27,0,.59-.03.89h-12.03c.32,2.74,2.31,4.57,5.08,4.57,2.02,0,3.79-1.02,4.65-2.64l1.86.94c-1.1,2.31-3.55,3.71-6.56,3.71-4.25,0-7.32-3.15-7.32-7.51Zm12-1.05c-.4-2.45-2.31-4.09-4.9-4.09s-4.41,1.64-4.79,4.09h9.68Z"/>
    <path class="cls-2" d="m1329.42,157.52h11.03v2.02h-11.03v-2.02Z"/>
    <path class="cls-2" d="m1344.38,147.95h7.56c4.14,0,6.83,2.18,6.81,5.81,0,3.58-2.77,5.81-6.81,5.81h-5.17v7.34h-2.39v-18.97Zm7.56,9.44c2.74,0,4.38-1.43,4.38-3.63s-1.64-3.66-4.38-3.66h-5.17v7.29h5.17Z"/>
    <path class="cls-2" d="m1361.95,153.33h2.18v1.83h.24c.62-1.24,2.12-2.1,3.63-2.1.62,0,1.26.13,1.67.35v2.07c-.7-.3-1.51-.4-2.02-.4-2.04,0-3.47,1.83-3.47,4.52v7.32h-2.23v-13.58Z"/>
    <path class="cls-2" d="m1371.32,159.94c0-4.14,3.01-7.16,7.21-7.16s7.13,3.01,7.13,7.18c0,.27,0,.59-.03.89h-12.03c.32,2.74,2.31,4.57,5.08,4.57,2.02,0,3.79-1.02,4.65-2.64l1.86.94c-1.1,2.31-3.55,3.71-6.56,3.71-4.25,0-7.32-3.15-7.32-7.51Zm12-1.05c-.4-2.45-2.31-4.09-4.9-4.09s-4.41,1.64-4.79,4.09h9.68Z"/>
    <path class="cls-2" d="m1388.51,162.31h2.15c.03,1.94,1.53,3.25,4.09,3.25,2.04,0,3.36-.86,3.36-2.29,0-1.78-1.86-1.91-3.9-2.18-2.53-.3-5.46-.97-5.46-4.06,0-2.64,2.21-4.25,5.46-4.25s5.7,1.8,5.7,4.6h-2.18c-.03-1.67-1.45-2.72-3.55-2.72-1.96,0-3.31.89-3.31,2.29,0,1.7,1.83,1.83,3.85,2.07,2.55.32,5.49.97,5.49,4.22,0,2.66-2.07,4.2-5.54,4.2-3.9,0-6.16-1.91-6.16-5.14Z"/>
    <path class="cls-2" d="m1403.5,149.13c0-.91.67-1.56,1.61-1.56s1.59.65,1.59,1.56-.65,1.61-1.59,1.61-1.61-.67-1.61-1.61Zm.48,4.2h2.23v13.58h-2.23v-13.58Z"/>
    <path class="cls-2" d="m1409.88,160.1c0-4.25,3.04-7.32,7.02-7.32,2.18,0,3.98.91,4.98,2.56h.27v-8.21h2.23v19.77h-2.23v-2.1h-.27c-1,1.67-2.74,2.64-4.95,2.64-3.98,0-7.05-3.09-7.05-7.34Zm12.32,0c0-2.99-2.12-5.3-5.03-5.3s-5.06,2.31-5.06,5.3,2.15,5.33,5.06,5.33,5.03-2.34,5.03-5.33Z"/>
    <path class="cls-2" d="m1427.79,159.94c0-4.14,3.01-7.16,7.21-7.16s7.13,3.01,7.13,7.18c0,.27,0,.59-.03.89h-12.02c.32,2.74,2.31,4.57,5.08,4.57,2.02,0,3.79-1.02,4.65-2.64l1.86.94c-1.1,2.31-3.55,3.71-6.56,3.71-4.25,0-7.32-3.15-7.32-7.51Zm12-1.05c-.4-2.45-2.31-4.09-4.9-4.09s-4.41,1.64-4.79,4.09h9.68Z"/>
    <path class="cls-2" d="m1445.58,153.33h2.23v1.86h.27c.97-1.51,2.48-2.37,4.28-2.37,3.44,0,5.65,2.53,5.65,5.97v8.12h-2.23v-8.12c0-2.29-1.37-3.96-3.71-3.96s-4.25,1.78-4.25,4.14v7.94h-2.23v-13.58Z"/>
    <path class="cls-2" d="m1463.04,163.41v-8.31h-2.21v-1.78h2.21l.51-4.39h1.75l-.03,4.39h3.5v1.78h-3.5v8.23c0,1.29.81,2.21,2.1,2.21.4,0,1.1-.11,1.61-.27v1.8c-.65.21-1.53.35-2.21.35-2.29,0-3.74-1.61-3.74-4.01Z"/>
    <path class="cls-2" d="m1470.63,171.75c2.8-2.66,4.57-7.34,4.57-12.32s-1.78-9.6-4.57-12.35h2.31c2.56,2.56,4.28,7.48,4.28,12.35s-1.72,9.76-4.28,12.32h-2.31Z"/>
    <path class="cls-2" d="m1052.75,180.23h6.08c6.56,0,10.92,3.74,10.92,9.47s-4.36,9.5-10.92,9.5h-6.08v-18.97Zm6.08,16.81c5.08,0,8.5-2.8,8.5-7.34s-3.44-7.32-8.5-7.32h-3.63v14.66h3.63Z"/>
    <path class="cls-2" d="m1072.15,195.76c0-2.39,2.04-4.17,6.08-4.63l3.77-.46v-.54c0-1.83-1.32-3.01-3.55-3.01-2.04,0-3.39,1-3.36,2.69h-2.26c0-2.88,2.23-4.71,5.65-4.71s5.76,1.99,5.76,5.08v9.01h-2.23v-1.99h-.24c-.97,1.56-2.55,2.42-4.73,2.42-2.93,0-4.87-1.53-4.87-3.87Zm9.85-1.96v-1.21l-3.77.43c-2.77.35-3.85,1.43-3.85,2.69s1.13,2.07,2.96,2.07c2.77,0,4.65-1.69,4.65-3.98Z"/>
    <path class="cls-2" d="m1088.11,185.62h2.18v1.83h.24c.62-1.24,2.12-2.1,3.63-2.1.62,0,1.26.13,1.67.35v2.07c-.7-.3-1.51-.4-2.02-.4-2.04,0-3.47,1.83-3.47,4.52v7.32h-2.23v-13.58Z"/>
    <path class="cls-2" d="m1098.71,179.43h2.23v19.77h-2.23v-19.77Z"/>
    <path class="cls-2" d="m1103.98,195.76c0-2.39,2.04-4.17,6.08-4.63l3.77-.46v-.54c0-1.83-1.32-3.01-3.55-3.01-2.04,0-3.39,1-3.36,2.69h-2.26c0-2.88,2.23-4.71,5.65-4.71s5.76,1.99,5.76,5.08v9.01h-2.23v-1.99h-.24c-.97,1.56-2.55,2.42-4.73,2.42-2.93,0-4.87-1.53-4.87-3.87Zm9.85-1.96v-1.21l-3.77.43c-2.77.35-3.85,1.43-3.85,2.69s1.13,2.07,2.96,2.07c2.77,0,4.65-1.69,4.65-3.98Z"/>
    <path class="cls-2" d="m1127.15,180.23h2.45v8.29h.27l7.86-8.29h3.07l-8.82,9.17,9.09,9.79h-3.09l-8.1-8.9h-.27v8.9h-2.45v-18.97Z"/>
    <path class="cls-2" d="m1142.38,195.76c0-2.39,2.04-4.17,6.08-4.63l3.77-.46v-.54c0-1.83-1.32-3.01-3.55-3.01-2.04,0-3.39,1-3.36,2.69h-2.26c0-2.88,2.23-4.71,5.65-4.71s5.76,1.99,5.76,5.08v9.01h-2.23v-1.99h-.24c-.97,1.56-2.56,2.42-4.73,2.42-2.93,0-4.87-1.53-4.87-3.87Zm9.85-1.96v-1.21l-3.77.43c-2.77.35-3.85,1.43-3.85,2.69s1.13,2.07,2.96,2.07c2.77,0,4.65-1.69,4.65-3.98Z"/>
    <path class="cls-2" d="m1158.34,185.62h2.15v1.8h.27c.75-1.4,2.18-2.34,3.95-2.34,1.91,0,3.66,1.05,4.44,2.64h.24c.94-1.59,2.5-2.61,4.55-2.61,3.2,0,5.49,2.48,5.49,6v8.1h-2.23v-8.12c0-2.31-1.48-3.98-3.52-3.98-2.18,0-3.71,1.67-3.71,3.98v8.12h-2.23v-8.12c0-2.39-1.4-3.98-3.5-3.98-2.21,0-3.66,1.59-3.66,3.98v8.12h-2.23v-13.58Z"/>
    <path class="cls-2" d="m1185.78,197.1h-.24v2.1h-2.23v-19.77h2.23v8.21h.24c1-1.64,2.83-2.56,5-2.56,3.96,0,7,3.07,7,7.32s-3.07,7.34-7.02,7.34c-2.23,0-3.98-.97-4.98-2.64Zm9.76-4.71c0-2.99-2.12-5.3-5.03-5.3s-5.06,2.31-5.06,5.3,2.12,5.33,5.06,5.33,5.03-2.29,5.03-5.33Z"/>
    <path class="cls-2" d="m1200.5,192.39c0-4.28,3.01-7.32,7.29-7.32s7.29,3.04,7.29,7.32-3.04,7.34-7.29,7.34-7.29-3.04-7.29-7.34Zm12.35,0c0-3.07-2.13-5.3-5.06-5.3s-5.06,2.23-5.06,5.3,2.1,5.33,5.06,5.33,5.06-2.23,5.06-5.33Z"/>
    <path class="cls-2" d="m1224.56,191.72c0-4.87,1.72-9.79,4.28-12.35h2.29c-2.8,2.74-4.57,7.45-4.57,12.35s1.78,9.66,4.57,12.32h-2.29c-2.56-2.56-4.28-7.45-4.28-12.32Z"/>
    <path class="cls-2" d="m1234.03,180.23h12.08v2.15h-9.6v5.92h8.53v2.15h-8.53v8.74h-2.47v-18.97Z"/>
    <path class="cls-2" d="m1248.78,181.42c0-.92.67-1.56,1.62-1.56s1.59.65,1.59,1.56-.64,1.61-1.59,1.61-1.62-.67-1.62-1.61Zm.48,4.2h2.23v13.58h-2.23v-13.58Z"/>
    <path class="cls-2" d="m1255.85,185.62h2.23v1.86h.27c.97-1.51,2.48-2.37,4.28-2.37,3.44,0,5.65,2.53,5.65,5.97v8.12h-2.23v-8.12c0-2.29-1.37-3.96-3.71-3.96s-4.25,1.78-4.25,4.14v7.94h-2.23v-13.58Z"/>
    <path class="cls-2" d="m1271.06,195.76c0-2.39,2.04-4.17,6.08-4.63l3.77-.46v-.54c0-1.83-1.32-3.01-3.55-3.01-2.04,0-3.39,1-3.36,2.69h-2.26c0-2.88,2.23-4.71,5.65-4.71s5.76,1.99,5.76,5.08v9.01h-2.23v-1.99h-.24c-.97,1.56-2.56,2.42-4.74,2.42-2.93,0-4.87-1.53-4.87-3.87Zm9.85-1.96v-1.21l-3.77.43c-2.77.35-3.85,1.43-3.85,2.69s1.13,2.07,2.96,2.07c2.77,0,4.65-1.69,4.65-3.98Z"/>
    <path class="cls-2" d="m1287.01,185.62h2.23v1.86h.27c.97-1.51,2.48-2.37,4.28-2.37,3.44,0,5.65,2.53,5.65,5.97v8.12h-2.23v-8.12c0-2.29-1.37-3.96-3.71-3.96s-4.25,1.78-4.25,4.14v7.94h-2.23v-13.58Z"/>
    <path class="cls-2" d="m1302.59,192.39c0-4.25,2.96-7.32,7.08-7.32,3.34,0,6.11,2.1,6.62,5l-2.18.3c-.48-1.96-2.34-3.28-4.41-3.28-2.77,0-4.9,2.18-4.87,5.3,0,3.15,2.07,5.33,4.84,5.33,2.13,0,3.93-1.32,4.47-3.23l2.21.3c-.62,2.88-3.42,4.95-6.67,4.95-4.12,0-7.1-3.09-7.08-7.34Z"/>
    <path class="cls-2" d="m1319.06,192.23c0-4.14,3.01-7.16,7.21-7.16s7.13,3.01,7.13,7.18c0,.27,0,.59-.03.89h-12.02c.32,2.74,2.31,4.57,5.08,4.57,2.02,0,3.79-1.02,4.65-2.64l1.86.94c-1.1,2.31-3.55,3.71-6.56,3.71-4.25,0-7.32-3.15-7.32-7.51Zm12-1.05c-.4-2.45-2.31-4.09-4.9-4.09s-4.41,1.64-4.79,4.09h9.69Z"/>
    <path class="cls-2" d="m1344.06,180.23h13.02v2.15h-10.54v5.92h9.47v2.15h-9.47v6.59h10.81v2.15h-13.29v-18.97Z"/>
    <path class="cls-2" d="m1364.18,192.12l-4.84-6.51h2.39l3.71,5.06h.27l3.71-5.06h2.39l-4.84,6.51,5.11,7.08h-2.48l-3.9-5.54h-.27l-3.9,5.54h-2.47l5.11-7.08Z"/>
    <path class="cls-2" d="m1373.55,192.23c0-4.14,3.01-7.16,7.21-7.16s7.13,3.01,7.13,7.18c0,.27,0,.59-.03.89h-12.02c.32,2.74,2.31,4.57,5.08,4.57,2.02,0,3.79-1.02,4.65-2.64l1.86.94c-1.1,2.31-3.55,3.71-6.56,3.71-4.25,0-7.32-3.15-7.32-7.51Zm12-1.05c-.4-2.45-2.31-4.09-4.9-4.09s-4.41,1.64-4.79,4.09h9.68Z"/>
    <path class="cls-2" d="m1390.64,192.39c0-4.25,2.96-7.32,7.08-7.32,3.34,0,6.11,2.1,6.62,5l-2.18.3c-.48-1.96-2.34-3.28-4.41-3.28-2.77,0-4.9,2.18-4.87,5.3,0,3.15,2.07,5.33,4.84,5.33,2.12,0,3.93-1.32,4.46-3.23l2.21.3c-.62,2.88-3.42,4.95-6.67,4.95-4.12,0-7.1-3.09-7.08-7.34Z"/>
    <path class="cls-2" d="m1419.94,199.2h-2.23v-1.86h-.27c-.94,1.48-2.47,2.34-4.25,2.34-3.47,0-5.65-2.5-5.65-5.97v-8.1h2.23v8.1c0,2.31,1.34,3.96,3.69,3.96s4.25-1.75,4.25-4.14v-7.91h2.23v13.58Z"/>
    <path class="cls-2" d="m1425.27,195.7v-8.31h-2.21v-1.78h2.21l.51-4.38h1.75l-.03,4.38h3.5v1.78h-3.5v8.23c0,1.29.81,2.21,2.1,2.21.4,0,1.1-.11,1.61-.27v1.8c-.65.22-1.53.35-2.21.35-2.29,0-3.74-1.61-3.74-4.01Z"/>
    <path class="cls-2" d="m1434.33,181.42c0-.92.67-1.56,1.61-1.56s1.59.65,1.59,1.56-.65,1.61-1.59,1.61-1.61-.67-1.61-1.61Zm.48,4.2h2.23v13.58h-2.23v-13.58Z"/>
    <path class="cls-2" d="m1439.66,185.62h2.29l4.33,11.81h.24l4.36-11.81h2.29l-5.17,13.58h-3.17l-5.16-13.58Z"/>
    <path class="cls-2" d="m1454.6,192.23c0-4.14,3.01-7.16,7.21-7.16s7.13,3.01,7.13,7.18c0,.27,0,.59-.03.89h-12.02c.32,2.74,2.31,4.57,5.08,4.57,2.02,0,3.79-1.02,4.65-2.64l1.86.94c-1.1,2.31-3.55,3.71-6.56,3.71-4.25,0-7.32-3.15-7.32-7.51Zm12-1.05c-.4-2.45-2.31-4.09-4.9-4.09s-4.41,1.64-4.79,4.09h9.68Z"/>
    <path class="cls-2" d="m1470.63,204.04c2.8-2.66,4.57-7.34,4.57-12.32s-1.78-9.6-4.57-12.35h2.31c2.56,2.56,4.28,7.48,4.28,12.35s-1.72,9.76-4.28,12.32h-2.31Z"/>
    <path class="cls-2" d="m1191.16,212.52h3.34l7.07,18.97h-2.34l-1.61-4.25h-9.66l-1.61,4.25h-2.34l7.16-18.97Zm5.76,12.7l-3.98-10.55h-.24l-4.01,10.55h8.23Z"/>
    <path class="cls-2" d="m1204.46,211.72h2.23v19.77h-2.23v-19.77Z"/>
    <path class="cls-2" d="m1210.81,211.72h2.23v19.77h-2.23v-19.77Z"/>
    <path class="cls-2" d="m1216.89,213.71c0-.92.67-1.56,1.62-1.56s1.59.65,1.59,1.56-.64,1.61-1.59,1.61-1.62-.67-1.62-1.61Zm.48,4.2h2.23v13.58h-2.23v-13.58Z"/>
    <path class="cls-2" d="m1223.37,226.89h2.15c.03,1.94,1.53,3.26,4.09,3.26,2.04,0,3.36-.86,3.36-2.29,0-1.78-1.86-1.91-3.9-2.18-2.53-.3-5.46-.97-5.46-4.06,0-2.64,2.21-4.25,5.46-4.25s5.7,1.8,5.7,4.6h-2.18c-.03-1.67-1.45-2.72-3.55-2.72-1.96,0-3.31.89-3.31,2.29,0,1.69,1.83,1.83,3.85,2.07,2.56.32,5.49.97,5.49,4.22,0,2.66-2.07,4.2-5.54,4.2-3.9,0-6.16-1.91-6.16-5.14Z"/>
    <path class="cls-2" d="m1237.9,224.68c0-4.28,3.01-7.32,7.29-7.32s7.29,3.04,7.29,7.32-3.04,7.34-7.29,7.34-7.29-3.04-7.29-7.34Zm12.35,0c0-3.07-2.12-5.3-5.06-5.3s-5.06,2.23-5.06,5.3,2.1,5.33,5.06,5.33,5.06-2.23,5.06-5.33Z"/>
    <path class="cls-2" d="m1255.91,217.91h2.23v1.86h.27c.97-1.51,2.47-2.37,4.28-2.37,3.44,0,5.65,2.53,5.65,5.97v8.12h-2.23v-8.12c0-2.29-1.37-3.96-3.71-3.96s-4.25,1.78-4.25,4.14v7.94h-2.23v-13.58Z"/>
    <path class="cls-2" d="m1279.4,212.52h2.45v16.81h9.55v2.15h-12v-18.97Z"/>
    <path class="cls-2" d="m1293.5,224.52c0-4.14,3.01-7.16,7.21-7.16s7.13,3.01,7.13,7.18c0,.27,0,.59-.03.89h-12.03c.32,2.74,2.31,4.57,5.08,4.57,2.02,0,3.79-1.02,4.65-2.64l1.86.94c-1.1,2.31-3.55,3.71-6.56,3.71-4.25,0-7.32-3.15-7.32-7.51Zm12-1.05c-.4-2.45-2.31-4.09-4.9-4.09s-4.41,1.64-4.79,4.09h9.68Z"/>
    <path class="cls-2" d="m1310.58,224.52c0-4.14,3.01-7.16,7.21-7.16s7.13,3.01,7.13,7.18c0,.27,0,.59-.03.89h-12.03c.32,2.74,2.31,4.57,5.08,4.57,2.02,0,3.79-1.02,4.65-2.64l1.86.94c-1.1,2.31-3.55,3.71-6.56,3.71-4.25,0-7.32-3.15-7.32-7.51Zm12-1.05c-.4-2.45-2.31-4.09-4.9-4.09s-4.41,1.64-4.79,4.09h9.68Z"/>
    <path class="cls-2" d="m1334.42,224.01c0-4.87,1.72-9.79,4.28-12.35h2.29c-2.8,2.74-4.57,7.45-4.57,12.35s1.78,9.66,4.57,12.32h-2.29c-2.56-2.56-4.28-7.45-4.28-12.32Z"/>
    <path class="cls-2" d="m1342.87,225.33h2.42c.03,2.93,2.1,4.68,5.65,4.68,3.09,0,4.9-1.34,4.9-3.47,0-2.61-2.64-3.04-5.49-3.5-3.42-.54-7.18-1.43-7.18-5.54,0-3.42,2.61-5.65,7.18-5.65s7.48,2.42,7.51,6.43h-2.37c0-2.69-1.88-4.28-5.14-4.28-3.07,0-4.73,1.32-4.73,3.36,0,2.5,2.53,2.96,5.33,3.39,3.44.56,7.34,1.32,7.34,5.62,0,3.55-2.72,5.78-7.37,5.78-4.98,0-8.04-2.61-8.04-6.83Z"/>
    <path class="cls-2" d="m1361.2,224.52c0-4.14,3.01-7.16,7.21-7.16s7.13,3.01,7.13,7.18c0,.27,0,.59-.03.89h-12.02c.32,2.74,2.31,4.57,5.08,4.57,2.02,0,3.79-1.02,4.65-2.64l1.86.94c-1.1,2.31-3.55,3.71-6.56,3.71-4.25,0-7.32-3.15-7.32-7.51Zm12-1.05c-.4-2.45-2.31-4.09-4.9-4.09s-4.41,1.64-4.79,4.09h9.68Z"/>
    <path class="cls-2" d="m1378.28,224.68c0-4.25,2.96-7.32,7.08-7.32,3.34,0,6.11,2.1,6.62,5l-2.18.3c-.48-1.96-2.34-3.28-4.41-3.28-2.77,0-4.9,2.18-4.87,5.3,0,3.15,2.07,5.33,4.84,5.33,2.13,0,3.93-1.32,4.47-3.23l2.21.3c-.62,2.88-3.42,4.95-6.67,4.95-4.12,0-7.1-3.09-7.08-7.34Z"/>
    <path class="cls-2" d="m1395.45,217.91h2.18v1.83h.24c.62-1.24,2.12-2.1,3.63-2.1.62,0,1.26.13,1.67.35v2.07c-.7-.3-1.51-.4-2.02-.4-2.04,0-3.47,1.83-3.47,4.52v7.32h-2.23v-13.58Z"/>
    <path class="cls-2" d="m1404.82,224.52c0-4.14,3.01-7.16,7.21-7.16s7.13,3.01,7.13,7.18c0,.27,0,.59-.03.89h-12.03c.32,2.74,2.31,4.57,5.08,4.57,2.02,0,3.79-1.02,4.65-2.64l1.86.94c-1.1,2.31-3.55,3.71-6.56,3.71-4.25,0-7.32-3.15-7.32-7.51Zm12-1.05c-.4-2.45-2.31-4.09-4.9-4.09s-4.41,1.64-4.79,4.09h9.68Z"/>
    <path class="cls-2" d="m1423.25,227.99v-8.31h-2.21v-1.78h2.21l.51-4.38h1.75l-.03,4.38h3.5v1.78h-3.5v8.23c0,1.29.81,2.21,2.1,2.21.4,0,1.1-.11,1.61-.27v1.8c-.65.22-1.53.35-2.21.35-2.29,0-3.74-1.61-3.74-4.01Z"/>
    <path class="cls-2" d="m1431.51,228.05c0-2.39,2.04-4.17,6.08-4.63l3.77-.46v-.54c0-1.83-1.32-3.01-3.55-3.01-2.04,0-3.39,1-3.36,2.69h-2.26c0-2.88,2.23-4.71,5.65-4.71s5.76,1.99,5.76,5.08v9.01h-2.23v-1.99h-.24c-.97,1.56-2.56,2.42-4.74,2.42-2.93,0-4.87-1.53-4.87-3.87Zm9.85-1.96v-1.21l-3.77.43c-2.77.35-3.85,1.43-3.85,2.69s1.13,2.07,2.96,2.07c2.77,0,4.65-1.69,4.65-3.98Z"/>
    <path class="cls-2" d="m1447.46,217.91h2.18v1.83h.24c.62-1.24,2.12-2.1,3.63-2.1.62,0,1.26.13,1.67.35v2.07c-.7-.3-1.51-.4-2.02-.4-2.04,0-3.47,1.83-3.47,4.52v7.32h-2.23v-13.58Z"/>
    <path class="cls-2" d="m1457.23,237.09v-1.96c.62.24,1.29.4,1.8.4,2.02,0,2.55-2.15,3.36-4.06l-6.05-13.56h2.34l4.65,10.63h.27l3.98-10.63h2.39l-5.38,13.8c-1.21,3.01-2.29,5.81-5.22,5.81-.67,0-1.53-.16-2.15-.43Z"/>
    <path class="cls-2" d="m1470.63,236.33c2.8-2.66,4.57-7.34,4.57-12.32s-1.78-9.6-4.57-12.35h2.31c2.56,2.56,4.28,7.48,4.28,12.35s-1.72,9.76-4.28,12.32h-2.31Z"/>
    <path class="cls-2" d="m985.13,257.62h2.42c.03,2.93,2.1,4.68,5.65,4.68,3.09,0,4.9-1.34,4.9-3.47,0-2.61-2.64-3.04-5.49-3.5-3.42-.54-7.18-1.43-7.18-5.54,0-3.42,2.61-5.65,7.18-5.65s7.48,2.42,7.51,6.43h-2.37c0-2.69-1.88-4.28-5.14-4.28-3.07,0-4.73,1.32-4.73,3.36,0,2.5,2.53,2.96,5.33,3.39,3.44.56,7.34,1.32,7.34,5.62,0,3.55-2.72,5.78-7.37,5.78-4.98,0-8.04-2.61-8.04-6.83Z"/>
    <path class="cls-2" d="m1003.46,256.81c0-4.14,3.01-7.16,7.21-7.16s7.13,3.01,7.13,7.18c0,.27,0,.59-.03.89h-12.02c.32,2.74,2.31,4.57,5.08,4.57,2.02,0,3.79-1.02,4.65-2.64l1.86.94c-1.1,2.31-3.55,3.71-6.56,3.71-4.25,0-7.32-3.15-7.32-7.51Zm12-1.05c-.4-2.45-2.31-4.09-4.9-4.09s-4.41,1.64-4.79,4.09h9.69Z"/>
    <path class="cls-2" d="m1020.54,256.97c0-4.25,2.96-7.32,7.07-7.32,3.34,0,6.11,2.1,6.62,5l-2.18.3c-.48-1.96-2.34-3.28-4.41-3.28-2.77,0-4.9,2.18-4.87,5.3,0,3.15,2.07,5.33,4.84,5.33,2.13,0,3.93-1.32,4.47-3.23l2.21.3c-.62,2.88-3.42,4.95-6.67,4.95-4.12,0-7.1-3.09-7.07-7.34Z"/>
    <path class="cls-2" d="m1036.63,260.34c0-2.39,2.04-4.17,6.08-4.63l3.77-.46v-.54c0-1.83-1.32-3.01-3.55-3.01-2.04,0-3.39,1-3.36,2.69h-2.26c0-2.88,2.23-4.71,5.65-4.71s5.76,1.99,5.76,5.08v9.01h-2.23v-1.99h-.24c-.97,1.56-2.56,2.42-4.74,2.42-2.93,0-4.87-1.53-4.87-3.87Zm9.85-1.96v-1.21l-3.77.43c-2.77.35-3.85,1.43-3.85,2.69s1.13,2.07,2.96,2.07c2.77,0,4.65-1.69,4.65-3.98Z"/>
    <path class="cls-2" d="m1059.78,244.81h3.87l6.27,15.55h.24l6.29-15.55h3.85v18.97h-2.45v-15.87h-.24l-6.4,15.87h-2.34l-6.38-15.84h-.24v15.84h-2.47v-18.97Z"/>
    <path class="cls-2" d="m1084.26,256.97c0-4.25,2.96-7.32,7.07-7.32,3.34,0,6.11,2.1,6.62,5l-2.18.3c-.48-1.96-2.34-3.28-4.41-3.28-2.77,0-4.9,2.18-4.87,5.3,0,3.15,2.07,5.33,4.84,5.33,2.12,0,3.93-1.32,4.47-3.23l2.21.3c-.62,2.88-3.42,4.95-6.67,4.95-4.12,0-7.1-3.09-7.07-7.34Z"/>
    <path class="cls-2" d="m1101.91,244.81h8.26c4.12,0,6.83,2.26,6.83,5.76,0,3.23-2.53,5.49-6.05,5.65h-.32l6.89,7.56h-3.09l-6.56-7.42h-3.5v7.42h-2.45v-18.97Zm8.26,9.39c2.72,0,4.38-1.4,4.38-3.63s-1.67-3.6-4.38-3.6h-5.81v7.24h5.81Z"/>
    <path class="cls-2" d="m1119.43,260.34c0-2.39,2.04-4.17,6.08-4.63l3.77-.46v-.54c0-1.83-1.32-3.01-3.55-3.01-2.04,0-3.39,1-3.36,2.69h-2.26c0-2.88,2.23-4.71,5.65-4.71s5.76,1.99,5.76,5.08v9.01h-2.23v-1.99h-.24c-.97,1.56-2.56,2.42-4.74,2.42-2.93,0-4.87-1.53-4.87-3.87Zm9.85-1.96v-1.21l-3.77.43c-2.77.35-3.85,1.43-3.85,2.69s1.13,2.07,2.96,2.07c2.77,0,4.65-1.69,4.65-3.98Z"/>
    <path class="cls-2" d="m1134.69,256.81c0-4.14,3.01-7.16,7.21-7.16s7.13,3.01,7.13,7.18c0,.27,0,.59-.03.89h-12.02c.32,2.74,2.31,4.57,5.08,4.57,2.02,0,3.79-1.02,4.65-2.64l1.86.94c-1.1,2.31-3.55,3.71-6.56,3.71-4.25,0-7.32-3.15-7.32-7.51Zm12-1.05c-.4-2.45-2.31-4.09-4.9-4.09s-4.41,1.64-4.79,4.09h9.69Z"/>
    <path class="cls-2" d="m1158.53,256.3c0-4.87,1.72-9.79,4.28-12.35h2.29c-2.8,2.74-4.57,7.45-4.57,12.35s1.78,9.66,4.57,12.32h-2.29c-2.55-2.56-4.28-7.45-4.28-12.32Z"/>
    <path class="cls-2" d="m1166.98,257.62h2.42c.03,2.93,2.1,4.68,5.65,4.68,3.09,0,4.9-1.34,4.9-3.47,0-2.61-2.64-3.04-5.49-3.5-3.42-.54-7.18-1.43-7.18-5.54,0-3.42,2.61-5.65,7.18-5.65s7.48,2.42,7.51,6.43h-2.37c0-2.69-1.88-4.28-5.14-4.28-3.07,0-4.73,1.32-4.73,3.36,0,2.5,2.53,2.96,5.33,3.39,3.44.56,7.34,1.32,7.34,5.62,0,3.55-2.72,5.78-7.37,5.78-4.98,0-8.04-2.61-8.04-6.83Z"/>
    <path class="cls-2" d="m1185.27,256.97c0-4.28,3.01-7.32,7.29-7.32s7.29,3.04,7.29,7.32-3.04,7.34-7.29,7.34-7.29-3.04-7.29-7.34Zm12.35,0c0-3.07-2.13-5.3-5.06-5.3s-5.06,2.23-5.06,5.3,2.1,5.33,5.06,5.33,5.06-2.23,5.06-5.33Z"/>
    <path class="cls-2" d="m1202.58,256.97c0-4.25,2.96-7.32,7.07-7.32,3.34,0,6.11,2.1,6.62,5l-2.18.3c-.48-1.96-2.34-3.28-4.41-3.28-2.77,0-4.9,2.18-4.87,5.3,0,3.15,2.07,5.33,4.84,5.33,2.13,0,3.93-1.32,4.47-3.23l2.21.3c-.62,2.88-3.42,4.95-6.67,4.95-4.12,0-7.1-3.09-7.07-7.34Z"/>
    <path class="cls-2" d="m1219.47,246c0-.92.67-1.56,1.61-1.56s1.59.65,1.59,1.56-.65,1.61-1.59,1.61-1.61-.67-1.61-1.61Zm.48,4.2h2.23v13.58h-2.23v-13.58Z"/>
    <path class="cls-2" d="m1225.47,260.34c0-2.39,2.04-4.17,6.08-4.63l3.77-.46v-.54c0-1.83-1.32-3.01-3.55-3.01-2.04,0-3.39,1-3.36,2.69h-2.26c0-2.88,2.23-4.71,5.65-4.71s5.76,1.99,5.76,5.08v9.01h-2.23v-1.99h-.24c-.97,1.56-2.55,2.42-4.73,2.42-2.93,0-4.87-1.53-4.87-3.87Zm9.85-1.96v-1.21l-3.77.43c-2.77.35-3.85,1.43-3.85,2.69s1.13,2.07,2.96,2.07c2.77,0,4.65-1.69,4.65-3.98Z"/>
    <path class="cls-2" d="m1241.43,244.01h2.23v19.77h-2.23v-19.77Z"/>
    <path class="cls-2" d="m1254.96,244.81h3.87l6.27,15.55h.24l6.29-15.55h3.85v18.97h-2.45v-15.87h-.24l-6.4,15.87h-2.34l-6.38-15.84h-.24v15.84h-2.47v-18.97Z"/>
    <path class="cls-2" d="m1279.45,256.81c0-4.14,3.01-7.16,7.21-7.16s7.13,3.01,7.13,7.18c0,.27,0,.59-.03.89h-12.03c.32,2.74,2.31,4.57,5.08,4.57,2.02,0,3.79-1.02,4.65-2.64l1.86.94c-1.1,2.31-3.55,3.71-6.56,3.71-4.25,0-7.32-3.15-7.32-7.51Zm12-1.05c-.4-2.45-2.31-4.09-4.9-4.09s-4.41,1.64-4.79,4.09h9.68Z"/>
    <path class="cls-2" d="m1296.54,256.97c0-4.25,3.04-7.32,7.02-7.32,2.18,0,3.98.91,4.98,2.56h.27v-8.21h2.23v19.77h-2.23v-2.1h-.27c-1,1.67-2.74,2.64-4.95,2.64-3.98,0-7.05-3.09-7.05-7.34Zm12.32,0c0-2.99-2.12-5.3-5.03-5.3s-5.06,2.31-5.06,5.3,2.15,5.33,5.06,5.33,5.03-2.34,5.03-5.33Z"/>
    <path class="cls-2" d="m1314.89,246c0-.92.67-1.56,1.62-1.56s1.59.65,1.59,1.56-.64,1.61-1.59,1.61-1.62-.67-1.62-1.61Zm.48,4.2h2.23v13.58h-2.23v-13.58Z"/>
    <path class="cls-2" d="m1320.89,260.34c0-2.39,2.04-4.17,6.08-4.63l3.77-.46v-.54c0-1.83-1.32-3.01-3.55-3.01-2.04,0-3.39,1-3.36,2.69h-2.26c0-2.88,2.23-4.71,5.65-4.71s5.76,1.99,5.76,5.08v9.01h-2.23v-1.99h-.24c-.97,1.56-2.56,2.42-4.74,2.42-2.93,0-4.87-1.53-4.87-3.87Zm9.85-1.96v-1.21l-3.77.43c-2.77.35-3.85,1.43-3.85,2.69s1.13,2.07,2.96,2.07c2.77,0,4.65-1.69,4.65-3.98Z"/>
    <path class="cls-2" d="m1344.06,244.81h13.02v2.15h-10.54v5.92h9.47v2.15h-9.47v6.59h10.81v2.15h-13.29v-18.97Z"/>
    <path class="cls-2" d="m1364.18,256.71l-4.84-6.51h2.39l3.71,5.06h.27l3.71-5.06h2.39l-4.84,6.51,5.11,7.08h-2.48l-3.9-5.54h-.27l-3.9,5.54h-2.47l5.11-7.08Z"/>
    <path class="cls-2" d="m1373.55,256.81c0-4.14,3.01-7.16,7.21-7.16s7.13,3.01,7.13,7.18c0,.27,0,.59-.03.89h-12.02c.32,2.74,2.31,4.57,5.08,4.57,2.02,0,3.79-1.02,4.65-2.64l1.86.94c-1.1,2.31-3.55,3.71-6.56,3.71-4.25,0-7.32-3.15-7.32-7.51Zm12-1.05c-.4-2.45-2.31-4.09-4.9-4.09s-4.41,1.64-4.79,4.09h9.68Z"/>
    <path class="cls-2" d="m1390.64,256.97c0-4.25,2.96-7.32,7.08-7.32,3.34,0,6.11,2.1,6.62,5l-2.18.3c-.48-1.96-2.34-3.28-4.41-3.28-2.77,0-4.9,2.18-4.87,5.3,0,3.15,2.07,5.33,4.84,5.33,2.12,0,3.93-1.32,4.46-3.23l2.21.3c-.62,2.88-3.42,4.95-6.67,4.95-4.12,0-7.1-3.09-7.08-7.34Z"/>
    <path class="cls-2" d="m1419.94,263.78h-2.23v-1.86h-.27c-.94,1.48-2.47,2.34-4.25,2.34-3.47,0-5.65-2.5-5.65-5.97v-8.1h2.23v8.1c0,2.31,1.34,3.96,3.69,3.96s4.25-1.75,4.25-4.14v-7.91h2.23v13.58Z"/>
    <path class="cls-2" d="m1425.27,260.28v-8.31h-2.21v-1.78h2.21l.51-4.38h1.75l-.03,4.38h3.5v1.78h-3.5v8.23c0,1.29.81,2.21,2.1,2.21.4,0,1.1-.11,1.61-.27v1.8c-.65.22-1.53.35-2.21.35-2.29,0-3.74-1.61-3.74-4.01Z"/>
    <path class="cls-2" d="m1434.33,246c0-.92.67-1.56,1.61-1.56s1.59.65,1.59,1.56-.65,1.61-1.59,1.61-1.61-.67-1.61-1.61Zm.48,4.2h2.23v13.58h-2.23v-13.58Z"/>
    <path class="cls-2" d="m1439.66,250.2h2.29l4.33,11.81h.24l4.36-11.81h2.29l-5.16,13.58h-3.17l-5.17-13.58Z"/>
    <path class="cls-2" d="m1454.6,256.81c0-4.14,3.01-7.16,7.21-7.16s7.13,3.01,7.13,7.18c0,.27,0,.59-.03.89h-12.02c.32,2.74,2.31,4.57,5.08,4.57,2.02,0,3.79-1.02,4.65-2.64l1.86.94c-1.1,2.31-3.55,3.71-6.56,3.71-4.25,0-7.32-3.15-7.32-7.51Zm12-1.05c-.4-2.45-2.31-4.09-4.9-4.09s-4.41,1.64-4.79,4.09h9.68Z"/>
    <path class="cls-2" d="m1470.63,268.62c2.8-2.66,4.57-7.34,4.57-12.32s-1.78-9.6-4.57-12.35h2.31c2.56,2.56,4.28,7.48,4.28,12.35s-1.72,9.76-4.28,12.32h-2.31Z"/>
  </g>
  <g>
    <circle class="cls-1" cx="152.77" cy="159" r="118.2"/>
    <g>
      <g>
        <path class="cls-4" d="m51.7,189.24l-.55-2.31,15.88-3.78-2.15-9.02,2.03-.48,2.7,11.33-17.91,4.27Z"/>
        <path class="cls-4" d="m63.26,171.47c-2.32.14-4.16-1.75-4.83-5.63l-.66-3.63-.52.03c-1.77.1-2.85,1.45-2.72,3.61.11,1.98,1.16,3.23,2.8,3.11l.13,2.19c-2.79.16-4.69-1.9-4.88-5.21-.2-3.42,1.61-5.69,4.6-5.87l8.74-.51.13,2.16-1.93.11v.24c1.58.85,2.51,2.34,2.63,4.45.17,2.84-1.21,4.81-3.48,4.94Zm-2.46-9.43l-1.17.07.63,3.63c.5,2.67,1.6,3.65,2.82,3.58,1.25-.07,1.94-1.21,1.84-2.99-.16-2.69-1.91-4.42-4.12-4.29Z"/>
        <path class="cls-4" d="m62.9,153.65l-8.04-.74-.2,2.13-1.72-.16.2-2.13-4.19-.89.16-1.69,4.24.42.31-3.38,1.72.16-.31,3.38,7.96.74c1.25.11,2.2-.58,2.32-1.83.04-.39,0-1.08-.12-1.58l1.74.16c.15.64.2,1.51.14,2.16-.2,2.21-1.89,3.47-4.21,3.26Z"/>
        <path class="cls-4" d="m50.57,140.96c-.87-.17-1.36-.94-1.18-1.83.18-.9.92-1.39,1.79-1.21.9.18,1.41.92,1.23,1.82s-.95,1.41-1.84,1.23Zm4.09.34l.43-2.12,12.93,2.6-.43,2.12-12.93-2.6Z"/>
        <path class="cls-4" d="m56.55,132.56l.71-2.05,1.7.59.09-.25c-1.07-1.37-1.38-3.02-.81-4.68,1.1-3.16,4.12-4.38,7.28-3.28l7.45,2.59-.71,2.05-7.45-2.59c-2.1-.73-4.06,0-4.81,2.14-.73,2.1.27,4.46,2.44,5.22l7.28,2.53-.71,2.05-12.46-4.33Z"/>
        <path class="cls-4" d="m63.45,104.11l7.24-10.36,1.71,1.2-5.86,8.39,4.71,3.29,5.26-7.54,1.71,1.2-5.26,7.54,5.25,3.66,6.01-8.61,1.71,1.2-7.38,10.58-15.09-10.54Z"/>
        <path class="cls-4" d="m79.35,91.72l1.56-1.51,1.25,1.3.19-.18c-.34-1.71.13-3.32,1.39-4.54,2.4-2.32,5.65-2.05,7.97.35l5.48,5.67-1.56,1.51-5.48-5.67c-1.54-1.6-3.63-1.83-5.26-.25-1.59,1.54-1.77,4.11-.17,5.76l5.36,5.54-1.56,1.51-9.17-9.48Z"/>
        <path class="cls-4" d="m101.3,92.17l1.39-1.85c1.69,1.33,3.75,1.44,5.73.17,2.42-1.55,3-4.13,1.4-6.61l-.96-1.49-.22.14c-.18,1.85-1.03,3.46-2.77,4.58-3.34,2.15-7.32,1.26-9.51-2.14-2.2-3.43-1.41-7.51,1.93-9.65,1.78-1.14,3.61-1.24,5.35-.62l.22-.14-1.02-1.58,1.8-1.16,7.01,10.89c2.23,3.47,1.33,7.19-2.25,9.49-2.86,1.84-5.85,1.81-8.09-.02Zm5.13-13.7c-1.61-2.5-4.54-3.2-6.91-1.67-2.39,1.54-2.96,4.48-1.35,6.98,1.57,2.44,4.46,3.12,6.86,1.58,2.39-1.54,2.97-4.46,1.4-6.9Z"/>
        <path class="cls-4" d="m108.7,65.38c-.37-.81-.03-1.65.8-2.03.83-.38,1.66-.07,2.03.74.38.83.08,1.69-.75,2.06-.83.38-1.7.06-2.08-.78Zm2.12,3.51l1.97-.9,5.47,12.01-1.97.9-5.47-12.01Z"/>
        <path class="cls-4" d="m118.99,65.31l2.08-.63.52,1.73.25-.08c.48-1.67,1.64-2.89,3.32-3.4,3.2-.96,5.96.77,6.92,3.97l2.27,7.56-2.08.62-2.27-7.56c-.64-2.13-2.38-3.29-4.56-2.64-2.13.64-3.46,2.84-2.79,5.04l2.22,7.38-2.08.62-3.8-12.64Z"/>
        <path class="cls-4" d="m137.14,66.97c-.4-4,2.21-7.21,6.26-7.62,4-.4,7.18,2.21,7.59,6.24.03.26.06.57.06.86l-11.61,1.17c.58,2.62,2.68,4.19,5.36,3.92,1.95-.2,3.56-1.36,4.24-3l1.89.73c-.84,2.34-3.07,3.93-5.98,4.23-4.11.42-7.37-2.33-7.8-6.53Zm11.49-2.19c-.63-2.32-2.63-3.72-5.13-3.47-2.42.24-4.1,2.02-4.23,4.42l9.35-.95Z"/>
        <path class="cls-4" d="m155.51,65.57c.39-4,3.58-6.63,7.64-6.24,4,.39,6.61,3.58,6.22,7.61-.02.26-.05.57-.11.86l-11.62-1.12c.06,2.68,1.81,4.64,4.49,4.9,1.95.19,3.76-.63,4.75-2.11l1.71,1.08c-1.28,2.13-3.78,3.26-6.69,2.98-4.11-.4-6.78-3.73-6.37-7.94Zm11.69.11c-.16-2.4-1.85-4.17-4.35-4.41-2.42-.23-4.42,1.17-5.01,3.5l9.36.9Z"/>
        <path class="cls-4" d="m175.95,61.88l2.05.54-.45,1.72.23.06c.89-1.01,2.51-1.45,3.93-1.08.58.15,1.15.44,1.48.74l-.51,1.95c-.58-.45-1.31-.75-1.8-.88-1.92-.51-3.71.86-4.37,3.39l-1.8,6.87-2.1-.55,3.35-12.76Z"/>
        <path class="cls-4" d="m188.19,65.58l2.03.77-4.69,12.33-2.03-.77,4.69-12.33Zm1.01-3.97c.32-.83,1.15-1.18,2-.86.85.32,1.22,1.13.9,1.96-.32.85-1.14,1.24-2,.92s-1.23-1.17-.91-2.02Z"/>
        <path class="cls-4" d="m196.49,68.86l1.9,1.04-.86,1.58.23.13c1.53-.83,3.21-.87,4.75-.03,2.94,1.6,3.64,4.78,2.04,7.72l-3.78,6.93-1.9-1.04,3.77-6.93c1.06-1.95.67-4.01-1.33-5.1-1.95-1.06-4.45-.46-5.55,1.56l-3.69,6.77-1.91-1.04,6.31-11.59Z"/>
        <path class="cls-4" d="m202.6,89.93l2.18.76c-.76,2.02-.24,4.01,1.57,5.51,2.21,1.84,4.84,1.61,6.73-.66l1.14-1.37-.2-.17c-1.82.39-3.61.06-5.2-1.26-3.05-2.54-3.41-6.6-.82-9.72,2.6-3.13,6.73-3.61,9.79-1.07,1.63,1.35,2.27,3.07,2.2,4.92l.2.17,1.2-1.45,1.65,1.37-8.28,9.96c-2.64,3.17-6.45,3.43-9.73.71-2.61-2.17-3.49-5.04-2.42-7.71Zm14.61.77c1.9-2.29,1.68-5.29-.49-7.09-2.19-1.82-5.16-1.47-7.07.82-1.85,2.23-1.63,5.2.55,7.01,2.19,1.82,5.15,1.49,7-.74Z"/>
        <path class="cls-4" d="m227.33,102.31l1.29,1.96c-2.36,1.59-2.68,4.2-.78,7.08,1.65,2.51,3.7,3.25,5.43,2.12,2.12-1.39,1.06-3.76-.09-6.32-1.39-3.06-2.68-6.58.66-8.78,2.77-1.82,5.97-.9,8.42,2.81,2.48,3.77,2.03,7.36-1.21,9.52l-1.26-1.92c2.18-1.44,2.46-3.81.73-6.45-1.64-2.49-3.6-3.14-5.25-2.04-2.03,1.34-1.05,3.63.09,6.13,1.38,3.09,2.85,6.66-.64,8.96-2.88,1.9-6.14.88-8.63-2.89-2.66-4.04-2.18-7.92,1.25-10.17Z"/>
        <path class="cls-4" d="m235.73,121.52l7.37-3.28-.87-1.96,1.58-.7.87,1.96,4.09-1.28.69,1.55-3.9,1.71,1.38,3.1-1.57.7-1.38-3.1-7.3,3.25c-1.14.51-1.64,1.59-1.13,2.73.16.36.53.94.88,1.33l-1.6.71c-.45-.49-.92-1.22-1.18-1.82-.9-2.03-.04-3.95,2.08-4.9Z"/>
        <path class="cls-4" d="m239.48,143.31l-.56-2.09,1.74-.46-.07-.25c-1.62-.51-2.81-1.74-3.26-3.4-.87-3.26.94-5.92,4.19-6.79l7.6-2.02.56,2.09-7.59,2.02c-2.17.58-3.37,2.25-2.79,4.44.57,2.14,2.7,3.55,4.95,2.95l7.42-1.97.56,2.09-12.75,3.39Z"/>
        <path class="cls-4" d="m246.84,146.66c4.12-.26,7.28,2.5,7.52,6.36.13,2.11-.64,3.92-2.17,4.98l.02.26,7.95-.5.14,2.16-19.17,1.21-.14-2.16,2.03-.13-.02-.26c-1.68-.86-2.72-2.5-2.86-4.64-.24-3.86,2.57-7.02,6.69-7.28Zm.76,11.94c2.89-.18,5.01-2.38,4.83-5.2-.18-2.84-2.55-4.76-5.45-4.58-2.95.19-5.03,2.41-4.85,5.23.18,2.82,2.58,4.73,5.47,4.55Z"/>
        <path class="cls-4" d="m247.72,165.86c3.98.55,6.48,3.84,5.92,7.88-.55,3.98-3.84,6.45-7.85,5.9-.26-.04-.57-.08-.85-.14l1.59-11.56c-2.68-.05-4.7,1.62-5.07,4.28-.27,1.94.48,3.78,1.92,4.82l-1.15,1.66c-2.08-1.37-3.1-3.91-2.7-6.8.56-4.09,4-6.62,8.18-6.04Zm-.58,11.67c2.41-.06,4.24-1.68,4.58-4.16.33-2.4-.99-4.46-3.3-5.14l-1.28,9.31Z"/>
        <path class="cls-4" d="m250.61,186.7l-.7,2.05-1.71-.58-.08.25c1.08,1.36,1.4,3.01.84,4.67-1.07,3.16-4.09,4.4-7.25,3.33l-7.47-2.53.7-2.05,7.47,2.53c2.1.71,4.06-.03,4.79-2.18.71-2.1-.31-4.46-2.48-5.2l-7.29-2.47.7-2.05,12.48,4.24Z"/>
        <path class="cls-4" d="m234.78,200.4l7.15,3.75.99-1.9,1.53.8-.99,1.9,3.54,2.42-.79,1.5-3.76-2-1.58,3.01-1.53-.8,1.58-3.01-7.08-3.71c-1.11-.58-2.26-.3-2.84.81-.18.35-.41,1-.5,1.51l-1.55-.81c.11-.65.39-1.48.69-2.05,1.03-1.97,3.07-2.49,5.13-1.41Z"/>
        <path class="cls-4" d="m230.99,209.58l-1.23,1.69c-1.53-1.09-3.43-.66-4.89,1.34-1.17,1.6-1.25,3.13-.13,3.95,1.39,1.02,2.56-.36,3.94-1.81,1.68-1.81,3.89-3.73,6.31-1.96,2.07,1.51,2.07,4.16.21,6.72-1.94,2.66-4.68,3.44-6.87,1.84l1.25-1.71c1.32.93,2.96.42,4.16-1.23,1.12-1.54,1.2-3.1.1-3.9-1.33-.97-2.48.39-3.83,1.83-1.72,1.82-3.9,3.75-6.45,1.88-2.09-1.52-2.11-4.03-.12-6.75,2.23-3.06,5.03-3.74,7.56-1.89Z"/>
        <path class="cls-4" d="m228.71,227.08l1.42,2.93c.57-.39,1.28-.35,1.82.14.6.55.65,1.38.07,2.01-.57.62-1.42.65-2.01.1-.27-.25-.45-.55-.63-.97l-1.58-3.61.92-.61Z"/>
        <path class="cls-4" d="m214.14,246.69l-2.68,1.81-16.01-11.41,1.88-1.27,3.61,2.54,7.77-5.25-1.01-4.3,1.88-1.27,4.56,19.15Zm-11.54-7.08l8.94,6.32.19-.13-2.51-10.66-6.62,4.48Z"/>
        <path class="cls-4" d="m195.07,241.97l-1.91.85c-.79-1.71-2.65-2.28-4.91-1.27-1.81.81-2.64,2.09-2.08,3.36.7,1.57,2.4.96,4.32.39,2.36-.74,5.23-1.3,6.45,1.45,1.04,2.34-.28,4.64-3.17,5.93-3,1.34-5.77.65-6.87-1.83l1.93-.86c.68,1.47,2.36,1.84,4.22,1.01,1.74-.77,2.59-2.09,2.03-3.33-.67-1.5-2.34-.9-4.23-.32-2.39.72-5.25,1.31-6.54-1.58-1.05-2.36.18-4.54,3.26-5.91,3.46-1.54,6.22-.74,7.49,2.12Z"/>
        <path class="cls-4" d="m180.62,247.9l-2.03.49c-.47-1.82-2.19-2.72-4.6-2.13-1.93.47-2.98,1.58-2.65,2.93.41,1.68,2.19,1.38,4.18,1.16,2.45-.3,5.37-.34,6.08,2.58.61,2.49-1.11,4.52-4.18,5.26-3.2.78-5.79-.39-6.44-3.03l2.06-.5c.41,1.57,1.99,2.23,3.97,1.75,1.85-.45,2.92-1.6,2.6-2.92-.39-1.6-2.15-1.31-4.1-1.07-2.49.28-5.4.34-6.15-2.73-.61-2.51.99-4.43,4.26-5.23,3.68-.9,6.25.39,6.99,3.43Z"/>
        <path class="cls-4" d="m165.65,253.45c.22,4.15-2.54,7.25-6.68,7.47-4.12.22-7.22-2.57-7.45-6.71-.22-4.17,2.56-7.28,6.68-7.5,4.15-.22,7.22,2.57,7.45,6.74Zm-11.97.65c.16,2.97,2.34,5.02,5.18,4.87,2.87-.15,4.78-2.43,4.62-5.4-.16-3-2.31-5.05-5.18-4.9-2.84.15-4.78,2.43-4.62,5.43Z"/>
        <path class="cls-4" d="m147.07,253.98c-.58,4.09-3.84,6.63-7.79,6.08-3.21-.45-5.59-2.84-5.69-5.71h2.14c.2,1.96,1.81,3.48,3.8,3.76,2.66.38,5-1.43,5.4-4.44.43-3.03-1.27-5.4-3.94-5.78-2.04-.29-3.95.74-4.73,2.5l-2.08-.58c.98-2.68,3.95-4.3,7.08-3.86,3.96.56,6.41,3.94,5.81,8.02Z"/>
        <path class="cls-4" d="m126.37,261.04c-.24.85-1.04,1.28-1.92,1.03-.88-.25-1.31-1.03-1.07-1.88.25-.88,1.03-1.34,1.91-1.08.88.25,1.33,1.06,1.08,1.94Zm.66-4.05l-2.08-.59,3.61-12.68,2.08.59-3.61,12.68Z"/>
        <path class="cls-4" d="m123.42,245.78c-.92,2.13-3.42,2.93-7.19,1.8l-3.53-1.04-.21.48c-.7,1.63.02,3.19,2.01,4.05,1.82.78,3.4.41,4.03-1.11l2.01.87c-1.1,2.57-3.8,3.34-6.84,2.03-3.14-1.35-4.37-3.98-3.18-6.74l3.45-8.04,1.99.86-.76,1.78.22.09c1.46-1.02,3.21-1.18,5.15-.34,2.61,1.12,3.75,3.23,2.86,5.32Zm-9.53-2.02l-.46,1.08,3.52,1.06c2.61.75,3.98.2,4.46-.92.5-1.15-.21-2.28-1.85-2.98-2.47-1.06-4.8-.27-5.68,1.77Z"/>
        <path class="cls-4" d="m107.32,238.15l-4.25,6.86,1.82,1.13-.91,1.47-1.82-1.13-2.66,3.36-1.44-.89,2.26-3.61-2.89-1.79.91-1.47,2.89,1.79,4.21-6.8c.66-1.07.46-2.23-.61-2.89-.33-.21-.97-.48-1.47-.6l.92-1.49c.64.15,1.44.5,2,.84,1.89,1.17,2.26,3.24,1.04,5.22Z"/>
        <path class="cls-4" d="m90.48,243.53c-.54.7-1.44.8-2.17.24-.72-.56-.83-1.44-.29-2.14.56-.72,1.46-.85,2.18-.29.72.56.84,1.48.28,2.2Zm2.13-3.51l-1.71-1.33,8.08-10.42,1.71,1.33-8.08,10.42Z"/>
        <path class="cls-4" d="m90.77,230.35c-2.99,2.88-7.14,2.83-10.02-.16-2.87-2.97-2.79-7.14.19-10.02,3.01-2.9,7.18-2.83,10.04.14,2.88,2.99,2.79,7.14-.21,10.04Zm-8.32-8.62c-2.14,2.07-2.27,5.06-.29,7.1,2,2.07,4.97,2.03,7.11-.04,2.16-2.09,2.3-5.06.31-7.12-1.98-2.05-4.97-2.03-7.13.06Z"/>
        <path class="cls-4" d="m72.34,219.67l-1.18-1.82,1.51-.98-.14-.22c-1.74,0-3.23-.77-4.18-2.23-1.82-2.8-.92-5.94,1.88-7.75l6.62-4.28,1.18,1.82-6.62,4.29c-1.86,1.21-2.5,3.2-1.26,5.11,1.21,1.86,3.69,2.53,5.62,1.28l6.46-4.19,1.18,1.82-11.07,7.17Z"/>
      </g>
      <g>
        <g>
          <polygon class="cls-3" points="131.62 143.44 136.44 141.94 139.66 144.38 142.9 138.34 152.45 135.55 172.66 135.52 181.9 141.39 199.67 139.94 203.03 144.96 199.9 169.26 194.34 173.47 186.89 196.25 181.18 202.98 179.53 213.49 179.89 220.08 174.78 221.03 170.35 210.65 167.87 193.33 163.84 176.66 153.33 175.01 140.54 165.14 139.97 158.03 139.47 145.37 135.51 146.15 132.08 147.07 127.39 150.16 114.36 146.44 103.76 146.83 87.62 140.97 80.28 130.14 91.24 128.54 103.69 129.57 105.87 135.53 111.86 136.65 115.55 131.8 120.25 133.34 120.43 137.55 126.16 140.01 131.62 143.44"/>
          <polygon class="cls-3" points="135.07 122.12 129.38 123.91 122.32 123.53 118.96 125.65 115.48 120.14 120.61 116.92 128.55 117.35 133.11 115.9 135.07 122.12"/>
          <rect class="cls-3" x="137.24" y="119.44" width="3.59" height="6.51" transform="translate(-36.97 64.32) rotate(-23.08)"/>
          <rect class="cls-3" x="141.47" y="114.95" width="3.4" height="6.51" transform="translate(-34.88 65.58) rotate(-23.08)"/>
        </g>
        <g>
          <g>
            <polygon class="cls-1" points="96.86 157.21 109.61 151.77 126.39 193.06 114.51 198.12 96.86 157.21"/>
            <path class="cls-4" d="m108.69,154.03l15.49,38.13-8.77,3.74-16.3-37.78,9.58-4.08m1.86-4.5l-3.2,1.36-9.58,4.08-3.16,1.34,1.36,3.15,16.3,37.78,1.35,3.12,3.13-1.33,8.77-3.74,3.09-1.32-1.26-3.11-15.49-38.13-1.31-3.22h0Z"/>
          </g>
          <g>
            <path class="cls-1" d="m121.2,178.67l-1.95-12.28,4.87-9.24,11.23-4.89,9.31,2.18,7.88,8.06-17.96,13.33,1.82,1.63,3.39-.36,3.05-2.87.48-3.3,12.76-2.04-2.99,11.19-7.87,6.68-14.57,1.15-9.44-9.25Zm11.78-13.11l.78-.6-.77-.13v.73Z"/>
            <path class="cls-4" d="m135.5,154.06l8.27,1.94,6.16,6.31-18.07,13.41,3.94,3.53,4.72-.5,3.91-3.67.39-2.65,8.92-1.43-2.17,8.13-7.04,5.98-13.25,1.04-8.48-8.31-1.78-11.16,4.32-8.2,10.16-4.42m-4.25,15l6.62-5.12-6.58-1.13-.03,6.25m3.93-18.58l-1.04.45-10.16,4.42-1.1.48-.56,1.06-4.32,8.2-.53,1.01.18,1.12,1.78,11.16.18,1.11.8.79,8.48,8.31,1.11,1.09,1.55-.12,13.25-1.04,1.1-.09.84-.71,7.04-5.98.81-.69.28-1.03,2.17-8.13,1.36-5.08-5.2.83-6,.96,4.77-3.54,3.14-2.33-2.73-2.8-6.16-6.31-.7-.71-.97-.23-8.27-1.94-1.1-.26h0Zm2.57,25.13l3.54-2.63-.06.43-2.2,2.07-1.28.14h0Z"/>
          </g>
          <g>
            <path class="cls-1" d="m162.36,175.06l-7.18-5.04,7.37-7.18-3.86.64-6.43-3.03-2.9-7.23,3.49-8,7.86-4.39,8.58-1.22,8.05,5.47-7.31,6.32,2.32-.37,7.75,1.74,4.41,6.06-.7,7.61-5.96,5.51-8.26,3.35-7.23-.27Zm5.34-10.44l3.58-1.23.26-.57-1.98-1.15-5.3.88,3.43,2.07Zm-5.17-12.01l4.89-.78-1.2-1.08-1.52-.08-2.02.69-.41.89.26.35Z"/>
            <path class="cls-4" d="m168.87,141.4l5.67,3.85-6.05,5.24-1.57-1.42-2.46-.12-3.02,1.04-1.13,2.46,1.45,2.01,10.53-1.68,6.8,1.53,3.65,5.02-.58,6.32-5.25,4.85-7.63,3.1-6.36-.23-5.09-3.57,5.79-5.64,3.86,2.33,5.03-1.73,1.2-2.65-3.84-2.24-10.96,1.83-5.35-2.51-2.38-5.94,2.98-6.81,7.08-3.95,7.61-1.08m.83-3.57l-1.31.19-7.61,1.08-.63.09-.55.31-7.08,3.95-1,.56-.46,1.05-2.98,6.81-.57,1.31.53,1.33,2.38,5.94.5,1.25,1.22.57,5.35,2.51.41.19-2.43,2.37-2.95,2.87,3.37,2.37,5.09,3.57.83.58,1.01.04,6.36.23.73.03.68-.28,7.63-3.1.58-.23.46-.42,5.25-4.85.96-.89.12-1.3.58-6.32.12-1.28-.76-1.04-3.65-5.02-.76-1.04-1.26-.28-5.32-1.2,2.25-1.95,3.36-2.91-3.67-2.5-5.67-3.85-1.09-.74h0Z"/>
          </g>
          <g>
            <path class="cls-1" d="m190.75,163.32l-5.8-5.34-1.13-7.52,3.45-5.54,2.66-1.98-10.82.07,4.12-8.98,7.41-5.95,9.75-2.42,6.6,3.07,2.83,4.8,9.11,20.42-10.8,4.6-.53-1.23-.81,1.4-8.23,4.6-7.82-.02Zm7.8-10.29l1.74-1.22.47-2.77-3.35.27-1.62,1.37.37,1.98,2.39.38Zm-5.22-12.62l.77-.58,4.88-2.37-.06-.11-2.22-.26-2.91,1.6-.47,1.72Z"/>
            <path class="cls-4" d="m200.22,127.48l5.57,2.59,2.51,4.26,8.37,18.75-7.63,3.25-1.2-2.8-2.29,3.95-7.43,4.16-6.71-.02-4.87-4.48-.95-6.3,2.95-4.73,6.45-4.81,6.33-3.07-1.3-2.47-3.66-.43-4.02,2.21-1,3.69-9.56.06,2.83-6.17,6.81-5.46,8.8-2.18m-1.26,27.34l2.9-2.02.95-5.64-6.08.49-2.8,2.36.77,4.14,4.26.67m1.6-30.95l-1.17.29-8.8,2.18-.73.18-.59.47-6.81,5.46-.63.51-.34.73-2.83,6.17-2.24,4.87,5.36-.04,3.61-.02-2.71,4.35-.67,1.07.19,1.24.95,6.3.18,1.19.89.82,4.87,4.48.98.9h1.33s6.71.02,6.71.02h.9s.78-.44.78-.44l7.32-4.1.12.29,3.14-1.34,7.63-3.25,3.2-1.36-1.42-3.17-8.37-18.75-.08-.18-.1-.17-2.51-4.26-.54-.92-.96-.45-5.57-2.59-1.09-.51h0Zm-2.47,27.09l.48-.04-.44.31-.3-.05.26-.22h0Z"/>
          </g>
        </g>
      </g>
    </g>
  </g>
  <g>
    <path class="cls-3" d="m328.27,103.62c.35-.56.91-.73,1.67-.53.76.2,1.06.71.91,1.52l-1.21,9.09c-.05.56-.51.83-1.36.83h-30.61c-1.06,0-1.59-.43-1.59-1.29,0-.61.33-1.12.98-1.55.66-.43,1.31-1,1.97-1.7.66-.71.99-1.69.99-2.96v-37.28c0-1.01-.22-1.84-.64-2.5-.43-.66-.88-1.12-1.36-1.4-.48-.28-.92-.61-1.33-.98-.41-.38-.61-.82-.61-1.33,0-.86.53-1.29,1.59-1.29h12.12c1.06,0,1.59.43,1.59,1.29,0,.61-.33,1.12-.99,1.55-.66.43-1.31,1-1.97,1.71-.66.71-.99,1.69-.99,2.96v41.3h12.35c2.53,0,4.55-1.21,6.06-3.64l2.42-3.79Z"/>
    <path class="cls-3" d="m348.28,115.29c-3.59,0-6.49-1-8.71-2.99-2.22-2-3.33-4.74-3.33-8.22s1.19-6.05,3.56-7.99c2.37-1.94,5.48-2.92,9.32-2.92,2.93,0,5.35.78,7.27,2.35.4.25.68.38.83.38.3,0,.43-.3.38-.91l-.38-4.24c-.2-2.73-.88-4.81-2.05-6.25-1.16-1.44-3.01-2.16-5.53-2.16-3.39,0-6.01,1.92-7.88,5.76-.4.86-1.09,1.29-2.05,1.29-.51,0-.96-.18-1.36-.53-.4-.35-.61-.83-.61-1.44,0-1.87,1.33-3.88,3.98-6.02,2.65-2.15,5.59-3.22,8.83-3.22,8.34,0,12.83,4.27,13.49,12.81l1.29,17.66c.1,1.21.3,2.03.61,2.46.3.43.93.64,1.89.64,1.46,0,2.2.48,2.2,1.44,0,1.41-1.39,2.12-4.17,2.12-2.12,0-3.74-.38-4.85-1.14-1.11-.76-1.87-2.07-2.27-3.94-.66,1.31-1.91,2.49-3.75,3.52-1.84,1.03-4.08,1.55-6.71,1.55Zm-2.96-5.8c1.41,1.39,3.23,2.08,5.46,2.08s4-.68,5.34-2.05c1.34-1.36,2.01-3.26,2.01-5.68s-.72-4.17-2.16-5.53c-1.44-1.36-3.3-2.05-5.57-2.05s-3.98.62-5.27,1.86c-1.29,1.24-1.93,3.09-1.93,5.57s.71,4.41,2.12,5.8Z"/>
    <path class="cls-3" d="m385.33,115.29c-6.72,0-10.08-3.94-10.08-11.82v-20.91h-4.02c-.91,0-1.39-.48-1.44-1.44-.05-.96.3-1.49,1.06-1.59,1.11-.15,2-.38,2.65-.68.66-.3,1.25-.85,1.78-1.63.53-.78.92-1.45,1.17-2.01.25-.56.68-1.67,1.29-3.33.35-.96,1.1-1.44,2.24-1.44s1.71.53,1.71,1.59v6.9h10.68c.96,0,1.44.58,1.44,1.74,0,1.26-.48,1.89-1.44,1.89h-10.46v22.13c0,4.29,1.49,6.44,4.47,6.44,3.54,0,5-2.22,4.4-6.67-.15-1.16.33-1.86,1.44-2.08,1.11-.23,1.79.22,2.05,1.33.81,3.59.4,6.42-1.21,8.49-1.62,2.07-4.19,3.11-7.73,3.11Z"/>
    <path class="cls-3" d="m409.05,108.62c0,1.16.49,2.08,1.48,2.77.99.68,1.48,1.3,1.48,1.86,0,.86-.51,1.29-1.52,1.29h-9.62c-1.01,0-1.52-.43-1.52-1.29,0-.56.5-1.17,1.52-1.86,1.01-.68,1.52-1.6,1.52-2.77v-22.81c0-1.16-.51-2.11-1.52-2.84-1.01-.73-1.52-1.33-1.52-1.78,0-.35.09-.63.27-.83.18-.2.57-.38,1.17-.53l6.67-1.59c1.06-.2,1.59.13,1.59.99v29.4Zm-4.47-36.45c-1.26,0-2.3-.45-3.11-1.36-.81-.91-1.16-1.97-1.06-3.18.1-1.21.66-2.27,1.67-3.18,1.01-.91,2.12-1.36,3.33-1.36s2.24.45,3.07,1.36,1.2,1.97,1.1,3.18c-.1,1.26-.66,2.34-1.67,3.22-1.01.88-2.12,1.33-3.33,1.33Z"/>
    <path class="cls-3" d="m450.57,109.08c.05.86.54,1.63,1.48,2.31.93.68,1.4,1.3,1.4,1.86,0,.86-.43,1.29-1.29,1.29h-9.85c-.76,0-1.14-.43-1.14-1.29,0-.5.43-1.07,1.29-1.71.86-.63,1.26-1.33,1.21-2.08l-.91-14.55c-.3-4.44-1.09-7.62-2.35-9.51-1.26-1.89-2.98-2.84-5.15-2.84s-3.95.83-5.49,2.5c-1.54,1.67-2.31,3.61-2.31,5.83v17.73c0,1.16.47,2.08,1.4,2.77.93.68,1.4,1.3,1.4,1.86,0,.86-.45,1.29-1.36,1.29h-9.62c-1.01,0-1.52-.43-1.52-1.29,0-.56.5-1.17,1.52-1.86,1.01-.68,1.52-1.6,1.52-2.77v-22.81c0-1.16-.51-2.11-1.52-2.84-1.01-.73-1.52-1.33-1.52-1.78,0-.35.09-.63.27-.83.18-.2.57-.38,1.17-.53l6.67-1.59c1.06-.2,1.59.13,1.59.99v2.42c0,.91.25,1.36.76,1.36.25,0,.74-.4,1.48-1.21.73-.81,1.81-1.62,3.22-2.42,1.41-.81,3.06-1.21,4.93-1.21,6.97,0,10.84,5.2,11.59,15.61l1.14,15.31Z"/>
    <path class="cls-3" d="m507.93,102.94c.35-.61.9-.82,1.63-.64.73.18,1.07.67,1.02,1.48l-.76,9.93c-.05.56-.51.83-1.36.83h-32.43c-1.06,0-1.59-.43-1.59-1.29,0-.61.33-1.12.98-1.55.66-.43,1.31-1,1.97-1.7.66-.71.99-1.69.99-2.96v-37.28c0-1.01-.22-1.84-.64-2.5-.43-.66-.88-1.12-1.36-1.4-.48-.28-.92-.61-1.33-.98-.41-.38-.61-.82-.61-1.33,0-.86.53-1.29,1.59-1.29h30.84c.81,0,1.26.28,1.36.83l1.21,9.09c.1.81-.22,1.31-.95,1.52-.73.2-1.3.03-1.71-.53l-2.42-3.79c-1.52-2.42-3.54-3.64-6.06-3.64h-12.5v21.29h8.49c.76,0,1.29-.23,1.59-.68l2.8-4.55c.35-.5.73-.76,1.14-.76.66,0,.98.35.98,1.06v13.26c0,.71-.33,1.06-.98,1.06-.4,0-.78-.25-1.14-.76l-2.8-4.55c-.25-.4-.78-.61-1.59-.61h-8.49v20.53h14.7c1.77,0,3.28-1.06,4.55-3.18l2.88-4.93Z"/>
    <path class="cls-3" d="m548.4,109.08c.05.86.54,1.63,1.48,2.31.93.68,1.4,1.3,1.4,1.86,0,.86-.43,1.29-1.29,1.29h-9.85c-.76,0-1.14-.43-1.14-1.29,0-.5.43-1.07,1.29-1.71.86-.63,1.26-1.33,1.21-2.08l-.91-14.55c-.3-4.44-1.09-7.62-2.35-9.51-1.26-1.89-2.98-2.84-5.15-2.84s-3.95.83-5.49,2.5c-1.54,1.67-2.31,3.61-2.31,5.83v17.73c0,1.16.47,2.08,1.4,2.77.93.68,1.4,1.3,1.4,1.86,0,.86-.45,1.29-1.36,1.29h-9.62c-1.01,0-1.52-.43-1.52-1.29,0-.56.5-1.17,1.52-1.86,1.01-.68,1.52-1.6,1.52-2.77v-22.81c0-1.16-.51-2.11-1.52-2.84-1.01-.73-1.52-1.33-1.52-1.78,0-.35.09-.63.27-.83.18-.2.57-.38,1.17-.53l6.67-1.59c1.06-.2,1.59.13,1.59.99v2.42c0,.91.25,1.36.76,1.36.25,0,.74-.4,1.48-1.21.73-.81,1.81-1.62,3.22-2.42,1.41-.81,3.06-1.21,4.93-1.21,6.97,0,10.84,5.2,11.59,15.61l1.14,15.31Z"/>
    <path class="cls-3" d="m574.01,113.32c8.33.61,12.5,3.71,12.5,9.32,0,2.37-.82,4.34-2.46,5.91-1.64,1.56-3.66,2.65-6.06,3.26-2.4.61-5.11.91-8.15.91-5.15,0-8.99-.63-11.52-1.89-2.53-1.26-3.79-2.98-3.79-5.15,0-1.82.83-2.98,2.5-3.49,1.52-.45,2.68-.15,3.49.91.3.45.46.96.46,1.52,0,1.77.57,3.04,1.7,3.83,1.14.78,3.52,1.17,7.16,1.17,6.92,0,10.38-1.87,10.38-5.61,0-1.62-.59-2.78-1.78-3.49-1.19-.71-2.94-1.14-5.27-1.29l-9.55-.76c-2.12-.15-3.71-.75-4.77-1.78-1.06-1.04-1.59-2.31-1.59-3.83,0-2.58,2-5,5.99-7.27-2.48-1.06-4.43-2.74-5.87-5.04-1.44-2.3-2.16-4.96-2.16-7.99,0-4.19,1.33-7.64,3.98-10.34,2.65-2.7,6.05-4.05,10.19-4.05,2.88,0,5.46.78,7.73,2.35,1.06-.5,1.75-1.38,2.08-2.61.33-1.24.44-2.45.34-3.64-.1-1.19.1-2.25.61-3.18.5-.93,1.46-1.4,2.88-1.4,1.97,0,3.03.98,3.18,2.96.15,2.27-.78,4.5-2.8,6.67-1.21,1.36-2.65,2.32-4.32,2.88,2.88,2.78,4.32,6.24,4.32,10.38s-1.28,7.67-3.83,10.27c-2.55,2.6-6,3.9-10.34,3.9-1.01,0-1.97-.08-2.88-.23-2.22,1.31-3.33,2.68-3.33,4.09-.05.61.14,1.11.57,1.52.43.4,1.07.63,1.93.68l8.49.53Zm-5.76-32.05c-2.17,0-3.8.87-4.89,2.61-1.09,1.74-1.58,4.05-1.48,6.93.1,3.54.91,6.54,2.42,9.02,1.52,2.48,3.49,3.71,5.91,3.71,4.34,0,6.44-3.06,6.29-9.17-.05-3.74-.73-6.86-2.05-9.36-1.31-2.5-3.39-3.75-6.21-3.75Z"/>
    <path class="cls-3" d="m600.3,108.62c0,1.16.49,2.08,1.48,2.77.99.68,1.48,1.3,1.48,1.86,0,.86-.51,1.29-1.52,1.29h-9.62c-1.01,0-1.52-.43-1.52-1.29,0-.56.5-1.17,1.52-1.86,1.01-.68,1.52-1.6,1.52-2.77v-22.81c0-1.16-.51-2.11-1.52-2.84-1.01-.73-1.52-1.33-1.52-1.78,0-.35.09-.63.27-.83.18-.2.57-.38,1.17-.53l6.67-1.59c1.06-.2,1.59.13,1.59.99v29.4Zm-4.47-36.45c-1.26,0-2.3-.45-3.11-1.36-.81-.91-1.16-1.97-1.06-3.18.1-1.21.66-2.27,1.67-3.18,1.01-.91,2.12-1.36,3.33-1.36s2.24.45,3.07,1.36,1.2,1.97,1.1,3.18c-.1,1.26-.66,2.34-1.67,3.22-1.01.88-2.12,1.33-3.33,1.33Z"/>
    <path class="cls-3" d="m641.83,109.08c.05.86.54,1.63,1.48,2.31.93.68,1.4,1.3,1.4,1.86,0,.86-.43,1.29-1.29,1.29h-9.85c-.76,0-1.14-.43-1.14-1.29,0-.5.43-1.07,1.29-1.71.86-.63,1.26-1.33,1.21-2.08l-.91-14.55c-.3-4.44-1.09-7.62-2.35-9.51-1.26-1.89-2.98-2.84-5.15-2.84s-3.95.83-5.49,2.5c-1.54,1.67-2.31,3.61-2.31,5.83v17.73c0,1.16.47,2.08,1.4,2.77.93.68,1.4,1.3,1.4,1.86,0,.86-.45,1.29-1.36,1.29h-9.62c-1.01,0-1.52-.43-1.52-1.29,0-.56.5-1.17,1.52-1.86,1.01-.68,1.52-1.6,1.52-2.77v-22.81c0-1.16-.51-2.11-1.52-2.84-1.01-.73-1.52-1.33-1.52-1.78,0-.35.09-.63.27-.83.18-.2.57-.38,1.17-.53l6.67-1.59c1.06-.2,1.59.13,1.59.99v2.42c0,.91.25,1.36.76,1.36.25,0,.74-.4,1.48-1.21.73-.81,1.81-1.62,3.22-2.42,1.41-.81,3.06-1.21,4.93-1.21,6.97,0,10.84,5.2,11.59,15.61l1.14,15.31Z"/>
    <path class="cls-3" d="m663.72,115.29c-4.55,0-8.27-1.69-11.18-5.08-2.91-3.38-4.36-7.93-4.36-13.64s1.53-10.01,4.58-13.37c3.06-3.36,6.98-5.04,11.78-5.04,3.79,0,6.71.88,8.75,2.65,2.05,1.77,3.07,4.07,3.07,6.9.1,6.06-5.3,10.08-16.22,12.05l-4.55.91c1.16,6.01,4.42,9.02,9.77,9.02,2.07,0,3.93-.59,5.57-1.78,1.64-1.19,2.89-2.77,3.75-4.74.2-.5.56-.85,1.06-1.02.5-.18.96-.14,1.36.11.4.25.61.66.61,1.21-.05,1.01-.34,2.13-.87,3.37-.53,1.24-1.31,2.51-2.35,3.83-1.04,1.31-2.5,2.41-4.4,3.3s-4.03,1.33-6.4,1.33Zm-8.64-17.66l5-1.06c3.13-.56,5.56-1.63,7.27-3.22,1.72-1.59,2.58-3.62,2.58-6.1,0-1.77-.44-3.19-1.33-4.28-.88-1.09-2.24-1.63-4.05-1.63-3.13,0-5.57,1.45-7.31,4.36-1.74,2.91-2.46,6.88-2.16,11.93Z"/>
    <path class="cls-3" d="m698.28,115.29c-4.55,0-8.27-1.69-11.18-5.08-2.91-3.38-4.36-7.93-4.36-13.64s1.53-10.01,4.58-13.37c3.06-3.36,6.98-5.04,11.78-5.04,3.79,0,6.71.88,8.75,2.65,2.05,1.77,3.07,4.07,3.07,6.9.1,6.06-5.3,10.08-16.22,12.05l-4.55.91c1.16,6.01,4.42,9.02,9.77,9.02,2.07,0,3.93-.59,5.57-1.78,1.64-1.19,2.89-2.77,3.75-4.74.2-.5.56-.85,1.06-1.02.5-.18.96-.14,1.36.11.4.25.61.66.61,1.21-.05,1.01-.34,2.13-.87,3.37-.53,1.24-1.31,2.51-2.35,3.83-1.04,1.31-2.5,2.41-4.4,3.3s-4.03,1.33-6.4,1.33Zm-8.64-17.66l5-1.06c3.13-.56,5.56-1.63,7.27-3.22,1.72-1.59,2.58-3.62,2.58-6.1,0-1.77-.44-3.19-1.33-4.28-.88-1.09-2.24-1.63-4.05-1.63-3.13,0-5.57,1.45-7.31,4.36-1.74,2.91-2.46,6.88-2.16,11.93Z"/>
    <path class="cls-3" d="m738.82,78.16c2.17,0,3.21,1.24,3.11,3.71-.05,3.03-1.17,5.57-3.37,7.62-2.2,2.05-5.01,3.07-8.45,3.07h-3.26v15.91c0,.71.27,1.29.8,1.74.53.45,1.1.78,1.7.99.61.2,1.17.47,1.71.8.53.33.8.75.8,1.25,0,.86-.68,1.29-2.05,1.29h-11.14c-1.01,0-1.52-.43-1.52-1.29,0-.56.5-1.17,1.52-1.86,1.01-.68,1.52-1.6,1.52-2.77v-22.81c0-1.16-.51-2.11-1.52-2.84-1.01-.73-1.52-1.33-1.52-1.78,0-.35.09-.63.27-.83.18-.2.57-.38,1.17-.53l6.67-1.59c1.06-.2,1.59.13,1.59.99v10.84h1.44c4.14,0,6.44-2.8,6.9-8.41.3-2.32,1.52-3.49,3.64-3.49Z"/>
    <path class="cls-3" d="m756.17,108.62c0,1.16.49,2.08,1.48,2.77.99.68,1.48,1.3,1.48,1.86,0,.86-.51,1.29-1.52,1.29h-9.62c-1.01,0-1.52-.43-1.52-1.29,0-.56.5-1.17,1.52-1.86,1.01-.68,1.52-1.6,1.52-2.77v-22.81c0-1.16-.51-2.11-1.52-2.84-1.01-.73-1.52-1.33-1.52-1.78,0-.35.09-.63.27-.83.18-.2.57-.38,1.17-.53l6.67-1.59c1.06-.2,1.59.13,1.59.99v29.4Zm-4.47-36.45c-1.26,0-2.3-.45-3.11-1.36-.81-.91-1.16-1.97-1.06-3.18.1-1.21.66-2.27,1.67-3.18,1.01-.91,2.12-1.36,3.33-1.36s2.24.45,3.07,1.36,1.2,1.97,1.1,3.18c-.1,1.26-.66,2.34-1.67,3.22-1.01.88-2.12,1.33-3.33,1.33Z"/>
    <path class="cls-3" d="m797.69,109.08c.05.86.54,1.63,1.48,2.31.93.68,1.4,1.3,1.4,1.86,0,.86-.43,1.29-1.29,1.29h-9.85c-.76,0-1.14-.43-1.14-1.29,0-.5.43-1.07,1.29-1.71.86-.63,1.26-1.33,1.21-2.08l-.91-14.55c-.3-4.44-1.09-7.62-2.35-9.51-1.26-1.89-2.98-2.84-5.15-2.84s-3.95.83-5.49,2.5c-1.54,1.67-2.31,3.61-2.31,5.83v17.73c0,1.16.47,2.08,1.4,2.77.93.68,1.4,1.3,1.4,1.86,0,.86-.45,1.29-1.36,1.29h-9.62c-1.01,0-1.52-.43-1.52-1.29,0-.56.5-1.17,1.52-1.86,1.01-.68,1.52-1.6,1.52-2.77v-22.81c0-1.16-.51-2.11-1.52-2.84-1.01-.73-1.52-1.33-1.52-1.78,0-.35.09-.63.27-.83.18-.2.57-.38,1.17-.53l6.67-1.59c1.06-.2,1.59.13,1.59.99v2.42c0,.91.25,1.36.76,1.36.25,0,.74-.4,1.48-1.21.73-.81,1.81-1.62,3.22-2.42,1.41-.81,3.06-1.21,4.93-1.21,6.97,0,10.84,5.2,11.59,15.61l1.14,15.31Z"/>
    <path class="cls-3" d="m823.31,113.32c8.33.61,12.5,3.71,12.5,9.32,0,2.37-.82,4.34-2.46,5.91-1.64,1.56-3.66,2.65-6.06,3.26-2.4.61-5.11.91-8.15.91-5.15,0-8.99-.63-11.52-1.89-2.53-1.26-3.79-2.98-3.79-5.15,0-1.82.83-2.98,2.5-3.49,1.52-.45,2.68-.15,3.49.91.3.45.46.96.46,1.52,0,1.77.57,3.04,1.7,3.83,1.14.78,3.52,1.17,7.16,1.17,6.92,0,10.38-1.87,10.38-5.61,0-1.62-.59-2.78-1.78-3.49-1.19-.71-2.94-1.14-5.27-1.29l-9.55-.76c-2.12-.15-3.71-.75-4.77-1.78-1.06-1.04-1.59-2.31-1.59-3.83,0-2.58,2-5,5.99-7.27-2.48-1.06-4.43-2.74-5.87-5.04-1.44-2.3-2.16-4.96-2.16-7.99,0-4.19,1.33-7.64,3.98-10.34,2.65-2.7,6.05-4.05,10.19-4.05,2.88,0,5.46.78,7.73,2.35,1.06-.5,1.75-1.38,2.08-2.61.33-1.24.44-2.45.34-3.64-.1-1.19.1-2.25.61-3.18.5-.93,1.46-1.4,2.88-1.4,1.97,0,3.03.98,3.18,2.96.15,2.27-.78,4.5-2.8,6.67-1.21,1.36-2.65,2.32-4.32,2.88,2.88,2.78,4.32,6.24,4.32,10.38s-1.28,7.67-3.83,10.27c-2.55,2.6-6,3.9-10.34,3.9-1.01,0-1.97-.08-2.88-.23-2.22,1.31-3.33,2.68-3.33,4.09-.05.61.14,1.11.57,1.52.43.4,1.07.63,1.93.68l8.49.53Zm-5.76-32.05c-2.17,0-3.8.87-4.89,2.61-1.09,1.74-1.58,4.05-1.48,6.93.1,3.54.91,6.54,2.42,9.02,1.52,2.48,3.49,3.71,5.91,3.71,4.34,0,6.44-3.06,6.29-9.17-.05-3.74-.73-6.86-2.05-9.36-1.31-2.5-3.39-3.75-6.21-3.75Z"/>
    <path class="cls-3" d="m312.66,206.22c-5.05,0-9.27-1.4-12.65-4.21-3.39-2.8-5.15-6.6-5.3-11.4-.05-1.97.78-3.28,2.5-3.94,1.52-.56,2.73-.28,3.64.83.45.61.68,1.36.68,2.27,0,3.74,1,6.73,2.99,8.98,2,2.25,4.69,3.37,8.07,3.37,3.38.05,6.05-.83,7.99-2.65,1.94-1.82,2.89-4.32,2.84-7.5-.05-2.27-.76-4.14-2.12-5.61-1.36-1.46-3.06-2.51-5.08-3.15-2.02-.63-4.22-1.35-6.59-2.16-2.38-.81-4.56-1.65-6.55-2.54-2-.88-3.68-2.35-5.04-4.4s-2.07-4.56-2.12-7.54c-.05-4.09,1.52-7.48,4.7-10.15,3.18-2.68,7.12-4.02,11.82-4.02s8.65,1.09,11.71,3.26c3.06,2.17,4.69,5.1,4.89,8.79.1,1.67-.42,2.91-1.55,3.71-1.14.81-2.32.94-3.56.38-1.24-.56-1.88-1.62-1.93-3.18-.1-2.78-1.04-5.03-2.8-6.74-1.77-1.72-4.07-2.58-6.9-2.58s-5.05.85-6.82,2.54c-1.77,1.69-2.65,3.7-2.65,6.02.05,2.63,1.01,4.69,2.88,6.18,1.87,1.49,4.15,2.61,6.86,3.37,2.7.76,5.41,1.59,8.11,2.5,2.7.91,5.01,2.48,6.93,4.7,1.92,2.22,2.93,5.18,3.03,8.87.1,4.95-1.44,8.85-4.62,11.71-3.18,2.85-7.63,4.28-13.34,4.28Z"/>
    <path class="cls-3" d="m350.02,206.22c-6.72,0-10.08-3.94-10.08-11.82v-20.91h-4.02c-.91,0-1.39-.48-1.44-1.44-.05-.96.3-1.49,1.06-1.59,1.11-.15,2-.38,2.65-.68.66-.3,1.25-.85,1.78-1.63.53-.78.92-1.45,1.17-2.01.25-.56.68-1.67,1.29-3.33.35-.96,1.1-1.44,2.24-1.44s1.71.53,1.71,1.59v6.9h10.68c.96,0,1.44.58,1.44,1.74,0,1.26-.48,1.89-1.44,1.89h-10.46v22.13c0,4.29,1.49,6.44,4.47,6.44,3.54,0,5-2.22,4.4-6.67-.15-1.16.33-1.86,1.44-2.08,1.11-.23,1.79.22,2.05,1.33.81,3.59.4,6.42-1.21,8.49-1.62,2.07-4.19,3.11-7.73,3.11Z"/>
    <path class="cls-3" d="m395.33,198.57c0,1.16.5,2.11,1.52,2.84,1.01.73,1.52,1.33,1.52,1.78,0,.35-.09.63-.27.83-.18.2-.57.38-1.17.53l-6.67,1.59c-1.06.2-1.59-.13-1.59-.99v-3.18c0-.71-.2-1.06-.61-1.06-.2,0-.57.28-1.1.83-.53.56-1.11,1.16-1.74,1.82-.63.66-1.63,1.26-2.99,1.82s-2.91.83-4.62.83c-3.44,0-6.16-1.05-8.18-3.14-2.02-2.1-3.03-5.12-3.03-9.06v-17.28c0-1.16-.51-2.11-1.52-2.84-1.01-.73-1.52-1.33-1.52-1.78,0-.35.09-.63.27-.83.18-.2.57-.38,1.17-.53l6.67-1.59c1.06-.2,1.59.13,1.59.99v23.41c0,5.56,2.37,8.33,7.12,8.33,2.68,0,4.76-1.03,6.25-3.11,1.49-2.07,2.24-4.27,2.24-6.59v-15.46c0-1.16-.51-2.11-1.52-2.84-1.01-.73-1.52-1.33-1.52-1.78,0-.35.09-.63.27-.83.18-.2.57-.38,1.17-.53l6.67-1.59c1.06-.2,1.59.13,1.59.99v28.42Z"/>
    <path class="cls-3" d="m435.87,198.42c0,.76.15,1.39.45,1.89.3.51.66.87,1.06,1.1.4.23.76.49,1.06.8s.45.63.45.98c0,.71-.63,1.19-1.89,1.44l-6.29,1.52c-.61.1-1.04.04-1.29-.19-.25-.23-.33-.64-.23-1.25.15-1.01.1-2.42-.15-4.24-2.02,3.84-5.3,5.76-9.85,5.76s-8.08-1.68-11.06-5.04c-2.98-3.36-4.47-7.84-4.47-13.45s1.52-10.05,4.55-13.49c3.03-3.44,6.49-5.15,10.38-5.15,2.07,0,3.88.48,5.42,1.44,1.54.96,2.68,1.91,3.41,2.84.73.94,1.17,1.4,1.33,1.4.3,0,.45-.28.45-.83v-15.38c0-1.16-.51-2.11-1.52-2.84-1.01-.73-1.52-1.33-1.52-1.78,0-.35.09-.63.27-.83.18-.2.57-.38,1.17-.53l6.67-1.59c1.06-.2,1.59.13,1.59.99v46.45Zm-15.16,3.86c2.47,0,4.48-1.17,6.02-3.52,1.54-2.35,2.31-5.69,2.31-10.04,0-2.78-.29-5.29-.87-7.54-.58-2.25-1.66-4.18-3.22-5.8-1.57-1.62-3.54-2.42-5.91-2.42-2.53,0-4.52,1.24-5.99,3.71-1.47,2.48-2.2,5.86-2.2,10.15,0,4.04.82,7.63,2.46,10.76,1.64,3.13,4.1,4.7,7.39,4.7Z"/>
    <path class="cls-3" d="m459.21,206.22c-4.55,0-8.27-1.69-11.18-5.08-2.91-3.38-4.36-7.93-4.36-13.64s1.53-10.01,4.58-13.37c3.06-3.36,6.98-5.04,11.78-5.04,3.79,0,6.71.88,8.75,2.65,2.05,1.77,3.07,4.07,3.07,6.9.1,6.06-5.3,10.08-16.22,12.05l-4.55.91c1.16,6.01,4.42,9.02,9.77,9.02,2.07,0,3.93-.59,5.57-1.78,1.64-1.19,2.89-2.77,3.75-4.74.2-.5.56-.85,1.06-1.02.5-.18.96-.14,1.36.11.4.25.61.66.61,1.21-.05,1.01-.34,2.13-.87,3.37-.53,1.24-1.31,2.51-2.35,3.83-1.04,1.31-2.5,2.41-4.4,3.3s-4.03,1.33-6.4,1.33Zm-8.64-17.66l5-1.06c3.13-.56,5.56-1.63,7.27-3.22,1.72-1.59,2.58-3.62,2.58-6.1,0-1.77-.44-3.19-1.33-4.28-.88-1.09-2.24-1.63-4.05-1.63-3.13,0-5.57,1.45-7.31,4.36-1.74,2.91-2.46,6.88-2.16,11.93Z"/>
    <path class="cls-3" d="m510.89,200.01c.05.86.54,1.63,1.48,2.31.93.68,1.4,1.3,1.4,1.86,0,.86-.43,1.29-1.29,1.29h-9.85c-.76,0-1.14-.43-1.14-1.29,0-.5.43-1.07,1.29-1.71.86-.63,1.26-1.33,1.21-2.08l-.91-14.55c-.3-4.44-1.09-7.62-2.35-9.51-1.26-1.89-2.98-2.84-5.15-2.84s-3.95.83-5.49,2.5c-1.54,1.67-2.31,3.61-2.31,5.83v17.73c0,1.16.47,2.08,1.4,2.77.93.68,1.4,1.3,1.4,1.86,0,.86-.45,1.29-1.36,1.29h-9.62c-1.01,0-1.52-.43-1.52-1.29,0-.56.5-1.17,1.52-1.86,1.01-.68,1.52-1.6,1.52-2.77v-22.81c0-1.16-.51-2.11-1.52-2.84-1.01-.73-1.52-1.33-1.52-1.78,0-.35.09-.63.27-.83.18-.2.57-.38,1.17-.53l6.67-1.59c1.06-.2,1.59.13,1.59.99v2.42c0,.91.25,1.36.76,1.36.25,0,.74-.4,1.48-1.21.73-.81,1.81-1.62,3.22-2.42,1.41-.81,3.06-1.21,4.93-1.21,6.97,0,10.84,5.2,11.59,15.61l1.14,15.31Z"/>
    <path class="cls-3" d="m530.89,206.22c-6.72,0-10.08-3.94-10.08-11.82v-20.91h-4.02c-.91,0-1.39-.48-1.44-1.44-.05-.96.3-1.49,1.06-1.59,1.11-.15,2-.38,2.65-.68.66-.3,1.25-.85,1.78-1.63.53-.78.92-1.45,1.17-2.01.25-.56.68-1.67,1.29-3.33.35-.96,1.1-1.44,2.24-1.44s1.71.53,1.71,1.59v6.9h10.68c.96,0,1.44.58,1.44,1.74,0,1.26-.48,1.89-1.44,1.89h-10.46v22.13c0,4.29,1.49,6.44,4.47,6.44,3.54,0,5-2.22,4.4-6.67-.15-1.16.33-1.86,1.44-2.08,1.11-.23,1.79.22,2.05,1.33.81,3.59.4,6.42-1.21,8.49-1.62,2.07-4.19,3.11-7.73,3.11Z"/>
    <path class="cls-3" d="m557.41,206.22c-3.69,0-6.58-.87-8.68-2.61-2.1-1.74-3.3-3.73-3.6-5.95-.25-2.12.43-3.44,2.05-3.94,1.31-.4,2.32-.1,3.03.91.25.3.4.68.45,1.14.15,1.82.78,3.49,1.89,5,1.11,1.52,2.93,2.27,5.46,2.27,2.27,0,3.99-.56,5.15-1.67,1.16-1.11,1.74-2.58,1.74-4.4s-.66-3.18-1.97-4.24c-1.31-1.06-2.92-1.88-4.81-2.46-1.89-.58-3.79-1.21-5.68-1.89-1.89-.68-3.5-1.79-4.81-3.33-1.31-1.54-1.97-3.52-1.97-5.95,0-3.03,1.16-5.46,3.49-7.27,2.32-1.82,5.41-2.73,9.24-2.73,3.33,0,6.04.66,8.11,1.97,2.07,1.31,3.21,3.03,3.41,5.15.2,2.02-.53,3.28-2.2,3.79-1.31.4-2.3.18-2.96-.68-.2-.3-.3-.63-.3-.98-.05-1.72-.67-3.18-1.86-4.4-1.19-1.21-2.82-1.82-4.89-1.82-1.77,0-3.16.52-4.17,1.55-1.01,1.04-1.52,2.34-1.52,3.9,0,1.67.66,3.01,1.97,4.02,1.31,1.01,2.92,1.81,4.81,2.39,1.89.58,3.79,1.21,5.68,1.89s3.5,1.79,4.81,3.33c1.31,1.54,1.97,3.5,1.97,5.87,0,3.44-1.24,6.15-3.71,8.15-2.48,2-5.86,2.99-10.15,2.99Z"/>
    <path class="cls-3" d="m580.15,169.02c-.56.51-1.16.67-1.82.49-.66-.18-1.06-.53-1.21-1.06-.15-.53,0-1.07.45-1.63,1.01-.96,1.81-1.96,2.39-2.99.58-1.03.67-1.81.27-2.31-.2-.25-.61-.66-1.21-1.21-.61-.56-1.11-1.12-1.52-1.7-.4-.58-.63-1.22-.68-1.93-.05-1.16.31-2.13,1.1-2.92s1.78-1.2,2.99-1.25c1.31-.1,2.42.25,3.33,1.06.91.81,1.39,2,1.44,3.56.1,1.92-.35,3.99-1.36,6.21-1.01,2.22-2.4,4.12-4.17,5.68Z"/>
    <path class="cls-3" d="m646.52,198.19c.45,1.21,1.12,2.16,2.01,2.84.88.68,1.64,1.23,2.27,1.63.63.4.95.88.95,1.44,0,.91-.53,1.36-1.59,1.36h-12.96c-1.06,0-1.59-.45-1.59-1.36,0-.5.62-1.21,1.86-2.12,1.24-.91,1.65-1.89,1.25-2.96l-3.11-8.87h-19.32l-3.18,8.94c-.25.71-.18,1.31.23,1.82.4.51.92.88,1.55,1.14.63.25,1.22.57,1.78.95.56.38.83.77.83,1.17,0,.86-.56,1.29-1.67,1.29h-10.46c-1.11,0-1.67-.45-1.67-1.36,0-.45.21-.86.64-1.21.43-.35.93-.66,1.52-.91.58-.25,1.19-.71,1.82-1.36.63-.66,1.12-1.46,1.48-2.42l15.91-43.57c.4-.96.99-1.44,1.74-1.44h2.2c.61,0,1.06.38,1.36,1.14l16.14,43.87Zm-28.95-11.52h16.82l-8.33-23.64-8.49,23.64Z"/>
    <path class="cls-3" d="m667.74,206.22c-3.69,0-6.58-.87-8.68-2.61-2.1-1.74-3.3-3.73-3.6-5.95-.25-2.12.43-3.44,2.05-3.94,1.31-.4,2.32-.1,3.03.91.25.3.4.68.45,1.14.15,1.82.78,3.49,1.89,5,1.11,1.52,2.93,2.27,5.46,2.27,2.27,0,3.99-.56,5.15-1.67,1.16-1.11,1.74-2.58,1.74-4.4s-.66-3.18-1.97-4.24c-1.31-1.06-2.92-1.88-4.81-2.46-1.89-.58-3.79-1.21-5.68-1.89-1.89-.68-3.5-1.79-4.81-3.33-1.31-1.54-1.97-3.52-1.97-5.95,0-3.03,1.16-5.46,3.49-7.27,2.32-1.82,5.41-2.73,9.24-2.73,3.33,0,6.04.66,8.11,1.97,2.07,1.31,3.21,3.03,3.41,5.15.2,2.02-.53,3.28-2.2,3.79-1.31.4-2.3.18-2.96-.68-.2-.3-.3-.63-.3-.98-.05-1.72-.67-3.18-1.86-4.4-1.19-1.21-2.82-1.82-4.89-1.82-1.77,0-3.16.52-4.17,1.55-1.01,1.04-1.52,2.34-1.52,3.9,0,1.67.66,3.01,1.97,4.02,1.31,1.01,2.92,1.81,4.81,2.39,1.89.58,3.79,1.21,5.68,1.89s3.5,1.79,4.81,3.33c1.31,1.54,1.97,3.5,1.97,5.87,0,3.44-1.24,6.15-3.71,8.15-2.48,2-5.86,2.99-10.15,2.99Z"/>
    <path class="cls-3" d="m699.79,206.22c-3.69,0-6.58-.87-8.68-2.61-2.1-1.74-3.3-3.73-3.6-5.95-.25-2.12.43-3.44,2.05-3.94,1.31-.4,2.32-.1,3.03.91.25.3.4.68.45,1.14.15,1.82.78,3.49,1.89,5,1.11,1.52,2.93,2.27,5.46,2.27,2.27,0,3.99-.56,5.15-1.67,1.16-1.11,1.74-2.58,1.74-4.4s-.66-3.18-1.97-4.24c-1.31-1.06-2.92-1.88-4.81-2.46-1.89-.58-3.79-1.21-5.68-1.89-1.89-.68-3.5-1.79-4.81-3.33-1.31-1.54-1.97-3.52-1.97-5.95,0-3.03,1.16-5.46,3.49-7.27,2.32-1.82,5.41-2.73,9.24-2.73,3.33,0,6.04.66,8.11,1.97,2.07,1.31,3.21,3.03,3.41,5.15.2,2.02-.53,3.28-2.2,3.79-1.31.4-2.3.18-2.96-.68-.2-.3-.3-.63-.3-.98-.05-1.72-.67-3.18-1.86-4.4-1.19-1.21-2.82-1.82-4.89-1.82-1.77,0-3.16.52-4.17,1.55-1.01,1.04-1.52,2.34-1.52,3.9,0,1.67.66,3.01,1.97,4.02,1.31,1.01,2.92,1.81,4.81,2.39,1.89.58,3.79,1.21,5.68,1.89s3.5,1.79,4.81,3.33c1.31,1.54,1.97,3.5,1.97,5.87,0,3.44-1.24,6.15-3.71,8.15-2.48,2-5.86,2.99-10.15,2.99Z"/>
    <path class="cls-3" d="m736.01,206.22c-4.9,0-8.92-1.73-12.05-5.19-3.13-3.46-4.7-7.92-4.7-13.37s1.57-9.91,4.7-13.37c3.13-3.46,7.15-5.19,12.05-5.19s8.83,1.73,11.93,5.19c3.11,3.46,4.66,7.92,4.66,13.37s-1.55,9.91-4.66,13.37c-3.11,3.46-7.08,5.19-11.93,5.19Zm.76-3.18c5.66,0,8.49-4.22,8.49-12.65,0-5.1-.83-9.4-2.5-12.88-1.67-3.49-4.27-5.23-7.8-5.23-2.68,0-4.74,1.17-6.18,3.52-1.44,2.35-2.16,5.49-2.16,9.43,0,4.9.92,9.09,2.77,12.58,1.84,3.49,4.31,5.23,7.39,5.23Z"/>
    <path class="cls-3" d="m774.28,206.22c-4.55,0-8.35-1.69-11.4-5.08-3.06-3.38-4.58-7.85-4.58-13.41,0-5.2,1.58-9.61,4.74-13.22,3.16-3.61,6.96-5.42,11.4-5.42s7.53,1.11,9.7,3.33c2.17,2.22,3.21,4.5,3.11,6.82-.05,1.47-.44,2.55-1.17,3.26-.73.71-1.55,1.06-2.46,1.06s-1.64-.29-2.2-.87c-.56-.58-.83-1.45-.83-2.61,0-2.22-.59-4.08-1.78-5.57-1.19-1.49-2.84-2.24-4.96-2.24-2.78,0-4.91,1.33-6.4,3.98-1.49,2.65-2.24,5.7-2.24,9.13,0,4.7.99,8.4,2.96,11.1,1.97,2.7,4.72,4.05,8.26,4.05,1.41,0,2.69-.25,3.83-.76,1.14-.5,2.02-1.15,2.65-1.93.63-.78,1.1-1.48,1.4-2.08.3-.61.53-1.19.68-1.74.35-.96.97-1.34,1.86-1.14.88.2,1.22.86,1.02,1.97-.56,3.23-2,5.94-4.32,8.11-2.32,2.17-5.41,3.26-9.24,3.26Z"/>
    <path class="cls-3" d="m802.62,199.55c0,1.16.49,2.08,1.48,2.77.99.68,1.48,1.3,1.48,1.86,0,.86-.51,1.29-1.52,1.29h-9.62c-1.01,0-1.52-.43-1.52-1.29,0-.56.5-1.17,1.52-1.86,1.01-.68,1.52-1.6,1.52-2.77v-22.81c0-1.16-.51-2.11-1.52-2.84-1.01-.73-1.52-1.33-1.52-1.78,0-.35.09-.63.27-.83.18-.2.57-.38,1.17-.53l6.67-1.59c1.06-.2,1.59.13,1.59.99v29.4Zm-4.47-36.45c-1.26,0-2.3-.45-3.11-1.36-.81-.91-1.16-1.97-1.06-3.18.1-1.21.66-2.27,1.67-3.18,1.01-.91,2.12-1.36,3.33-1.36s2.24.45,3.07,1.36,1.2,1.97,1.1,3.18c-.1,1.26-.66,2.34-1.67,3.22-1.01.88-2.12,1.33-3.33,1.33Z"/>
    <path class="cls-3" d="m822.85,206.22c-3.59,0-6.49-1-8.71-2.99-2.22-2-3.33-4.74-3.33-8.22s1.19-6.05,3.56-7.99c2.37-1.94,5.48-2.92,9.32-2.92,2.93,0,5.35.78,7.27,2.35.4.25.68.38.83.38.3,0,.43-.3.38-.91l-.38-4.24c-.2-2.73-.88-4.81-2.05-6.25-1.16-1.44-3.01-2.16-5.53-2.16-3.39,0-6.01,1.92-7.88,5.76-.4.86-1.09,1.29-2.05,1.29-.51,0-.96-.18-1.36-.53-.4-.35-.61-.83-.61-1.44,0-1.87,1.33-3.88,3.98-6.02,2.65-2.15,5.59-3.22,8.83-3.22,8.34,0,12.83,4.27,13.49,12.81l1.29,17.66c.1,1.21.3,2.03.61,2.46.3.43.93.64,1.89.64,1.46,0,2.2.48,2.2,1.44,0,1.41-1.39,2.12-4.17,2.12-2.12,0-3.74-.38-4.85-1.14-1.11-.76-1.87-2.07-2.27-3.94-.66,1.31-1.91,2.49-3.75,3.52-1.84,1.03-4.08,1.55-6.71,1.55Zm-2.96-5.8c1.41,1.39,3.23,2.08,5.46,2.08s4-.68,5.34-2.05c1.34-1.36,2.01-3.26,2.01-5.68s-.72-4.17-2.16-5.53c-1.44-1.36-3.3-2.05-5.57-2.05s-3.98.62-5.27,1.86c-1.29,1.24-1.93,3.09-1.93,5.57s.71,4.41,2.12,5.8Z"/>
    <path class="cls-3" d="m859.9,206.22c-6.72,0-10.08-3.94-10.08-11.82v-20.91h-4.02c-.91,0-1.39-.48-1.44-1.44-.05-.96.3-1.49,1.06-1.59,1.11-.15,2-.38,2.65-.68.66-.3,1.25-.85,1.78-1.63.53-.78.92-1.45,1.17-2.01.25-.56.68-1.67,1.29-3.33.35-.96,1.1-1.44,2.24-1.44s1.71.53,1.71,1.59v6.9h10.68c.96,0,1.44.58,1.44,1.74,0,1.26-.48,1.89-1.44,1.89h-10.46v22.13c0,4.29,1.49,6.44,4.47,6.44,3.54,0,5-2.22,4.4-6.67-.15-1.16.33-1.86,1.44-2.08,1.11-.23,1.79.22,2.05,1.33.81,3.59.4,6.42-1.21,8.49-1.62,2.07-4.19,3.11-7.73,3.11Z"/>
    <path class="cls-3" d="m883.62,199.55c0,1.16.49,2.08,1.48,2.77.99.68,1.48,1.3,1.48,1.86,0,.86-.5,1.29-1.52,1.29h-9.62c-1.01,0-1.52-.43-1.52-1.29,0-.56.5-1.17,1.52-1.86,1.01-.68,1.52-1.6,1.52-2.77v-22.81c0-1.16-.51-2.11-1.52-2.84-1.01-.73-1.52-1.33-1.52-1.78,0-.35.09-.63.27-.83.18-.2.57-.38,1.17-.53l6.67-1.59c1.06-.2,1.59.13,1.59.99v29.4Zm-4.47-36.45c-1.26,0-2.3-.45-3.11-1.36-.81-.91-1.16-1.97-1.06-3.18s.66-2.27,1.67-3.18c1.01-.91,2.12-1.36,3.33-1.36s2.24.45,3.07,1.36c.83.91,1.2,1.97,1.1,3.18-.1,1.26-.66,2.34-1.67,3.22-1.01.88-2.12,1.33-3.33,1.33Z"/>
    <path class="cls-3" d="m908.09,206.22c-4.9,0-8.92-1.73-12.05-5.19-3.13-3.46-4.7-7.92-4.7-13.37s1.56-9.91,4.7-13.37c3.13-3.46,7.15-5.19,12.05-5.19s8.83,1.73,11.93,5.19c3.11,3.46,4.66,7.92,4.66,13.37s-1.55,9.91-4.66,13.37c-3.11,3.46-7.08,5.19-11.93,5.19Zm.76-3.18c5.66,0,8.49-4.22,8.49-12.65,0-5.1-.83-9.4-2.5-12.88-1.67-3.49-4.27-5.23-7.81-5.23-2.68,0-4.74,1.17-6.17,3.52-1.44,2.35-2.16,5.49-2.16,9.43,0,4.9.92,9.09,2.77,12.58,1.84,3.49,4.31,5.23,7.39,5.23Z"/>
    <path class="cls-3" d="m963.03,200.01c.05.86.54,1.63,1.48,2.31.93.68,1.4,1.3,1.4,1.86,0,.86-.43,1.29-1.29,1.29h-9.85c-.76,0-1.14-.43-1.14-1.29,0-.5.43-1.07,1.29-1.71.86-.63,1.26-1.33,1.21-2.08l-.91-14.55c-.3-4.44-1.09-7.62-2.35-9.51-1.26-1.89-2.98-2.84-5.15-2.84s-3.95.83-5.49,2.5c-1.54,1.67-2.31,3.61-2.31,5.83v17.73c0,1.16.47,2.08,1.4,2.77.93.68,1.4,1.3,1.4,1.86,0,.86-.45,1.29-1.36,1.29h-9.62c-1.01,0-1.52-.43-1.52-1.29,0-.56.5-1.17,1.52-1.86,1.01-.68,1.52-1.6,1.52-2.77v-22.81c0-1.16-.51-2.11-1.52-2.84-1.01-.73-1.52-1.33-1.52-1.78,0-.35.09-.63.27-.83.18-.2.57-.38,1.17-.53l6.67-1.59c1.06-.2,1.59.13,1.59.99v2.42c0,.91.25,1.36.76,1.36.25,0,.75-.4,1.48-1.21.73-.81,1.81-1.62,3.22-2.42,1.41-.81,3.06-1.21,4.92-1.21,6.97,0,10.84,5.2,11.59,15.61l1.14,15.31Z"/>
  </g>
</svg>