<?xml version="1.0" encoding="UTF-8"?>
<svg id="Capa_1" data-name="Capa 1" xmlns="http://www.w3.org/2000/svg" viewBox="0 0 586 827">
  <defs>
    <style>
      .cls-1 {
        fill: #fff;
      }

      .cls-2 {
        fill: #8fbd49;
      }

      .cls-3 {
        fill: #0c594c;
      }

      .cls-4 {
        fill: #0c594b;
      }
    </style>
  </defs>
  <rect class="cls-2" width="586" height="827"/>
  <polygon class="cls-4" points="-110.72 -50.73 -110.72 88.92 -98.12 100.68 -13.38 133.19 76.85 206.23 124.11 197.64 154.18 201.93 188.07 209.08 149.45 310.46 130.14 368.39 197.73 489.09 274.97 537.37 250.83 682.2 212.21 827.03 212.21 913.78 262.74 913.78 274.97 880.14 323.25 802.89 390.84 769.1 526.02 614.61 583.95 600.13 634.58 513.87 634.58 353.08 535.67 320.12 482.57 242.87 323.25 175.28 238.69 165.17 192.85 201.93 175.67 171.86 132.7 167.56 101.17 122.18 64.28 83.55 77.03 49.76 45.2 21.85 -.21 47.72 -43.66 18.76 -40.79 -35.48 -69.67 -50.73 -110.72 -50.73"/>
  <polygon class="cls-4" points="86.9 -50.73 92.63 -15.12 126.28 -20.53 180.55 6.15 231.47 11.12 236.88 -44.39 196.05 -48.37 191.26 -50.73 86.9 -50.73"/>
  <rect class="cls-4" x="245.39" y="1.13" width="30.71" height="55.77"/>
  <rect class="cls-4" x="293.83" y="-20.37" width="29.11" height="55.77"/>
  <g>
    <g>
      <circle class="cls-1" cx="294.77" cy="374.82" r="245.17"/>
      <g>
        <g>
          <path class="cls-3" d="m85.14,437.54l-1.14-4.8,32.94-7.85-4.46-18.71,4.22-1,5.6,23.5-37.15,8.85Z"/>
          <path class="cls-3" d="m109.12,400.69c-4.81.28-8.62-3.62-10.02-11.68l-1.36-7.52-1.08.06c-3.68.21-5.9,3-5.64,7.49.24,4.11,2.4,6.7,5.8,6.45l.26,4.54c-5.79.34-9.73-3.94-10.13-10.81-.41-7.09,3.33-11.81,9.55-12.17l18.12-1.05.26,4.49-4,.23.03.49c3.25,1.76,5.17,4.85,5.42,9.24.34,5.9-2.51,9.97-7.22,10.24Zm-5.1-19.57l-2.43.14,1.31,7.52c1.03,5.53,3.32,7.57,5.86,7.42,2.6-.15,4.03-2.51,3.82-6.19-.32-5.57-3.95-9.16-8.55-8.89Z"/>
          <path class="cls-3" d="m108.37,363.73l-16.67-1.54-.41,4.42-3.56-.33.41-4.42-8.7-1.84.32-3.51,8.79.87.65-7.01,3.56.33-.65,7.01,16.51,1.52c2.59.24,4.57-1.21,4.81-3.8.07-.81-.01-2.23-.24-3.29l3.62.33c.31,1.33.42,3.14.29,4.49-.42,4.59-3.93,7.2-8.73,6.75Z"/>
          <path class="cls-3" d="m82.8,337.41c-1.8-.36-2.81-1.95-2.44-3.8.37-1.86,1.9-2.88,3.71-2.51,1.86.37,2.93,1.91,2.55,3.77-.37,1.86-1.97,2.92-3.83,2.54Zm8.47.71l.89-4.41,26.81,5.39-.89,4.41-26.81-5.39Z"/>
          <path class="cls-3" d="m95.2,319.99l1.48-4.25,3.53,1.23.18-.51c-2.22-2.84-2.87-6.27-1.67-9.7,2.28-6.55,8.55-9.07,15.09-6.8l15.45,5.37-1.48,4.25-15.45-5.37c-4.35-1.51-8.43,0-9.98,4.45-1.51,4.35.57,9.26,5.07,10.82l15.1,5.25-1.48,4.25-25.84-8.98Z"/>
          <path class="cls-3" d="m109.52,260.96l15.01-21.49,3.55,2.48-12.16,17.41,9.77,6.82,10.91-15.63,3.55,2.48-10.91,15.63,10.88,7.6,12.46-17.85,3.55,2.48-15.32,21.94-31.31-21.86Z"/>
          <path class="cls-3" d="m142.5,235.28l3.23-3.13,2.6,2.69.39-.38c-.71-3.54.27-6.89,2.88-9.41,4.98-4.82,11.72-4.25,16.54.73l11.37,11.76-3.23,3.13-11.38-11.76c-3.2-3.31-7.52-3.81-10.91-.53-3.31,3.2-3.67,8.52-.35,11.95l11.11,11.49-3.23,3.13-19.02-19.66Z"/>
          <path class="cls-3" d="m188.02,236.21l2.87-3.85c3.51,2.76,7.78,2.98,11.88.35,5.01-3.23,6.21-8.57,2.9-13.72l-1.99-3.1-.46.29c-.36,3.84-2.14,7.18-5.74,9.49-6.93,4.46-15.19,2.62-19.73-4.44-4.57-7.11-2.93-15.57,3.99-20.03,3.69-2.37,7.5-2.57,11.1-1.28l.46-.29-2.11-3.28,3.74-2.4,14.54,22.6c4.63,7.2,2.76,14.9-4.66,19.68-5.92,3.81-12.14,3.75-16.77-.03Zm10.64-28.42c-3.34-5.19-9.42-6.63-14.34-3.46-4.97,3.19-6.13,9.29-2.79,14.49,3.25,5.06,9.26,6.48,14.22,3.28,4.97-3.19,6.16-9.25,2.91-14.3Z"/>
          <path class="cls-3" d="m203.37,180.63c-.76-1.68-.07-3.42,1.65-4.21,1.73-.79,3.45-.14,4.21,1.54.79,1.73.16,3.5-1.56,4.28-1.73.79-3.52.12-4.31-1.61Zm4.39,7.29l4.09-1.87,11.34,24.9-4.09,1.86-11.34-24.9Z"/>
          <path class="cls-3" d="m224.71,180.5l4.31-1.3,1.08,3.58.52-.16c1-3.47,3.4-6,6.88-7.05,6.64-2,12.36,1.6,14.36,8.24l4.71,15.67-4.31,1.29-4.71-15.67c-1.33-4.41-4.94-6.83-9.46-5.47-4.41,1.33-7.17,5.89-5.8,10.46l4.6,15.31-4.31,1.3-7.88-26.21Z"/>
          <path class="cls-3" d="m262.36,183.94c-.84-8.3,4.59-14.95,12.99-15.8,8.3-.84,14.89,4.59,15.74,12.95.05.54.12,1.19.13,1.78l-24.09,2.44c1.2,5.43,5.56,8.69,11.11,8.13,4.04-.41,7.39-2.82,8.79-6.22l3.91,1.51c-1.74,4.86-6.36,8.16-12.4,8.77-8.51.86-15.3-4.82-16.18-13.55Zm23.82-4.53c-1.3-4.82-5.46-7.72-10.64-7.2-5.01.51-8.51,4.18-8.76,9.16l19.4-1.96Z"/>
          <path class="cls-3" d="m300.46,181.03c.8-8.31,7.43-13.76,15.84-12.95,8.31.8,13.71,7.42,12.9,15.78-.05.54-.11,1.19-.23,1.77l-24.1-2.33c.11,5.56,3.75,9.62,9.3,10.15,4.04.39,7.8-1.32,9.84-4.38l3.54,2.25c-2.66,4.42-7.84,6.75-13.88,6.17-8.52-.82-14.06-7.73-13.21-16.46Zm24.26.22c-.33-4.99-3.85-8.64-9.02-9.14-5.01-.49-9.16,2.43-10.39,7.27l19.41,1.88Z"/>
          <path class="cls-3" d="m342.86,173.38l4.24,1.12-.93,3.56.47.13c1.84-2.1,5.22-3,8.15-2.23,1.21.32,2.39.91,3.07,1.53l-1.06,4.03c-1.21-.93-2.73-1.56-3.72-1.82-3.98-1.05-7.69,1.79-9.07,7.03l-3.74,14.25-4.35-1.14,6.95-26.46Z"/>
          <path class="cls-3" d="m368.25,181.05l4.2,1.6-9.72,25.56-4.2-1.6,9.72-25.56Zm2.09-8.24c.65-1.72,2.38-2.45,4.15-1.78,1.77.67,2.52,2.35,1.87,4.07-.67,1.77-2.37,2.58-4.14,1.9s-2.56-2.42-1.88-4.19Z"/>
          <path class="cls-3" d="m385.47,187.87l3.95,2.15-1.79,3.28.47.26c3.17-1.73,6.66-1.8,9.85-.06,6.09,3.32,7.55,9.92,4.23,16.01l-7.83,14.37-3.95-2.15,7.83-14.37c2.21-4.04,1.39-8.32-2.75-10.57-4.04-2.21-9.23-.96-11.51,3.23l-7.65,14.04-3.95-2.15,13.1-24.03Z"/>
          <path class="cls-3" d="m398.14,231.56l4.53,1.58c-1.58,4.19-.5,8.32,3.25,11.43,4.58,3.81,10.04,3.34,13.95-1.36l2.35-2.83-.42-.35c-3.77.81-7.49.11-10.78-2.62-6.33-5.26-7.07-13.7-1.71-20.15,5.4-6.5,13.96-7.48,20.3-2.22,3.37,2.81,4.7,6.38,4.56,10.2l.42.35,2.49-3,3.42,2.84-17.17,20.67c-5.47,6.58-13.38,7.12-20.17,1.48-5.42-4.5-7.24-10.45-5.02-16Zm30.31,1.59c3.95-4.75,3.49-10.98-1.01-14.72-4.54-3.77-10.71-3.05-14.66,1.7-3.84,4.63-3.39,10.78,1.15,14.55,4.54,3.77,10.67,3.09,14.52-1.53Z"/>
          <path class="cls-3" d="m449.42,257.23l2.68,4.07c-4.9,3.29-5.55,8.71-1.62,14.68,3.42,5.2,7.68,6.75,11.26,4.39,4.39-2.89,2.2-7.8-.19-13.1-2.88-6.34-5.56-13.66,1.37-18.22,5.75-3.78,12.39-1.87,17.46,5.82,5.15,7.83,4.21,15.26-2.51,19.74l-2.62-3.98c4.53-2.98,5.11-7.9,1.51-13.38-3.4-5.16-7.46-6.5-10.9-4.24-4.21,2.77-2.18,7.53.2,12.71,2.87,6.42,5.92,13.81-1.32,18.58-5.97,3.93-12.74,1.83-17.89-5.99-5.51-8.37-4.52-16.42,2.59-21.09Z"/>
          <path class="cls-3" d="m466.86,297.08l15.29-6.81-1.81-4.06,3.27-1.46,1.8,4.06,8.49-2.65,1.43,3.22-8.09,3.54,2.87,6.43-3.27,1.45-2.87-6.43-15.14,6.74c-2.37,1.06-3.4,3.29-2.34,5.67.33.74,1.1,1.94,1.82,2.75l-3.31,1.47c-.93-1.01-1.9-2.53-2.45-3.77-1.87-4.2-.09-8.2,4.31-10.16Z"/>
          <path class="cls-3" d="m474.63,342.27l-1.15-4.34,3.61-.96-.14-.52c-3.37-1.07-5.83-3.61-6.75-7.06-1.8-6.75,1.95-12.29,8.7-14.08l15.76-4.19,1.15,4.34-15.75,4.19c-4.5,1.2-7,4.66-5.79,9.22,1.18,4.45,5.6,7.37,10.26,6.13l15.39-4.09,1.16,4.34-26.44,7.02Z"/>
          <path class="cls-3" d="m489.9,349.23c8.55-.54,15.1,5.18,15.6,13.19.28,4.38-1.33,8.12-4.51,10.33l.03.54,16.49-1.04.29,4.49-39.75,2.51-.28-4.49,4.22-.27-.03-.54c-3.48-1.79-5.65-5.18-5.93-9.62-.5-8.01,5.33-14.57,13.87-15.11Zm1.57,24.77c6-.38,10.39-4.95,10.01-10.79-.37-5.9-5.29-9.88-11.3-9.5-6.11.39-10.44,5.01-10.07,10.85.37,5.84,5.35,9.82,11.35,9.44Z"/>
          <path class="cls-3" d="m491.72,389.05c8.26,1.14,13.44,7.97,12.29,16.34-1.14,8.26-7.97,13.39-16.28,12.24-.54-.07-1.18-.16-1.76-.3l3.3-23.97c-5.56-.11-9.75,3.36-10.51,8.88-.56,4.02.99,7.84,3.98,10l-2.39,3.44c-4.31-2.84-6.43-8.1-5.6-14.11,1.17-8.47,8.29-13.72,16.97-12.53Zm-1.21,24.21c4.99-.13,8.79-3.49,9.5-8.64.69-4.99-2.06-9.25-6.84-10.67l-2.66,19.31Z"/>
          <path class="cls-3" d="m497.72,432.27l-1.44,4.26-3.54-1.2-.17.51c2.24,2.82,2.91,6.25,1.75,9.69-2.23,6.56-8.48,9.13-15.04,6.91l-15.49-5.26,1.45-4.26,15.49,5.26c4.36,1.48,8.43-.06,9.94-4.52,1.48-4.36-.63-9.25-5.15-10.78l-15.13-5.13,1.45-4.26,25.9,8.79Z"/>
          <path class="cls-3" d="m464.87,460.7l14.82,7.77,2.06-3.93,3.17,1.66-2.06,3.93,7.34,5.01-1.63,3.12-7.8-4.15-3.27,6.24-3.17-1.66,3.27-6.24-14.68-7.7c-2.3-1.21-4.69-.62-5.9,1.68-.38.72-.84,2.07-1.03,3.13l-3.22-1.68c.22-1.35.81-3.06,1.44-4.26,2.14-4.08,6.37-5.16,10.64-2.92Z"/>
          <path class="cls-3" d="m457.02,479.74l-2.55,3.5c-3.18-2.26-7.12-1.37-10.15,2.78-2.43,3.33-2.6,6.49-.28,8.19,2.89,2.11,5.31-.75,8.18-3.76,3.49-3.76,8.06-7.73,13.09-4.06,4.29,3.13,4.29,8.64.43,13.93-4.03,5.51-9.71,7.13-14.26,3.81l2.59-3.54c2.74,1.94,6.14.87,8.64-2.55,2.33-3.19,2.49-6.44.21-8.1-2.75-2.01-5.15.8-7.94,3.79-3.56,3.77-8.09,7.78-13.39,3.91-4.33-3.16-4.37-8.35-.24-14,4.63-6.34,10.42-7.75,15.67-3.91Z"/>
          <path class="cls-3" d="m452.29,516.03l2.94,6.09c1.19-.82,2.65-.73,3.77.3,1.24,1.13,1.35,2.86.14,4.17-1.17,1.28-2.94,1.35-4.17.22-.56-.51-.93-1.15-1.31-2.02l-3.27-7.49,1.9-1.27Z"/>
          <path class="cls-3" d="m422.06,556.7l-5.57,3.76-33.21-23.66,3.91-2.64,7.49,5.27,16.11-10.9-2.1-8.91,3.91-2.64,9.46,39.72Zm-23.94-14.69l18.54,13.1.4-.27-5.21-22.12-13.73,9.29Z"/>
          <path class="cls-3" d="m382.52,546.93l-3.96,1.76c-1.64-3.54-5.49-4.73-10.19-2.64-3.76,1.67-5.48,4.34-4.31,6.96,1.45,3.27,4.98,1.99,8.96.81,4.9-1.53,10.84-2.69,13.37,3,2.16,4.85-.57,9.62-6.57,12.29-6.23,2.78-11.97,1.36-14.26-3.79l4.01-1.79c1.42,3.05,4.9,3.81,8.76,2.09,3.61-1.61,5.36-4.34,4.22-6.92-1.39-3.12-4.86-1.87-8.77-.66-4.97,1.5-10.89,2.71-13.55-3.28-2.18-4.9.37-9.42,6.76-12.26,7.18-3.2,12.9-1.53,15.54,4.41Z"/>
          <path class="cls-3" d="m352.53,559.22l-4.21,1.03c-.97-3.78-4.55-5.64-9.55-4.42-4,.97-6.17,3.29-5.49,6.08.84,3.48,4.54,2.85,8.67,2.41,5.09-.63,11.15-.71,12.62,5.35,1.26,5.16-2.29,9.37-8.66,10.92-6.63,1.61-12.02-.81-13.35-6.29l4.27-1.04c.84,3.25,4.13,4.63,8.24,3.63,3.84-.94,6.05-3.31,5.38-6.05-.81-3.31-4.45-2.71-8.51-2.22-5.16.58-11.2.72-12.75-5.65-1.27-5.21,2.05-9.2,8.84-10.85,7.63-1.86,12.96.8,14.5,7.12Z"/>
          <path class="cls-3" d="m321.49,570.72c.46,8.6-5.26,15.04-13.86,15.5-8.54.46-14.98-5.32-15.45-13.92-.47-8.65,5.31-15.09,13.86-15.56,8.6-.46,14.98,5.32,15.45,13.97Zm-24.82,1.34c.33,6.16,4.85,10.42,10.74,10.11,5.95-.32,9.92-5.04,9.59-11.2-.33-6.22-4.79-10.48-10.74-10.16-5.89.32-9.92,5.04-9.59,11.26Z"/>
          <path class="cls-3" d="m282.95,571.83c-1.2,8.48-7.96,13.76-16.16,12.61-6.65-.94-11.59-5.9-11.79-11.84l4.43.02c.41,4.05,3.75,7.2,7.88,7.78,5.52.78,10.37-2.97,11.2-9.2.88-6.28-2.64-11.2-8.16-11.98-4.24-.6-8.2,1.53-9.81,5.18l-4.32-1.21c2.04-5.57,8.2-8.91,14.69-8,8.21,1.16,13.29,8.16,12.05,16.63Z"/>
          <path class="cls-3" d="m240.02,586.47c-.51,1.77-2.16,2.65-3.99,2.13-1.82-.52-2.72-2.13-2.21-3.9.52-1.82,2.14-2.77,3.96-2.25,1.82.52,2.75,2.19,2.24,4.01Zm1.38-8.39l-4.32-1.23,7.49-26.3,4.32,1.23-7.49,26.3Z"/>
          <path class="cls-3" d="m233.9,554.82c-1.9,4.43-7.1,6.09-14.92,3.73l-7.33-2.15-.43,1c-1.46,3.38.04,6.62,4.17,8.4,3.78,1.62,7.06.85,8.36-2.3l4.18,1.8c-2.29,5.33-7.87,6.93-14.19,4.22-6.52-2.8-9.07-8.26-6.61-13.98l7.16-16.67,4.13,1.78-1.58,3.68.45.19c3.03-2.12,6.65-2.45,10.68-.71,5.42,2.33,7.79,6.71,5.92,11.04Zm-19.77-4.2l-.96,2.24,7.31,2.2c5.4,1.56,8.25.42,9.26-1.92,1.03-2.39-.44-4.73-3.83-6.18-5.12-2.2-9.96-.57-11.77,3.66Z"/>
          <path class="cls-3" d="m200.51,538.99l-8.81,14.23,3.78,2.34-1.88,3.04-3.78-2.34-5.52,6.97-3-1.85,4.7-7.48-5.99-3.71,1.88-3.04,5.99,3.71,8.73-14.1c1.37-2.21.96-4.63-1.26-6-.69-.43-2-.99-3.05-1.25l1.91-3.09c1.33.32,3,1.03,4.15,1.74,3.92,2.42,4.69,6.73,2.15,10.83Z"/>
          <path class="cls-3" d="m165.58,550.16c-1.13,1.45-3,1.65-4.49.49-1.5-1.16-1.73-2.98-.6-4.44,1.16-1.5,3.02-1.77,4.51-.61,1.5,1.16,1.74,3.06.58,4.56Zm4.41-7.27l-3.55-2.76,16.77-21.6,3.55,2.76-16.77,21.6Z"/>
          <path class="cls-3" d="m166.19,522.81c-6.19,5.98-14.81,5.87-20.79-.33-5.94-6.16-5.79-14.81.4-20.79,6.23-6.02,14.89-5.87,20.83.29,5.98,6.19,5.79,14.81-.44,20.83Zm-17.27-17.88c-4.44,4.29-4.7,10.49-.6,14.74,4.14,4.28,10.31,4.2,14.75-.09,4.48-4.33,4.78-10.49.64-14.77-4.1-4.25-10.31-4.2-14.79.12Z"/>
          <path class="cls-3" d="m127.95,500.67l-2.44-3.77,3.14-2.03-.29-.45c-3.6.01-6.71-1.59-8.68-4.64-3.77-5.82-1.91-12.31,3.91-16.08l13.73-8.89,2.44,3.77-13.73,8.89c-3.86,2.5-5.18,6.64-2.62,10.6,2.5,3.86,7.65,5.24,11.65,2.65l13.41-8.68,2.44,3.77-22.95,14.86Z"/>
        </g>
        <g>
          <g>
            <polygon class="cls-2" points="250.92 342.56 260.9 339.44 267.59 344.51 274.31 331.96 294.11 326.19 336.03 326.12 355.2 338.29 392.06 335.3 399.03 345.7 392.54 396.1 381.01 404.83 365.56 452.09 353.7 466.04 350.28 487.84 351.02 501.5 340.42 503.48 331.25 481.96 326.11 446.02 317.73 411.46 295.94 408.03 269.42 387.55 268.22 372.81 267.2 346.55 258.97 348.18 251.86 350.08 242.14 356.48 215.1 348.77 193.13 349.57 159.65 337.42 144.43 314.97 167.16 311.64 192.98 313.79 197.49 326.15 209.92 328.48 217.58 318.4 227.33 321.6 227.69 330.34 239.58 335.44 250.92 342.56"/>
            <polygon class="cls-2" points="258.07 298.32 246.25 302.05 231.63 301.26 224.64 305.66 217.44 294.23 228.07 287.53 244.53 288.43 254.01 285.44 258.07 298.32"/>
            <rect class="cls-2" x="262.58" y="292.77" width="7.44" height="13.51" transform="translate(-96.1 128.36) rotate(-23.08)"/>
            <rect class="cls-2" x="271.34" y="283.46" width="7.05" height="13.51" transform="translate(-91.76 130.98) rotate(-23.08)"/>
          </g>
          <g>
            <g>
              <polygon class="cls-1" points="178.81 371.11 205.27 359.84 240.05 445.48 215.42 455.97 178.81 371.11"/>
              <path class="cls-3" d="m203.34,364.5l32.12,79.08-18.19,7.75-33.8-78.36,19.87-8.47m3.85-9.34l-6.63,2.82-19.87,8.47-6.54,2.79,2.82,6.53,33.8,78.36,2.79,6.47,6.49-2.76,18.19-7.75,6.41-2.73-2.62-6.45-32.12-79.08-2.71-6.67h0Z"/>
            </g>
            <g>
              <path class="cls-1" d="m229.29,415.62l-4.05-25.46,10.09-19.15,23.29-10.14,19.31,4.52,16.34,16.73-37.25,27.65,3.77,3.37,7.03-.75,6.33-5.95,1-6.85,26.46-4.23-6.2,23.2-16.32,13.86-30.23,2.38-19.57-19.19Zm24.43-27.18l1.61-1.25-1.6-.27v1.52Z"/>
              <path class="cls-3" d="m258.96,364.58l17.16,4.02,12.78,13.09-37.48,27.82,8.17,7.32,9.78-1.04,8.1-7.61.8-5.49,18.51-2.96-4.51,16.86-14.61,12.4-27.48,2.16-17.59-17.24-3.68-23.14,8.96-17.01,21.07-9.17m-8.81,31.11l13.73-10.63-13.66-2.33-.07,12.96m8.14-38.54l-2.15.94-21.07,9.17-2.28.99-1.16,2.2-8.96,17.01-1.1,2.09.37,2.33,3.68,23.14.37,2.31,1.67,1.64,17.59,17.24,2.3,2.26,3.21-.25,27.48-2.16,2.28-.18,1.75-1.48,14.61-12.4,1.69-1.43.57-2.14,4.51-16.86,2.82-10.55-10.78,1.72-12.46,1.99,9.9-7.35,6.51-4.83-5.67-5.8-12.78-13.09-1.44-1.48-2.01-.47-17.16-4.02-2.29-.54h0Zm5.33,52.13l7.34-5.45-.13.88-4.57,4.29-2.65.28h0Z"/>
            </g>
            <g>
              <path class="cls-1" d="m314.67,408.13l-14.9-10.46,15.29-14.9-8.01,1.33-13.35-6.28-6.01-15,7.24-16.58,16.31-9.1,17.79-2.53,16.7,11.35-15.16,13.12,4.81-.77,16.07,3.62,9.15,12.58-1.45,15.79-12.35,11.42-17.13,6.95-14.99-.55Zm11.07-21.65l7.43-2.55.54-1.19-4.1-2.39-10.99,1.83,7.12,4.3Zm-10.73-24.91l10.15-1.62-2.49-2.25-3.15-.16-4.19,1.44-.85,1.85.53.73Z"/>
              <path class="cls-3" d="m328.16,338.32l11.75,7.99-12.55,10.86-3.26-2.94-5.09-.26-6.27,2.15-2.33,5.11,3.01,4.17,21.84-3.48,14.11,3.18,7.58,10.42-1.21,13.11-10.88,10.06-15.82,6.43-13.19-.49-10.55-7.4,12.01-11.71,8.02,4.84,10.44-3.58,2.49-5.49-7.97-4.65-22.74,3.79-11.09-5.21-4.94-12.33,6.17-14.13,14.69-8.2,15.78-2.25m1.72-7.4l-2.71.39-15.78,2.25-1.3.19-1.15.64-14.69,8.2-2.08,1.16-.96,2.19-6.17,14.13-1.19,2.72,1.1,2.75,4.94,12.33,1.04,2.59,2.52,1.19,11.09,5.21.86.4-5.04,4.91-6.12,5.96,6.99,4.91,10.55,7.4,1.71,1.2,2.09.08,13.19.49,1.52.06,1.41-.57,15.82-6.43,1.2-.49.95-.88,10.88-10.06,1.99-1.84.25-2.71,1.21-13.11.24-2.66-1.57-2.16-7.58-10.42-1.57-2.16-2.6-.59-11.04-2.49,4.67-4.04,6.97-6.03-7.62-5.18-11.75-7.99-2.27-1.54h0Z"/>
            </g>
            <g>
              <path class="cls-1" d="m373.54,383.78l-12.03-11.07-2.34-15.59,7.16-11.49,5.52-4.11-22.44.15,8.54-18.62,15.38-12.34,20.23-5.02,13.69,6.36,5.86,9.95,18.91,42.36-22.4,9.54-1.09-2.56-1.68,2.91-17.06,9.55-16.23-.04Zm16.19-21.35l3.62-2.52.97-5.75-6.94.56-3.36,2.83.76,4.1,4.95.78Zm-10.82-26.18l1.6-1.2,10.13-4.92-.12-.23-4.61-.54-6.03,3.32-.97,3.58Z"/>
              <path class="cls-3" d="m393.19,309.44l11.56,5.37,5.2,8.83,17.36,38.89-15.83,6.74-2.48-5.82-4.74,8.2-15.4,8.62-13.93-.04-10.1-9.29-1.96-13.07,6.12-9.81,13.38-9.97,13.12-6.38-2.7-5.12-7.59-.89-8.34,4.59-2.08,7.66-19.83.13,5.87-12.8,14.12-11.33,18.26-4.53m-2.61,56.72l6.01-4.19,1.97-11.7-12.6,1.02-5.8,4.9,1.6,8.59,8.83,1.39m3.33-64.19l-2.43.6-18.26,4.53-1.51.38-1.22.98-14.12,11.33-1.31,1.05-.7,1.52-5.87,12.8-4.64,10.11,11.12-.07,7.48-.05-5.62,9.02-1.38,2.22.39,2.58,1.96,13.07.37,2.47,1.84,1.69,10.1,9.29,2.02,1.86h2.75s13.93.04,13.93.04h1.86s1.62-.9,1.62-.9l15.17-8.49.26.6,6.52-2.78,15.83-6.74,6.63-2.82-2.94-6.58-17.36-38.89-.16-.36-.2-.34-5.2-8.83-1.12-1.9-2-.93-11.56-5.37-2.27-1.05h0Zm-5.12,56.2l.99-.08-.91.64-.62-.1.54-.46h0Z"/>
            </g>
          </g>
        </g>
      </g>
    </g>
    <g>
      <path class="cls-1" d="m100.59,678.96h5.52c.04,2.73,2.1,4.44,5.73,4.44,3,0,4.79-1.19,4.79-3.18,0-2.38-2.55-2.87-5.52-3.32-4.37-.63-10.27-1.4-10.27-7.41,0-4.79,3.95-7.9,10.31-7.9s10.55,3.42,10.55,8.63h-5.35c.04-2.69-1.92-4.23-5.07-4.23-2.94,0-4.65,1.22-4.65,3.07,0,2.41,2.8,2.83,5.94,3.28,4.37.66,9.85,1.61,9.85,7.51,0,4.82-4.16,7.93-10.76,7.93s-11.04-3.53-11.08-8.84Z"/>
      <path class="cls-1" d="m125.85,661.21h5.17v14.99h.35l5.73-6.95h6.25l-7.44,8.6,7.58,9.29h-6.29l-5.83-7.62h-.35v7.62h-5.17v-25.93Z"/>
      <path class="cls-1" d="m162.72,687.14h-5.17v-2.52h-.35c-1.33,2.03-3.04,3.04-5.21,3.04-4.05,0-6.74-3.14-6.74-7.44v-10.97h5.17v10.24c0,2.2,1.26,3.74,3.35,3.74s3.77-1.64,3.77-3.91v-10.06h5.17v17.89Z"/>
      <path class="cls-1" d="m166.66,661.21h5.17v25.93h-5.17v-25.93Z"/>
      <path class="cls-1" d="m174.98,678.05c0-5.59,4.09-9.36,9.85-9.36s9.61,3.81,9.61,9.43c0,.45,0,1.19-.07,1.57h-14.05c.42,2.52,2.2,4.16,4.75,4.16,1.99,0,3.53-.98,4.3-2.45l4.4,1.12c-1.12,3.21-4.58,5.17-8.91,5.17-5.8,0-9.89-3.88-9.89-9.64Zm14.19-1.57c-.31-2.27-2.06-3.95-4.47-3.95s-3.98,1.57-4.4,3.95h8.88Z"/>
      <path class="cls-1" d="m213.27,662.26h8.39l8.35,24.88h-5.87l-1.54-4.44h-10.34l-1.54,4.44h-5.87l8.42-24.88Zm8.07,16.18l-3.7-11.22h-.35l-3.77,11.22h7.83Z"/>
      <path class="cls-1" d="m231.34,681.16h4.58c0,1.89,1.54,3.18,4.09,3.18,1.96,0,3.25-.84,3.25-2.2,0-1.64-1.85-1.85-4.02-2.06-3.29-.35-7.69-.87-7.69-5.49,0-3.67,3.18-5.98,7.97-5.98s8.25,2.34,8.25,6.04h-4.72c-.04-1.61-1.47-2.62-3.53-2.62-1.89,0-3.18.84-3.18,2.13,0,1.68,2.2,1.78,4.68,2.06,3.28.38,7.3,1.19,7.3,5.45,0,3.81-3.18,6.08-8.46,6.08s-8.53-2.48-8.53-6.6Z"/>
      <path class="cls-1" d="m250.87,681.16h4.58c0,1.89,1.54,3.18,4.09,3.18,1.96,0,3.25-.84,3.25-2.2,0-1.64-1.85-1.85-4.02-2.06-3.29-.35-7.69-.87-7.69-5.49,0-3.67,3.18-5.98,7.97-5.98s8.25,2.34,8.25,6.04h-4.72c-.04-1.61-1.47-2.62-3.53-2.62-1.89,0-3.18.84-3.18,2.13,0,1.68,2.2,1.78,4.68,2.06,3.28.38,7.3,1.19,7.3,5.45,0,3.81-3.18,6.08-8.46,6.08s-8.53-2.48-8.53-6.6Z"/>
      <path class="cls-1" d="m270.3,678.19c0-5.77,3.95-9.5,9.92-9.5s9.92,3.74,9.92,9.5-3.98,9.5-9.92,9.5-9.92-3.74-9.92-9.5Zm14.64,0c0-2.97-1.96-5.07-4.72-5.07s-4.75,2.1-4.75,5.07,1.96,5.1,4.75,5.1,4.72-2.13,4.72-5.1Z"/>
      <path class="cls-1" d="m292.62,678.19c0-5.7,3.95-9.5,9.71-9.5,4.86,0,8.56,2.73,9.15,6.95l-4.82.63c-.46-1.96-2.27-3.32-4.26-3.32-2.62,0-4.61,2.17-4.61,5.24s1.96,5.24,4.58,5.24c2.06,0,3.81-1.36,4.3-3.28l4.86.59c-.66,4.23-4.4,6.95-9.19,6.95-5.7,0-9.71-3.84-9.71-9.5Z"/>
      <path class="cls-1" d="m314.36,663.72c0-1.75,1.29-3.04,3.11-3.04s3.11,1.29,3.11,3.04-1.29,3.04-3.11,3.04-3.11-1.26-3.11-3.04Zm.52,5.52h5.17v17.89h-5.17v-17.89Z"/>
      <path class="cls-1" d="m323.02,682.45c0-3.35,2.83-5.42,8.46-6.12l3.81-.45v-.73c0-1.71-1.19-2.87-3.25-2.87-1.89,0-3.18,1.05-3.14,2.83h-5.07c0-3.91,3.25-6.43,8.28-6.43s8.35,2.59,8.35,6.64v11.81h-5.17v-2.27h-.35c-1.12,1.78-3.18,2.73-5.73,2.73-3.67,0-6.18-1.92-6.18-5.14Zm12.26-2.17v-1.26l-3.67.45c-2.55.31-3.53,1.33-3.53,2.55,0,1.33,1.05,2.17,2.83,2.17,2.59,0,4.37-1.68,4.37-3.91Z"/>
      <path class="cls-1" d="m345.52,681.37v-8.35h-2.52v-3.77h2.66l1.01-5.66h4.05l-.03,5.66h4.09v3.77h-4.09v8.14c0,1.5.91,2.52,2.38,2.52.49,0,1.26-.1,1.85-.24v3.7c-1.01.35-2.48.56-3.49.56-3.6,0-5.91-2.55-5.91-6.32Z"/>
      <path class="cls-1" d="m356.88,678.05c0-5.59,4.09-9.36,9.85-9.36s9.61,3.81,9.61,9.43c0,.45,0,1.19-.07,1.57h-14.05c.42,2.52,2.2,4.16,4.75,4.16,1.99,0,3.53-.98,4.3-2.45l4.4,1.12c-1.12,3.21-4.58,5.17-8.91,5.17-5.8,0-9.89-3.88-9.89-9.64Zm14.19-1.57c-.31-2.27-2.06-3.95-4.47-3.95s-3.98,1.57-4.4,3.95h8.88Z"/>
      <path class="cls-1" d="m378.86,678.19c0-5.66,3.56-9.5,8.42-9.5,2.48,0,4.44,1.01,5.7,2.8h.35v-10.27h5.17v25.93h-5.17v-2.27h-.35c-1.26,1.82-3.14,2.83-5.66,2.83-4.93,0-8.46-3.81-8.46-9.5Zm14.64,0c0-2.87-1.96-5.07-4.72-5.07s-4.75,2.2-4.75,5.07,2.03,5.1,4.75,5.1,4.72-2.24,4.72-5.1Z"/>
      <path class="cls-1" d="m410.37,674.7c0-7.72,5.56-13.1,13.28-13.1,6.22,0,11.36,3.91,12.3,9.5l-5.42.63c-.7-3.08-3.53-5.28-6.78-5.28-4.47,0-7.58,3.35-7.58,8.25s3.15,8.28,7.58,8.28c3.18,0,6.01-2.17,6.78-5.17l5.45.73c-.87,5.45-6.01,9.26-12.33,9.26-7.72,0-13.28-5.38-13.28-13.1Z"/>
      <path class="cls-1" d="m439.3,661.21h5.17v25.93h-5.17v-25.93Z"/>
      <path class="cls-1" d="m465.62,687.14h-5.17v-2.52h-.35c-1.33,2.03-3.04,3.04-5.21,3.04-4.05,0-6.74-3.14-6.74-7.44v-10.97h5.17v10.24c0,2.2,1.26,3.74,3.35,3.74s3.77-1.64,3.77-3.91v-10.06h5.17v17.89Z"/>
      <path class="cls-1" d="m475.08,684.86h-.35v2.27h-5.17v-25.93h5.17v10.27h.35c1.26-1.78,3.21-2.8,5.66-2.8,4.89,0,8.46,3.84,8.46,9.5s-3.53,9.5-8.46,9.5c-2.55,0-4.4-1.01-5.66-2.83Zm8.91-6.67c0-2.87-1.96-5.07-4.72-5.07s-4.75,2.2-4.75,5.07,1.99,5.1,4.75,5.1,4.72-2.2,4.72-5.1Z"/>
    </g>
  </g>
</svg>