<?xml version="1.0" encoding="UTF-8"?>
<svg id="Capa_1" data-name="Capa 1" xmlns="http://www.w3.org/2000/svg" viewBox="0 0 607.59 607.59">
  <defs>
    <style>
      .cls-1 {
        fill: #28584c;
      }

      .cls-1, .cls-2, .cls-3, .cls-4 {
        stroke-width: 0px;
      }

      .cls-2 {
        fill: snow;
      }

      .cls-3 {
        fill: #98bc5a;
      }

      .cls-5 {
        fill: none;
        stroke: #2e2624;
        stroke-linecap: round;
        stroke-linejoin: round;
        stroke-width: 49px;
      }

      .cls-4 {
        fill: #fff;
      }
    </style>
  </defs>
  <circle class="cls-2" cx="303.79" cy="303.79" r="303.79"/>
  <path class="cls-5" d="M2117.59,407.02c-354-291-639.5,219.5-746.5,658.5-301-325-625-89-838,644-256-249-406,12-557,645"/>
  <g>
    <g>
      <path class="cls-1" d="M38.3,271.98l.99-5.92,40.65,6.78,3.85-23.09,5.2.87-4.84,29-45.85-7.65Z"/>
      <path class="cls-1" d="M82.62,242.03c-5.53-1.96-7.95-8.14-5.7-17.84l2.03-9.07-1.24-.44c-4.23-1.5-8.04.57-9.87,5.73-1.68,4.72-.48,8.65,3.46,9.97l-1.85,5.22c-6.65-2.36-9.04-9.02-6.24-16.91,2.89-8.14,9.32-11.66,16.46-9.13l20.82,7.39-1.83,5.16-4.6-1.63-.2.56c2.81,3.52,3.5,7.89,1.71,12.92-2.4,6.77-7.54,9.99-12.94,8.07ZM86.16,217.68l-2.8-.99-2.1,9.05c-1.46,6.69.14,10.05,3.06,11.09,2.98,1.06,5.71-.91,7.21-5.14,2.27-6.4-.1-12.14-5.38-14.01Z"/>
      <path class="cls-1" d="M99.26,200.22l-17.96-9.6-2.55,4.77-3.84-2.05,2.55-4.77-8.89-6.17,2.02-3.78,9.45,5.12,4.04-7.56,3.84,2.05-4.04,7.56,17.79,9.51c2.79,1.49,5.7.8,7.19-1.99.47-.87,1.04-2.51,1.28-3.8l3.89,2.08c-.28,1.64-1.02,3.72-1.79,5.17-2.64,4.94-7.81,6.22-12.98,3.45Z"/>
      <path class="cls-1" d="M83.05,158.59c-1.85-1.26-2.23-3.51-.94-5.42,1.3-1.91,3.5-2.33,5.35-1.06,1.91,1.3,2.38,3.53,1.08,5.44-1.3,1.91-3.59,2.34-5.5,1.04ZM92.22,163.39l3.08-4.52,27.52,18.73-3.08,4.52-27.53-18.73Z"/>
      <path class="cls-1" d="M105.24,144.86l3.67-4.06,3.38,3.05.44-.49c-1.15-4.24-.25-8.39,2.71-11.67,5.65-6.27,13.88-6.13,20.14-.48l14.79,13.34-3.67,4.06-14.79-13.34c-4.16-3.75-9.45-3.99-13.29.27-3.75,4.16-3.75,10.65.56,14.54l14.44,13.03-3.67,4.06-24.73-22.3Z"/>
      <path class="cls-1" d="M149.4,85.36l27.02-16.97,2.8,4.47-21.89,13.75,7.71,12.28,19.65-12.34,2.8,4.47-19.65,12.34,8.59,13.68,22.44-14.1,2.8,4.47-27.58,17.32-24.72-39.36Z"/>
      <path class="cls-1" d="M198.54,72.22l5.11-1.97,1.64,4.24.62-.24c.88-4.3,3.57-7.6,7.69-9.19,7.87-3.04,15.15.8,18.19,8.67l7.17,18.58-5.11,1.97-7.17-18.58c-2.02-5.23-6.63-7.83-11.98-5.76-5.23,2.02-8.15,7.81-6.06,13.22l7,18.14-5.11,1.97-11.99-31.06Z"/>
      <path class="cls-1" d="M249.15,94.84l5.04-2.95c2.63,4.76,7.31,7.03,13.15,6.02,7.15-1.24,11.03-6.66,9.76-14l-.76-4.42-.65.11c-2.23,4.13-5.81,7.03-10.94,7.92-9.88,1.71-18.27-4.27-20.01-14.34-1.75-10.14,4.1-18.84,13.97-20.55,5.26-.91,9.62.68,13.04,3.83l.65-.11-.81-4.68,5.33-.92,5.58,32.23c1.78,10.27-3.97,18.02-14.57,19.85-8.45,1.46-15.39-1.55-18.78-7.99ZM274.55,68.02c-1.28-7.41-7.41-11.9-14.43-10.69-7.08,1.23-11.28,7.51-10,14.91,1.25,7.21,7.3,11.65,14.38,10.43s11.29-7.44,10.04-14.65Z"/>
      <path class="cls-1" d="M292.75,39.83c-.06-2.24,1.55-3.87,3.85-3.93,2.31-.06,3.93,1.48,3.99,3.72.06,2.31-1.48,4-3.78,4.06s-4-1.54-4.06-3.85ZM294.21,50.08l5.47-.15.89,33.28-5.47.15-.89-33.28Z"/>
      <path class="cls-1" d="M316.78,49.8l5.44.59-.49,4.52.66.07c2.76-3.41,6.66-5.11,11.05-4.63,8.39.91,13.09,7.66,12.18,16.05l-2.16,19.8-5.44-.59,2.16-19.8c.61-5.57-2.29-10-8-10.62-5.57-.61-10.83,3.2-11.46,8.97l-2.11,19.34-5.44-.59,3.61-33.1Z"/>
      <path class="cls-1" d="M357.46,71.55c3-9.7,12.24-14.57,22.07-11.52,9.7,3,14.5,12.22,11.48,21.99-.2.63-.43,1.39-.71,2.06l-28.15-8.72c-1.23,6.66,2.1,12.38,8.58,14.39,4.72,1.46,9.62.36,12.81-2.79l3.66,3.55c-4.26,4.62-11.01,6.11-18.06,3.93-9.95-3.08-14.85-12.68-11.68-22.88ZM386.3,77.8c.83-6.02-2.45-11.25-8.49-13.12-5.86-1.81-11.52.64-14.18,6.1l22.67,7.03Z"/>
      <path class="cls-1" d="M401.52,86.38c4.84-8.92,14.85-11.9,23.89-6.99,8.92,4.84,11.84,14.82,6.96,23.8-.31.58-.69,1.27-1.09,1.88l-25.91-14.05c-2.51,6.29-.36,12.56,5.61,15.79,4.35,2.36,9.37,2.23,13.11-.24l2.9,4.2c-5.08,3.7-11.99,3.85-18.48.33-9.16-4.97-12.08-15.33-6.99-24.72ZM428.6,98.14c1.99-5.75-.21-11.51-5.77-14.53-5.39-2.92-11.42-1.62-15.09,3.21l20.86,11.32Z"/>
      <path class="cls-1" d="M452.67,97.98l4.23,3.26-2.74,3.55.47.36c3.05-1.47,7.27-.88,10.19,1.37,1.2.93,2.25,2.16,2.71,3.18l-3.1,4.02c-.91-1.62-2.32-3.04-3.31-3.81-3.96-3.06-9.47-1.65-13.5,3.56l-10.97,14.19-4.33-3.35,20.36-26.35Z"/>
      <path class="cls-1" d="M477.5,118.62l3.95,3.79-23.04,24.03-3.95-3.79,23.04-24.03ZM483.76,110.37c1.55-1.62,3.84-1.62,5.5-.02s1.71,3.83.16,5.45c-1.6,1.67-3.88,1.76-5.55.16-1.67-1.6-1.71-3.93-.12-5.59Z"/>
      <path class="cls-1" d="M493.58,134.5l3.4,4.29-3.56,2.83.41.52c4.37-.43,8.32,1.15,11.06,4.61,5.24,6.61,3.75,14.7-2.87,19.95l-15.6,12.37-3.4-4.29,15.6-12.37c4.39-3.48,5.51-8.66,1.94-13.15-3.48-4.39-9.88-5.46-14.43-1.85l-15.24,12.09-3.4-4.29,26.09-20.69Z"/>
      <path class="cls-1" d="M487.07,189.56l4.32,3.93c-3.76,3.93-4.53,9.07-1.81,14.35,3.32,6.45,9.65,8.53,16.27,5.12l3.99-2.05-.3-.59c-4.61-.89-8.44-3.44-10.82-8.07-4.58-8.91-1.39-18.71,7.7-23.38,9.14-4.7,19.2-1.72,23.79,7.19,2.44,4.75,2.23,9.38.24,13.59l.3.59,4.22-2.17,2.47,4.81-29.08,14.96c-9.26,4.76-18.38,1.59-23.29-7.96-3.92-7.62-3.12-15.15,2.01-20.31ZM520.24,205.78c6.68-3.44,9.14-10.63,5.88-16.96-3.29-6.39-10.53-8.52-17.22-5.08-6.51,3.35-8.93,10.45-5.65,16.84,3.29,6.39,10.48,8.55,16.98,5.2Z"/>
      <path class="cls-1" d="M532.28,242.74l1.06,5.84c-7.06,1.35-10.37,7.11-8.81,15.68,1.36,7.46,5.39,11.22,10.52,10.28,6.29-1.15,6.17-7.69,6.02-14.77-.2-8.47.28-17.95,10.21-19.75,8.24-1.5,14.77,3.81,16.77,14.84,2.04,11.22-2.55,19.1-12.21,20.92l-1.04-5.71c6.49-1.18,9.49-6.42,8.06-14.27-1.35-7.39-5.26-10.84-10.19-9.94-6.03,1.1-6.02,7.4-5.83,14.33.15,8.55.05,18.29-10.33,20.18-8.56,1.56-15.14-4.01-17.18-15.23-2.19-12,2.76-20.54,12.94-22.39Z"/>
      <path class="cls-1" d="M532.85,295.76l20.37-.33-.09-5.41,4.35-.07.09,5.41,10.76,1.08.07,4.29-10.75.11.14,8.57-4.35.07-.14-8.57-20.17.33c-3.16.05-5.37,2.06-5.32,5.23.02.99.31,2.7.72,3.94l-4.42.07c-.55-1.57-.92-3.74-.94-5.39-.09-5.6,3.81-9.23,9.67-9.32Z"/>
      <path class="cls-1" d="M520.04,350.02l.78-5.42,4.5.64.09-.65c-3.26-2.8-4.82-6.82-4.2-11.12,1.21-8.42,8.03-12.84,16.45-11.63l19.64,2.81-.78,5.42-19.64-2.81c-5.61-.8-10.06,1.89-10.87,7.57-.79,5.55,2.77,10.92,8.57,11.75l19.19,2.75-.78,5.42-32.96-4.72Z"/>
      <path class="cls-1" d="M533.81,365.15c9.82,3.46,14.44,12.99,11.19,22.19-1.77,5.04-5.36,8.46-9.96,9.42l-.22.62,18.96,6.68-1.82,5.16-45.7-16.11,1.82-5.16,4.85,1.71.22-.62c-3.04-3.66-3.86-8.49-2.06-13.59,3.24-9.2,12.89-13.77,22.72-10.31ZM523.77,393.63c6.9,2.43,13.98-.6,16.35-7.31,2.39-6.78-1.23-13.57-8.13-16.01-7.03-2.48-14.06.64-16.43,7.35-2.37,6.72,1.31,13.53,8.21,15.97Z"/>
      <path class="cls-1" d="M516.86,410.64c8.71,5.22,11.25,15.35,5.97,24.17-5.22,8.71-15.31,11.2-24.08,5.95-.57-.34-1.24-.75-1.83-1.17l15.14-25.28c-6.18-2.78-12.53-.89-16.02,4.93-2.54,4.24-2.63,9.26-.32,13.11l-4.32,2.72c-3.48-5.23-3.33-12.14.46-18.48,5.35-8.94,15.83-11.42,25-5.93ZM503.96,437.19c5.66,2.23,11.51.28,14.76-5.15,3.15-5.26,2.11-11.34-2.57-15.22l-12.2,20.36Z"/>
      <path class="cls-1" d="M502.94,461.98l-3.65,4.08-3.39-3.03-.44.49c1.17,4.23.28,8.39-2.67,11.68-5.63,6.29-13.85,6.18-20.14.56l-14.84-13.28,3.65-4.08,14.84,13.28c4.18,3.74,9.47,3.96,13.29-.32,3.74-4.18,3.71-10.67-.62-14.54l-14.49-12.97,3.65-4.08,24.81,22.21Z"/>
      <path class="cls-1" d="M452.5,478.22l12.89,15.78,4.19-3.42,2.75,3.37-4.19,3.42,5.83,9.12-3.32,2.71-6.75-8.36-6.64,5.42-2.75-3.37,6.64-5.42-12.77-15.62c-2-2.45-4.95-2.93-7.4-.93-.77.63-1.93,1.92-2.65,3.01l-2.79-3.42c.89-1.41,2.37-3.04,3.64-4.08,4.34-3.55,9.6-2.74,13.31,1.81Z"/>
      <path class="cls-1" d="M434.68,495.74l-4.53,2.7c-2.49-4.04-7.31-4.93-12.69-1.72-4.3,2.57-6,6.03-4.21,9.03,2.23,3.74,6.3,1.69,10.95-.31,5.69-2.55,12.71-4.82,16.59,1.7,3.31,5.55.69,11.72-6.16,15.8-7.13,4.25-14.27,3.37-17.78-2.52l4.59-2.73c2.15,3.48,6.47,3.9,10.88,1.26,4.13-2.47,5.85-6.02,4.09-8.97-2.13-3.57-6.15-1.55-10.7.47-5.79,2.53-12.77,4.85-16.85-2-3.34-5.61-.91-11.43,6.4-15.79,8.21-4.9,15.36-3.71,19.42,3.08Z"/>
      <path class="cls-1" d="M411.99,534.14l.39,8.22c1.73-.35,3.32.45,4.08,2.13.84,1.86.15,3.84-1.84,4.74-1.92.87-3.93.11-4.77-1.75-.38-.84-.49-1.73-.51-2.88l-.09-9.95,2.74-.51Z"/>
      <path class="cls-1" d="M358.65,565.24l-8.03,1.55-25.84-42.34,5.63-1.09,5.86,9.48,23.24-4.49,1.91-10.98,5.63-1.09-8.4,48.96ZM338.89,537.37l14.48,23.52.58-.11,4.74-27.24-19.81,3.83Z"/>
      <path class="cls-1" d="M319.14,535.42l-5.27.08c-.14-4.75-3.89-7.92-10.15-7.81-5.01.08-8.21,2.24-8.15,5.74.07,4.35,4.62,4.61,9.64,5.18,6.21.62,13.42,2.16,13.54,9.74.11,6.46-5.24,10.5-13.21,10.63-8.31.13-14.05-4.19-14.16-11.05l5.34-.09c.13,4.09,3.67,6.6,8.81,6.52,4.81-.08,8.07-2.31,8.02-5.73-.07-4.15-4.55-4.41-9.51-4.92-6.27-.69-13.49-2.16-13.61-10.13-.11-6.53,4.91-10.37,13.41-10.5,9.56-.16,15.17,4.44,15.3,12.35Z"/>
      <path class="cls-1" d="M279.55,534.85l-5.2-.87c.71-4.69-2.4-8.49-8.57-9.52-4.94-.82-8.48.73-9.05,4.17-.71,4.29,3.72,5.36,8.55,6.84,5.99,1.73,12.81,4.54,11.57,12.02-1.06,6.37-7.04,9.39-14.91,8.08-8.19-1.37-13.06-6.65-11.93-13.42l5.27.88c-.61,4.04,2.42,7.15,7.49,8,4.75.79,8.36-.81,8.92-4.2.68-4.1-3.69-5.16-8.46-6.56-6.05-1.81-12.88-4.55-11.57-12.42,1.07-6.44,6.7-9.31,15.09-7.91,9.43,1.57,14.12,7.1,12.82,14.9Z"/>
      <path class="cls-1" d="M239.21,532.87c-3.59,9.85-13.09,14.31-22.93,10.72-9.79-3.57-14.23-13.13-10.63-22.97,3.62-9.91,13.17-14.35,22.96-10.78,9.85,3.6,14.23,13.13,10.61,23.04ZM210.78,522.49c-2.58,7.06.44,13.99,7.19,16.45,6.81,2.49,13.52-.89,16.1-7.95,2.6-7.12-.35-14.03-7.17-16.51-6.75-2.46-13.52.89-16.12,8.01Z"/>
      <path class="cls-1" d="M195.56,515.66c-5.39,8.91-15.49,11.59-24.12,6.37-7-4.23-10.14-12.15-7.53-18.89l4.95,2.14c-1.48,4.73.75,9.85,5.09,12.48,5.81,3.51,13.03,1.64,16.93-4.94,3.99-6.6,2.41-13.8-3.4-17.31-4.46-2.7-9.91-2.22-13.46,1.11l-4.25-3.42c4.95-5.25,13.44-6.05,20.27-1.92,8.63,5.22,10.97,15.5,5.52,24.37Z"/>
      <path class="cls-1" d="M140.54,511.53c-1.41,1.74-3.69,1.93-5.48.48-1.79-1.45-2.02-3.68-.61-5.42,1.45-1.79,3.72-2.08,5.51-.62,1.79,1.45,2.03,3.77.58,5.57ZM146.1,502.8l-4.25-3.45,20.98-25.86,4.25,3.45-20.97,25.86Z"/>
      <path class="cls-1" d="M148.75,473.09c-4.25,4.05-10.86,3.42-18.49-2.97l-7.18-5.91-.96.91c-3.25,3.09-3.12,7.43.65,11.4,3.45,3.63,7.49,4.34,10.46,1.42l3.82,4.01c-5.11,4.86-12.13,3.99-17.9-2.08-5.95-6.26-6.19-13.58-.7-18.81l16-15.23,3.77,3.96-3.53,3.36.41.43c4.41-.92,8.62.45,12.3,4.32,4.96,5.21,5.51,11.24,1.35,15.19ZM128.62,458.93l-2.15,2.04,7.13,5.96c5.3,4.33,9.03,4.42,11.28,2.28,2.29-2.18,1.77-5.51-1.32-8.75-4.68-4.92-10.87-5.4-14.93-1.54Z"/>
      <path class="cls-1" d="M118.97,439.39l-16.67,11.71,3.11,4.42-3.56,2.5-3.11-4.42-9.51,5.15-2.46-3.51,8.83-6.12-4.93-7.01,3.56-2.5,4.93,7.01,16.51-11.6c2.59-1.82,3.29-4.73,1.47-7.32-.57-.81-1.77-2.06-2.81-2.86l3.62-2.54c1.34.99,2.86,2.58,3.81,3.93,3.22,4.59,2.03,9.77-2.77,13.15Z"/>
      <path class="cls-1" d="M74.49,435.1c-1.96,1.09-4.14.41-5.26-1.61s-.5-4.17,1.46-5.26c2.02-1.12,4.23-.53,5.35,1.49s.48,4.26-1.54,5.38ZM82.91,429.07l-2.65-4.79,29.13-16.14,2.65,4.79-29.13,16.14Z"/>
      <path class="cls-1" d="M88.29,404.8c-9.8,3.73-19.39-.53-23.11-10.33-3.7-9.74.61-19.35,10.41-23.08,9.86-3.75,19.47.57,23.18,10.3,3.73,9.8-.61,19.35-10.47,23.1ZM77.53,376.51c-7.03,2.67-10.29,9.49-7.73,16.2,2.58,6.78,9.52,9.64,16.55,6.97,7.09-2.7,10.38-9.45,7.8-16.23-2.55-6.72-9.52-9.64-16.61-6.95Z"/>
      <path class="cls-1" d="M56.08,361.64l-.93-5.39,4.48-.77-.11-.65c-4.04-1.71-6.75-5-7.49-9.35-1.43-8.32,3.77-14.7,12.08-16.12l19.63-3.37.93,5.39-19.63,3.37c-5.52.95-8.98,4.95-8.01,10.61.95,5.52,6.05,9.53,11.77,8.55l19.17-3.29.93,5.39-32.82,5.63Z"/>
    </g>
    <g>
      <g>
        <polygon class="cls-3" points="269.36 243.79 282.03 245.06 287.1 253.93 300.61 243.09 325.54 246.07 372.51 266 388.17 288.77 430.87 303 433.71 317.98 402.4 371.32 385.32 375.59 345.47 421.14 325.54 431.1 311.31 453.87 305.61 469.53 292.8 466.68 292.8 438.22 304.19 395.52 311.31 352.82 288.53 338.58 268.61 303 274.3 285.92 285.69 256.03 275.7 253.93 266.83 252.66 252.9 255.19 226.3 233.66 201.31 224.07 169.62 194.5 163.28 162.09 190.33 169.21 218.21 183.93 217.37 199.92 230.18 208.46 243.57 200.83 252.95 209.06 249.19 219.03 260.07 230.41 269.36 243.79"/>
        <polygon class="cls-3" points="298.48 197.67 283.47 196.21 267.47 188.34 257.55 189.94 254.94 173.7 270.03 171.28 288.04 180.13 300.08 181.31 298.48 197.67"/>
        <rect class="cls-3" x="302.59" y="194.73" width="9.06" height="16.44"/>
        <rect class="cls-3" x="316.87" y="188.39" width="8.58" height="16.44"/>
      </g>
      <g>
        <g>
          <polygon class="cls-4" points="175.5 353.85 175 241.36 210 241.36 208.09 353.85 175.5 353.85"/>
          <path class="cls-1" d="M205.62,245.67l-1.77,103.87h-24.06l-.46-103.87h26.29M214.39,237.05h-43.71l.04,8.66.46,103.87.04,8.58h41.12l.14-8.47,1.77-103.87.15-8.77h0Z"/>
        </g>
        <g>
          <path class="cls-4" d="M223.05,346.1l-12.76-30.82,7.61-30.45,20.44-16.63,30.91-.24,19.46,14.27,10.32,26.53-54.9,13.19,2.61,5.58,8.23,2.52,9.93-3.64,4.39-7.19,31.65,7.89-18.01,23.02-24.89,7.73-34.98-11.76ZM250.62,296.5l2.39-.63-1.66-1.07-.73,1.7Z"/>
          <path class="cls-1" d="M267.86,272.28l17.3,12.68,8.07,20.76-55.24,13.27,5.66,12.09,11.45,3.5,12.7-4.65,3.52-5.77,22.14,5.52-13.09,16.73-22.27,6.92-31.8-10.69-11.47-27.7,6.92-27.67,18.15-14.77,27.97-.22M243.15,302.91l20.44-5.35-14.18-9.13-6.26,14.48M270.65,263.64l-2.86.02-27.97.22-3.03.02-2.35,1.91-18.15,14.77-2.23,1.81-.7,2.78-6.92,27.67-.69,2.76,1.09,2.63,11.47,27.7,1.5,3.62,3.72,1.25,31.8,10.69,2.64.89,2.66-.83,22.27-6.92,2.57-.8,1.66-2.12,13.09-16.73,8.19-10.46-12.89-3.21-14.9-3.71,14.6-3.51,9.6-2.31-3.58-9.2-8.07-20.76-.91-2.34-2.03-1.49-17.3-12.68-2.31-1.69h0ZM251.75,324.55l10.82-2.6-.57.93-7.16,2.62-3.1-.95h0Z"/>
        </g>
        <g>
          <path class="cls-4" d="M325.98,355.41l-16.52-7.77-11.7-18.82,24.23-9.39-9.61-2.33-11.95-13.4.42-19.66,16.02-15.12,22.6-2.41,21.13,5.65,13.28,20.68-23.24,7.45,5.75,1.44,16.27,11.72,4.24,18.45-9.16,16.98-19.28,6.9-22.49-.38ZM341.72,329.36l1.17-1.08-3.45-4.64-13.17-3.19,5.92,8.21,9.54.69ZM344.19,298.68l-1.71-3.7-3.46-1.68-5.37-.39-1.83,1.67.24,1.07,12.13,3.03Z"/>
          <path class="cls-1" d="M339.14,270.89l18.74,5.01,9.35,14.55-19.24,6.17-2.24-4.85-5.58-2.72-8.05-.59-5.05,4.61,1.38,6.11,26.12,6.52,14.28,10.29,3.51,15.28-7.6,14.1-16.98,6.08-20.78-.36-14.53-6.84-8.28-13.32,19.04-7.38,6.67,9.25,13.4.97,5.41-4.96-6.7-9-27.27-6.61-9.93-11.13.35-16.16,13.65-12.88,20.36-2.17M339.82,262.14l-1.59.17-20.36,2.17-2.89.31-2.11,1.99-13.65,12.88-2.62,2.48-.08,3.61-.35,16.16-.07,3.39,2.26,2.53,9.93,11.13.77.86-7.99,3.1-9.7,3.76,5.49,8.83,8.28,13.32,1.35,2.16,2.31,1.08,14.53,6.84,1.67.79,1.85.03,20.78.36,1.57.03,1.48-.53,16.98-6.08,3.11-1.11,1.57-2.91,7.6-14.1,1.54-2.86-.73-3.16-3.51-15.28-.73-3.17-2.64-1.9-11.18-8.05,7.16-2.3,10.68-3.43-6.06-9.44-9.35-14.55-1.8-2.81-3.22-.86-18.74-5.01-1.55-.41h0Z"/>
        </g>
        <g>
          <path class="cls-4" d="M387.01,348.46l-8.19-18.13,4.82-18.58,13.5-9.45,8.14-1.97-25.19-10.54,18.45-16.77,23.1-6.48,25.04,4.03,12.29,13.66,1.82,13.94.96,56.45h-29.64v-3.39l-3.27,2.46-23.66,2.55-18.15-7.79ZM415.31,332.28l5.25-1.1,3.83-5.98-8.04-2.68-5.11,1.57-1.1,4.96,5.17,3.23ZM415.69,297.8l2.37-.57,13.7-.68-.03-.32-4.9-2.8-8.34.83-2.79,3.54Z"/>
          <path class="cls-1" d="M421.87,270.95l22.61,3.64,10.38,11.53,1.61,12.37.88,51.82h-20.94v-7.7l-9.22,6.92-21.36,2.31-15.58-6.69-6.88-15.22,4.04-15.57,11.53-8.07,19.74-4.79,17.73-.88-.58-7.02-8.07-4.61-11.53,1.15-5.98,7.58-22.27-9.31,12.68-11.53,21.21-5.95M414.5,336.86l8.72-1.82,7.79-12.17-14.6-4.87-8.83,2.72-2.31,10.38,9.22,5.77M421.37,262.14l-1.83.51-21.21,5.95-1.96.55-1.51,1.37-12.68,11.53-10.02,9.11,12.49,5.22,8.4,3.51-10.59,7.42-2.6,1.82-.8,3.08-4.04,15.57-.76,2.94,1.25,2.77,6.88,15.22,1.38,3.05,3.08,1.32,15.58,6.69,2.08.89,2.25-.24,21.04-2.27v.79h38.33l-.15-8.77-.88-51.82v-.49s-.07-.48-.07-.48l-1.61-12.37-.35-2.66-1.79-1.99-10.38-11.53-2.03-2.26-3-.48-22.61-3.64-1.87-.3h0ZM415.48,327.3l.82-.25,1.15.38-1.32.28-.65-.41h0Z"/>
        </g>
      </g>
    </g>
  </g>
</svg>