<?xml version="1.0" encoding="UTF-8"?>
<svg id="Capa_1" data-name="Capa 1" xmlns="http://www.w3.org/2000/svg" viewBox="0 0 434.64 350.1">
  <defs>
    <style>
      .cls-1 {
        fill: snow;
      }

      .cls-2 {
        fill: #0c594b;
      }
    </style>
  </defs>
  <path class="cls-2" d="m321.07,59.56l3.24,10.81c.81,2.69,3.04,4.7,5.8,5.21l11.09,2.07c5.34,1,7.87,7.17,4.78,11.63l-6.43,9.27c-1.6,2.3-1.77,5.31-.46,7.78l5.3,9.96c2.55,4.8-.69,10.63-6.11,10.99l-11.26.75c-2.8.19-5.26,1.92-6.37,4.49l-4.49,10.35c-2.16,4.98-8.74,6.08-12.4,2.07l-7.61-8.33c-1.89-2.07-4.78-2.91-7.49-2.18l-10.89,2.95c-5.24,1.42-10.2-3.04-9.35-8.4l1.77-11.14c.44-2.77-.7-5.55-2.96-7.21l-9.09-6.68c-4.38-3.21-3.99-9.87.74-12.55l9.81-5.56c2.44-1.38,3.9-4.01,3.79-6.81l-.45-11.27c-.22-5.43,5.24-9.27,10.27-7.25l10.47,4.21c2.6,1.05,5.57.55,7.69-1.28l8.53-7.38c4.11-3.55,10.51-1.69,12.07,3.51Z"/>
  <path class="cls-2" d="m223.21,103.4l6.16,9.45c1.53,2.35,4.25,3.64,7.04,3.36l11.22-1.15c5.4-.55,9.58,4.65,7.87,9.8l-3.54,10.71c-.88,2.66-.2,5.59,1.76,7.6l7.9,8.06c3.8,3.88,2.34,10.39-2.76,12.27l-10.58,3.91c-2.63.97-4.5,3.33-4.84,6.11l-1.38,11.2c-.66,5.39-6.66,8.31-11.31,5.5l-9.65-5.84c-2.4-1.45-5.41-1.44-7.8.03l-9.61,5.91c-4.63,2.84-10.65-.03-11.35-5.42l-1.45-11.19c-.36-2.78-2.25-5.13-4.88-6.08l-10.61-3.83c-5.11-1.85-6.62-8.34-2.84-12.25l7.84-8.11c1.95-2.02,2.61-4.95,1.71-7.61l-3.62-10.69c-1.74-5.14,2.4-10.37,7.81-9.86l11.23,1.07c2.79.27,5.5-1.05,7.01-3.41l6.1-9.49c2.94-4.57,9.61-4.59,12.57-.04Z"/>
  <path class="cls-2" d="m392.21,3.4l6.16,9.45c1.53,2.35,4.25,3.64,7.04,3.36l11.22-1.15c5.4-.55,9.58,4.65,7.87,9.8l-3.54,10.71c-.88,2.66-.2,5.59,1.76,7.6l7.9,8.06c3.8,3.88,2.34,10.39-2.76,12.27l-10.58,3.91c-2.63.97-4.5,3.33-4.84,6.11l-1.38,11.2c-.66,5.39-6.66,8.31-11.31,5.5l-9.65-5.84c-2.4-1.45-5.41-1.44-7.8.03l-9.61,5.91c-4.63,2.84-10.65-.03-11.35-5.42l-1.45-11.19c-.36-2.78-2.25-5.13-4.88-6.08l-10.61-3.83c-5.11-1.85-6.62-8.34-2.84-12.25l7.84-8.11c1.95-2.02,2.61-4.95,1.71-7.61l-3.62-10.69c-1.74-5.14,2.4-10.37,7.81-9.86l11.23,1.07c2.79.27,5.5-1.05,7.01-3.41l6.1-9.49c2.94-4.57,9.61-4.59,12.57-.04Z"/>
  <path class="cls-2" d="m300.83,165.78l8.11,7.84c2.02,1.95,4.95,2.61,7.61,1.71l10.69-3.61c5.15-1.74,10.37,2.4,9.85,7.81l-1.08,11.23c-.27,2.79,1.05,5.5,3.4,7.01l9.49,6.1c4.57,2.94,4.59,9.61.04,12.57l-9.45,6.16c-2.35,1.53-3.65,4.25-3.36,7.03l1.14,11.22c.55,5.4-4.65,9.58-9.81,7.87l-10.71-3.55c-2.66-.88-5.59-.2-7.6,1.76l-8.06,7.89c-3.88,3.8-10.39,2.33-12.27-2.76l-3.9-10.59c-.97-2.63-3.33-4.5-6.11-4.84l-11.2-1.38c-5.39-.67-8.3-6.67-5.49-11.31l5.84-9.65c1.45-2.4,1.44-5.41-.02-7.8l-5.9-9.62c-2.84-4.63.04-10.65,5.42-11.34l11.19-1.45c2.78-.36,5.13-2.24,6.08-4.88l3.84-10.61c1.85-5.11,8.35-6.61,12.25-2.83Z"/>
  <path class="cls-2" d="m380.83,240.78l8.11,7.84c2.02,1.95,4.95,2.61,7.61,1.71l10.69-3.61c5.15-1.74,10.37,2.4,9.85,7.81l-1.08,11.23c-.27,2.79,1.05,5.5,3.4,7.01l9.49,6.1c4.57,2.94,4.59,9.61.04,12.57l-9.45,6.16c-2.35,1.53-3.65,4.25-3.36,7.03l1.14,11.22c.55,5.4-4.65,9.58-9.81,7.87l-10.71-3.55c-2.66-.88-5.59-.2-7.6,1.76l-8.06,7.89c-3.88,3.8-10.39,2.33-12.27-2.76l-3.9-10.59c-.97-2.63-3.33-4.5-6.11-4.84l-11.2-1.38c-5.39-.67-8.3-6.67-5.49-11.31l5.84-9.65c1.45-2.4,1.44-5.41-.02-7.8l-5.9-9.62c-2.84-4.63.04-10.65,5.42-11.34l11.19-1.45c2.78-.36,5.13-2.24,6.08-4.88l3.84-10.61c1.85-5.11,8.35-6.61,12.25-2.83Z"/>
  <path class="cls-2" d="m209.64,213.79l8.98,6.83c2.23,1.7,5.23,2,7.76.8l10.18-4.86c4.9-2.34,10.58,1.16,10.71,6.59l.26,11.28c.07,2.8,1.69,5.34,4.21,6.56l10.15,4.93c4.88,2.38,5.7,9,1.53,12.48l-8.65,7.24c-2.15,1.8-3.12,4.65-2.5,7.38l2.47,11.01c1.19,5.3-3.48,10.06-8.8,8.98l-11.05-2.25c-2.75-.56-5.58.46-7.33,2.65l-7.07,8.79c-3.4,4.23-10.04,3.55-12.51-1.29l-5.13-10.05c-1.27-2.5-3.84-4.07-6.64-4.08l-11.28-.04c-5.43-.02-9.03-5.63-6.79-10.58l4.66-10.28c1.16-2.55.79-5.54-.95-7.74l-7-8.85c-3.37-4.26-1.23-10.58,4.04-11.91l10.94-2.76c2.72-.69,4.83-2.84,5.46-5.57l2.55-10.99c1.23-5.29,7.5-7.55,11.83-4.27Z"/>
  <path class="cls-2" d="m374.74,114.77l9.58,5.95c2.38,1.48,5.39,1.5,7.8.06l9.68-5.79c4.66-2.79,10.65.16,11.28,5.55l1.32,11.2c.33,2.78,2.18,5.15,4.81,6.14l10.56,3.96c5.09,1.91,6.52,8.42,2.7,12.28l-7.94,8.02c-1.97,1.99-2.67,4.92-1.8,7.59l3.49,10.73c1.68,5.16-2.52,10.35-7.92,9.77l-11.22-1.2c-2.79-.3-5.51.98-7.05,3.32l-6.21,9.42c-2.99,4.53-9.66,4.48-12.57-.1l-6.05-9.52c-1.5-2.37-4.2-3.69-7-3.44l-11.24,1.02c-5.41.49-9.53-4.76-7.76-9.9l3.67-10.67c.91-2.65.27-5.59-1.67-7.62l-7.8-8.15c-3.76-3.92-2.22-10.41,2.9-12.24l10.63-3.78c2.64-.94,4.54-3.28,4.91-6.06l1.51-11.18c.73-5.38,6.76-8.23,11.37-5.36Z"/>
  <path class="cls-2" d="m150.62,153.14l3.24,10.81c.81,2.69,3.04,4.7,5.8,5.21l11.09,2.07c5.34,1,7.87,7.17,4.78,11.63l-6.43,9.27c-1.6,2.3-1.77,5.31-.46,7.78l5.3,9.96c2.55,4.8-.69,10.63-6.11,10.99l-11.26.75c-2.8.19-5.26,1.92-6.37,4.49l-4.49,10.35c-2.16,4.98-8.74,6.08-12.4,2.07l-7.61-8.33c-1.89-2.07-4.78-2.91-7.49-2.18l-10.89,2.95c-5.24,1.42-10.2-3.04-9.35-8.4l1.77-11.14c.44-2.77-.7-5.55-2.96-7.21l-9.09-6.68c-4.38-3.21-3.99-9.87.74-12.55l9.81-5.56c2.44-1.38,3.9-4.01,3.79-6.81l-.45-11.27c-.22-5.43,5.24-9.27,10.27-7.25l10.47,4.21c2.6,1.05,5.57.55,7.69-1.28l8.53-7.38c4.11-3.55,10.51-1.69,12.07,3.51Z"/>
  <path class="cls-2" d="m123.08,258.77l8.69,7.19c2.16,1.79,5.14,2.22,7.72,1.12l10.37-4.43c4.99-2.13,10.53,1.59,10.43,7.02l-.2,11.28c-.05,2.8,1.47,5.4,3.94,6.73l9.93,5.35c4.78,2.57,5.32,9.22,1.01,12.53l-8.95,6.87c-2.22,1.71-3.31,4.52-2.81,7.27l2.01,11.1c.97,5.34-3.89,9.91-9.17,8.61l-10.95-2.71c-2.72-.67-5.59.23-7.44,2.34l-7.42,8.49c-3.57,4.09-10.18,3.13-12.44-1.8l-4.71-10.25c-1.17-2.55-3.67-4.23-6.47-4.35l-11.27-.51c-5.43-.24-8.79-6-6.35-10.85l5.08-10.07c1.26-2.5,1.02-5.5-.63-7.77l-6.63-9.13c-3.19-4.39-.79-10.62,4.53-11.73l11.04-2.31c2.74-.57,4.94-2.63,5.68-5.34l3-10.87c1.45-5.24,7.81-7.24,11.99-3.78Z"/>
  <path class="cls-2" d="m52.76,196.99l6.16,9.45c1.53,2.35,4.25,3.64,7.04,3.36l11.22-1.15c5.4-.55,9.58,4.65,7.87,9.8l-3.54,10.71c-.88,2.66-.2,5.59,1.76,7.6l7.9,8.06c3.8,3.88,2.34,10.39-2.76,12.27l-10.58,3.91c-2.63.97-4.5,3.33-4.84,6.11l-1.38,11.2c-.66,5.39-6.66,8.31-11.31,5.5l-9.65-5.84c-2.4-1.45-5.41-1.44-7.8.03l-9.61,5.91c-4.63,2.84-10.65-.03-11.35-5.42l-1.45-11.19c-.36-2.78-2.25-5.13-4.88-6.08l-10.61-3.83c-5.11-1.85-6.62-8.34-2.84-12.25l7.84-8.11c1.95-2.02,2.61-4.95,1.71-7.61l-3.62-10.69c-1.74-5.14,2.4-10.37,7.81-9.86l11.23,1.07c2.79.27,5.5-1.05,7.01-3.41l6.1-9.49c2.94-4.57,9.61-4.59,12.57-.04Z"/>
  <g>
    <path class="cls-1" d="m203.02,155.78c0-1.29.89-2.21,2.21-2.21s2.21.93,2.21,2.21-.93,2.21-2.21,2.21-2.21-.93-2.21-2.21Z"/>
    <path class="cls-1" d="m210.66,147.29c0-6.36,4.43-10.95,10.59-10.95,4.99,0,9.14,3.14,9.9,7.49l-3.26.44c-.72-2.94-3.5-4.91-6.6-4.91-4.15,0-7.33,3.26-7.29,7.93,0,4.71,3.1,7.97,7.25,7.97,3.18,0,5.88-1.97,6.68-4.83l3.3.44c-.93,4.31-5.11,7.41-9.98,7.41-6.16,0-10.63-4.63-10.59-10.99Z"/>
  </g>
  <g>
    <path class="cls-1" d="m193.55,268.7c0-1.29.88-2.21,2.21-2.21s2.21.93,2.21,2.21-.93,2.21-2.21,2.21-2.21-.93-2.21-2.21Z"/>
    <path class="cls-1" d="m201.48,265.24c0-3.58,3.06-6.24,9.1-6.92l5.63-.68v-.81c0-2.74-1.97-4.51-5.31-4.51-3.06,0-5.07,1.49-5.03,4.03h-3.38c0-4.31,3.34-7.04,8.45-7.04s8.61,2.98,8.61,7.61v13.48h-3.34v-2.98h-.36c-1.45,2.33-3.82,3.62-7.08,3.62-4.39,0-7.29-2.29-7.29-5.8Zm14.73-2.94v-1.81l-5.63.64c-4.15.52-5.76,2.13-5.76,4.03s1.69,3.1,4.43,3.1c4.15,0,6.96-2.54,6.96-5.96Z"/>
    <path class="cls-1" d="m224.31,259.97c0-6.2,4.51-10.71,10.79-10.71s10.67,4.51,10.67,10.75c0,.4,0,.88-.04,1.33h-17.99c.48,4.11,3.46,6.84,7.61,6.84,3.02,0,5.68-1.53,6.96-3.94l2.78,1.41c-1.65,3.46-5.31,5.55-9.82,5.55-6.36,0-10.95-4.71-10.95-11.23Zm17.95-1.57c-.61-3.66-3.46-6.12-7.33-6.12s-6.6,2.46-7.17,6.12h14.49Z"/>
  </g>
  <g>
    <path class="cls-1" d="m282.78,110.87c0-1.29.89-2.21,2.21-2.21s2.21.93,2.21,2.21-.93,2.21-2.21,2.21-2.21-.93-2.21-2.21Z"/>
    <path class="cls-1" d="m290.71,107.41c0-3.58,3.06-6.24,9.1-6.92l5.63-.68v-.81c0-2.74-1.97-4.51-5.31-4.51-3.06,0-5.07,1.49-5.03,4.03h-3.38c0-4.31,3.34-7.04,8.45-7.04s8.61,2.98,8.61,7.61v13.48h-3.34v-2.98h-.36c-1.45,2.33-3.82,3.62-7.08,3.62-4.39,0-7.29-2.29-7.29-5.8Zm14.73-2.94v-1.81l-5.63.64c-4.15.52-5.76,2.13-5.76,4.03s1.69,3.1,4.43,3.1c4.15,0,6.96-2.54,6.96-5.96Z"/>
    <path class="cls-1" d="m314.18,85.96c0-1.37,1.01-2.33,2.42-2.33s2.38.97,2.38,2.33-.97,2.42-2.38,2.42-2.42-1.01-2.42-2.42Zm.72,6.28h3.34v20.33h-3.34v-20.33Z"/>
  </g>
  <g>
    <path class="cls-1" d="m33.49,249.37c0-1.29.89-2.21,2.21-2.21s2.21.93,2.21,2.21-.93,2.21-2.21,2.21-2.21-.93-2.21-2.21Z"/>
    <path class="cls-1" d="m42.15,244.18h3.22c.04,2.9,2.29,4.87,6.12,4.87,3.06,0,5.03-1.29,5.03-3.42,0-2.66-2.78-2.86-5.84-3.26-3.78-.44-8.17-1.45-8.17-6.08,0-3.95,3.3-6.36,8.17-6.36s8.53,2.7,8.53,6.88h-3.26c-.04-2.5-2.17-4.07-5.31-4.07-2.94,0-4.95,1.33-4.95,3.42,0,2.54,2.74,2.74,5.76,3.1,3.82.48,8.21,1.45,8.21,6.32,0,3.99-3.1,6.28-8.29,6.28-5.84,0-9.22-2.86-9.22-7.69Z"/>
  </g>
  <g>
    <path class="cls-1" d="m376.25,169.46c0-1.29.88-2.21,2.21-2.21s2.21.93,2.21,2.21-.93,2.21-2.21,2.21-2.21-.93-2.21-2.21Z"/>
    <path class="cls-1" d="m381.09,150.82h3.42l6.48,17.67h.36l6.52-17.67h3.42l-7.73,20.33h-4.75l-7.73-20.33Z"/>
  </g>
  <g>
    <path class="cls-1" d="m108.98,203.63c0-1.18.81-2.03,2.03-2.03s2.03.85,2.03,2.03-.85,2.03-2.03,2.03-2.03-.85-2.03-2.03Z"/>
    <path class="cls-1" d="m137.58,195.84c0,5.83-4.17,10.08-9.6,10.08-2.99,0-5.5-1.29-6.87-3.51h-.33v11.26h-3.06v-27.13h3.06v2.84h.33c1.37-2.25,3.76-3.58,6.83-3.58,5.43,0,9.63,4.21,9.63,10.04Zm-16.9,0c0,4.1,2.92,7.31,6.94,7.31s6.9-3.21,6.9-7.31-2.92-7.27-6.9-7.27-6.94,3.17-6.94,7.27Z"/>
    <path class="cls-1" d="m140.46,212.85v-2.69c.85.33,1.77.55,2.47.55,2.77,0,3.51-2.95,4.61-5.57l-8.3-18.6h3.21l6.39,14.58h.37l5.46-14.58h3.29l-7.38,18.93c-1.66,4.13-3.14,7.97-7.16,7.97-.92,0-2.1-.22-2.95-.59Z"/>
  </g>
  <g>
    <path class="cls-1" d="m364.05,51.89c0-.79.54-1.36,1.36-1.36s1.36.57,1.36,1.36-.57,1.36-1.36,1.36-1.36-.57-1.36-1.36Z"/>
    <path class="cls-1" d="m369.9,40.45h1.98v1.66h.25c.69-1.29,2-2.15,3.63-2.15,1.75,0,3.36.96,4.08,2.42h.22c.86-1.46,2.3-2.4,4.18-2.4,2.94,0,5.04,2.27,5.04,5.51v7.44h-2.05v-7.46c0-2.13-1.36-3.66-3.24-3.66-2,0-3.41,1.53-3.41,3.66v7.46h-2.05v-7.46c0-2.2-1.29-3.66-3.21-3.66-2.03,0-3.36,1.46-3.36,3.66v7.46h-2.05v-12.48Z"/>
    <path class="cls-1" d="m392.84,34.76h2.05v18.17h-2.05v-18.17Z"/>
    <path class="cls-1" d="m401.82,46.43l-4.45-5.98h2.2l3.41,4.65h.25l3.41-4.65h2.2l-4.45,5.98,4.7,6.5h-2.27l-3.58-5.09h-.25l-3.58,5.09h-2.27l4.7-6.5Z"/>
  </g>
  <g>
    <path class="cls-1" d="m281.52,216.52c0-.79.54-1.36,1.36-1.36s1.36.57,1.36,1.36-.57,1.36-1.36,1.36-1.36-.57-1.36-1.36Z"/>
    <path class="cls-1" d="m286.21,211.3c0-3.91,2.72-6.72,6.5-6.72,3.07,0,5.61,1.93,6.08,4.6l-2,.27c-.45-1.8-2.15-3.02-4.05-3.02-2.55,0-4.5,2-4.47,4.87,0,2.89,1.9,4.89,4.45,4.89,1.95,0,3.61-1.21,4.1-2.97l2.03.27c-.57,2.64-3.14,4.55-6.13,4.55-3.78,0-6.53-2.84-6.5-6.75Z"/>
    <path class="cls-1" d="m315.28,211.3c0,3.91-2.79,6.75-6.43,6.75-2,0-3.68-.87-4.6-2.35h-.22v7.54h-2.05v-18.17h2.05v1.9h.22c.91-1.51,2.52-2.4,4.57-2.4,3.63,0,6.45,2.82,6.45,6.72Zm-11.32,0c0,2.74,1.95,4.89,4.65,4.89s4.62-2.15,4.62-4.89-1.95-4.87-4.62-4.87-4.65,2.13-4.65,4.87Z"/>
    <path class="cls-1" d="m331.75,211.3c0,3.91-2.79,6.75-6.43,6.75-2,0-3.68-.87-4.6-2.35h-.22v7.54h-2.05v-18.17h2.05v1.9h.22c.91-1.51,2.52-2.4,4.57-2.4,3.63,0,6.45,2.82,6.45,6.72Zm-11.32,0c0,2.74,1.95,4.89,4.65,4.89s4.62-2.15,4.62-4.89-1.95-4.87-4.62-4.87-4.65,2.13-4.65,4.87Z"/>
  </g>
</svg>