<?xml version="1.0" encoding="UTF-8"?>
<svg id="Capa_1" data-name="Capa 1" xmlns="http://www.w3.org/2000/svg" viewBox="0 0 653.15 464.06">
  <defs>
    <style>
      .cls-1 {
        fill: #0c594b;
      }

      .cls-1, .cls-2 {
        stroke-width: 0px;
      }

      .cls-2 {
        fill: snow;
      }
    </style>
  </defs>
  <path class="cls-1" d="M282.54,220.56l6.89,19.95,18.1-10.85c5.55-3.33,12.18,2.23,9.87,8.28l-7.54,19.71,20.84,3.33c6.39,1.02,7.89,9.54,2.24,12.68l-18.45,10.25,13.83,15.95c4.24,4.89-.09,12.38-6.44,11.15l-20.72-4,.34,21.1c.11,6.47-8.02,9.43-12.1,4.41l-13.3-16.39-13.3,16.39c-4.08,5.03-12.21,2.07-12.1-4.41l.34-21.1-20.72,4c-6.36,1.23-10.68-6.27-6.44-11.15l13.83-15.95-18.45-10.25c-5.66-3.14-4.16-11.67,2.24-12.68l20.84-3.33-7.54-19.71c-2.31-6.05,4.32-11.61,9.87-8.28l18.1,10.85,6.89-19.95c2.11-6.12,10.77-6.12,12.88,0Z"/>
  <path class="cls-1" d="M199.71,314.38l3.54,20.81,19.64-7.74c6.02-2.37,11.65,4.2,8.38,9.78l-10.67,18.21,20.02,6.69c6.14,2.05,6.23,10.7.13,12.88l-19.88,7.1,11.03,17.99c3.38,5.52-2.11,12.2-8.18,9.95l-19.79-7.34-3.11,20.88c-.96,6.4-9.46,7.99-12.66,2.37l-10.44-18.34-15.8,13.99c-4.85,4.29-12.38.04-11.22-6.33l3.79-20.76-21.1.56c-6.47.17-9.51-7.93-4.53-12.06l16.25-13.47-16.52-13.14c-5.07-4.03-2.19-12.19,4.28-12.15l21.11.13-4.21-20.68c-1.29-6.34,6.16-10.74,11.09-6.55l16.09,13.67,10.07-18.55c3.09-5.69,11.62-4.27,12.71,2.11Z"/>
  <path class="cls-1" d="M379.42,132.4l4.21,20.68,19.37-8.38c5.94-2.57,11.78,3.81,8.69,9.5l-10.07,18.55,20.23,6.04c6.2,1.85,6.57,10.49.55,12.87l-19.64,7.74,11.61,17.62c3.56,5.4-1.71,12.26-7.85,10.21l-20.02-6.69-2.43,20.97c-.75,6.43-9.19,8.3-12.58,2.78l-11.03-17.99-15.34,14.5c-4.7,4.45-12.38.44-11.42-5.96l3.11-20.88-21.07,1.25c-6.46.38-9.77-7.61-4.92-11.9l15.8-13.99-16.94-12.59c-5.2-3.86-2.59-12.11,3.88-12.28l21.1-.56-4.89-20.53c-1.5-6.3,5.8-10.94,10.87-6.91l16.52,13.14,9.46-18.87c2.9-5.79,11.48-4.65,12.77,1.69Z"/>
  <path class="cls-1" d="M464.38,40.8l6.24,20.16,18.45-10.25c5.66-3.14,12.1,2.63,9.59,8.6l-8.18,19.46,20.72,4c6.36,1.23,7.58,9.79,1.82,12.75l-18.77,9.65,13.3,16.39c4.08,5.03-.49,12.37-6.8,10.94l-20.58-4.68-.34,21.1c-.11,6.47-8.33,9.16-12.24,4.01l-12.76-16.81-13.83,15.95c-4.24,4.89-12.27,1.67-11.95-4.8l1.03-21.08-20.84,3.33c-6.39,1.02-10.47-6.61-6.07-11.36l14.34-15.49-18.1-10.85c-5.55-3.33-3.77-11.79,2.65-12.61l20.94-2.64-6.89-19.95c-2.11-6.12,4.69-11.46,10.13-7.95l17.74,11.44,7.54-19.71c2.31-6.05,10.96-5.76,12.87.42Z"/>
  <g>
    <path class="cls-2" d="M249.99,285.59c0-1.29.89-2.21,2.21-2.21s2.21.93,2.21,2.21-.93,2.21-2.21,2.21-2.21-.93-2.21-2.21Z"/>
    <path class="cls-2" d="M257.92,282.13c0-3.58,3.06-6.24,9.1-6.92l5.63-.68v-.81c0-2.74-1.97-4.51-5.31-4.51-3.06,0-5.07,1.49-5.03,4.03h-3.38c0-4.31,3.34-7.04,8.45-7.04s8.61,2.98,8.61,7.61v13.48h-3.34v-2.98h-.36c-1.45,2.33-3.82,3.62-7.08,3.62-4.39,0-7.29-2.29-7.29-5.8ZM272.65,279.19v-1.81l-5.63.64c-4.15.52-5.76,2.13-5.76,4.03s1.69,3.1,4.43,3.1c4.15,0,6.96-2.54,6.96-5.96Z"/>
    <path class="cls-2" d="M280.75,276.85c0-6.2,4.51-10.71,10.79-10.71s10.67,4.51,10.67,10.75c0,.4,0,.88-.04,1.33h-17.99c.48,4.11,3.46,6.84,7.61,6.84,3.02,0,5.68-1.53,6.96-3.94l2.78,1.41c-1.65,3.46-5.31,5.55-9.82,5.55-6.36,0-10.95-4.71-10.95-11.23ZM298.7,275.28c-.6-3.66-3.46-6.12-7.33-6.12s-6.6,2.46-7.16,6.12h14.49Z"/>
  </g>
  <g>
    <path class="cls-2" d="M171.24,379.13c0-1.29.89-2.21,2.21-2.21s2.21.93,2.21,2.21-.93,2.21-2.21,2.21-2.21-.93-2.21-2.21Z"/>
    <path class="cls-2" d="M180.78,351.23h3.34v11.83h.4c1.45-2.13,3.7-3.38,6.4-3.38,5.15,0,8.45,3.74,8.45,8.94v12.2h-3.34v-12.2c0-3.46-2.05-5.92-5.55-5.92s-6.36,2.62-6.36,6.24v11.88h-3.34v-29.59Z"/>
  </g>
  <g>
    <path class="cls-2" d="M334.68,195.16c0-1.01.7-1.74,1.74-1.74s1.74.73,1.74,1.74-.73,1.74-1.74,1.74-1.74-.73-1.74-1.74Z"/>
    <path class="cls-2" d="M340.69,188.49c0-5,3.48-8.61,8.32-8.61,3.92,0,7.18,2.47,7.78,5.89l-2.56.35c-.57-2.31-2.75-3.86-5.19-3.86-3.26,0-5.76,2.56-5.73,6.23,0,3.7,2.44,6.27,5.7,6.27,2.5,0,4.62-1.55,5.25-3.8l2.59.35c-.73,3.39-4.02,5.82-7.85,5.82-4.84,0-8.36-3.64-8.32-8.64Z"/>
    <path class="cls-2" d="M377.91,188.49c0,5-3.58,8.64-8.23,8.64-2.56,0-4.71-1.11-5.89-3.01h-.29v9.65h-2.63v-23.26h2.63v2.44h.29c1.17-1.93,3.23-3.07,5.85-3.07,4.65,0,8.26,3.61,8.26,8.61ZM363.41,188.49c0,3.51,2.5,6.27,5.95,6.27s5.92-2.75,5.92-6.27-2.5-6.23-5.92-6.23-5.95,2.72-5.95,6.23Z"/>
    <path class="cls-2" d="M398.98,188.49c0,5-3.58,8.64-8.23,8.64-2.56,0-4.71-1.11-5.89-3.01h-.29v9.65h-2.63v-23.26h2.63v2.44h.29c1.17-1.93,3.23-3.07,5.85-3.07,4.65,0,8.26,3.61,8.26,8.61ZM384.49,188.49c0,3.51,2.5,6.27,5.95,6.27s5.92-2.75,5.92-6.27-2.5-6.23-5.92-6.23-5.95,2.72-5.95,6.23Z"/>
  </g>
  <g>
    <path class="cls-2" d="M444.67,105.89c0-1.29.89-2.21,2.21-2.21s2.21.93,2.21,2.21-.93,2.21-2.21,2.21-2.21-.93-2.21-2.21Z"/>
    <path class="cls-2" d="M449.5,87.25h3.42l6.48,17.67h.36l6.52-17.67h3.42l-7.73,20.33h-4.75l-7.73-20.33Z"/>
  </g>
  <path class="cls-1" d="M156.54,184.56l6.89,19.95,18.1-10.85c5.55-3.33,12.18,2.23,9.87,8.28l-7.54,19.71,20.84,3.33c6.39,1.02,7.89,9.54,2.24,12.68l-18.45,10.25,13.83,15.95c4.24,4.89-.09,12.38-6.44,11.15l-20.72-4,.34,21.1c.11,6.47-8.02,9.43-12.1,4.41l-13.3-16.39-13.3,16.39c-4.08,5.03-12.21,2.07-12.1-4.41l.34-21.1-20.72,4c-6.36,1.23-10.68-6.27-6.44-11.15l13.83-15.95-18.45-10.25c-5.66-3.14-4.16-11.67,2.24-12.68l20.84-3.33-7.54-19.71c-2.31-6.05,4.32-11.61,9.87-8.28l18.1,10.85,6.89-19.95c2.11-6.12,10.77-6.12,12.88,0Z"/>
  <path class="cls-1" d="M73.71,278.38l3.54,20.81,19.64-7.74c6.02-2.37,11.65,4.2,8.38,9.78l-10.67,18.21,20.02,6.69c6.14,2.05,6.23,10.7.13,12.88l-19.88,7.1,11.03,17.99c3.38,5.52-2.11,12.2-8.18,9.95l-19.79-7.34-3.11,20.88c-.96,6.4-9.46,7.99-12.66,2.37l-10.44-18.34-15.8,13.99c-4.85,4.29-12.38.04-11.22-6.33l3.79-20.76-21.1.56c-6.47.17-9.51-7.93-4.53-12.06l16.25-13.47-16.52-13.14c-5.07-4.03-2.19-12.19,4.28-12.15l21.11.13-4.21-20.68c-1.29-6.34,6.16-10.74,11.09-6.55l16.09,13.67,10.07-18.55c3.09-5.69,11.62-4.27,12.71,2.11Z"/>
  <path class="cls-1" d="M253.42,96.4l4.21,20.68,19.37-8.38c5.94-2.57,11.78,3.81,8.69,9.5l-10.07,18.55,20.23,6.04c6.2,1.85,6.57,10.49.55,12.87l-19.64,7.74,11.61,17.62c3.56,5.4-1.71,12.26-7.85,10.21l-20.02-6.69-2.43,20.97c-.75,6.43-9.19,8.3-12.58,2.78l-11.03-17.99-15.34,14.5c-4.7,4.45-12.38.44-11.42-5.96l3.11-20.88-21.07,1.25c-6.46.38-9.77-7.61-4.92-11.9l15.8-13.99-16.94-12.59c-5.2-3.86-2.59-12.11,3.88-12.28l21.1-.56-4.89-20.53c-1.5-6.3,5.8-10.94,10.87-6.91l16.52,13.14,9.46-18.87c2.9-5.79,11.48-4.65,12.77,1.69Z"/>
  <path class="cls-1" d="M338.38,4.8l6.24,20.16,18.45-10.25c5.66-3.14,12.1,2.63,9.59,8.6l-8.18,19.46,20.72,4c6.36,1.23,7.58,9.79,1.82,12.75l-18.77,9.65,13.3,16.39c4.08,5.03-.49,12.37-6.8,10.94l-20.58-4.68-.34,21.1c-.11,6.47-8.33,9.16-12.24,4.01l-12.76-16.81-13.83,15.95c-4.24,4.89-12.27,1.67-11.95-4.8l1.03-21.08-20.84,3.33c-6.39,1.02-10.47-6.61-6.07-11.36l14.34-15.49-18.1-10.85c-5.55-3.33-3.77-11.79,2.65-12.61l20.94-2.64-6.89-19.95c-2.11-6.12,4.69-11.46,10.13-7.95l17.74,11.44,7.54-19.71c2.31-6.05,10.96-5.76,12.87.42Z"/>
  <path class="cls-1" d="M321.54,349.56l6.89,19.95,18.1-10.85c5.55-3.33,12.18,2.23,9.87,8.28l-7.54,19.71,20.84,3.33c6.39,1.02,7.89,9.54,2.24,12.68l-18.45,10.25,13.83,15.95c4.24,4.89-.09,12.38-6.44,11.15l-20.72-4,.34,21.1c.11,6.47-8.02,9.43-12.1,4.41l-13.3-16.39-13.3,16.39c-4.08,5.03-12.21,2.07-12.1-4.41l.34-21.1-20.72,4c-6.36,1.23-10.68-6.27-6.44-11.15l13.83-15.95-18.45-10.25c-5.66-3.14-4.16-11.67,2.24-12.68l20.84-3.33-7.54-19.71c-2.31-6.05,4.32-11.61,9.87-8.28l18.1,10.85,6.89-19.95c2.11-6.12,10.77-6.12,12.88,0Z"/>
  <path class="cls-1" d="M418.42,261.4l4.21,20.68,19.37-8.38c5.94-2.57,11.78,3.81,8.69,9.5l-10.07,18.55,20.23,6.04c6.2,1.85,6.57,10.49.55,12.87l-19.64,7.74,11.61,17.62c3.56,5.4-1.71,12.26-7.85,10.21l-20.02-6.69-2.43,20.97c-.75,6.43-9.19,8.3-12.58,2.78l-11.03-17.99-15.34,14.5c-4.7,4.45-12.38.44-11.42-5.96l3.11-20.88-21.07,1.25c-6.46.38-9.77-7.61-4.92-11.9l15.8-13.99-16.94-12.59c-5.2-3.86-2.59-12.11,3.88-12.28l21.1-.56-4.89-20.53c-1.5-6.3,5.8-10.94,10.87-6.91l16.52,13.14,9.46-18.87c2.9-5.79,11.48-4.65,12.77,1.69Z"/>
  <path class="cls-1" d="M503.38,169.8l6.24,20.16,18.45-10.25c5.66-3.14,12.1,2.63,9.59,8.6l-8.18,19.46,20.72,4c6.36,1.23,7.58,9.79,1.82,12.75l-18.77,9.65,13.3,16.39c4.08,5.03-.49,12.37-6.8,10.94l-20.58-4.68-.34,21.1c-.11,6.47-8.33,9.16-12.24,4.01l-12.76-16.81-13.83,15.95c-4.24,4.89-12.27,1.67-11.95-4.8l1.03-21.08-20.84,3.33c-6.39,1.02-10.47-6.61-6.07-11.36l14.34-15.49-18.1-10.85c-5.55-3.33-3.77-11.79,2.65-12.61l20.94-2.64-6.89-19.95c-2.11-6.12,4.69-11.46,10.13-7.95l17.74,11.44,7.54-19.71c2.31-6.05,10.96-5.76,12.87.42Z"/>
  <path class="cls-1" d="M635.09,91.31l-8.18,19.46,20.72,4c6.36,1.23,7.58,9.79,1.82,12.75l-18.77,9.65,13.3,16.39c4.08,5.03-.49,12.37-6.8,10.94l-20.58-4.68-.34,21.1c-.11,6.47-8.33,9.16-12.24,4.01l-12.76-16.81-13.83,15.95c-4.24,4.89-12.27,1.67-11.95-4.8l1.03-21.08-20.84,3.33c-6.39,1.02-10.47-6.61-6.07-11.36l14.34-15.49-18.1-10.85c-5.55-3.33-3.77-11.79,2.65-12.61l20.94-2.64-6.89-19.95c-2.11-6.12,4.69-11.46,10.13-7.95l17.74,11.44,7.54-19.71c2.31-6.05,10.96-5.76,12.87.42l6.24,20.16,18.45-10.25c5.66-3.14,12.1,2.63,9.59,8.6Z"/>
  <g>
    <path class="cls-2" d="M302.16,67.74c0-1.01.7-1.74,1.74-1.74s1.74.73,1.74,1.74-.73,1.74-1.74,1.74-1.74-.73-1.74-1.74Z"/>
    <path class="cls-2" d="M309.66,53.08h2.53v2.12h.32c.89-1.65,2.56-2.75,4.65-2.75,2.25,0,4.3,1.23,5.22,3.1h.28c1.11-1.87,2.94-3.07,5.35-3.07,3.77,0,6.46,2.91,6.46,7.06v9.53h-2.63v-9.56c0-2.72-1.74-4.68-4.15-4.68-2.56,0-4.37,1.96-4.37,4.68v9.56h-2.63v-9.56c0-2.82-1.65-4.68-4.11-4.68-2.59,0-4.3,1.87-4.3,4.68v9.56h-2.63v-15.98Z"/>
    <path class="cls-2" d="M339.03,45.8h2.63v23.26h-2.63v-23.26Z"/>
    <path class="cls-2" d="M350.51,60.74l-5.7-7.66h2.82l4.37,5.95h.32l4.37-5.95h2.82l-5.7,7.66,6.01,8.32h-2.91l-4.59-6.52h-.32l-4.59,6.52h-2.91l6.01-8.32Z"/>
  </g>
  <g>
    <path class="cls-2" d="M226.74,161.32c0-1.29.89-2.21,2.21-2.21s2.21.93,2.21,2.21-.93,2.21-2.21,2.21-2.21-.93-2.21-2.21Z"/>
    <path class="cls-2" d="M234.39,152.83c0-6.36,4.43-10.95,10.59-10.95,4.99,0,9.14,3.14,9.9,7.49l-3.26.44c-.72-2.94-3.5-4.91-6.6-4.91-4.15,0-7.33,3.26-7.29,7.93,0,4.71,3.1,7.97,7.25,7.97,3.18,0,5.88-1.97,6.68-4.83l3.3.44c-.93,4.31-5.11,7.41-9.98,7.41-6.16,0-10.63-4.63-10.59-10.99Z"/>
  </g>
  <g>
    <path class="cls-2" d="M124.01,249.16c.02-1.29.92-2.2,2.25-2.18,1.29.02,2.2.96,2.18,2.25s-.96,2.2-2.25,2.18c-1.33-.02-2.2-.96-2.18-2.25Z"/>
    <path class="cls-2" d="M155.34,241.18c-.1,6.36-4.73,10.91-10.64,10.81-3.26-.05-5.97-1.5-7.42-3.94h-.36s-.2,12.27-.2,12.27l-3.34-.05.48-29.58,3.34.05-.05,3.1h.36c1.53-2.42,4.17-3.83,7.51-3.78,5.92.1,10.43,4.76,10.33,11.12ZM136.91,240.88c-.07,4.47,3.05,8.02,7.44,8.09,4.35.07,7.58-3.38,7.66-7.85.07-4.55-3.05-7.98-7.4-8.05-4.38-.07-7.62,3.34-7.7,7.8Z"/>
    <path class="cls-2" d="M158.18,259.79l.05-2.94c.92.38,1.92.63,2.69.65,3.02.05,3.88-3.16,5.13-6l-8.72-20.43,3.5.06,6.7,16.01h.4s6.21-15.79,6.21-15.79l3.58.06-8.39,20.52c-1.88,4.48-3.56,8.64-7.95,8.57-1.01-.02-2.29-.28-3.21-.7Z"/>
  </g>
  <g>
    <path class="cls-2" d="M46.47,343.13c0-1.29.89-2.21,2.21-2.21s2.21.93,2.21,2.21-.93,2.21-2.21,2.21-2.21-.93-2.21-2.21Z"/>
    <path class="cls-2" d="M55.13,337.93h3.22c.04,2.9,2.29,4.87,6.12,4.87,3.06,0,5.03-1.29,5.03-3.42,0-2.66-2.78-2.86-5.84-3.26-3.78-.44-8.17-1.45-8.17-6.08,0-3.95,3.3-6.36,8.17-6.36s8.53,2.7,8.53,6.88h-3.26c-.04-2.5-2.17-4.07-5.31-4.07-2.94,0-4.95,1.33-4.95,3.42,0,2.54,2.74,2.74,5.76,3.1,3.82.48,8.21,1.45,8.21,6.32,0,3.99-3.1,6.28-8.29,6.28-5.84,0-9.22-2.86-9.22-7.69Z"/>
  </g>
  <g>
    <path class="cls-2" d="M376.64,323.77c0-.99.68-1.7,1.7-1.7s1.7.71,1.7,1.7-.71,1.7-1.7,1.7-1.7-.71-1.7-1.7Z"/>
    <path class="cls-2" d="M383.27,319.79h2.47c.03,2.22,1.76,3.73,4.68,3.73,2.34,0,3.85-.99,3.85-2.62,0-2.03-2.13-2.19-4.47-2.5-2.9-.34-6.26-1.11-6.26-4.65,0-3.02,2.53-4.87,6.26-4.87s6.53,2.06,6.53,5.27h-2.5c-.03-1.91-1.67-3.11-4.07-3.11-2.25,0-3.79,1.02-3.79,2.62,0,1.94,2.1,2.1,4.41,2.37,2.93.37,6.29,1.11,6.29,4.84,0,3.05-2.37,4.81-6.35,4.81-4.47,0-7.06-2.19-7.06-5.89Z"/>
    <path class="cls-2" d="M414.65,325.06h-2.56v-2.13h-.31c-1.08,1.7-2.84,2.68-4.87,2.68-3.98,0-6.47-2.87-6.47-6.84v-9.28h2.56v9.28c0,2.65,1.54,4.53,4.22,4.53s4.87-2,4.87-4.75v-9.06h2.56v15.57Z"/>
    <path class="cls-2" d="M418.59,317.08c0-4.75,3.45-8.2,8.26-8.2s8.17,3.45,8.17,8.23c0,.31,0,.68-.03,1.02h-13.78c.37,3.14,2.65,5.24,5.83,5.24,2.31,0,4.35-1.17,5.33-3.02l2.13,1.08c-1.26,2.65-4.07,4.25-7.52,4.25-4.87,0-8.38-3.61-8.38-8.6ZM432.34,315.88c-.46-2.8-2.65-4.68-5.61-4.68s-5.05,1.88-5.49,4.68h11.1Z"/>
  </g>
</svg>